<?xml version="1.0" encoding="utf-8"?>
<!-- Generator: Adobe Illustrator 24.3.0, SVG Export Plug-In . SVG Version: 6.00 Build 0)  -->
<svg version="1.1" id="Livello_1" xmlns="http://www.w3.org/2000/svg" xmlns:xlink="http://www.w3.org/1999/xlink" x="0px" y="0px"
	 viewBox="0 0 277.53 277.53" style="enable-background:new 0 0 277.53 277.53;" xml:space="preserve">
<style type="text/css">
	.st0{fill:#201E20;}
	.st1{fill:#3A3637;}
	.st2{fill:#504E4D;}
	.st3{fill:#272628;}
	.st4{fill:#73747B;}
	.st5{fill:#C66523;}
	.st6{fill:#FFFFFF;}
	.st7{font-family:'ArialMT';}
	.st8{font-size:76.8914px;}
</style>
<g>
	<g>
		<g>
			<g>
				<g>
					<path class="st0" d="M47.91,206.94c-2.17,1.31-4.15,1.24-5.74-0.9c-0.64-0.86-1.58-0.59-2.36-0.89
						c0.28-0.91,0.95-1.47,1.73-1.92c0.59-0.34,1.85,0.34,1.76-0.97c-0.06-0.89-0.64-1.84-1.5-2.09c-2.81-0.81-2.15-2.17-0.6-3.59
						c-0.92-0.97-2.52,0.14-2.91-1.21c-0.5-1.76,1.87-0.5,2.01-1.72c0.01-0.09,0.03-0.18,0.05-0.26c2.77,1.63,5.79,2.63,8.76,3.81
						c5.53,2.19,11.13,4.09,16.88,5.56c1.4,0.36,2.83,0.57,4.19-0.18c0.45,0,0.92,0.08,1.34-0.01c7.51-1.67,14.12,0.37,20.34,4.59
						c2.85,1.94,5.97,3.49,8.97,5.21c5.5,4.06,11.37,7.35,17.83,9.79c13.6,5.15,27.63,7.55,42.1,7.88c3.26,0.07,6.37-1.23,9.64-1.02
						c3.48-0.17,6.69-0.84,8.83-4.04c0.58-0.87,1.21-1.66,0.81-2.68c-0.5-1.25-1.73-0.76-2.62-0.72c-8.73,0.46-17.34-1.02-26-1.63
						c-0.59-0.82-1.44-0.51-2.22-0.51c-0.89-0.01-1.77-0.02-2.66-0.03c-0.88-0.84-1.79-0.79-2.71-0.07
						c-0.53-0.01-1.07-0.01-1.6-0.02c-0.11-0.78-0.65-0.89-1.33-1.04c-3.48-0.74-7.01-1.33-10.39-2.4
						c-9.22-2.91-17.76-7.42-26.47-11.55c-2.8-1.33-5.25-3.45-8.44-3.9l0,0c-0.34-1.52-1.7-1.29-2.74-1.59
						c-0.58-0.04-1.21,0.03-1.57-0.6c-0.2-1.27-1.19-1.44-2.2-1.59c-0.17-0.01-0.34-0.03-0.5-0.05c-0.09-1.09-0.87-1.07-1.66-1.04
						c-0.17-0.01-0.34-0.02-0.51-0.04c-0.08-1.1-0.86-1.08-1.65-1.05c-0.17-0.01-0.34-0.02-0.51-0.04
						c-0.62-1.89-2.44-1.63-3.83-2.12c-0.17,0-0.34-0.02-0.51-0.03c-0.03-0.71-0.4-1.07-1.12-1.05c-0.52-0.03-1.05-0.05-1.57-0.08
						c-0.07-0.7-0.44-1.04-1.16-0.99c-2.14-0.38-4.06-1.37-6.06-2.14c-4.39-1.68-8.64-3.82-13.36-4.51
						c-0.72-1.76-2.46-1.57-3.87-2.03c-0.52-0.03-1.05-0.05-1.57-0.08c-0.11-1.07-0.89-1.05-1.67-1.02
						c-0.53-0.03-1.05-0.06-1.58-0.09c-0.07-0.68-0.46-1-1.13-1c-0.91-0.53-1.83-1.06-2.74-1.59c0.48-0.8,0.55-1.67,0.61-2.59
						c0.24-3.93,2.06-6.1,5.87-7.12c3.2-0.86,3.79-0.54,5.05,2.64c0.27,0.68,0.69,1.32,1.5,1.38c0.27,0.02,0.68-0.27,0.82-0.54
						c0.37-0.67-0.06-1.37-0.48-1.69c-2.11-1.62-2.05-3.86-1.94-6.12c0.11-2.13,0.34-4.21-2.79-4.27c-0.63-0.01-1.53-0.51-1.32-1.41
						c0.21-0.95,0.98-0.66,1.75-0.56c2.97,0.39,5.92,0.49,8.59-1.31c1.78-1.2,3.78-0.91,5.38,0.12c1.79,1.14,3.37,1.8,5.11,0.33
						c0.88,0.79-1.03,1.5,0.24,2.15c0.99,0.51,1.2-0.33,1.69-0.8c0.44-0.42,1.06-0.65,1.53-1.03c0.97-0.78,1.87,0.39,2.81,0.05
						c0,0.24,0.04,0.49-0.02,0.72c-0.32,1.23-1.44,0.21-2.01,0.71c-0.11,0.1-0.13,0.31-0.27,0.69c3,2.36,6.34,2.82,10.16,1.91
						c-1.01-1.92-2.76-2.56-4.2-3.59c-1.87-1.34-3.68-2.77-5.52-4.16c0.39-0.07,0.79-0.14,1.18-0.2c-0.39-0.33-0.78-0.65-1.17-0.98
						c-0.31-0.14-0.62-0.27-0.92-0.41c-0.31-0.44-0.73-0.6-1.25-0.52l-0.02-0.01c-0.23-0.18-0.46-0.35-0.7-0.53l-0.14-0.02
						c-0.26-0.96-1.17-1.18-1.88-1.63c-1.48-1.89-2.61-4.71-4.54-5.44c-2.7-1.03-4.24-2.95-5.91-4.79
						c-4.43-4.89-9.32-9.43-12.38-15.47c-1.09-2.14-1.65-4.66-3.72-6.24c-1.47-1.97-0.98-4.3-1.19-6.49c1.04,0.56,1.17,2,2.83,2.67
						c-0.67-1.48-0.13-2.78-1.47-3.88c-0.47-0.38-1.69-1.48-0.79-2.79c1.91-2.78,1.9-6.51,4.37-9.03c1.16-1.59,2.98-2.42,4.34-3.78
						c1.65-0.21,2.64-1.22,3.31-2.65c1.22-0.52,2.78-0.54,3.2-2.22c0.9-0.55,1.8-1.09,2.7-1.64c4.05-1.08,7.74-3.19,11.88-4.07
						c5.91-1.26,11.4,0.91,14.59,6.01c3,4.79,3.11,10.38,4.51,15.62c0.48,1.79-0.88,3.78,0.76,5.34c-1.43,0.84-1.4,1.39,0.3,1.71
						c0.31,0.06,0.28,0.5,0.06,0.65c-2.19,1.5-1.47,4.61-3.48,6.22c-0.53,0.42-0.57,1.18-0.14,1.73c0.46,0.59,1.17,0.46,1.74,0.18
						c2.42-1.21,5.03-1.81,7.65-2.38c1.04-0.23,1.71-0.81,2.23-1.76c0.7-1.28,1.32-3.15,2.42-3.55c2.43-0.87,2.96-3.05,4.11-4.72
						c1.91-2.76,1.42-4.5-1.31-6.91c0.11-0.34,0.23-0.68,0.34-1.02c0.84-0.14,0.84-0.58,0.63-1.31c-0.45-1.59,0.4-1.37,1.36-0.87
						c0.71,1.7,1.15,3.76,3.81,2.93c0.16,1.36,0.96,1.88,2.28,1.7c0.38,0.06,0.76,0.13,1.13,0.19c0.35,0.67,0.91,0.56,1.48,0.39
						c2.8,0.43,5.58-0.67,8.38-0.17c1.12,0.75,2.45-0.03,3.64,0.47c-0.05,0.67-1.22,0.51-1.01,1.35c-3.8,0.69-7.16,2.59-10.67,4.03
						c-3.43,1.41-7.03,2.77-9.07,6.28c-1.02,0.23-2.21,0.29-1.99,1.85c-0.56,1-1.23,0.82-2.24,0.55c-1.93-0.53-4.75,1.24-5.59,3.38
						c-0.9,2.3-0.17,4.25,1.69,5.76c2.16,1.75,3.77,1.74,6.09-0.14c-1.27,0-2.32,0-3.36,0c1.55-0.29,2.63-1.25,3.76-2.12l0.17,0.14
						c2.66,0.69,5.04-0.23,7.38-1.32l0.15,0.2c-0.12,0.64-1.22,0.74-0.98,1.47c0.29,0.87,1.2,0.66,1.86,0.62
						c2.95-0.15,5.87-0.41,8.73-1.32c2.42-0.77,4.88-1.65,7.54-1.56c-1.73,1.44-4.12,2.19-3.69,5.07c-1.86,0.72-2.05,2.56-2.73,4.07
						c-0.65,0.44-1.34,0.44-2.05,0.18c-0.13-2.53-0.6-2.88-1.07-2.12c-1.43,2.32-3.26,1.58-5.18,1.2c-0.57-0.11-1.14,0.09-1.75,0.4
						c-1.34,0.68-2.96,0.29-4.45,0.86c-0.74,0.28-0.37-1.16-0.69-1.74c-0.48-0.85-1.19-0.42-1.88-0.45
						c-1.79-0.06-2.66,1.69-4.25,1.97c-2.44,0.43-3.88,2.29-5.49,3.9c-0.79,0.79-0.35,1.89,0.44,1.88c2.7-0.02,4.83,1.93,7.54,1.85
						c1.8-0.05,3.62-0.08,5.36,0.98c1.29,0.79,2.96,1.19,4.19-1.01c-0.52,1.52-0.14,2.09,1.01,2.82c3.49,2.22,7.75,2.8,11.02,5.33
						c2.52,1.95,5.79,2.07,8.37,3.91c5.93,4.21,11.99,8.21,17.98,12.33c1.09,0.75,2.21,1.19,3.53,1.07c0.53,0.37,1.07,0.75,1.6,1.12
						c0.18,0.18,0.36,0.36,0.53,0.54c1.38,1.56,2.42,3.74,5.75,2.87c-1.98-1.6-3.77-2.38-5.69-2.94c-0.18-0.18-0.36-0.36-0.53-0.54
						c-0.09-1.08-0.87-1.07-1.66-1.06c0-0.13,0.01-0.26,0.02-0.39c1.81-0.17,3.68,0.11,5.41-0.66l-0.01,0.16
						c0.29,1.02,1.04,1.4,1.99,1.19c1-0.22,1.41-0.95,1.19-1.98c0-0.16,0.01-0.32,0.04-0.48l0.03-0.02
						c2.19-0.49-0.14-1.89,0.54-2.68c1.08-1.27,2.17-2.54,3.25-3.81c0.28-0.02,0.56-0.03,0.83-0.05c0.86,1.32,2.17,1.4,3.55,1.32
						c2.95-0.18,5.9-0.35,9.04-0.54c-0.56,1.26-0.96,2.15-1.35,3.03c-0.06,0.37-0.12,0.74-0.18,1.11c-0.84-0.49-0.15-2.06-1.63-2.18
						c-1.93-0.16-3.74,0.4-5.57,0.78c-0.78,0.16-1.25,1.17-0.52,1.64c0.68,0.45,0.4,2.48,1.96,1.41c1.61-1.1,2.86-0.24,4.18,0.52
						c0.03,0.39,0.06,0.77,0.09,1.16c-0.05,0.5-0.1,1.01-0.16,1.51c-1.06,0.26-2.08,0.73-3.21,0.56c-2.13-1.43-4.01-3.31-6.68-3.74
						c-0.54-0.09-1.17-0.76-1.65,0.13c-1.2,2.21-2.37,4.41-2.64,6.98c-0.07,0.62-0.49,1.25,0.18,1.71c3.02,2.06,5.2,5.29,8.92,6.39
						c0.79,0.23,1.53,0.82,1.51,1.65c-0.01,0.65-0.86,0.87-1.48,0.92c-3.07,0.28-6.22,1.01-9.21,0.62c-2.7-0.35-2.9,1.02-3.19,2.88
						c-0.71-0.55-1.08-1.42-1.9-1.22c-1.57,0.38-2.7,0.57-1.96-1.74c0.19-0.59-0.61-1.06-1.35-0.77c-0.31,0.12-1.24-0.08-0.77,0.61
						c1.16,1.71-0.44,1.57-1.18,1.79c-2.31,0.69-4.98-1.27-7.14,0.91c-0.05,0.05-0.57-0.18-0.61-0.34c-0.34-1.22-1.33-0.94-2.2-1.07
						c-4.87-0.72-9.74-1.39-14.58-2.23c-13.58-2.33-26.18-7.33-38-14.33c-1.01-0.6-1.95-1.01-3.03-0.57
						c-1.16,0.47-2.01,0.33-2.89-0.6c-0.72-0.76-1.8-0.74-2.81-0.67c-0.06-0.56-0.2-1.06-0.91-1c-0.12,0.01-0.34,0.21-0.32,0.28
						c0.15,0.66,0.72,0.65,1.23,0.72c0.13,0.33,0.47,0.77,0.36,0.99c-1.05,2.09,0.27,3.22,1.61,4.45c0.76,0.7,2.16,0.7,2.34,2.05
						c0.65,4.97,5.65,5.8,8.55,8.54c1.9,1.8,4.22,4.12,7.46,4.24c0.4,0.02,0.73,0.96,1.17,1.4c1.71,1.66,3.03,4.15,5.89,3.75
						c4-0.56,6.9,1.95,10.08,3.46c1.6,0.76,2.92,0.61,4.43,0.8c2.82,0.34,2.37-1.56,3.31-2.73c1.03-1.28,1.77-3.94,4.22-2.59
						c2.26,1.24,4.19,3.07,6.33,4.54c2.14,1.47,3.96,3.97,7.02,3.02c2.14-0.67,4.31-0.93,6.44-0.64c2.84,0.39,5.38-0.92,8.1-0.91
						c2.17,0.01,4.43,1.03,6.36-0.88c0.21-0.21,0.95-0.16,1.25,0.05c1.73,1.23,2.88,1.13,3.66-1.09c0.33-0.94,1.45-1.46,2.49-1.22
						c1.34,0.31,0.74,1.34,0.58,2.2c-0.16,0.89,0.12,1.62,1.08,1.9c0.65,0.19,1.63,0.07,1.43,1.16c-0.16,0.88-0.52,1.76-1.51,2.08
						c-0.59,0.19-1.31,0.05-1.73,0.63c-0.19,0.26-0.28,0.65-0.27,0.98c0,0.16,0.46,0.47,0.52,0.43c1.14-0.76,3.07-0.23,3.6-1.86
						c0.74-2.26,2.59-2.53,4.45-2.77c2.22-0.29,4.36-1.09,6.38-1.81c1.99-0.71,3.94-1.57,6.03-2.12c1.88-0.49,4.05-0.84,5.44-2.03
						c2.35-2.01,5.13-2.14,8.01-3c-1.81,1.73-0.11,2.89,0.62,3.79c0.72,0.89,1.74-0.25,2.58-0.72c1.44-0.81,1.59-1.85,0.65-3.12
						c-0.58-0.79-0.35-1.6,0.47-1.66c1.88-0.14,2.78-1.57,3.95-2.62c1.94-1.73,3.35-0.07,4.25,1.02c1.14,1.38-1.01,1.39-1.58,2.09
						c-0.54,0.66-1.6,0.87-1.97,1.77c-0.11,0.28-0.03,0.68,0.09,0.98c0.04,0.1,0.59,0.16,0.68,0.05c1.66-1.98,3.29-1.17,4.94,0
						c0.4,0.28,0.87,0.23,1.25-0.11c1.24-1.12,2.79-0.99,4.29-1.29c1.61-0.33,3.28-0.1,4.87-1.35c2.02-1.59,3.02-0.83,3.18,1.85
						c0.04,0.73,0.18,1.37,0.53,2.05c1.49,2.9,1.48,4.1-0.23,6.58c-0.66,0.97-1.01,2.41-2.67,2.36c-1.11-0.04-2.19,0.36-1.79,1.69
						c0.46,1.53,1.54,0.57,2.43,0.29c1.38-0.43,3.65-0.95,3.63,0.71c-0.03,3.53,3.46,6.63,1.1,10.36c-0.49,0.77,0.13,1.53,0.77,2.1
						c-0.01,0.37-0.02,0.74-0.02,1.1c-0.63-0.01-1.09,0.08-1.56,0.71c-3.39,4.5-8.3,6.34-13.57,7.36c-1.33,0.26-2.76,0.13-3.55,1.43
						c-0.9,1.47,0.91,1.88,1.29,2.87c0.06,0.16,0.07,0.35,0.11,0.52c-0.67,0.52-1.46,0.59-2.27,0.59l-0.14-0.07l-0.12,0.11
						c-1.11,0.47-2.22,0.93-3.33,1.4c0.01-0.62,0.02-1.19,0.35-1.8c1.61-3,1.36-3.49-1.88-3.35c-2.48,0.11-4.86,0.94-7.28,1.42
						c-7.39,1.47-14.76,2.91-22.33,2.89c-1.9,0-4.4-0.84-4.2,2.62c0.01,0.18-0.34,0.38-0.53,0.58c-1.62,2.04-3.74,3.47-5.87,4.91
						c-1.64,1.1-3.45-0.37-5.2,0.55c-2.1,1.11-3.03-0.74-3.95-2.19c-0.54-0.85-0.91-0.5-1.66-0.14c-2.89,1.38-5.69,3.43-9.11,2.76
						c-2.12-0.42-4.17-0.56-6.3-0.37c-1.8,0.17-3.14-0.57-3.74-2.38c-0.52-1.55-1.54-1.99-3.13-1.56c-1.56,0.42-3.17,0.7-4.77,0.94
						c-2.59,0.38-5.25,1.49-7.63-0.75c-0.29-0.27-1.04-0.12-1.57-0.06c-2.02,0.22-3.3-0.71-3.9-2.56c-0.57-1.77-1.61-2.35-3.45-1.92
						c-3.29,0.76-6.42-0.06-9.51-1.22c-1.2-0.45-1.58-1.45-1.94-2.44c-0.52-1.41-1.38-1.82-2.87-1.76
						c-3.77,0.15-5.41-0.86-6.49-4.24c-0.47-1.48-1.31-1.54-2.4-1.42c-2.66,0.29-4.23-1.03-4.63-3.46
						c-0.64-3.92-3.41-5.63-6.58-7.12c-1.15-0.54-1.78-0.28-2.33,0.85c-0.66,1.34-5.27,3.6-6.58,3.38c-1.24-0.2-0.96-1.37-1.32-2.11
						c-0.38-0.78,0.22-2.34-1.28-2.19c-1.35,0.14-2.99,0.34-3.34,2.19c-0.45,2.46-1.71,4.22-4.16,5.03
						c-0.08,0.03-0.14,0.12-0.21,0.16c-2.29,1.32-7.83-0.86-8.58-3.37c-0.05-0.18-0.1-0.36-0.15-0.53c-0.3-0.26-0.6-0.53-0.9-0.79
						c-0.13-0.5-0.11-1.24-0.43-1.45c-2.13-1.39-3.49,2.87-5.78,0.85c-0.11,0.41-0.21,0.82-0.32,1.24c-2.69-0.3-1.96-2.72-2.64-4.27
						c0.66-1.32-0.19-1.69-1.17-1.46C49.62,205.68,48.37,205.67,47.91,206.94z M48.99,116.45c-0.01,0.74,0.37,1.08,1.09,1.07
						c0.42,1.58,1.15,2.83,3.38,3.17c-0.97-1.66-1.79-2.82-3.39-3.16C50.06,116.83,49.73,116.43,48.99,116.45
						c-0.06-0.65-0.19-1.27-0.93-1.46c-0.32-0.08-0.53,0.15-0.47,0.46C47.73,116.21,48.34,116.37,48.99,116.45z M81.5,149.13
						c2.41-1,1.68-2.76,1.09-4.48c-1.44-2.3-1.88-5.52-5.78-6.18c2.77,2.87,2.77,2.87,1.45,4.33c-0.56-0.21-2.69,1.33-1.24-1.13
						c0.4-0.68-0.24-1.34-0.66-1.57c-1.2-0.66-1.87-1.85-2.96-2.6c-0.4-1.06-1.31-1.65-2.14-2.3c-0.71-0.55-1.47-2.02-2.29-1.07
						c-0.59,0.68-1.51,1.99-0.74,3.32c0.27,0.47,1.03,1.07-0.26,1.21c-0.16-0.2-0.32-0.4-0.47-0.6c0.04-1.06-0.75-2.01-0.23-3.16
						c0.28-0.61-0.1-1.25-0.77-1.52c-0.22-0.09-0.58-0.07-0.76,0.06c-0.62,0.45-0.54,1.13-0.28,1.71c0.48,1.1,0.35,2.59,1.88,3.05
						c0.03,0.16,0.06,0.33,0.08,0.49c0.59,3.16,3.45,4.68,5.07,7.08c1.98,2.95,4.82,3.53,7.96,3.75c0.19-0.01,0.39-0.02,0.58-0.03
						C81.17,149.38,81.33,149.26,81.5,149.13z M129.21,153.82c1.32,1.94,3.5,2.12,5.5,2.61c0.65,0.16,1.24-0.34,1.44-0.98
						c0.3-0.93-0.46-0.92-1.07-1.1c-0.75-0.23-1.64-0.44-2.16-0.96c-1.53-1.53-2.67-1.15-3.74,0.46c0.24-3.38-3.06-3.34-4.76-4.81
						c-1.34-1.16-2.48,0-4.33,1.38c2.86,0.43,4.66,1.55,6.41,2.67C127.43,153.68,128.26,153.78,129.21,153.82z M202.55,195.97
						c0.37-0.22,1-0.39,1.24-0.79c0.73-1.23,1.84-1.21,3.04-1.27c1.24-0.06,2.47-0.35,3.71-0.54c0.64-0.1,1.15-0.47,0.61-1.03
						c-0.81-0.83-2.26-1.94-2.99-1.34c-2.01,1.64-4.64,1.59-6.68,2.99c-0.43,0.29-0.76,0.56-0.57,1.03
						C201.16,195.64,201.77,195.86,202.55,195.97z M118.04,198.24c2.15,0.54,2.06-1.37,2.32-2.62c0.28-1.35-0.99-1.65-1.93-1.62
						c-1.39,0.05-2.69,0.5-2.76,2.29C115.61,197.85,116.5,198.34,118.04,198.24z M179.59,228.7c-0.68-0.05-1.76,0.05-1.84,1.07
						c-0.08,1.05,1.05,1.01,1.82,0.98c1.04-0.04,1.88,0.43,2.77,0.82c0.74,0.32,1.22-0.04,1.45-0.7c0.21-0.59-0.09-1.09-0.66-1.26
						C182.06,229.28,180.94,229.04,179.59,228.7z M55.73,122.35c1.97,1.3,3.8,3.23,7.05,2.3C60.36,123.29,57.87,123.35,55.73,122.35
						z M78.58,124.69c1.42,0.07,2.83,0.67,4.25-0.2C81.42,124,80,123.78,78.58,124.69z M87.25,161.85c0.88,1,1.72,2.02,3.71,2.1
						C89.85,162.34,88.62,161.94,87.25,161.85z M73.04,132.07c-0.92-1.46-2.23-2.26-4.51-1.86
						C70.33,130.95,71.68,131.51,73.04,132.07z M65.99,124.53c-0.01,0.46,0.33,0.56,0.67,0.58c0.25,0.01,0.65,0,0.72-0.14
						c0.21-0.44-0.27-0.49-0.51-0.62C66.55,124.17,66.22,124.15,65.99,124.53z M47.71,205.46c-0.06-0.15-0.09-0.39-0.19-0.44
						c-0.11-0.05-0.3,0.1-0.46,0.15c0.06,0.15,0.09,0.39,0.19,0.44C47.36,205.66,47.55,205.52,47.71,205.46z M54.44,120.96
						c-0.14,0.08-0.35,0.14-0.38,0.24c-0.03,0.12,0.06,0.37,0.16,0.41c0.26,0.12,0.49-0.01,0.49-0.31
						C54.72,121.2,54.54,121.08,54.44,120.96z M64.56,124.67c-0.09-0.14-0.15-0.35-0.27-0.39c-0.12-0.04-0.39,0.05-0.43,0.15
						c-0.12,0.28,0.04,0.5,0.34,0.51C64.32,124.94,64.44,124.77,64.56,124.67z"/>
					<path class="st1" d="M243.53,213.97c-0.64-0.56-1.26-1.33-0.77-2.1c2.36-3.73-1.13-6.83-1.1-10.36
						c0.01-1.67-2.26-1.14-3.63-0.71c-0.89,0.28-1.97,1.24-2.43-0.29c-0.4-1.32,0.68-1.72,1.79-1.69c1.67,0.06,2.01-1.39,2.67-2.36
						c1.71-2.48,1.72-3.69,0.23-6.58c-0.35-0.68-0.49-1.32-0.53-2.05c-0.15-2.68-1.16-3.43-3.18-1.85
						c-1.59,1.25-3.26,1.02-4.87,1.35c-1.49,0.3-3.05,0.18-4.29,1.29c-0.37,0.34-0.85,0.39-1.25,0.11c-1.66-1.18-3.28-1.98-4.94,0
						c-0.09,0.11-0.64,0.05-0.68-0.05c-0.11-0.3-0.2-0.71-0.09-0.98c0.37-0.89,1.43-1.1,1.97-1.77c0.57-0.7,2.72-0.71,1.58-2.09
						c-0.9-1.09-2.31-2.75-4.25-1.02c-1.18,1.05-2.07,2.48-3.95,2.62c-0.82,0.06-1.05,0.87-0.47,1.66c0.93,1.27,0.79,2.31-0.65,3.12
						c-0.84,0.47-1.86,1.61-2.58,0.72c-0.74-0.9-2.44-2.06-0.62-3.79c-2.88,0.86-5.67,0.99-8.01,3c-1.38,1.19-3.56,1.54-5.44,2.03
						c-2.09,0.55-4.04,1.41-6.03,2.12c-2.02,0.72-4.16,1.52-6.38,1.81c-1.87,0.24-3.71,0.51-4.45,2.77
						c-0.53,1.63-2.46,1.09-3.6,1.86c-0.06,0.04-0.52-0.27-0.52-0.43c-0.01-0.33,0.08-0.72,0.27-0.98c0.41-0.58,1.14-0.44,1.73-0.63
						c0.99-0.32,1.34-1.2,1.51-2.08c0.21-1.1-0.78-0.97-1.43-1.16c-0.96-0.28-1.24-1.01-1.08-1.9c0.16-0.86,0.76-1.88-0.58-2.2
						c-1.04-0.24-2.15,0.28-2.49,1.22c-0.79,2.22-1.93,2.31-3.66,1.09c-0.3-0.21-1.04-0.26-1.25-0.05
						c-1.93,1.91-4.19,0.89-6.36,0.88c-2.72-0.01-5.27,1.3-8.1,0.91c-2.12-0.29-4.29-0.03-6.44,0.64c-3.06,0.95-4.88-1.55-7.02-3.02
						s-4.07-3.29-6.33-4.54c-2.45-1.35-3.2,1.31-4.22,2.59c-0.94,1.17-0.5,3.08-3.31,2.73c-1.51-0.19-2.83-0.04-4.43-0.8
						c-3.18-1.52-6.08-4.02-10.08-3.46c-2.87,0.4-4.19-2.1-5.89-3.75c-0.44-0.43-0.76-1.38-1.17-1.4c-3.23-0.12-5.56-2.44-7.46-4.24
						c-2.9-2.74-7.9-3.58-8.55-8.54c-0.18-1.35-1.57-1.34-2.34-2.05c-1.34-1.23-2.66-2.36-1.61-4.45c0.11-0.22-0.23-0.65-0.36-0.99
						l0,0c1.01-0.06,2.09-0.08,2.81,0.67c0.89,0.93,1.74,1.06,2.89,0.6c1.07-0.43,2.01-0.03,3.03,0.57c11.82,7,24.42,12,38,14.33
						c4.85,0.83,9.72,1.51,14.58,2.23c0.87,0.13,1.86-0.15,2.2,1.07c0.05,0.17,0.56,0.39,0.61,0.34c2.16-2.17,4.83-0.21,7.14-0.91
						c0.74-0.22,2.33-0.08,1.18-1.79c-0.47-0.69,0.46-0.49,0.77-0.61c0.75-0.29,1.54,0.18,1.35,0.77c-0.74,2.31,0.39,2.12,1.96,1.74
						c0.82-0.2,1.19,0.67,1.9,1.22c0.29-1.86,0.49-3.24,3.19-2.88c2.99,0.39,6.14-0.33,9.21-0.62c0.61-0.06,1.47-0.27,1.48-0.92
						c0.01-0.82-0.72-1.41-1.51-1.65c-3.72-1.1-5.9-4.33-8.92-6.39c-0.67-0.46-0.24-1.09-0.18-1.71c0.27-2.57,1.44-4.78,2.64-6.98
						c0.48-0.89,1.12-0.21,1.65-0.13c2.68,0.43,4.55,2.31,6.68,3.74c0.02,0.39,0.04,0.77,0.06,1.16c-1.17,0.76-2.36,1.51-2.29,3.17
						c-0.45,2.28,0.66,3.73,2.72,3.54c0.79-0.08,1.58-0.27,2.38-0.29c3.44-0.07,5.13-1.39,6.25-4.98c0.14-0.16,0.28-0.33,0.42-0.49
						c1.11,0.03,1.35,0.74,1.3,1.67c-0.04,0.08-0.08,0.16-0.12,0.24c0.04-0.08,0.09-0.15,0.13-0.23c0.97,0.4,1.93,0.8,2.9,1.21
						c0.61,0.26,1.03,0.37,1.48-0.43c1.15-2.04,3.12-2.99,5.32-3.51c0.01,0.27,0,0.55,0.05,0.81c0.14,0.74-0.4,1.92,0.56,2.11
						c1.13,0.23,0.89-1.04,1.17-1.73c0.67-1.6,2.69-2.98,4.57-3.21c-2.45,2.68-3.13,4.73-2.15,6.44c2.43-6.48,1.95-5.88,10.91-5.63
						c-0.32,0.73-0.62,1.43-0.93,2.15c-1.02-1.1-1.07-1.14-1.25-1c-0.42,0.34-0.86,0.71-0.77,1.33c0.08,0.53,0.22,1.05,0.34,1.57
						c-0.34-0.02-0.67-0.05-1.01-0.07c-0.95-0.46-0.81-2.42-2.08-2.04c-1.68,0.5-1.66,2.57-3.24,4.16c1.29-0.2,2.08-1.37,2.53-0.08
						c-0.33,0.38-0.65,0.76-0.98,1.14c-0.74,0.52-0.72,1.12-0.13,1.71c0.15,0.15,0.52,0.28,0.67,0.2c0.78-0.42,0.36-1.22,0.5-1.84
						c0.93-0.57,1.56-1.58,2.69-1.87c0,0.36,0.03,0.72-0.02,1.08c-0.51,3.94,1.26,5.27,5,3.73c0.79-0.33,1.67-0.47,2.37-0.18
						c3.49,1.45,6.11-0.72,8.92-2.05c0.92-0.43,1.56-1.57,2.83-0.84c1.55,0.89,0.59,2.04,0.03,3.14c1.55,0.02,2.04-1.16,2.96-1.67
						c0.61-0.33,1.14-1.11,1.87-0.4c1.11,1.08,1.75-0.05,2.56-0.42c1.1,0.53,1.69,1.52,2.29,2.5c-0.11,0.76,0.16,1.23,0.98,1.29
						c0.9,0.82,1.33,1.92,1.63,3.04c2.71,10.3,4.36,20.67,1.71,31.26C244.05,213.03,243.75,213.49,243.53,213.97z M204.53,174.41
						c-2.72-2.74-2.71,2.16-4.71,1.57c0.81,0.85,1.53,1.66,2.66,0.66C204.16,176.82,204.76,175.99,204.53,174.41z M162.89,186.1
						c1.54,1.73,1.57,1.73,3.38,0.05C165.18,186.73,164.11,185.86,162.89,186.1z M159.67,186.48c-0.07,0.56,0.24,0.82,0.74,0.9
						c0.35,0.05,0.83,0.07,0.88-0.32c0.06-0.55-0.21-1.06-0.86-1.14C160.04,185.88,159.75,186.06,159.67,186.48z"/>
					<path class="st1" d="M76.64,153.24c1.84,1.39,3.65,2.82,5.52,4.16c1.44,1.03,3.19,1.67,4.2,3.59
						c-3.82,0.91-7.16,0.46-10.16-1.91c0.14-0.38,0.16-0.59,0.27-0.69c0.57-0.5,1.7,0.51,2.01-0.71c0.06-0.23,0.01-0.48,0.02-0.72
						c-0.94,0.34-1.84-0.83-2.81-0.05c-0.48,0.39-1.09,0.61-1.53,1.03c-0.49,0.47-0.7,1.31-1.69,0.8c-1.27-0.65,0.64-1.36-0.24-2.15
						c-1.74,1.47-3.31,0.81-5.11-0.33c-1.61-1.03-3.6-1.32-5.38-0.12c-2.67,1.8-5.62,1.7-8.59,1.31c-0.77-0.1-1.53-0.39-1.75,0.56
						c-0.2,0.9,0.69,1.4,1.32,1.41c3.13,0.06,2.89,2.14,2.79,4.27c-0.11,2.26-0.17,4.51,1.94,6.12c0.42,0.32,0.85,1.02,0.48,1.69
						c-0.15,0.26-0.56,0.56-0.82,0.54c-0.81-0.06-1.23-0.7-1.5-1.38c-1.27-3.19-1.85-3.5-5.05-2.64c-3.81,1.02-5.63,3.19-5.87,7.12
						c-0.06,0.92-0.12,1.79-0.6,2.59c-3.29-0.2-4.54-3.17-6.7-4.9c-0.16-0.25-0.31-0.51-0.47-0.76c0.22-0.81-0.03-1.33-0.92-1.43
						c-0.18-0.36-0.36-0.72-0.53-1.09c0.92-1.16,0.55-2.28,0.03-3.5c-0.73-1.72-1.53-4.14-1.21-5.34c0.83-3.18,0.57-6.53,1.88-9.66
						c1.04-2.5,2.45-5.16,1.48-8.16c-0.19-0.58-0.03-1.33,0.56-1.71c3.82-2.46,1.87-6.24,1.77-9.31c-0.11-3.01-1.26-6.02-1.35-9.13
						c1.25-1.94,0.6-4.24,1.2-6.3c0.33-0.14,0.46-0.32,0.09-0.57c0-1.97,0.03-3.94,0.46-5.87c1.69-1.46,2.15-3.7,3.44-5.45
						c2.28-3.09,1.98-6.5,0.24-9.82c0.46-1.97-1.49-3.36-1.28-5.27c0.84-0.32,1.16-1.45,2.17-1.45c0.43,0,1.08,0.09,1.25,0.37
						c0.38,0.65-0.58,0.38-0.69,0.74c-0.12,0.42-0.38,0.96-0.23,1.27c1.12,2.28,1.13,4.98,2.66,7.09c-0.34,0.06-0.74,0.04-0.81,0.5
						c-0.01,0.09,0.21,0.31,0.3,0.3c0.46-0.07,0.45-0.47,0.5-0.81c0.36-0.01,0.71-0.02,1.07-0.02c-2.47,2.52-2.46,6.25-4.37,9.03
						c-0.91,1.32,0.32,2.41,0.79,2.79c1.34,1.1,0.8,2.4,1.47,3.88c-1.66-0.67-1.79-2.11-2.83-2.67c-1.31-0.77-1.57-0.05-1.52,1.08
						c0.06,1.54-0.14,3.01-0.71,4.49c-1.52,3.95-2.26,7.99-0.94,12.17c0.13,0.42,0.09,0.93,0.64,1.07c0.56,0.15,0.71-0.28,1-0.65
						c2.06-2.62,4.03-2.66,6.07-0.17c0.31,0.38,0.7,0.73,1.12,0.57c0.67-0.25,0.53-1,0.26-1.36c-1-1.35-1.92-2.95-3.66-3.3
						c-0.87-0.17-1.35-0.63-0.99-1.06c1.78-2.2,0.15-4.24-0.08-6.34c2.07,1.58,2.63,4.1,3.72,6.24c3.06,6.04,7.95,10.57,12.38,15.47
						c1.67,1.84,3.21,3.76,5.91,4.79c1.93,0.74,3.05,3.55,4.54,5.44c0.11,1.13,0.94,1.44,1.88,1.63l0.14,0.02
						c0.23,0.18,0.46,0.35,0.69,0.53l0.02,0.01c0.25,0.56,0.73,0.59,1.25,0.52c0.31,0.14,0.62,0.27,0.92,0.41
						C76.65,152.45,76.64,152.84,76.64,153.24z M64.73,146.77c-0.15-0.44,0.32-1.19-0.53-1.25c-0.4-0.03-0.99,0.19-0.86,0.76
						c0.16,0.71,0.85,0.46,1.35,0.53c-0.48,1.62,1.6,1.94,1.65,3.29c0.07,2.98,0.89,3.9,3.29,3.7c1.35,1.09,2.68,1.08,3.99-0.1
						c-0.25-0.72-1.28-0.17-1.62-1.34c-0.37-1.29-1.58-2.36-3.54-2.63C67.29,149.57,66.92,146.71,64.73,146.77z M49.8,130.39
						c1.6,0.23,0.98,3.14,3.55,2.7C51.97,132.07,52,130.01,49.8,130.39z M55.23,135c-0.69-0.78-1.34-0.82-2.29-0.4
						C53.75,135.52,54.38,135.67,55.23,135z"/>
					<path class="st2" d="M37.37,172.82c2.16,1.73,3.41,4.71,6.7,4.9c0.91,0.53,1.83,1.06,2.74,1.59c0.05,0.7,0.39,1.08,1.13,1
						c0.53,0.03,1.05,0.06,1.58,0.09c0.1,1.09,0.87,1.08,1.67,1.02c0.52,0.03,1.05,0.05,1.57,0.08c0.82,1.56,2.44,1.62,3.87,2.04
						c4.73,0.7,8.97,2.83,13.36,4.51c2,0.77,3.92,1.76,6.06,2.14c0.09,0.68,0.44,1.04,1.16,0.99c0.52,0.03,1.05,0.05,1.57,0.08
						c0.06,0.68,0.41,1.05,1.12,1.05c0.17,0.02,0.34,0.03,0.51,0.03c0.61,1.91,2.06,2.31,3.83,2.12c0.17,0.02,0.34,0.03,0.51,0.04
						c0.08,1.09,0.86,1.08,1.65,1.05c0.17,0.01,0.34,0.03,0.51,0.04c0.09,1.08,0.86,1.08,1.66,1.04c0.17,0.02,0.34,0.03,0.51,0.05
						c0.13,1.37,1.02,1.67,2.2,1.59c0.36,0.63,0.99,0.56,1.57,0.6c0.4,1.43,1.74,1.22,2.74,1.59l0,0c0.15,0.32,0.21,0.82,0.45,0.92
						c4.33,1.82,7.26,6.08,12.05,7.02c2.43,0.48,3.95,2.47,6.05,3.28c4.94,1.91,9.72,4.31,15,5.25c4.37,0.78,8.61,2.23,13.09,2.43
						c0.53,0.01,1.07,0.01,1.6,0.02c0.88,0.87,1.79,0.8,2.71,0.07c0.89,0.01,1.77,0.02,2.66,0.03c0.46,1.37,1.27,1.25,2.22,0.52
						c8.66,0.61,17.27,2.09,26,1.63c0.89-0.05,2.12-0.54,2.62,0.72c0.41,1.02-0.23,1.81-0.81,2.68c-2.14,3.2-5.35,3.87-8.83,4.04
						c0.99-1.79-0.45-1.47-1.35-1.49c-2.88-0.07-5.93,0.49-8.61-0.26c-3.85-1.08-7.75-1.28-11.62-1.7
						c-6.16-0.66-12.3-1.55-18.27-3.08c-9.01-2.31-17.68-5.72-25.9-10.17c-1.18-0.64-2.56-0.88-3.82,0.06
						c-3-1.73-6.12-3.27-8.97-5.21c-6.21-4.22-12.83-6.26-20.34-4.59c-0.43,0.1-0.9,0.01-1.35,0.01c-0.3-1.15-1.09-1.85-2.15-2.23
						c-5.35-1.91-10.84-3.43-16.08-5.7c-1.22-0.53-2.25-0.85-2.77-2.1c0.54-0.18,1.04-0.1,1.57,0.11c0.94,0.37,2.13,1.41,2.79-0.02
						c0.57-1.22-0.98-1.66-1.61-2.44c-1.14-1.4-3.47-2.59-1.01-4.8c0.37-0.33,0.18-0.86-0.23-1.15c-1.07-0.76-1.88-1.75-3.15-2.39
						c-3.74-1.88-8.14-2.72-10.8-6.41C36.95,174.58,37.16,173.7,37.37,172.82z"/>
					<path class="st3" d="M145.14,105.47c0.18,0.01,0.28,0.1,0.31,0.27c0.32,1.47,0.63,2.93,1.34,4.29c0.62,1.19,1,2.58,2.82,2.14
						l0.13,0.08l-0.05,0.15c0.03,0.4,0.06,0.81,0.09,1.21c-0.09,0.21-0.19,0.42-0.28,0.62c-1.72-0.35-2.91,0.67-4.14,1.59
						c-1.08,0.81-2.11,1.61-3.54,1.84c-8.67,1.38-17.25,3.13-25.61,5.83l-0.15-0.2c2.89-1.4,1.34-3.4,0.71-5.27
						c-0.23-1.3-0.11-2.77-1.7-3.39c1.26-1.21,2.92-1.7,4.44-2.42c4.71-2.25,9.45-4.44,14.17-6.66c1.71-0.15,2.24-2.46,4.15-2.26
						c0.41,0.05,0.83,0.09,1.24,0.14C141.14,103.95,142.81,105.69,145.14,105.47z"/>
					<path class="st3" d="M54.45,56.38c0.86-0.94,1.86-1.67,3.12-2c0.12,0.94,0.44,1.57,1.57,1.12c2.78-1.1,5.72-1.01,8.57-0.7
						c1.62,0.18,3.96,0.11,4.38,2.38c0.35,1.88,1.72,2.86,2.98,3.52c1.27,0.67,2.6,2.24,4.21,1.51c2-0.9,2.12,0.14,2.19,1.58
						c-7.68,1.26-14.62,4.53-21.5,7.96c-0.53,0.26-0.87,0.88-1.3,1.33c-0.64,0.4-1.33,0.61-2.09,0.54
						c-1.59-0.72-2.04-2.74-3.79-3.27c-0.17-1.25-1.17-1.49-2.14-1.58c-1.03-0.1-2.07-0.16-2.13-1.46
						c-0.05-1.14-0.54-2.39,1.16-3.11c1.1-0.47,1.6-1.73,0.91-3.05c0-0.37,0-0.74,0-1.12c0.54-0.35,1.07-0.71,1.61-1.06
						C53.72,58.78,55.68,58.96,54.45,56.38z"/>
					<path class="st1" d="M81.47,63.8c-0.06-1.44-0.19-2.48-2.19-1.58c-1.61,0.73-2.94-0.84-4.21-1.51
						c-1.26-0.66-2.63-1.65-2.98-3.52c-0.43-2.27-2.76-2.2-4.38-2.38c-2.85-0.32-5.79-0.4-8.57,0.7c-1.13,0.45-1.45-0.18-1.57-1.12
						c1.38-1.36,3.13-1.68,4.95-1.66c9.02,0.11,18.11-1.21,27.01,1.41c1.11,0.33,2.12-0.12,2.83-1.1c0.08-0.04,0.22-0.08,0.22-0.11
						c0-0.14-0.05-0.28-0.09-0.42c0.21-0.59,0.43-1.19,0.64-1.78c0.62,0.06,1.25,0.12,1.87,0.18c0.08,0.11,0.11,0.23,0.1,0.37
						c0.18,0.22,0.35,0.45,0.53,0.67l0.03-0.05c-0.14,1.22-0.81,2.19-1.54,3.08c-1.56,1.89-0.49,3.68,0.9,4.38
						c2.89,1.44,2.32,2.09-0.15,3c-0.2,0.07-0.22,0.63-0.33,0.97C90.17,62.99,85.82,63.27,81.47,63.8z"/>
					<path class="st1" d="M184.48,232.35c0.18-0.19,0.54-0.39,0.53-0.58c-0.2-3.46,2.3-2.62,4.2-2.62
						c7.58,0.01,14.95-1.43,22.33-2.89c2.42-0.48,4.8-1.32,7.28-1.42c3.24-0.14,3.49,0.35,1.88,3.35c-0.33,0.61-0.34,1.18-0.35,1.8
						c-3.41,1.39-7.04,2.08-10.54,3.16c-2.01,0.62-3.42,0.36-4.25-1.69c-0.07-0.5,1.54-0.88,0.1-1.47c-1.5-0.61-2.1,0.04-2.14,1.51
						c0.08,0.15,0.04,0.27-0.11,0.35c-1.5,0.37-2.49,1.22-2.61,2.86c-3.8,1.08-7.75,1.18-11.62,1.83c-1.4,0.23-2.12-0.44-2.77-1.57
						C185.87,234.05,185.96,232.6,184.48,232.35z"/>
					<path class="st2" d="M237.56,174.44c-0.81,0.37-1.45,1.51-2.56,0.42c-0.73-0.71-1.26,0.07-1.87,0.4
						c-0.92,0.5-1.41,1.69-2.96,1.67c0.56-1.1,1.51-2.24-0.03-3.14c-1.26-0.73-1.91,0.41-2.83,0.84c-2.81,1.33-5.43,3.49-8.92,2.05
						c-0.7-0.29-1.58-0.15-2.37,0.18c-3.75,1.54-5.52,0.21-5-3.73c0.05-0.35,0.02-0.72,0.02-1.08c0.32-0.46,1.08-0.57,1.05-1.32
						c-0.12-0.52-0.26-1.04-0.34-1.57c-0.09-0.62,0.34-0.99,0.77-1.33c0.19-0.15,0.23-0.1,1.25,1c0.31-0.72,0.61-1.42,0.93-2.15
						c-8.95-0.25-8.48-0.85-10.91,5.63c-0.98-1.71-0.3-3.76,2.15-6.44c-1.88,0.23-3.9,1.61-4.57,3.21
						c-0.29,0.69-0.05,1.96-1.17,1.73c-0.96-0.2-0.42-1.38-0.56-2.11c-0.05-0.26-0.03-0.54-0.05-0.81
						c2.72-3.27,6.41-3.86,10.36-3.76c1.65,0.11,3.35,2.27,4.94-0.12c0.97,0.68,2.16,0.31,3.19,0.67c-0.96,1.09-2.56,1.89-1.62,3.79
						c-0.04,0.06-0.08,0.11-0.11,0.17c0.03-0.06,0.07-0.12,0.1-0.18c1.38-0.32,2.97-0.17,3.81-1.7c1.09,0.36,2.18,0.72,3.27,1.08
						c0.07,0.41,0.23,0.52,0.51,0.13c0.82,0.15,1.55,0.48,2.18,1.03c1.69,1.75,3.88,2.83,5.84,4.21c0.41,0.29,1.23,0.23,1.71-0.34
						c0.9,0.16,1.88-0.35,2.72,0.33c0.03,0.17,0.13,0.24,0.3,0.2C237.28,173.58,237.52,173.94,237.56,174.44z"/>
					<path class="st4" d="M36.74,175.46c2.66,3.7,7.06,4.54,10.8,6.41c1.27,0.64,2.08,1.63,3.15,2.39c0.41,0.29,0.6,0.83,0.23,1.15
						c-2.47,2.21-0.14,3.4,1.01,4.8c0.64,0.78,2.18,1.22,1.61,2.44c-0.66,1.43-1.85,0.39-2.79,0.02c-0.53-0.21-1.03-0.29-1.56-0.11
						c-1.33,0.29-2.53-0.03-3.81-0.52c-2.87-1.08-5.71-2.3-8.79-2.77c-0.26-0.73-0.78-1.17-1.55-1.29
						C35.62,183.81,35.77,179.58,36.74,175.46z"/>
					<path class="st1" d="M107.65,39.85c2.42-0.07,4.26,1.53,6.42,2.21c-0.13,0.96,0.6,1.35,1.15,1.95
						c2.66,2.95,2.73,4.85,0.37,8.07c-0.33,0.44-0.32,0.8-0.09,1.2c1.17,2,0.51,4.2,0.69,6.31c-1.18,0.67-2.46,0.96-3.8,1.03
						c-0.71-1.64-2.38-1.68-3.74-2.12c-1.14-0.37-2.26-0.63-2.82-1.83c-1.06-2.27-2.13-4.54-3.19-6.8
						c3.86-1.16,7.89-1.21,11.89-1.71c-2.58-6.23-6.1-7.88-10.28-4.96c-0.46-0.56-1.12-0.37-1.71-0.49c0.07-1.1,0.14-2.2,0.21-3.31
						c0.31-0.08,0.62-0.15,0.94-0.23C104.56,42.03,106.28,39.92,107.65,39.85z M106.68,53.31c2.47,1.28,4.83,0.45,7.81,0
						C111.47,53.31,109.07,53.31,106.68,53.31z"/>
					<path class="st5" d="M116.2,123.5c8.37-2.7,16.95-4.45,25.61-5.83c1.42-0.23,2.46-1.03,3.54-1.84
						c1.23-0.92,2.42-1.94,4.14-1.59c0,0.35,0.14,0.79-0.01,1.04c-2.1,3.38,0.42,3.69,2.73,4.15c-0.25,0.57-0.5,1.14-0.75,1.71
						c-3.09,0.07-6.16-1.28-9.27-0.16c-2.06-0.74-0.81,1.54-1.71,1.87c-1.75,0.4-3.33,1.15-4.76,2.23
						c-1.02,0.18-1.95,0.56-2.72,1.27c-1.5-0.41-2.07,1.33-3.35,1.43c-0.43-2.87,1.97-3.63,3.69-5.07
						c-2.66-0.09-5.11,0.79-7.54,1.56c-2.86,0.91-5.78,1.17-8.73,1.32c-0.66,0.03-1.57,0.25-1.86-0.62
						C114.98,124.24,116.08,124.14,116.2,123.5z"/>
					<path class="st5" d="M138.56,70.17c0.11,2.4-2.06,3.83-2.53,5.99c-1.99,0.86-4.69,2.46-4.66,3.86
						c0.05,1.82,3.21,1.38,4.97,2.04c0.41,0.15,0.87,0.17,1.3,0.25c1.04,2.16,3.96,2.62,4.64,5.11c-0.14,0.47-0.42,0.81-0.92,0.92
						c-1.01-0.94-2.01-1.9-3.47-2.11c-0.8-0.94-1.92-1.16-3.06-1.36c-0.54-0.9-1.22-1.46-2.35-1.05c-1.42-0.55-2.86-1.05-4.42-0.92
						c-0.47-0.64-1.03-0.53-1.62-0.2c-2.32-0.28-4.59-1.09-6.98-0.55c-0.57-0.24-1.14-0.24-1.71,0c-3.75-0.55-7.52-0.11-11.28-0.35
						c-1.08-0.39-2.16-0.79-3.24-1.18c-0.18-0.19-0.37-0.38-0.55-0.57c0.05-0.14,0.06-0.28,0.03-0.42c2.19-1.06,4.57-1.11,6.93-1.29
						c4.08,0.68,8.24,0.32,12.32,0.79c4.37,0.5,7.42-0.8,9.53-4.75l-0.01-0.08c1,0.09,1.35-0.88,2.06-1.26
						c1.61-0.18,1.35-1.89,2.2-2.69C136.69,70.29,137.62,70.23,138.56,70.17z"/>
					<path class="st3" d="M128.07,82.89c1.56-0.13,3,0.37,4.42,0.92c0.52,0.92,1.35,1.19,2.35,1.05c1.13,0.2,2.26,0.42,3.06,1.36
						c0.13,1.91,1.64,2.2,3.06,2.6c0.17,0.79,0.34,1.58,0.49,2.37c0.31,1.6,1.71,4.06,2.77,4.84c-0.01,0.18-0.09,0.32-0.24,0.42
						c-1.94-0.17-3.68-0.3-5.05,1.77c-1.18,1.78-3.19,2.5-5.39,1.37c-0.02-0.19-0.03-0.37-0.05-0.56c-1.07-2.86-2.14-5.73-3.21-8.59
						c-0.58-2.73-1-5.61-4.85-5.43c0.72-0.31,1.06-0.9,1.18-1.65C127.13,83.38,127.72,83.49,128.07,82.89z"/>
					<path class="st2" d="M38.6,122.74c0.1,3.11,1.24,6.12,1.35,9.13c0.11,3.07,2.05,6.85-1.77,9.31c-0.59,0.38-0.75,1.13-0.56,1.71
						c0.97,2.99-0.44,5.66-1.48,8.16c-1.31,3.13-1.05,6.48-1.88,9.66c-0.32,1.21,0.48,3.62,1.21,5.34c0.52,1.22,0.88,2.34-0.03,3.5
						c-3.17-5.79-3.25-12.1-2.37-18.31c1.1-7.79,2.83-15.49,4.43-23.2C37.88,126.27,36.81,124.19,38.6,122.74z"/>
					<path class="st1" d="M123.41,48.63c2.28-0.04,3.91,1.26,5.4,2.72c2.12,2.09,2.85,5,4.25,7.52c-2,0.05-3.55,1.44-5.43,1.84
						c-0.06-0.5,0.1-1.28-0.46-1.38c-0.74-0.13-0.63,0.64-0.65,1.13c-0.02,0.44,0.03,0.87,0.05,1.31l0.03,0.02
						c-2.73,0.39-3.91-0.9-3.93-3.54c0-0.52-0.37-1.04-0.32-1.54c0.12-1.2-0.14-2.44-1.4-2.41c-1.69,0.05-0.63,1.68-0.98,2.55
						c-0.36-0.02-0.72-0.04-1.08-0.05c-1.51-3.18-0.85-5.93,1.63-8.33c0.75-0.18,1.5-0.23,2.24,0.05
						C122.97,48.56,123.19,48.59,123.41,48.63z M123.14,52.44c0.46-0.11,1.32-0.91,1.21-1.23c-0.24-0.69-1.01-1.29-1.87-1.29
						c-0.91,0-0.82,0.77-0.83,1.4C121.65,52.09,122.04,52.48,123.14,52.44z"/>
					<path class="st5" d="M164.01,132.64c0.49-0.02,0.84,0.22,1.1,0.61c-0.24,0.66-0.48,1.33-0.71,2c-0.17,0.07-0.34,0.15-0.51,0.22
						c-2.59-0.04-4.97-1.44-7.6-1.18c-0.64,0.06-1.72-0.4-1.8,0.55c-0.18,2.05-2.05,3.08-2.64,4.83c-1,0.31-1.93,1.03-3.07,0.52
						c-0.06-2.51,2.05-3.99,3.22-6.21c-1.03,0-1.74-0.01-2.44,0c-4.03,0.09-8.05,0.46-12.08-0.07c-1.17-0.15-1.91-0.39-1.72-1.73
						c0.53,0.02,0.84-0.27,1.02-0.74c0.43-0.08,0.85-0.16,1.28-0.23c0.25,0,0.5,0,0.75,0c0.8,0.08,1.6,0.16,2.4,0.24
						c3.73-0.01,7.46-0.02,11.19-0.04c0.86-0.01,1.61-0.22,1.62-1.32c0.76-1.66,1.51-3.33,2.27-4.99c1.67-0.31,2.09,0.92,2.09,2.07
						c0,0.93-0.54,1.87-0.91,2.78c-0.35,0.86-0.58,1.51,0.73,1.69C160.13,131.91,162.06,132.3,164.01,132.64z"/>
					<path class="st1" d="M50.59,61.16c0.69,1.32,0.18,2.58-0.91,3.05c-1.7,0.73-1.21,1.98-1.16,3.11c0.06,1.3,1.1,1.36,2.13,1.46
						c0.97,0.09,1.97,0.33,2.14,1.58c-0.02,0.72-0.35,1.12-1.11,1.06c-0.3-1.53-1.14-1.09-1.88-0.44c-1.59,1.4-2.96,3.03-4.7,4.3
						c-0.45,0.33-1.87,1.44,0,2.13c0.08,0.52,0.16,1.04,0.23,1.56c-0.29,2.58-0.94,5.01-2.75,7c-0.7,0.77,0.03,1.24,0.45,1.76
						c-1.48,1.06-1.56-0.31-1.96-1.12c0.01-0.52,0.03-1.04,0.04-1.55c1.29-2.61,1.95-5.29,0.85-8.16c-0.01-0.9-0.01-1.8-0.02-2.7
						c0.02-0.36,0.04-0.72,0.07-1.08c0.97-0.31,1.24-0.83,0.48-1.65c0.01-0.36,0.02-0.73,0.04-1.09c0.9-1.45,1.81-2.89,2.71-4.34
						c1.22-1.73,3.61-2.48,3.99-4.97C49.33,60.46,50.12,61.03,50.59,61.16z"/>
					<path class="st5" d="M133.53,99.61c2.2,1.13,4.21,0.41,5.39-1.37c1.37-2.08,3.11-1.94,5.05-1.77c-0.23,0.57-0.31,1.3-0.71,1.67
						c-1.98,1.81-2.42,3.45,0.22,5.01c-1.39,1.32-3.02-0.97-4.41,0.29c-0.41-0.05-0.83-0.09-1.24-0.14c-3.5-1.37-7.03-1-10.58-0.23
						c-2.81-0.5-5.58,0.6-8.38,0.17c-0.32-0.76-0.8-0.97-1.48-0.39c-0.38-0.06-0.76-0.13-1.13-0.19c-0.5-1.18,0.22-1.92,0.97-2.65
						c1.46,0.02,2.93,0.03,4.39,0.05C125.61,100.43,129.55,99.49,133.53,99.61z"/>
					<path class="st5" d="M184.1,160.31c0.39-0.89,0.79-1.77,1.35-3.04c-3.14,0.19-6.09,0.36-9.04,0.54c-1.38,0.08-2.7,0-3.55-1.32
						c1.1-0.84,2.32-1.17,3.72-1.16c1.59,0.01,3.18-0.17,4.66-0.85c2.39-0.14,5.3,0.53,5.34-3.36l0.06-0.03
						c2.04-0.17,2.3,2.14,3.8,2.72c2.44,2.24,5.39,1.23,8.17,1.27c0.16,0.12,0.33,0.24,0.49,0.37c0.16,0.65,0.32,1.31,0.48,1.96
						c-0.98,0.46-1.91,0.68-3.07,0.42c-1.72-0.39-3.53-0.35-5.27-0.67c-2.7-0.5-3.77,0.59-3.52,3.22c-0.16,0.19-0.32,0.38-0.48,0.56
						C186.22,160.61,184.77,162.34,184.1,160.31z"/>
					<path class="st1" d="M40.36,193.4c-0.02,0.09-0.04,0.17-0.05,0.26c-0.14,1.22-2.52-0.04-2.01,1.72
						c0.39,1.35,1.99,0.24,2.91,1.21c-1.55,1.42-2.22,2.78,0.6,3.59c0.86,0.25,1.44,1.2,1.5,2.09c0.09,1.31-1.17,0.63-1.76,0.97
						c-0.78,0.45-1.45,1.01-1.73,1.92c-1.16-0.13-2.22-0.86-2.39-1.79c-0.3-1.64-1.63-1.33-2.52-1.86c0.06-0.91-0.1-1.72-1.03-2.17
						c-0.02-0.18-0.04-0.36-0.06-0.54c0.69-0.52,0.71-1.06,0.04-1.61c0.02-0.91-0.1-1.83,0.36-2.68c0.68-0.28,0.84-0.64,0.16-1.12
						c0.05-0.36,0.09-0.71,0.14-1.07c0.76-0.11,0.94-0.63,0.93-1.29c-0.01-0.74,0.12-1.38,1.08-1.36
						C37.68,191.05,38.7,192.55,40.36,193.4z"/>
					<path class="st1" d="M226.21,227.97c-0.03-0.18-0.05-0.36-0.11-0.52c-0.37-0.99-2.18-1.4-1.29-2.87
						c0.79-1.3,2.22-1.18,3.55-1.43c5.28-1.02,10.19-2.86,13.57-7.36c0.47-0.63,0.93-0.72,1.56-0.71c1.3,3.95,0.95,4.82-2.63,6.54
						c-0.23-0.46-0.55-1.05-1.07-0.89c-0.9,0.27-0.45,1.11-0.49,1.73c-1.36,0.48-2.32,1.75-3.83,1.92
						c-1.93-0.68-5.97,0.68-7.64,2.57c-0.02,0.16-0.03,0.33-0.03,0.49l-0.09,0.03c-0.14-0.04-0.24,0-0.32,0.12
						C227,227.72,226.6,227.84,226.21,227.97z"/>
					<path class="st4" d="M41.95,74.2c0.01,0.9,0.01,1.8,0.02,2.7c-0.36,0.17-0.71,0.33-1.07,0.5c-0.22,0.03-1.11,1.17-1.28,1.53
						c-2.09,4.42-1.61,8.69,0.59,13.26c0.99-1.24,0.59-2.35,0.72-3.35c0.6,0.21,1.21,0.42,1.81,0.63c-0.2,1.91,1.75,3.3,1.29,5.27
						c-1.2-0.19-1.47,0.64-1.8,1.54c-0.36,0.99-0.38,2.17-1.41,2.83c-0.64-1.76-1.43-3.49-1.02-5.45c0.09-0.45-0.15-0.79-0.47-1.16
						c-2.88-3.42-3.72-7.2-1.96-11.44c0.2-0.47,0.26-1.04,0.25-1.56c-0.05-2.23,0.69-3.82,3.1-4.32
						C41.18,75.08,41.54,74.53,41.95,74.2z"/>
					<path class="st5" d="M127.62,60.71c1.88-0.4,3.43-1.79,5.43-1.84c1.09,1.1,3.09,0.96,3.71,2.71c-0.3,0.52-0.86,0.55-1.36,0.69
						c-2.57-0.21-4.58,0.82-6.19,2.75c-0.13,0.16-0.26,0.32-0.39,0.48l-0.17,0.17c-0.11,0.11-0.21,0.22-0.32,0.33
						c-0.41,0.44-0.77,0.91-0.79,1.55c-1.18,0.47-0.8,2.21-2.16,2.65c-1.76-2.02-1.13-4.09-0.17-6.15c0.37-0.8,1.33-1.25,1.37-2.25
						l-0.03-0.02C126.91,61.42,127.26,61.07,127.62,60.71z"/>
					<path class="st2" d="M40.82,99.11c1.03-0.66,1.05-1.84,1.41-2.83c0.33-0.9,0.6-1.73,1.8-1.54c1.74,3.32,2.04,6.72-0.24,9.82
						c-1.29,1.75-1.75,3.98-3.44,5.45c-0.7-2.51-0.57-5.04-0.18-7.57c0.57-0.26,0.91-0.58,0.27-1.13
						C40.57,100.57,40.7,99.84,40.82,99.11z"/>
					<path class="st4" d="M181.76,145.23c3.22,1.73,6.25,3.84,9.89,4.7c0.16,0.04,0.23,0.46,0.35,0.71
						c-0.99,1.17-1.62,0.03-2.46-0.28c-1.01-0.38-2.54-1.77-2.9,0.75l-0.06,0.03c-2.8,1.42-4.76-0.5-6.9-1.71l0.02-0.13
						c0.21-0.67,0.42-1.33,0.62-2c0.09-0.34,0.19-0.69,0.28-1.03C181.31,146.28,181.71,145.96,181.76,145.23z"/>
					<path class="st4" d="M144.21,96.05c-1.06-0.78-2.46-3.24-2.77-4.84c-0.15-0.79-0.33-1.58-0.49-2.37
						c0.14-0.16,0.27-0.33,0.41-0.49c0.5-0.11,0.78-0.44,0.92-0.92c0.84,0.93,2.45-1.07,3.09,0.87c0.7,2.13,1.39,4.22,0.94,6.5
						C146.07,96.03,144.99,95.77,144.21,96.05z"/>
					<path class="st3" d="M120.52,48.48c-2.47,2.4-3.13,5.16-1.63,8.33c-0.58,1.24-1.06,2.57-2.7,2.77
						c-0.18-2.11,0.48-4.31-0.69-6.31c-0.24-0.4-0.24-0.75,0.09-1.2c2.36-3.22,2.29-5.12-0.37-8.07c-0.54-0.6-1.28-0.99-1.15-1.95
						c2.94,0.37,3.9,2.67,4.85,4.99c-0.12,0.48-0.11,0.91,0.43,1.15C119.74,48.29,120.13,48.38,120.52,48.48z"/>
					<path class="st2" d="M50.59,61.16c-0.46-0.14-1.25-0.7-1.35-0.09c-0.38,2.49-2.78,3.24-3.99,4.97
						c-1.56-0.06-1.69,1.96-3.09,2.12c-0.14-5.26,1.47-7.64,6.22-9.21c0.88,0.09,1.54,0.59,2.22,1.09
						C50.59,60.42,50.59,60.79,50.59,61.16z"/>
					<path class="st4" d="M135.4,62.27c0.5-0.14,1.05-0.16,1.36-0.69c1.06,0.33,2.41,0.13,2.83,1.59c-0.17,0.19-0.33,0.37-0.5,0.56
						c0.09,0.07,0.18,0.15,0.27,0.22c0.1-0.24,0.19-0.48,0.29-0.72c1.01,1.65,1.12,3.52,1.33,5.36c0.21,1.82-0.62,2.02-2.01,1.17
						c-0.44-1.75-1.86-0.56-2.76-0.92C135.48,66.71,135.88,64.43,135.4,62.27z M137.64,63.29c0.15-0.07,0.31-0.14,0.46-0.22
						c-0.15-0.09-0.29-0.24-0.44-0.24c-0.15,0-0.31,0.13-0.47,0.21C137.35,63.13,137.49,63.21,137.64,63.29z"/>
					<path class="st2" d="M181.76,145.23c-0.04,0.73-0.44,1.05-1.16,1.02c-3.36-0.94-5.47-3.86-8.46-5.38
						c-0.91-0.82-0.95-2.32-2.23-2.84c0.16-0.49,0.32-0.98,0.48-1.47c1.01-0.02,1.79,0.33,2.13,1.36c0.18,0.08,0.36,0.16,0.54,0.23
						C175.94,140.52,178.57,143.22,181.76,145.23z"/>
					<path class="st4" d="M102.75,39.41c-0.07,1.1-0.14,2.2-0.21,3.31c-2.61,0.65-2.5,3.04-3.14,4.94
						c-0.87-0.44-1.64-0.16-2.44,0.33c0.97,0.52,1.61,1.17,1.31,2.33c-1.47-0.47-1.61,1.27-2.61,1.58l-0.03,0.05
						c-0.18-0.22-0.35-0.45-0.53-0.67c0.01-0.13-0.03-0.26-0.1-0.37c1.61-1.4,0.96-3.74,2.32-5.37c0.78-0.93,2.18-2.02,1.51-3.71
						C100.15,41.05,100.79,39.16,102.75,39.41z"/>
					<path class="st3" d="M137.65,82.31c-0.43-0.08-0.89-0.09-1.3-0.25c-1.77-0.66-4.92-0.23-4.97-2.04c-0.04-1.4,2.66-3,4.66-3.86
						c0.43,1.25,0.85,2.51,1.28,3.76v-0.05C137.42,80.68,137.53,81.49,137.65,82.31z"/>
					<path class="st1" d="M164.01,132.64c-1.94-0.34-3.88-0.74-5.83-1.01c-1.31-0.18-1.08-0.84-0.73-1.69
						c0.37-0.91,0.91-1.86,0.91-2.78c0-1.15-0.42-2.37-2.09-2.07h0.01c0.03-0.14,0.05-0.29,0.07-0.44c0.29-0.38,0.58-0.76,0.87-1.13
						c0.34-0.07,0.69-0.14,1.03-0.2c1.73,0.96,1.31,3.06,1.39,4.26c0.17,2.48,1.94,2.88,3.27,3.97
						C163.31,131.88,163.64,132.28,164.01,132.64z"/>
					<path class="st4" d="M170.38,136.55c-0.16,0.49-0.32,0.98-0.48,1.47c-0.39,0.35-0.78,0.71-1.16,1.06c-0.47,0-0.94,0-1.41,0
						c-0.31-0.86-0.76-1.54-1.82-1.5c-0.17-0.19-0.35-0.38-0.52-0.57c0.06-0.68,0.65-1.53-0.6-1.77c0.24-0.66,0.47-1.33,0.71-1.99
						C167.53,133.3,168.52,135.62,170.38,136.55z"/>
					<path class="st4" d="M157.21,123.52c-0.29,0.38-0.58,0.76-0.87,1.13c-0.2,0.08-0.41,0.16-0.61,0.24
						c-0.86-0.12-1.66-0.32-1.93-1.31l0.04-0.24l-0.06,0.23c-1.73,0.08-1.48-1.7-2.32-2.45c0.25-0.57,0.5-1.14,0.75-1.71
						c1.71,0.05,3.53-0.18,3.67,2.41c0.05,0.89,1.59,0.2,1.83,1.19c-0.31,0.08-0.62,0.16-0.92,0.25
						C156.93,123.36,157.07,123.44,157.21,123.52z"/>
					<path class="st4" d="M199.57,157.42c-0.16-0.65-0.32-1.31-0.48-1.96c2.45-0.01,4.09,2.24,6.51,2.32
						c0.33,0.92-0.33,1.4-0.86,1.94c-0.29,0.53-0.77,0.67-1.34,0.62C201.83,159.76,200.02,159.49,199.57,157.42z"/>
					<path class="st2" d="M98.83,41.83c0.67,1.69-0.73,2.77-1.51,3.71c-1.36,1.63-0.71,3.97-2.32,5.37
						c-0.62-0.06-1.25-0.12-1.87-0.18C94.48,47.41,95.64,43.97,98.83,41.83z"/>
					<path class="st2" d="M198.6,155.09c-2.78-0.04-5.73,0.97-8.17-1.27c0.64,0,1.03-0.27,1.06-0.95c0.2-0.03,0.39-0.06,0.59-0.1
						c1.54,1.06,1.57-0.06,1.63-1.13C195.34,152.79,196.97,153.94,198.6,155.09z"/>
					<path class="st1" d="M193.71,151.64c-0.07,1.07-0.1,2.19-1.63,1.13c-0.04-0.54-0.16-1.05-0.86-0.92
						c-0.19,0.04-0.34,0.33-0.5,0.51c0.26,0.17,0.52,0.34,0.78,0.51c-0.02,0.68-0.42,0.95-1.06,0.95c-1.5-0.58-1.76-2.9-3.8-2.72
						c0.36-2.52,1.88-1.13,2.9-0.75c0.84,0.32,1.47,1.45,2.46,0.28C192.57,150.97,193.14,151.31,193.71,151.64z"/>
					<path class="st1" d="M54.4,211.18c0.11-0.41,0.21-0.82,0.32-1.24c2.29,2.02,3.65-2.24,5.78-0.85c0.32,0.21,0.29,0.95,0.43,1.45
						c-0.42,0.31-0.82,0.66-1.27,0.92c-1.1,0.65-2.2,2.11-3.29-0.13C56.02,210.63,55.07,211.25,54.4,211.18z"/>
					<path class="st1" d="M214.9,164c-1.59,2.39-3.29,0.23-4.94,0.12c-0.19-0.66-0.39-1.32-0.58-1.98c0.1-0.14,0.17-0.29,0.21-0.46
						C211.6,161.92,213.26,162.93,214.9,164z"/>
					<path class="st4" d="M216.47,168.46c-0.94-1.9,0.67-2.71,1.62-3.79c1.02,0.39,1.82,1,2.18,2.08c-0.84,1.53-2.43,1.38-3.81,1.7
						L216.47,168.46z"/>
					<path class="st2" d="M149.6,112.17c-1.82,0.44-2.2-0.95-2.82-2.14c-0.71-1.36-1.02-2.82-1.34-4.29
						c0.59-0.01,1.27-0.22,1.49,0.64C147.47,108.47,148.71,110.24,149.6,112.17z"/>
					<path class="st2" d="M204.75,159.72c0.53-0.54,1.18-1.02,0.86-1.94c2.59,0.02,3.61,1.64,3.99,3.91
						c-0.04,0.16-0.12,0.32-0.21,0.46c-0.71-0.09-1.42-0.18-2.12-0.26C207.65,159.73,206.36,159.54,204.75,159.72z"/>
					<path class="st4" d="M233.78,172.87c-0.48,0.57-1.3,0.63-1.71,0.34c-1.96-1.38-4.15-2.45-5.84-4.21
						C229,169.8,231.42,171.27,233.78,172.87z"/>
					<path class="st3" d="M227.84,226.95c1.67-1.9,5.71-3.26,7.64-2.57c-1.76,0.72-3.52,1.45-5.28,2.17
						c-0.53-0.15-0.96-0.04-1.26,0.45l0,0C228.57,226.98,228.21,226.96,227.84,226.95z"/>
					<path class="st5" d="M139.07,103.43c1.39-1.27,3.02,1.02,4.41-0.29c0.42,0.87,1.61,1.19,1.66,2.32
						C142.81,105.69,141.14,103.95,139.07,103.43z"/>
					<path class="st4" d="M50.59,60.05c-0.67-0.5-1.34-1-2.22-1.09c1.08-1.64,3.07-0.71,4.43-1.55c-0.2,0.53-0.41,1.05-0.61,1.58
						C51.66,59.34,51.12,59.69,50.59,60.05z"/>
					<path class="st4" d="M42.15,68.16c1.4-0.16,1.54-2.18,3.09-2.12c-0.9,1.45-1.81,2.89-2.71,4.34
						C41.94,69.72,41.93,68.96,42.15,68.16z"/>
					<path class="st2" d="M36.53,189.67c-0.96-0.03-1.09,0.61-1.08,1.36c0.01,0.66-0.17,1.18-0.93,1.29
						c-0.17-1.49,0.26-2.9,0.52-4.34c0.77,0.13,1.28,0.56,1.55,1.29C36.62,189.41,36.6,189.55,36.53,189.67z"/>
					<path class="st4" d="M107.65,39.85c-1.37,0.07-3.09,2.18-3.96-0.68C105.08,39.02,106.36,39.48,107.65,39.85z"/>
					<path class="st1" d="M52.19,58.99c0.2-0.53,0.41-1.05,0.61-1.58c0.45-0.5,0.86-1.05,1.64-1.03
						C55.68,58.96,53.72,58.78,52.19,58.99z"/>
					<path class="st3" d="M200.79,234.72c0.12-1.64,1.1-2.49,2.61-2.86C203.73,233.91,202.74,234.75,200.79,234.72z"/>
					<path class="st2" d="M136.21,68.85c0.9,0.36,2.32-0.83,2.77,0.92c-0.14,0.14-0.28,0.27-0.42,0.41
						c-0.93,0.05-1.87,0.11-2.8,0.17C135.9,69.84,136.06,69.35,136.21,68.85z"/>
					<path class="st1" d="M47.91,206.94c0.45-1.27,1.71-1.26,2.69-1.49c0.97-0.23,1.83,0.14,1.17,1.46
						C50.47,205.35,49.2,207.24,47.91,206.94z"/>
					<path class="st3" d="M203.52,231.51c0.04-1.46,0.65-2.12,2.14-1.51c1.44,0.59-0.17,0.97-0.1,1.47
						C204.88,231.48,204.2,231.5,203.52,231.51z"/>
					<path class="st3" d="M239.31,222.45c0.03-0.62-0.41-1.46,0.49-1.73c0.53-0.16,0.84,0.43,1.07,0.89
						C240.5,222.17,239.97,222.44,239.31,222.45z"/>
					<path class="st4" d="M42.5,71.47c0.75,0.82,0.49,1.34-0.48,1.65C41.75,72.44,41.98,71.92,42.5,71.47z"/>
					<path class="st2" d="M33.87,199.34c0.93,0.45,1.09,1.26,1.03,2.17C33.95,201.08,33.75,200.29,33.87,199.34z"/>
					<path class="st2" d="M33.86,197.19c0.66,0.56,0.65,1.09-0.04,1.61C33.4,198.26,33.53,197.72,33.86,197.19z"/>
					<path class="st4" d="M40.45,101.3c0.64,0.55,0.3,0.87-0.27,1.13C39.93,101.97,40.06,101.6,40.45,101.3z"/>
					<path class="st2" d="M35.98,170.63c0.89,0.1,1.13,0.62,0.92,1.43C36.39,171.71,36,171.29,35.98,170.63z"/>
					<path class="st2" d="M34.38,193.39c0.68,0.48,0.53,0.83-0.16,1.12C34.28,194.14,34.33,193.76,34.38,193.39z"/>
					<path class="st2" d="M240.83,178.22c-0.81-0.06-1.09-0.53-0.98-1.29C240.44,177.17,240.75,177.61,240.83,178.22z"/>
					<path class="st2" d="M149.77,113.62c-0.03-0.4-0.06-0.81-0.09-1.21C150.25,112.77,150.17,113.18,149.77,113.62z"/>
					<path class="st2" d="M157.21,123.52c-0.14-0.08-0.28-0.17-0.42-0.25c0.31-0.08,0.62-0.17,0.92-0.25c0.18,0.1,0.35,0.2,0.53,0.3
						C157.9,123.39,157.56,123.46,157.21,123.52z"/>
					<path class="st2" d="M119.36,48.19c-0.54-0.23-0.55-0.66-0.43-1.15C119.07,47.43,119.21,47.81,119.36,48.19z"/>
					<path class="st2" d="M227.84,226.95c0.37,0.01,0.73,0.03,1.1,0.04c-0.23,0.51-0.68,0.47-1.13,0.45
						C227.81,227.28,227.82,227.11,227.84,226.95z"/>
					<path class="st2" d="M228.93,226.99c0.3-0.49,0.74-0.6,1.26-0.45C229.89,227,229.41,227,228.93,226.99z"/>
					<path class="st4" d="M173.05,138.14c-0.18-0.08-0.36-0.16-0.54-0.23C172.85,137.63,172.96,137.88,173.05,138.14z"/>
					<path class="st4" d="M39.89,115.87c0.38,0.25,0.24,0.43-0.09,0.57C39.83,116.25,39.86,116.06,39.89,115.87z"/>
					<path class="st1" d="M61.83,211.33c0.05,0.18,0.1,0.36,0.15,0.53c-0.09-0.11-0.19-0.22-0.25-0.34
						C61.71,211.49,61.79,211.4,61.83,211.33z"/>
					<path class="st5" d="M137.3,79.88v0.05c0.06,0,0.12,0,0.18,0C137.42,79.9,137.36,79.88,137.3,79.88z"/>
					<path class="st4" d="M224.05,167.97c-0.28,0.38-0.44,0.28-0.51-0.13C223.71,167.88,223.88,167.92,224.05,167.97z"/>
					<path class="st2" d="M92.49,52.5c0.03,0.14,0.08,0.28,0.09,0.42c0,0.04-0.14,0.08-0.22,0.11C92.4,52.86,92.45,52.68,92.49,52.5
						z"/>
					<path class="st2" d="M227.4,227.6c0.07-0.12,0.18-0.16,0.32-0.12l-0.12,0.18L227.4,227.6z"/>
					<polygon class="st2" points="223.67,228.6 223.79,228.49 223.94,228.56 223.81,228.72 					"/>
					<path class="st2" d="M123.41,48.63c-0.22-0.03-0.43-0.07-0.65-0.1C122.97,48.56,123.19,48.59,123.41,48.63z"/>
					<path class="st4" d="M236.8,173.4c-0.17,0.04-0.27-0.03-0.3-0.2l0.22-0.01L236.8,173.4z"/>
					<path class="st1" d="M56.58,73.64c0.76,0.06,1.45-0.14,2.09-0.54c1.25-0.01,2.51-0.11,3.68,0.91c0.35-1.16-0.08-2.47,1.23-2.97
						c3.67-1.4,7.4-2.69,11-4.27c1.79-0.79,1.87,1.38,3.02,1.35c1.76-0.05-0.05-2.36,1.93-2.83c4.14-0.98,8.3-0.85,12.46-1.04
						c3.69-0.17,6.95,1.28,10.13,2.95c0,0.23,0.01,0.46,0.01,0.69c-0.2,0.13-0.4,0.26-0.6,0.4c-2.15,0.21-3.85,3.3-3.13,5.99
						c0.45,1.67,1.02,3.35,2.2,4.71c-1.51,0.2-3.01,0.39-4.52,0.59c1.01-1.03,1.31-2.25,1.03-3.64c-0.21-1.48,1.09-3.77-0.82-4.24
						c-1.89-0.47-4.12-2.42-6.18-0.13c-2.95,1.35-4.02,3.44-3.01,6.2c0.8,2.18,2.73,3.2,4.71,4.1c0.1,0.93,0.6,0.92,1.33,0.64
						c1.35-0.52,2.76-0.63,4.2-0.77c3.29-0.31,6.06,1.3,9.02,2.15c1.08,0.31,2.65-1.32,3.21,0.69c0.35,1.28,0.85,2.57,0.65,3.96
						c-0.18,1.23-0.34,2.47-0.51,3.71c-0.04,0.67-0.08,1.35-0.13,2.02c-0.77,0.07-1.42,0.37-1.44,1.23
						c-0.03,1.08,0.88,0.85,1.53,0.93c0.16,0.54,0.31,1.08,0.47,1.62c-0.96-0.5-1.81-0.73-1.36,0.87c0.21,0.73,0.21,1.18-0.63,1.31
						c-0.29-0.93-0.74-1.79-0.76-2.84c-0.06-3.24-1-4.08-4.28-4.29c-2.77-0.18-4.39,1.49-5.45,3.64c-1.07,2.18-0.4,4.15,1.48,5.75
						c2.45,2.11,4.67,1.83,8.66-1.24c2.73,2.4,3.22,4.15,1.31,6.91c-1.15,1.67-1.69,3.85-4.11,4.72c-1.1,0.39-1.72,2.27-2.42,3.55
						c-0.52,0.95-1.19,1.53-2.23,1.76c-2.62,0.58-5.23,1.17-7.65,2.38c-0.57,0.29-1.28,0.41-1.74-0.18
						c-0.42-0.55-0.38-1.31,0.14-1.73c2.01-1.61,1.29-4.72,3.48-6.22c0.22-0.15,0.25-0.59-0.06-0.65c-1.7-0.32-1.73-0.87-0.3-1.71
						c-1.65-1.56-0.28-3.55-0.76-5.34c-1.4-5.24-1.5-10.83-4.51-15.62c-3.19-5.09-8.68-7.26-14.59-6.01
						c-4.15,0.88-7.83,2.98-11.88,4.07c-0.14-0.5-0.29-1.77-0.63-1.22c-0.86,1.42-2.8,1.4-3.54,3.02c0.62-0.07,1.04-0.12,1.47-0.17
						c-0.42,1.68-1.99,1.7-3.2,2.22L56.54,91c-0.07-0.44-0.12-0.92-0.69-0.99c-0.73-0.09-0.87,0.43-0.95,0.99l0.01-0.01
						c-3.29,0.27-1.9-2.23-2.15-3.72c-0.1-0.58-0.12-1.34,0.68-1.56c0.69-0.19,1.42-0.32,1.9,0.48c1.15,1.93,2.11,0.74,3.17-0.16
						c1.95-1.66,0.68-4.34,2.05-6.23c0.35-0.49-0.74-0.9-1.07-0.6c-1.87,1.68-4.62,0.45-6.5,2.05c-0.87,0.75-1.88,0.1-2.15-0.48
						c-0.6-1.29,0.73-1.01,1.39-1.25c1.27-0.48,3.29-0.67,1.06-2.59c0.78-0.11,1.47,0.15,2.13,0.54c0.2,0.37,0.39,0.39,0.56-0.01
						c0.04-0.08,0.08-0.16,0.12-0.24c-0.04,0.08-0.09,0.15-0.14,0.23c-0.17,0-0.34-0.01-0.52-0.01
						C54.59,75.79,57.42,75.23,56.58,73.64z"/>
					<path class="st1" d="M159.57,164.82c-0.01,0.13-0.02,0.26-0.02,0.39v0.01c-1.32,0.12-2.44-0.32-3.53-1.07
						c-5.99-4.12-12.05-8.13-17.98-12.33c-2.58-1.83-5.85-1.96-8.37-3.91c-3.27-2.53-7.54-3.11-11.02-5.33
						c-1.15-0.73-1.53-1.3-1.01-2.82c-1.23,2.19-2.9,1.79-4.19,1.01c-1.73-1.06-3.56-1.04-5.36-0.98c-2.71,0.08-4.85-1.87-7.54-1.85
						c-0.79,0.01-1.23-1.09-0.44-1.88c1.6-1.61,3.05-3.47,5.49-3.9c1.59-0.28,2.46-2.03,4.25-1.97c0.69,0.02,1.41-0.41,1.88,0.45
						c0.33,0.58-0.04,2.03,0.69,1.74c1.49-0.57,3.1-0.19,4.45-0.86c0.61-0.31,1.18-0.51,1.75-0.4c1.92,0.38,3.75,1.11,5.18-1.2
						c0.47-0.76,0.95-0.41,1.07,2.12c-0.52,1.64-2.07,2.38-3.11,3.56c-1.65,1.86-1.58,3.45,0.3,5.03c2.91,2.43,6.57,1.23,8.98-2.95
						c0.3-0.03,0.59-0.05,0.89-0.08c1.09,0.59,2.01-1.74,2.75-0.49c0.77,1.33,1.54,1.32,2.71,1.11c0.46-0.08,0.97,0.23,0.93,0.75
						c-0.12,1.58,1,2.05,1.94,2.98c0.83,0.82,2.71,1,2.52,2.78c0.02,0.96-0.76,1.36-1.33,1.92c-2.07,2.04-1.89,3.27,0.69,4.95
						c1.33,1.36,3.05,2.37,4.74,1.37c1.66-0.98,3.3-1.61,5.15-1.86c1.83-0.33,1.84,1.63,2.76,2.4c1.32,1.12,3.14,1.26,4.24,2.6
						c0.08,1.04,1,2.12-0.14,3.11c-2.07,0.7-1.83,1.9-0.72,3.3C158.33,163.47,158.5,164.41,159.57,164.82z"/>
					<path class="st5" d="M100.85,212.38c1.26-0.94,2.63-0.7,3.82-0.06c8.22,4.45,16.88,7.86,25.9,10.17
						c5.96,1.53,12.11,2.42,18.27,3.08c3.87,0.41,7.77,0.62,11.62,1.7c2.68,0.75,5.73,0.19,8.61,0.26c0.9,0.02,2.34-0.3,1.35,1.49
						c-3.27-0.21-6.38,1.09-9.64,1.02c-14.46-0.32-28.5-2.73-42.1-7.88C112.22,219.73,106.35,216.44,100.85,212.38z"/>
					<path class="st2" d="M53.35,76.91c2.22,1.92,0.21,2.11-1.06,2.59c-0.66,0.25-1.99-0.04-1.39,1.25
						c0.27,0.58,1.28,1.22,2.15,0.48c1.87-1.61,4.62-0.37,6.5-2.05c0.33-0.29,1.42,0.11,1.07,0.6c-1.37,1.89-0.1,4.58-2.05,6.23
						c-1.05,0.89-2.01,2.08-3.17,0.16c-0.48-0.8-1.21-0.67-1.9-0.48c-0.8,0.22-0.78,0.98-0.68,1.56c0.25,1.48-1.15,3.98,2.15,3.72
						c0.03,1.26-1.83,1.36-1.65,2.7c-1.36,1.36-3.18,2.19-4.34,3.78c-0.36,0.01-0.71,0.01-1.07,0.02l0.01,0.01
						c-1.54-2.12-1.54-4.81-2.66-7.09c-0.15-0.31,0.11-0.85,0.23-1.27c0.11-0.36,1.07-0.1,0.69-0.74c-0.17-0.28-0.82-0.37-1.25-0.37
						c-1.01,0-1.33,1.13-2.17,1.45c-0.61-0.21-1.21-0.42-1.81-0.63c-0.64-0.28-0.61-0.88-0.69-1.43c0.28-0.27,0.55-0.54,0.83-0.81
						c0.4,0.82,0.48,2.19,1.96,1.12c1.2-0.49,1.58-1.6,2.1-2.65c1.79-3.65,4.56-6.35,8.14-8.26L53.35,76.91z"/>
					<path class="st4" d="M116.77,118.03c0.64,1.87,2.18,3.87-0.71,5.27c-2.34,1.09-4.72,2.01-7.38,1.32
						c1.14-1.99,0.62-3.63-1.03-5.05c-0.16-0.23-0.31-0.48-0.58-0.12c-0.02,0.02,0.23,0.23,0.35,0.35c0.36,1.56,0.72,3.13,1.08,4.69
						c-1.12,0.88-2.21,1.83-3.76,2.12c1.05,0,2.09,0,3.36,0c-2.32,1.88-3.93,1.9-6.09,0.14c-1.86-1.51-2.59-3.46-1.69-5.76
						c0.84-2.13,3.66-3.9,5.59-3.38c1,0.27,1.68,0.45,2.24-0.55c2.15,1,4.25,2.14,6.76,1.12
						C115.46,117.97,116.14,118.07,116.77,118.03z M105.6,118.65c-0.16,0.12-0.27,0.19-0.38,0.27c0.15,0.06,0.3,0.16,0.45,0.16
						s0.3-0.1,0.44-0.16C105.94,118.83,105.76,118.74,105.6,118.65z"/>
					<path class="st5" d="M36.53,189.67c0.07-0.13,0.09-0.26,0.05-0.4c3.07,0.47,5.91,1.69,8.79,2.77c1.29,0.48,2.48,0.81,3.81,0.52
						c0.52,1.26,1.54,1.58,2.77,2.1c5.24,2.27,10.73,3.78,16.08,5.7c1.06,0.38,1.86,1.08,2.15,2.23c-1.37,0.75-2.79,0.54-4.19,0.18
						c-5.75-1.47-11.35-3.37-16.88-5.56c-2.97-1.18-6-2.18-8.76-3.81C38.7,192.55,37.68,191.05,36.53,189.67z"/>
					<path class="st1" d="M67.96,138.66c1.29-0.15,0.53-0.74,0.26-1.21c-0.77-1.32,0.16-2.64,0.74-3.32
						c0.82-0.95,1.57,0.52,2.29,1.07c0.84,0.64,1.74,1.24,2.14,2.3c-1.01-0.49-1.91-0.27-2.73,0.45c-0.06-0.33-0.13-0.65-0.19-0.98
						c-0.59,0.17-0.23,0.68-0.37,1.01c0.17,0.29,0.3,0.62,0.52,0.88c0.89,1.04,1.57-0.94,2.31-0.23c1.29,1.25-1.46,0.76-0.85,1.79
						c0.09,0.15,0.2,0.3,0.33,0.42c2.43,2.22,4.86,4.44,7.65,6.98c-0.55-2.01,1.51-4.39-1.82-5.02c1.32-1.46,1.32-1.46-1.45-4.33
						c3.89,0.66,4.34,3.88,5.78,6.18c-0.83,1.37-0.36,3.5-2.43,4.15c0.09,0.24,0.18,0.49,0.27,0.73c-3.13-0.23-5.97-0.8-7.96-3.75
						c-1.61-2.4-4.48-3.92-5.07-7.08C67.59,138.68,67.78,138.67,67.96,138.66z"/>
					<path class="st1" d="M142.24,219.33c-4.48-0.19-8.72-1.65-13.09-2.43c-5.28-0.94-10.07-3.34-15-5.25
						c-2.1-0.81-3.62-2.8-6.05-3.28c-4.79-0.94-7.72-5.2-12.05-7.02c-0.24-0.1-0.3-0.6-0.45-0.92c3.2,0.45,5.65,2.58,8.44,3.9
						c8.71,4.13,17.25,8.64,26.47,11.55c3.38,1.07,6.92,1.65,10.39,2.4C141.59,218.44,142.13,218.55,142.24,219.33z"/>
					<path class="st2" d="M45.21,116.98c0.23,2.1,1.86,4.14,0.08,6.34c-0.35,0.44,0.12,0.89,0.99,1.06c1.74,0.35,2.67,1.96,3.66,3.3
						c0.27,0.36,0.42,1.11-0.26,1.36c-0.42,0.16-0.81-0.2-1.12-0.57c-2.04-2.49-4.02-2.44-6.07,0.17c-0.29,0.37-0.44,0.79-1,0.65
						c-0.55-0.14-0.51-0.65-0.64-1.07c-1.32-4.18-0.58-8.23,0.94-12.17c0.57-1.47,0.77-2.94,0.71-4.49
						c-0.05-1.13,0.21-1.85,1.52-1.08C44.23,112.68,43.73,115.01,45.21,116.98z"/>
					<path class="st4" d="M107.84,101.22c-3.99,3.07-6.21,3.35-8.66,1.24c-1.87-1.61-2.55-3.58-1.48-5.75
						c1.06-2.15,2.67-3.82,5.45-3.64c3.28,0.21,4.22,1.05,4.28,4.29c0.02,1.05,0.47,1.9,0.76,2.84
						C108.07,100.54,107.95,100.88,107.84,101.22z M104.11,96.86c2.6,1.3,0.48,3.16,0.33,5.17c2.25-1.45,3.05-3.09,2.2-5.19
						c-0.81-2-2.46-2.81-4.6-2.26c-0.26,0.07-1.58-0.29-0.8,0.9c-0.09,0.5-0.97,0.56-0.72,1.32
						C101.72,96.59,102.92,96.45,104.11,96.86z M103.57,102.07c-0.87-0.35-1.47-0.49-2.1,0.03
						C102.09,102.46,102.67,102.43,103.57,102.07z"/>
					<path class="st5" d="M133.68,105.56c-4.73,2.22-9.46,4.41-14.17,6.66c-1.52,0.72-3.18,1.21-4.44,2.42
						c-1.6,0.58-3.22,0.98-4.93,0.57c2.03-3.51,5.64-4.87,9.07-6.28c3.51-1.44,6.87-3.34,10.67-4.03c0.75-0.22,1.52-0.41,2.26-0.67
						C133.45,103.78,133.71,104.49,133.68,105.56z"/>
					<path class="st4" d="M131.05,137.65c-2.4,4.18-6.07,5.38-8.98,2.95c-1.89-1.58-1.96-3.16-0.3-5.03
						c1.05-1.18,2.6-1.92,3.11-3.56c0.71,0.27,1.4,0.26,2.05-0.18C128.99,133.29,131.69,134.29,131.05,137.65z M128.13,139.21
						c-1.63,0.21-3.18,1.16-4.93,0.24c1.79,1.37,3.46,1.55,4.91-0.26c0.04-0.06,0.07-0.13,0.11-0.19
						C128.19,139.07,128.16,139.14,128.13,139.21z"/>
					<path class="st2" d="M181.23,154.48c-1.48,0.68-3.07,0.86-4.65,0.85c-1.39-0.01-2.62,0.32-3.72,1.16
						c-0.28,0.01-0.56,0.03-0.83,0.05c-0.1-0.79,0.81-1.44,0.19-2.49c-1.04,0.95-2.71,0.24-3.68,1.68c-0.3,0.45-1.28-0.14-1.06-0.58
						c0.93-1.9-0.73-1.37-1.61-1.7c1.34-0.4,1.98-1.78,3.37-1.79c1.04,0.36,3.01,1.12,2.92,0c-0.22-2.82,1.76-1.62,2.42-1.43
						c1.94,0.56,3.92,1.13,5.66,2.29C181.03,153.03,181.31,153.61,181.23,154.48z"/>
					<path class="st2" d="M187.24,160.95c0.16-0.19,0.32-0.38,0.48-0.56c0.41,1.47,1.03,0.76,1.67,0.18
						c2.42-2.18,7.27-1.4,9.23,1.47v-0.06c-0.54,0-0.99,0.14-1.12,0.75c-1.97,1.6-4.41,2.15-6.71,3c1.15-2.61-1.06-0.74-1.55-1.16
						c-0.15-0.38-0.3-0.76-0.45-1.14c-0.04-0.33-0.09-0.74-0.48-0.69c-0.22,0.02-0.4,0.41-0.59,0.63c-0.18,0.08-0.35,0.16-0.53,0.24
						c-1.09,0.37-1.8,1.04-1.74,2.29c-0.61-1.45-1.83-1.25-3.02-1.12c-0.03-0.39-0.06-0.77-0.09-1.16c0.5,0,1,0,1.5-0.01
						C185.4,163.27,186.41,162.23,187.24,160.95z"/>
					<path class="st4" d="M169.23,151.65c-1.39,0.01-2.03,1.39-3.37,1.79c0.88,0.33,2.54-0.19,1.61,1.7
						c-0.22,0.44,0.76,1.03,1.06,0.58c0.97-1.44,2.64-0.73,3.68-1.68c0.63,1.05-0.29,1.71-0.19,2.49c-1.08,1.27-2.17,2.54-3.25,3.81
						c-1.08-0.72-2.16-1.44-3.24-2.16l-0.04-0.03c-0.54-0.86-1.42-1.23-2.29-1.61c0.54-1.91,1.36-3.68,2.59-5.25
						c0.95-0.09,1.9-0.18,2.84-0.27C168.83,151.23,169.03,151.44,169.23,151.65z"/>
					<path class="st4" d="M110.17,98.03c-0.16-0.54-0.31-1.08-0.47-1.62c-0.03-0.72-0.06-1.44-0.1-2.16
						c0.04-0.67,0.08-1.35,0.12-2.02c0.34-0.03,0.69-0.06,1.03-0.08c0.3,3.36,2.72,1.32,4.21,1.64c0.57,1.77,1.15,3.53,1.72,5.3
						c-0.76,0.82-2.13,0.77-2.71,1.87C111.32,101.79,110.88,99.73,110.17,98.03z"/>
					<path class="st2" d="M188.18,169.44c-1.12,3.58-2.81,4.91-6.25,4.98c-0.79,0.02-1.58,0.21-2.38,0.29
						c-2.06,0.2-3.17-1.26-2.72-3.54c0.99,1,2.43,1.01,3.61,1.64c1.68,0.91,2.8-0.39,3.55-1.52c1.04-1.56-0.65-1.89-1.55-2.49
						c-1-0.67-2.08-1.07-3.32-0.8c-0.02-0.39-0.04-0.77-0.06-1.16c1.13,0.17,2.15-0.31,3.21-0.56
						C183.29,169.1,185.79,169.17,188.18,169.44z"/>
					<path class="st2" d="M131.05,137.65c0.64-3.36-2.05-4.36-4.12-5.81c0.68-1.52,0.86-3.36,2.73-4.07
						c1.27-0.11,1.85-1.85,3.35-1.44c-0.51,1.94,2.37,1.91,2.13,3.69c-0.94-0.01-1.89-0.03-2.83-0.04c-1.38-1.01-2,0.39-2.09,1.06
						c-0.17,1.35,0.94,1.7,2.15,1.62c0.07,1.64,1.01,0.91,1.78,0.66c0.47,2.04-2.34,2.38-2.2,4.25
						C131.64,137.6,131.34,137.63,131.05,137.65z"/>
					<path class="st1" d="M70.67,137.94c0.82-0.72,1.71-0.94,2.73-0.45c1.08,0.75,1.75,1.95,2.96,2.6c0.42,0.23,1.06,0.89,0.66,1.57
						c-1.45,2.47,0.68,0.93,1.24,1.13c3.33,0.63,1.27,3.01,1.82,5.02c-2.79-2.55-5.23-4.76-7.65-6.98
						c-0.13-0.12-0.24-0.27-0.33-0.42c-0.61-1.03,2.14-0.54,0.85-1.79c-0.74-0.71-1.43,1.27-2.31,0.23
						c-0.22-0.26-0.35-0.58-0.52-0.88C70.29,137.97,70.48,137.96,70.67,137.94z"/>
					<path class="st2" d="M165.53,158.18c1.08,0.72,2.16,1.44,3.24,2.16c-0.68,0.79,1.65,2.19-0.54,2.68
						c-0.08-0.04-0.17-0.07-0.25-0.11c0.07,0.04,0.15,0.09,0.22,0.13c-0.03,0.16-0.04,0.32-0.04,0.48
						c-1.15-0.09-2.17,0.34-3.18,0.79l0.01-0.16c-2.27-0.55-4.54-1.1-6.8-1.65c-1.12-1.39-1.35-2.6,0.72-3.3
						c0.64,2.83,1.65,3.62,4.54,3.16C165.93,161.98,165.51,159.92,165.53,158.18z"/>
					<path class="st1" d="M183.83,163.59c-0.5,0-1,0-1.5,0.01c-1.31-0.76-2.56-1.62-4.18-0.52c-1.57,1.07-1.28-0.96-1.96-1.41
						c-0.72-0.47-0.25-1.48,0.52-1.64c1.83-0.37,3.64-0.93,5.57-0.78c1.48,0.12,0.79,1.69,1.63,2.18
						C183.89,162.14,183.86,162.87,183.83,163.59z"/>
					<path class="st4" d="M188.18,169.44c-2.39-0.27-4.89-0.34-5.91-3.17c0.05-0.5,0.1-1.01,0.16-1.51
						c1.19-0.13,2.41-0.33,3.02,1.12c0.65,0.67,1.3,1.63,1.98,0.02c0.79-0.19,1.48-0.53,1.81-1.34c0.49,0.42,2.7-1.44,1.55,1.16
						c-0.07,0.08-0.11,0.19-0.1,0.32c-0.7,0.97-1.4,1.94-2.09,2.91C188.46,169.11,188.32,169.28,188.18,169.44z"/>
					<path class="st2" d="M110.14,115.21c1.71,0.41,3.33,0,4.93-0.57c1.59,0.62,1.47,2.09,1.7,3.39c-0.62,0.04-1.31-0.06-1.86,0.16
						c-2.51,1.02-4.61-0.12-6.76-1.12C107.93,115.5,109.12,115.45,110.14,115.21z"/>
					<path class="st1" d="M202.55,195.97c-0.78-0.11-1.4-0.33-1.65-0.96c-0.19-0.47,0.15-0.74,0.57-1.03
						c2.04-1.39,4.67-1.35,6.68-2.99c0.73-0.6,2.19,0.51,2.99,1.34c0.54,0.56,0.03,0.93-0.61,1.03c-1.24,0.19-2.47,0.47-3.71,0.54
						c-1.2,0.06-2.31,0.04-3.04,1.27C203.56,195.57,202.92,195.74,202.55,195.97z"/>
					<path class="st4" d="M129.21,153.82c-0.96-0.04-1.78-0.14-2.71-0.73c-1.75-1.12-3.55-2.24-6.41-2.67
						c1.86-1.37,2.99-2.54,4.33-1.38c1.69,1.47,5,1.43,4.76,4.81L129.21,153.82z"/>
					<path class="st5" d="M133.68,105.56c0.03-1.07-0.23-1.78-1.54-1.33c-0.74,0.26-1.51,0.45-2.26,0.67
						c-0.22-0.84,0.96-0.69,1.01-1.36c-1.19-0.5-2.51,0.28-3.64-0.47c3.55-0.77,7.08-1.14,10.58,0.23
						C135.92,103.1,135.39,105.41,133.68,105.56z"/>
					<path class="st1" d="M118.04,198.24c-1.54,0.09-2.43-0.39-2.37-1.95c0.07-1.78,1.37-2.24,2.76-2.29
						c0.94-0.03,2.21,0.26,1.93,1.62C120.1,196.87,120.19,198.78,118.04,198.24z"/>
					<path class="st4" d="M129.19,153.85c1.06-1.62,2.2-2,3.74-0.46c0.52,0.52,1.41,0.73,2.16,0.96c0.61,0.19,1.37,0.17,1.07,1.1
						c-0.21,0.64-0.79,1.14-1.44,0.98c-2-0.49-4.18-0.67-5.5-2.61L129.19,153.85z"/>
					<path class="st1" d="M179.59,228.7c1.35,0.34,2.47,0.58,3.56,0.91c0.56,0.17,0.87,0.67,0.66,1.26
						c-0.24,0.66-0.71,1.02-1.45,0.7c-0.89-0.39-1.74-0.86-2.77-0.82c-0.78,0.03-1.9,0.07-1.82-0.98
						C177.83,228.75,178.91,228.65,179.59,228.7z"/>
					<path class="st4" d="M158.18,162.51c2.27,0.55,4.54,1.1,6.8,1.65c-1.74,0.77-3.6,0.49-5.41,0.66
						C158.5,164.41,158.33,163.47,158.18,162.51z"/>
					<path class="st2" d="M55.73,122.35c2.14,1.01,4.64,0.94,7.05,2.3C59.52,125.57,57.7,123.64,55.73,122.35z"/>
					<path class="st1" d="M161.75,166.8c1.91,0.56,3.7,1.34,5.69,2.94c-3.34,0.87-4.37-1.31-5.75-2.87L161.75,166.8z"/>
					<path class="st2" d="M67.32,138.2c-1.53-0.46-1.4-1.96-1.88-3.06c-0.26-0.59-0.33-1.26,0.28-1.71
						c0.18-0.13,0.55-0.15,0.76-0.06c0.67,0.27,1.05,0.91,0.77,1.52c-0.52,1.15,0.27,2.11,0.23,3.16
						C67.49,138.06,67.32,138.2,67.32,138.2z"/>
					<path class="st2" d="M113.98,100.95c0.57-1.1,1.94-1.05,2.71-1.87c0.42,0.17,0.57,0.5,0.54,0.93
						c-0.76,0.72-1.47,1.47-0.97,2.65C114.94,102.83,114.14,102.32,113.98,100.95z"/>
					<path class="st4" d="M80.42,149.53c-0.09-0.24-0.18-0.49-0.27-0.73c2.07-0.65,1.6-2.78,2.43-4.15
						c0.59,1.72,1.33,3.49-1.09,4.48c-0.17,0.12-0.33,0.24-0.5,0.37C80.81,149.51,80.62,149.52,80.42,149.53z"/>
					<path class="st5" d="M183.83,163.59c0.03-0.72,0.06-1.45,0.09-2.17c0.06-0.37,0.12-0.75,0.18-1.11
						c0.67,2.03,2.11,0.31,3.13,0.65C186.41,162.23,185.4,163.27,183.83,163.59z"/>
					<path class="st2" d="M59.83,88.8c-0.43,0.05-0.86,0.1-1.47,0.17c0.74-1.62,2.68-1.6,3.54-3.02c0.33-0.55,0.49,0.72,0.63,1.22
						C61.63,87.71,60.73,88.26,59.83,88.8z"/>
					<path class="st1" d="M164.98,164.31c1.02-0.45,2.04-0.88,3.18-0.79c0.21,1.03-0.19,1.76-1.19,1.98
						C166.01,165.72,165.27,165.33,164.98,164.31z"/>
					<path class="st2" d="M50.07,117.53c1.6,0.34,2.42,1.5,3.39,3.16C51.23,120.35,50.5,119.1,50.07,117.53L50.07,117.53z"/>
					<path class="st1" d="M84.23,194.45c-1.77,0.19-3.22-0.21-3.83-2.12C81.8,192.82,83.61,192.56,84.23,194.45z"/>
					<path class="st1" d="M78.58,124.69c1.42-0.91,2.84-0.69,4.25-0.2C81.41,125.36,80,124.76,78.58,124.69z"/>
					<path class="st1" d="M87.25,161.85c1.37,0.09,2.59,0.49,3.71,2.1C88.97,163.87,88.13,162.85,87.25,161.85z"/>
					<path class="st4" d="M73.04,132.07c-1.36-0.56-2.71-1.12-4.51-1.86C70.81,129.8,72.12,130.61,73.04,132.07z"/>
					<path class="st1" d="M53.31,93.67c-0.18-1.34,1.68-1.45,1.65-2.7l-0.01,0.01c0.54,0,1.09,0,1.63,0l0.04,0.04
						C55.96,92.45,54.96,93.47,53.31,93.67z"/>
					<path class="st1" d="M56.62,183.53c-1.43-0.42-3.04-0.47-3.87-2.04C54.16,181.96,55.9,181.77,56.62,183.53z"/>
					<path class="st1" d="M146.55,219.42c-0.92,0.73-1.83,0.8-2.71-0.07C144.76,218.63,145.67,218.58,146.55,219.42z"/>
					<path class="st1" d="M91.28,198.25c-1.18,0.08-2.07-0.22-2.2-1.59C90.08,196.81,91.08,196.98,91.28,198.25z"/>
					<path class="st1" d="M95.59,200.44c-1.01-0.37-2.35-0.17-2.74-1.59C93.9,199.15,95.25,198.91,95.59,200.44z"/>
					<path class="st1" d="M151.43,219.96c-0.95,0.74-1.76,0.85-2.22-0.52C149.99,219.45,150.84,219.14,151.43,219.96z"/>
					<path class="st2" d="M48.99,116.45c-0.65-0.08-1.26-0.24-1.4-1c-0.06-0.31,0.14-0.54,0.47-0.46
						C48.8,115.17,48.92,115.8,48.99,116.45C49,116.44,48.99,116.45,48.99,116.45z"/>
					<path class="st5" d="M117.39,102.85c0.68-0.58,1.16-0.36,1.48,0.39C118.3,103.41,117.74,103.52,117.39,102.85z"/>
					<path class="st1" d="M86.4,195.53c-0.8,0.04-1.57,0.04-1.65-1.05C85.54,194.45,86.32,194.44,86.4,195.53z"/>
					<path class="st1" d="M51.19,181.41c-0.8,0.06-1.57,0.07-1.67-1.02C50.3,180.37,51.08,180.34,51.19,181.41z"/>
					<path class="st1" d="M88.57,196.61c-0.8,0.04-1.57,0.04-1.66-1.04C87.7,195.54,88.48,195.52,88.57,196.61z"/>
					<path class="st2" d="M65.99,124.53c0.23-0.38,0.56-0.36,0.87-0.18c0.24,0.14,0.73,0.18,0.51,0.62
						c-0.06,0.13-0.47,0.15-0.72,0.14C66.32,125.08,65.98,124.99,65.99,124.53z"/>
					<path class="st1" d="M86.39,164.13c-0.51-0.07-1.08-0.07-1.23-0.72c-0.02-0.07,0.2-0.27,0.32-0.28
						C86.19,163.07,86.33,163.57,86.39,164.13C86.39,164.12,86.39,164.13,86.39,164.13z"/>
					<path class="st2" d="M73.63,150.55c-0.93-0.19-1.76-0.5-1.88-1.63C72.46,149.37,73.37,149.59,73.63,150.55z"/>
					<path class="st1" d="M79.89,192.29c-0.7,0-1.06-0.37-1.12-1.05C79.49,191.22,79.86,191.58,79.89,192.29z"/>
					<path class="st1" d="M161.15,166.33c-0.53-0.37-1.07-0.75-1.6-1.12v-0.01c0.79-0.02,1.57-0.02,1.66,1.06
						C161.21,166.27,161.15,166.33,161.15,166.33z"/>
					<path class="st1" d="M77.2,191.17c-0.71,0.06-1.07-0.31-1.16-0.99C76.76,190.13,77.13,190.47,77.2,191.17z"/>
					<path class="st2" d="M50.08,117.52c-0.73,0.01-1.11-0.33-1.09-1.07l0.01-0.01C49.73,116.43,50.06,116.83,50.08,117.52
						C50.07,117.53,50.08,117.52,50.08,117.52z"/>
					<path class="st1" d="M47.71,205.46c-0.16,0.06-0.35,0.2-0.45,0.16c-0.11-0.05-0.13-0.29-0.19-0.44
						c0.16-0.06,0.35-0.2,0.46-0.15C47.62,205.06,47.65,205.3,47.71,205.46z"/>
					<path class="st2" d="M76.64,153.24c0-0.39,0.01-0.79,0.01-1.18c0.39,0.33,0.78,0.65,1.17,0.98
						C77.43,153.1,77.03,153.17,76.64,153.24z"/>
					<path class="st2" d="M54.44,120.96c0.1,0.12,0.28,0.23,0.28,0.35c0,0.3-0.23,0.43-0.49,0.31c-0.1-0.05-0.2-0.29-0.16-0.41
						C54.09,121.1,54.3,121.04,54.44,120.96z"/>
					<path class="st2" d="M64.56,124.67c-0.13,0.1-0.25,0.27-0.36,0.27c-0.3-0.01-0.46-0.22-0.34-0.51c0.04-0.1,0.31-0.19,0.43-0.15
						C64.41,124.32,64.47,124.53,64.56,124.67z"/>
					<path class="st1" d="M47.94,180.3c-0.74,0.08-1.08-0.29-1.13-1C47.49,179.3,47.87,179.63,47.94,180.3z"/>
					<path class="st2" d="M75.73,151.64c-0.52,0.07-0.99,0.04-1.25-0.52C75,151.04,75.42,151.2,75.73,151.64z"/>
					<path class="st2" d="M74.46,151.1c-0.23-0.18-0.46-0.35-0.69-0.53C74,150.75,74.23,150.93,74.46,151.1z"/>
					<path class="st1" d="M81,149.5c0.17-0.12,0.33-0.25,0.5-0.37C81.33,149.26,81.17,149.38,81,149.5z"/>
					<path class="st2" d="M67.96,138.66c-0.19,0.01-0.37,0.03-0.56,0.04c-0.02-0.17-0.04-0.33-0.08-0.49l0.16-0.14
						C67.65,138.26,67.8,138.46,67.96,138.66z"/>
					<path class="st1" d="M161.68,166.87c-0.18-0.18-0.35-0.36-0.53-0.54l0.06-0.06c0.18,0.18,0.36,0.36,0.54,0.54
						C161.75,166.8,161.68,166.87,161.68,166.87z"/>
					<path class="st3" d="M188.6,168.95c0.7-0.97,1.4-1.94,2.09-2.9c0.28,2.4,1.67,2.93,4.35,1.72c3.28-1.48,6.48-3.15,9.92-4.26
						c0.9-0.29,1.95-0.5,2.29-1.62c0.71,0.09,1.42,0.18,2.12,0.26c0.19,0.66,0.39,1.32,0.58,1.98c-3.94-0.1-7.64,0.5-10.36,3.76
						c-2.2,0.53-4.17,1.48-5.32,3.51c-0.45,0.81-0.86,0.69-1.48,0.43c-0.96-0.41-1.93-0.8-2.9-1.21l-0.01-0.01
						C189.95,169.69,189.71,168.98,188.6,168.95z"/>
					<path class="st4" d="M179.12,167.99c1.24-0.27,2.32,0.13,3.32,0.8c0.89,0.6,2.58,0.93,1.55,2.49
						c-0.75,1.13-1.87,2.43-3.55,1.52c-1.17-0.63-2.62-0.64-3.61-1.64C176.76,169.51,177.95,168.76,179.12,167.99z"/>
					<path class="st2" d="M208.29,172.72c-0.45-1.29-1.24-0.13-2.53,0.08c1.59-1.6,1.56-3.66,3.24-4.16
						c1.26-0.38,1.12,1.59,2.08,2.04C210.15,171.35,209.22,172.03,208.29,172.72z"/>
					<path class="st4" d="M202.48,176.64c-1.13,0.99-1.85,0.19-2.66-0.66c2,0.6,1.99-4.31,4.71-1.57
						C203.71,175.03,202.12,174.94,202.48,176.64z"/>
					<path class="st4" d="M208.29,172.72c0.93-0.68,1.86-1.36,2.79-2.05c0.34,0.02,0.68,0.04,1.01,0.07
						c0.03,0.74-0.73,0.86-1.06,1.32c-1.13,0.29-1.76,1.3-2.69,1.87c-0.35-0.02-0.69-0.05-1.04-0.07
						C207.64,173.47,207.97,173.1,208.29,172.72z"/>
					<path class="st2" d="M162.89,186.1c1.21-0.25,2.29,0.63,3.38,0.05C164.46,187.83,164.43,187.83,162.89,186.1z"/>
					<path class="st2" d="M202.48,176.64c-0.35-1.7,1.24-1.61,2.05-2.23C204.76,175.99,204.16,176.82,202.48,176.64z"/>
					<path class="st2" d="M207.31,173.85c0.35,0.02,0.69,0.05,1.04,0.07c-0.15,0.63,0.28,1.43-0.5,1.84
						c-0.15,0.08-0.52-0.05-0.67-0.2C206.6,174.97,206.57,174.37,207.31,173.85z"/>
					<path class="st2" d="M159.67,186.49c0.07-0.42,0.37-0.61,0.76-0.56c0.65,0.08,0.92,0.59,0.86,1.14
						c-0.04,0.39-0.53,0.37-0.88,0.32C159.91,187.3,159.61,187.04,159.67,186.49z"/>
					<path class="st3" d="M189.91,170.63c-0.04,0.08-0.09,0.15-0.13,0.23c0.04-0.08,0.08-0.16,0.12-0.24
						C189.9,170.62,189.91,170.63,189.91,170.63z"/>
					<path class="st2" d="M66.34,150.1c-0.05-1.35-2.13-1.68-1.65-3.29l0.04-0.04c2.19-0.06,2.56,2.8,3.72,2.96
						c1.96,0.27,3.17,1.34,3.54,2.63c0.34,1.17,1.38,0.62,1.62,1.34c-1.31,1.18-2.64,1.19-3.99,0.1
						C68.59,152.52,67.78,151.03,66.34,150.1z"/>
					<path class="st3" d="M66.34,150.1c1.44,0.93,2.25,2.42,3.29,3.7C67.23,154,66.4,153.08,66.34,150.1z"/>
					<path class="st2" d="M49.8,130.39c2.19-0.38,2.17,1.68,3.55,2.7C50.78,133.53,51.4,130.62,49.8,130.39z"/>
					<path class="st2" d="M55.23,135c-0.85,0.67-1.49,0.52-2.29-0.4C53.9,134.19,54.55,134.22,55.23,135z"/>
					<path class="st2" d="M64.69,146.81c-0.5-0.07-1.19,0.18-1.35-0.53c-0.13-0.57,0.46-0.79,0.86-0.76
						c0.85,0.06,0.38,0.81,0.53,1.25C64.73,146.77,64.69,146.81,64.69,146.81z"/>
					<path class="st2" d="M47.9,97.47c-0.05,0.34-0.04,0.74-0.5,0.81c-0.09,0.01-0.31-0.21-0.3-0.3
						C47.17,97.52,47.57,97.54,47.9,97.47C47.91,97.48,47.9,97.47,47.9,97.47z"/>
					<path class="st2" d="M102.13,67.18c-3.18-1.66-6.45-3.12-10.13-2.95c-4.16,0.19-8.32,0.06-12.46,1.04
						c-1.98,0.47-0.17,2.78-1.93,2.83c-1.16,0.03-1.23-2.13-3.02-1.35c-3.6,1.58-7.32,2.87-11,4.27c-1.31,0.5-0.88,1.81-1.23,2.97
						c-1.17-1.01-2.43-0.92-3.68-0.91c0.43-0.45,0.78-1.07,1.3-1.33c6.88-3.42,13.82-6.7,21.5-7.96c4.34-0.53,8.69-0.81,13.06-0.5
						C97.38,64,100.88,63.38,102.13,67.18z"/>
					<path class="st2" d="M55.48,77.45c-0.66-0.39-1.35-0.65-2.13-0.54c0,0-0.09-0.09-0.08-0.09c0.19-1.39,1.41-1.81,2.41-2.43
						c-0.39-0.85-0.96-1.29-1.85-1.28c-1.05,0.04-2.03-0.11-2.66-1.09c0.17-0.2,0.34-0.41,0.5-0.61c0.77,0.07,1.09-0.34,1.11-1.06
						c1.75,0.53,2.21,2.56,3.79,3.27c0.84,1.59-1.99,2.15-1.06,3.77C55.52,77.41,55.48,77.45,55.48,77.45z"/>
					<path class="st3" d="M102.13,67.18c-1.24-3.81-4.75-3.19-7.59-3.88c0.11-0.33,0.13-0.89,0.33-0.97c2.47-0.91,3.05-1.56,0.15-3
						c-1.39-0.69-2.47-2.49-0.9-4.38c0.74-0.89,1.41-1.86,1.54-3.08c1-0.31,1.14-2.05,2.61-1.58c0.19,0.39,0.44,0.76,0.56,1.17
						c0.2,0.71-0.34,1.89,0.84,1.96c1.12,0.07,1.73-0.84,1.86-1.93c0.07-0.53,0.03-1.08,0.04-1.62c0.36,0,0.72-0.01,1.07-0.01
						c1.06,2.27,2.13,4.53,3.19,6.8c0.56,1.2,1.67,1.46,2.82,1.83c1.37,0.44,3.03,0.47,3.74,2.12c-2.22-0.44-4.33,0.31-6.49,0.56
						c-0.47,0.14-1.36,0.32-0.57,0.87c0.74,0.52,1.02,1.06,1.26,1.84c1.22,3.99,4.86,5.93,7.49,8.72c-0.19,0.14-0.38,0.29-0.56,0.43
						c-0.22,0.01-0.43,0.02-0.65,0.03c-0.86-0.19-1.71-0.39-2.57-0.58c-2.03-4.24-3.88-5.28-8.17-4.62
						C102.13,67.65,102.13,67.41,102.13,67.18z"/>
					<path class="st3" d="M95.1,51.27c0.18,0.22,0.35,0.45,0.53,0.67C95.46,51.72,95.28,51.49,95.1,51.27z"/>
					<path class="st4" d="M216.46,168.45c-0.03,0.06-0.07,0.12-0.1,0.18C216.4,168.57,216.44,168.52,216.46,168.45
						C216.47,168.46,216.46,168.45,216.46,168.45z"/>
					<path class="st2" d="M105.9,61.17c2.16-0.24,4.28-0.99,6.49-0.56c1.34-0.08,2.62-0.37,3.8-1.03c1.64-0.21,2.12-1.54,2.7-2.77
						c0.36,0.02,0.72,0.04,1.08,0.05c-0.25,2.51,0.44,4.79,1.61,6.97c0.63,1.18,1.34,2.37,1.1,3.81c-0.67-0.82-1.51-1.06-2.59-1.09
						c-2.76-0.07-5.42,0.28-8.07,1.43c-0.19-2,0.15-4.04-0.66-5.42c-0.99-1.71-3.38-0.43-5.06-1.04
						C106.14,61.47,106.03,61.29,105.9,61.17z"/>
					<path class="st2" d="M102.64,49.88c-0.36,0-0.72,0.01-1.07,0.01c-0.86-0.33-0.43-1.13-0.61-1.7c1.1-1.66,2.19-3.32,3.29-4.98
						c4.18-2.92,7.71-1.27,10.28,4.96C110.53,48.66,106.5,48.71,102.64,49.88z"/>
					<path class="st2" d="M104.25,43.2c-1.1,1.66-2.19,3.32-3.29,4.98c-0.57-0.02-1.18,0.07-1.56-0.53c0.64-1.9,0.53-4.29,3.14-4.94
						C103.12,42.83,103.79,42.64,104.25,43.2z"/>
					<path class="st2" d="M106.68,53.31c2.4,0,4.8,0,7.81,0C111.51,53.76,109.15,54.59,106.68,53.31z"/>
					<path class="st3" d="M151.46,121.13c0.84,0.76,0.59,2.54,2.32,2.45l0.03,0.01c0.27,0.99,1.08,1.18,1.93,1.31
						c0.18,0.06,0.36,0.13,0.54,0.2h-0.01c-0.76,1.66-1.51,3.33-2.27,4.99c-0.31-0.02-0.63-0.05-0.94-0.07
						c-0.15-0.18-0.31-0.37-0.46-0.55c-0.1-0.98-0.75-1.67-1.49-2.14c-2.87-1.82-4.96-5.13-8.98-4.8c0.02-0.52,0.04-1.03,0.07-1.55
						C145.3,119.85,148.37,121.2,151.46,121.13z"/>
					<path class="st1" d="M135.72,125.06c1.43-1.08,3.01-1.83,4.76-2.23l0.14,0.15c-0.01,0.19-0.01,0.37-0.02,0.56
						c-0.71,0.85-2,1.08-2.58,2.34c0.69,0.22,1.51,0.22,1.78,0.6c0.88,1.28,1.5,2.79,3.52,2.05c0.22,1.04,1.67,1.14,1.7,2.26
						c0,0.07-0.79,0.16-1.21,0.24c-0.18-0.29-0.36-0.26-0.52,0.01c-0.36,0-0.71,0.01-1.07,0.01c-0.21-1.35-1.29-0.95-2.12-1.08
						c-3.31-0.49-3.59-0.9-3.22-4.29C136.98,124.78,136.12,125.26,135.72,125.06z"/>
					<path class="st3" d="M135.72,125.06c0.4,0.2,1.26-0.28,1.16,0.63c-0.37,3.39-0.09,3.8,3.22,4.29c0.83,0.12,1.91-0.27,2.12,1.08
						c-0.35,0.13-0.69,0.25-1.04,0.38c-0.8-0.08-1.6-0.16-2.4-0.24c-0.25,0-0.5,0-0.75,0c-0.43,0.08-0.85,0.16-1.28,0.23
						c0.07-0.82,0.01-1.53-1.11-1.39c-0.17-0.01-0.34-0.02-0.51-0.02c0.24-1.78-2.64-1.75-2.13-3.69
						C133.78,125.62,134.7,125.24,135.72,125.06z"/>
					<path class="st1" d="M142.19,120.97c-0.02,0.52-0.04,1.03-0.06,1.54c-0.31,0.16-0.61,0.32-0.92,0.47c-0.19,0-0.39,0-0.58,0
						l-0.14-0.15C141.38,122.51,140.13,120.23,142.19,120.97z"/>
					<path class="st3" d="M122.68,67.64c0.24-1.44-0.46-2.62-1.1-3.81c-1.17-2.18-1.86-4.47-1.61-6.97
						c0.34-0.87-0.72-2.51,0.98-2.55c1.25-0.03,1.52,1.21,1.4,2.41c-0.05,0.5,0.31,1.03,0.32,1.54c0.02,2.64,1.2,3.93,3.93,3.54
						c-0.04,1.01-1,1.46-1.37,2.25c-0.96,2.06-1.6,4.12,0.17,6.15c1.36-0.44,0.97-2.18,2.16-2.65c1.43,1.9,2.43,4.01,3.06,6.31
						c0.06,0.23,0.59,0.34,0.9,0.51c-2.1,3.96-5.16,5.25-9.53,4.75c-4.08-0.47-8.23-0.1-12.32-0.79c0.01-0.3,0.03-0.59,0.04-0.89
						c0.35-0.04,0.71-0.07,1.06-0.11c4.24,1.73,8.61,0.47,12.92,0.6c0.75,0.02,1.17-0.41,1.1-1.19c-0.07-0.85-0.72-0.94-1.37-0.93
						c-2.33,0.02-4.59,0.39-6.81,1.11c-1.11,0.36-2.35,1.29-3.12-0.51c1.69,0.39,3.06-0.48,4.49-1.13c1.34,0.85,1.5,0.06,1.46-1.03
						c0.73,0.55,1.63,0.54,2.44,0.51c0.99-0.04,2.3,0.65,2.94-0.42c0.69-1.16-0.31-2.12-0.99-3.03
						C123.71,70,123.19,68.83,122.68,67.64z"/>
					<path class="st3" d="M110.76,92.14c-0.34,0.03-0.69,0.05-1.03,0.08c0.17-1.24,0.33-2.47,0.51-3.71c0.2-1.39-0.3-2.68-0.65-3.96
						c-0.56-2.01-2.13-0.38-3.21-0.69c-2.97-0.86-5.73-2.46-9.02-2.15c-1.44,0.14-2.85,0.25-4.2,0.77
						c-0.73,0.28-1.23,0.29-1.33-0.64c1.62-0.39,2.9-1.41,4.26-2.28c1.51-0.2,3.01-0.39,4.52-0.59c0.5,0.02,0.99,0.04,1.49,0.06
						c0.21,0.2,0.42,0.39,0.64,0.59c0.03,0.14,0.02,0.28-0.03,0.42c0.18,0.19,0.37,0.38,0.55,0.57c1.08,0.39,2.16,0.79,3.24,1.18
						c3,0.73,6.05,1.15,9.14,1c0.74-0.04,1.67,0.35,2.13-0.65c0.57-0.23,1.14-0.24,1.71,0c0.3,1.11,2.03,0.17,2.17,1.51
						c-2.01,0.89-4.22,1.5-5.97,2.76c-1.7,1.23-4.1,2.24-3.86,5.07C111.36,91.54,110.94,91.65,110.76,92.14z"/>
					<path class="st1" d="M131.5,74.38c-0.31-0.17-0.83-0.28-0.9-0.51c-0.63-2.3-1.63-4.41-3.06-6.31c0.03-0.64,0.39-1.11,0.79-1.55
						c0.13-0.09,0.24-0.2,0.32-0.33l0.17-0.17c0.13-0.16,0.26-0.32,0.39-0.48c1.61-1.93,3.62-2.97,6.19-2.75
						c0.48,2.17,0.08,4.44,0.81,6.58c-0.15,0.5-0.3,1-0.46,1.5c-0.85,0.8-0.59,2.51-2.2,2.69c-0.18-0.8,0.51-2.14-0.6-2.32
						c-1.24-0.19-0.92,1.25-1.17,2.02c-0.16,0.5-0.2,1.03-0.29,1.55L131.5,74.38z"/>
					<path class="st1" d="M102.73,79.63c-0.21-0.2-0.42-0.39-0.64-0.59c0.09-0.42,0.12-1.01,0.7-0.92c3.28,0.52,2.9-1.34,2.28-3.41
						c-0.15-0.5-0.24-1.02-0.36-1.53c0.08-0.87,0.16-1.74,0.25-2.61c1.65,0.22,2.32,1.6,3.21,2.71c0.07,1.55,1,2.78,1.52,4.16
						c-0.01,0.3-0.03,0.59-0.04,0.89C107.3,78.52,104.92,78.57,102.73,79.63z"/>
					<path class="st5" d="M121.64,83.66c-0.14-1.35-1.87-0.4-2.17-1.51c2.38-0.54,4.66,0.27,6.98,0.55
						c0.05,0.23,0.09,0.46,0.14,0.69c-0.11,0.75-0.46,1.33-1.18,1.65c-0.15-0.03-0.31-0.05-0.47-0.06
						C124.56,82.74,122.72,84.18,121.64,83.66z"/>
					<path class="st5" d="M117.77,82.15c-0.47,1-1.39,0.61-2.13,0.65c-3.1,0.15-6.14-0.27-9.14-1
						C110.25,82.03,114.02,81.6,117.77,82.15z"/>
					<path class="st3" d="M131.49,74.29c0.09-0.52,0.13-1.06,0.29-1.55c0.25-0.78-0.07-2.22,1.17-2.02c1.11,0.17,0.42,1.51,0.6,2.32
						C132.84,73.42,132.49,74.38,131.49,74.29z"/>
					<path class="st5" d="M141.36,88.34c-0.14,0.16-0.27,0.33-0.41,0.49c-1.42-0.4-2.93-0.69-3.06-2.6
						C139.34,86.44,140.34,87.4,141.36,88.34z"/>
					<path class="st5" d="M134.83,84.88c-1,0.14-1.82-0.13-2.35-1.05C133.61,83.41,134.29,83.97,134.83,84.88z"/>
					<path class="st5" d="M126.59,83.38c-0.05-0.23-0.09-0.46-0.14-0.69c0.59-0.33,1.15-0.44,1.62,0.2
						C127.72,83.49,127.13,83.38,126.59,83.38z"/>
					<path class="st1" d="M103.25,80.62c-0.18-0.19-0.37-0.38-0.55-0.57C102.88,80.24,103.06,80.43,103.25,80.62z"/>
					<path class="st1" d="M124.95,84.97c0.16,0.01,0.31,0.03,0.46,0.06c3.84-0.18,4.27,2.7,4.85,5.43c-0.9-0.03-1.46-1.32-2.78-0.2
						c-1.51,1.28-2.96,2.29-2.33,4.49c0.66,2.3,1.06,4.92,4.56,4.36c1.23-0.19,2.5-0.05,3.76-0.06c0.02,0.19,0.04,0.37,0.05,0.56
						c-3.98-0.12-7.92,0.82-11.9,0.45c-0.18-1.08-1.57-1.49-1.46-2.75c0.28-3.1,0.98-6.06,2.4-8.89c0.6-1.2,2.42-1.45,2.21-3.13
						C124.78,85.16,124.84,85.05,124.95,84.97z M124.05,99.14c-0.14,0.08-0.27,0.17-0.4,0.25c0.14,0.07,0.27,0.21,0.41,0.2
						c0.13,0,0.27-0.14,0.4-0.22C124.33,99.29,124.19,99.22,124.05,99.14z"/>
					<path class="st2" d="M133.47,99.05c-1.25,0.01-2.53-0.13-3.76,0.06c-3.51,0.55-3.9-2.06-4.56-4.36
						c-0.63-2.2,0.82-3.21,2.33-4.49c1.32-1.11,1.88,0.17,2.78,0.2C131.33,93.32,132.4,96.19,133.47,99.05z"/>
					<path class="st2" d="M123.14,52.44c-1.1,0.04-1.5-0.35-1.49-1.13c0-0.62-0.09-1.4,0.83-1.4c0.86,0,1.63,0.61,1.87,1.29
						C124.46,51.53,123.6,52.33,123.14,52.44z"/>
					<path class="st3" d="M127.62,60.71c-0.35,0.35-0.71,0.71-1.06,1.06c-0.02-0.44-0.07-0.88-0.05-1.31
						c0.02-0.49-0.09-1.26,0.65-1.13C127.71,59.43,127.55,60.21,127.62,60.71z"/>
					<path class="st3" d="M131.94,137.57c-0.13-1.87,2.67-2.21,2.2-4.25c0.5-0.41,1-0.82,1.5-1.23l0.1,0.08
						c-0.19,1.35,0.56,1.58,1.72,1.73c4.03,0.53,8.05,0.16,12.08,0.07c0.7-0.02,1.41,0,2.44,0c-1.17,2.22-3.28,3.7-3.22,6.21
						c-0.22,1-1.68,1.04-1.71,2.18v0.09c-0.12,0.2-0.25,0.41-0.37,0.61c-0.25,0.52-0.5,1.03-0.75,1.55c-0.44,0-0.82,0.11-1.02,0.54
						c-0.69-0.27-1.36-0.64-2.14-0.45c0.2-1.78-1.69-1.96-2.52-2.78c-0.94-0.93-2.06-1.41-1.94-2.98c0.04-0.52-0.46-0.83-0.93-0.75
						c-1.17,0.21-1.94,0.22-2.71-1.11C133.95,135.83,133.03,138.16,131.94,137.57z"/>
					<path class="st1" d="M147.06,142.36c0.03-1.15,1.49-1.18,1.71-2.18c1.14,0.51,2.07-0.21,3.07-0.52
						c1.02,0.25,1.52-0.69,2.29-1.01c2.9,1.85,6.21,0.25,9.23,1.09c2.05,0.81,3.64,2.01,3.81,4.44c0.03,0.17-0.02,0.31-0.14,0.43
						c-1.05,0.2-2.26-0.42-3.16,0.58c-2.88,0.55-5.75-1.33-8.63-0.01l-0.13-0.12c0.26-1.93-2.24-1.83-2.28-1.8
						C150.54,145.05,148.88,143.2,147.06,142.36z"/>
					<path class="st2" d="M141.21,122.99c0.31-0.16,0.61-0.32,0.92-0.47c4.02-0.32,6.11,2.99,8.98,4.81
						c0.74,0.47,1.38,1.16,1.49,2.14c-1.29,0.24-2.57,0.47-3.86,0.71c1.47,0.11,2.98,0.93,4.32-0.16c0.31,0.02,0.63,0.05,0.94,0.07
						c0,1.1-0.76,1.31-1.62,1.32c-3.73,0.03-7.46,0.03-11.19,0.04c0.35-0.13,0.69-0.25,1.04-0.38c0.36,0,0.71-0.01,1.07-0.01
						l0.26,0.01l0.26-0.03c0.42-0.08,1.21-0.17,1.21-0.24c-0.04-1.12-1.48-1.22-1.7-2.26c-2.02,0.75-2.64-0.77-3.52-2.05
						c-0.26-0.38-1.09-0.39-1.78-0.6c0.58-1.26,1.86-1.5,2.58-2.34C140.81,123.36,141.01,123.17,141.21,122.99z"/>
					<path class="st3" d="M167.17,144.18c-0.17-2.42-1.77-3.62-3.81-4.44c-2.58-3.82-7.31-4.38-9.23-1.09
						c-0.77,0.32-1.27,1.26-2.29,1.01c0.59-1.76,2.46-2.78,2.64-4.83c0.08-0.95,1.16-0.48,1.8-0.55c2.63-0.26,5.01,1.14,7.6,1.18
						c-0.02,0.8,0.04,1.54,1.11,1.55c0.17,0.19,0.35,0.38,0.52,0.57c0.1,1.11,0.67,1.65,1.82,1.5c0.47,0,0.94,0,1.41,0
						C168.85,140.98,168.61,142.76,167.17,144.18z"/>
					<path class="st2" d="M135.65,130.05c1.13-0.15,1.19,0.57,1.11,1.39c-0.18,0.46-0.49,0.75-1.02,0.74l-0.1-0.08
						C135.64,131.41,135.65,130.73,135.65,130.05z"/>
					<path class="st1" d="M164.99,137.02c-1.07-0.02-1.13-0.76-1.11-1.55c0.17-0.07,0.34-0.14,0.51-0.22
						C165.64,135.48,165.06,136.34,164.99,137.02z"/>
					<path class="st2" d="M138.04,131.2c0.25,0,0.5,0,0.75,0C138.54,131.2,138.29,131.2,138.04,131.2z"/>
					<path class="st3" d="M53.83,73.12c0.88-0.01,1.46,0.43,1.85,1.28c-1,0.62-2.22,1.03-2.41,2.43c-3.57,1.9-6.34,4.61-8.14,8.26
						c-0.51,1.04-0.9,2.16-2.1,2.65c-0.42-0.52-1.15-0.99-0.45-1.76c1.81-1.99,2.46-4.42,2.75-7c2.06,0.42,3.73-0.06,4.73-2.07
						l0.07-0.06C51.84,76.07,52.97,74.73,53.83,73.12z"/>
					<path class="st4" d="M53.83,73.12c-0.86,1.61-1.99,2.95-3.69,3.72c-0.06-0.22-0.11-0.44-0.17-0.66c-0.1,0.06-0.2,0.12-0.3,0.18
						c0.13,0.18,0.27,0.35,0.4,0.53c-1,2.01-2.67,2.49-4.73,2.07c-0.08-0.52-0.16-1.04-0.23-1.56c2.02-1.79,4.05-3.59,6.07-5.38
						C51.8,73.01,52.78,73.15,53.83,73.12z"/>
					<path class="st3" d="M51.17,72.03c-2.02,1.79-4.05,3.59-6.07,5.38c-1.87-0.69-0.45-1.8,0-2.13c1.74-1.26,3.11-2.9,4.7-4.3
						c0.74-0.65,1.58-1.09,1.88,0.44C51.51,71.62,51.34,71.82,51.17,72.03z"/>
					<path class="st2" d="M40.9,77.39c0.36-0.17,0.71-0.33,1.07-0.5c1.1,2.86,0.43,5.54-0.85,8.16c-0.08-1.14-0.17-2.28-0.25-3.41
						C40.88,80.22,40.89,78.8,40.9,77.39z"/>
					<path class="st4" d="M40.87,81.63c0.08,1.14,0.16,2.28,0.25,3.41c-0.01,0.52-0.03,1.04-0.04,1.55
						c-0.27,0.27-0.55,0.54-0.83,0.8C39.25,85.35,39.39,83.42,40.87,81.63z"/>
					<path class="st3" d="M124.78,85.29c0.2,1.68-1.61,1.93-2.21,3.13c-1.42,2.83-2.12,5.78-2.4,8.89
						c-0.11,1.25,1.28,1.67,1.46,2.75c-1.46-0.02-2.93-0.03-4.39-0.05c0.02-0.43-0.13-0.76-0.54-0.93c-0.57-1.77-1.15-3.53-1.72-5.3
						c0.98-0.95,0.82-1.7-0.39-2.27C117.42,88.52,121.21,87.1,124.78,85.29z"/>
					<path class="st3" d="M169.23,151.65c-0.2-0.21-0.4-0.42-0.59-0.63c0.12-0.8,0.28-1.58,1.03-2.07c0.9-0.07,1.79-0.14,2.69-0.21
						c1.92,0.21,3.92-0.09,5.7,0.94c0.66,0.64,1.09-0.1,1.61-0.28c2.14,1.22,4.11,3.14,6.9,1.71c-0.04,3.89-2.95,3.21-5.34,3.36
						c0.07-0.87-0.21-1.45-1.01-1.98c-1.74-1.16-3.72-1.73-5.66-2.29c-0.65-0.19-2.63-1.39-2.42,1.43
						C172.24,152.77,170.27,152.01,169.23,151.65z"/>
					<path class="st3" d="M198.62,162.04c-1.96-2.87-6.81-3.65-9.23-1.47c-0.65,0.58-1.27,1.29-1.67-0.18
						c-0.26-2.63,0.82-3.72,3.52-3.22c1.74,0.32,3.55,0.28,5.27,0.67c1.16,0.26,2.09,0.04,3.07-0.42c0.44,2.07,2.26,2.34,3.83,2.93
						C202.17,161.93,200.15,161.31,198.62,162.04z"/>
					<path class="st1" d="M40.87,81.63c-1.48,1.79-1.62,3.72-0.62,5.77c0.09,0.55,0.05,1.15,0.69,1.43c-0.13,1,0.27,2.11-0.72,3.35
						c-2.21-4.57-2.68-8.84-0.59-13.26c0.17-0.36,1.06-1.5,1.28-1.53C40.89,78.8,40.88,80.22,40.87,81.63z"/>
					<path class="st3" d="M128.66,65.67c-0.09,0.13-0.19,0.24-0.32,0.33C128.44,65.89,128.55,65.78,128.66,65.67z"/>
					<path class="st3" d="M129.21,65.02c-0.13,0.16-0.26,0.32-0.39,0.48C128.95,65.34,129.08,65.18,129.21,65.02z"/>
					<path class="st5" d="M169.67,148.95c-0.75,0.48-0.92,1.26-1.03,2.07c-0.95,0.09-1.9,0.18-2.84,0.27
						c0.65-2.73-0.38-3.72-3.18-3.41c-2.14,0.24-4.26-0.32-6.36-0.81c-1.27-0.3-1.14-1.01-1.01-1.89c2.88-1.32,5.75,0.57,8.63,0.01
						c1.15,0.3,2.4,1.21,3.16-0.58c0.12-0.12,0.17-0.26,0.14-0.43c1.44-1.42,1.69-3.2,1.57-5.1c0.39-0.35,0.77-0.71,1.16-1.06
						c1.28,0.52,1.33,2.02,2.23,2.84c-0.26,0.95-0.43,1.93-0.81,2.83c-0.79,1.92-0.14,2.48,1.83,2.59c2.39,0.13,4.76,0.65,7.15,0.99
						c-0.21,0.67-0.42,1.33-0.62,2c-0.6-0.07-1.2-0.18-1.63,0.41c-1.78-1.03-3.79-0.73-5.7-0.94
						C171.43,148.44,170.43,147.2,169.67,148.95z"/>
					<path class="st3" d="M180.32,147.28c-2.38-0.35-4.75-0.87-7.15-0.99c-1.98-0.11-2.63-0.67-1.83-2.59
						c0.37-0.9,0.54-1.89,0.81-2.83c2.99,1.53,5.09,4.45,8.46,5.38C180.5,146.59,180.41,146.94,180.32,147.28z"/>
					<path class="st5" d="M178.06,149.69c0.43-0.6,1.04-0.48,1.63-0.41l-0.02,0.14C179.15,149.59,178.72,150.33,178.06,149.69z"/>
					<path class="st4" d="M137.64,63.29c-0.15-0.08-0.3-0.16-0.44-0.24c0.16-0.08,0.31-0.21,0.47-0.21c0.15,0,0.29,0.15,0.44,0.24
						C137.95,63.15,137.8,63.22,137.64,63.29z"/>
					<path class="st4" d="M139.65,63.23c-0.1,0.24-0.19,0.48-0.29,0.72c-0.09-0.07-0.18-0.15-0.27-0.22
						c0.17-0.19,0.33-0.37,0.5-0.56L139.65,63.23z"/>
					<path class="st1" d="M99.4,47.65c0.38,0.6,0.99,0.5,1.56,0.53c0.18,0.57-0.25,1.37,0.61,1.7c-0.01,0.54,0.03,1.09-0.04,1.62
						c-0.14,1.1-0.75,2-1.86,1.93c-1.18-0.07-0.63-1.26-0.84-1.96c-0.12-0.41-0.37-0.78-0.56-1.17c0.29-1.15-0.35-1.8-1.31-2.33
						C97.76,47.49,98.53,47.22,99.4,47.65z"/>
					<path class="st2" d="M156.27,125.09c-0.18-0.07-0.36-0.13-0.54-0.2c0.2-0.08,0.41-0.16,0.61-0.24
						C156.33,124.8,156.3,124.95,156.27,125.09z"/>
					<path class="st1" d="M167.34,139.09c-1.15,0.15-1.72-0.38-1.82-1.5C166.57,137.54,167.03,138.23,167.34,139.09z"/>
					<polygon class="st2" points="153.8,123.59 153.77,123.58 153.84,123.35 					"/>
					<path class="st5" d="M198.62,162.04c1.54-0.73,3.55-0.11,4.79-1.69c0.56,0.04,1.04-0.09,1.34-0.62
						c1.62-0.19,2.91,0.01,2.51,2.16c-0.35,1.12-1.39,1.33-2.29,1.62c-3.44,1.11-6.64,2.78-9.92,4.26
						c-2.68,1.21-4.07,0.68-4.35-1.72c-0.01-0.14,0.03-0.25,0.1-0.33c2.3-0.84,4.74-1.39,6.71-2.99c0.44-0.16,0.94-0.21,1.12-0.75
						L198.62,162.04z"/>
					<path class="st4" d="M191.49,152.87c-0.26-0.17-0.52-0.34-0.78-0.51c0.17-0.18,0.31-0.48,0.5-0.51
						c0.7-0.13,0.82,0.38,0.86,0.92C191.88,152.8,191.69,152.84,191.49,152.87z"/>
					<path class="st4" d="M96.09,79.56c-1.37,0.86-2.64,1.89-4.26,2.28c-1.98-0.89-3.91-1.92-4.71-4.1
						c-1.02-2.76,0.06-4.85,3.01-6.2c0.04,0.52,0.07,1.04,0.11,1.56c-0.29,0.42-0.58,0.84-1.35,1.97c2.24-0.99,3.89-0.99,5.51-0.43
						c1.42,1.24-0.36,2.56,0.08,3.82c-1.19,0.57-2.49,0.65-4.39,0.75c2.16,1.04,3.56,1.36,4.51-0.63c1.93,0.14,0.86-2.56,2.53-2.66
						C97.4,77.31,97.1,78.54,96.09,79.56z"/>
					<path class="st4" d="M104.72,73.18c0.12,0.51,0.21,1.03,0.36,1.53c0.62,2.07,0.99,3.93-2.28,3.41c-0.58-0.09-0.61,0.5-0.7,0.92
						c-0.5-0.02-0.99-0.04-1.49-0.06c-1.18-1.36-1.75-3.04-2.19-4.71c-0.72-2.69,0.98-5.78,3.13-5.99c0.13,1.36,1.15,1.53,2.21,1.65
						c-0.83,0.78-1.87,0.27-2.79,0.48c-0.43,0.1-1.21-0.25-1.11,0.66c0.07,0.61,0.49,0.68,1.12,0.75
						C102.29,71.97,104.03,71.23,104.72,73.18z"/>
					<path class="st5" d="M103.75,69.92c-1.06-0.12-2.08-0.29-2.21-1.65c0.2-0.13,0.4-0.26,0.6-0.4c4.29-0.66,6.14,0.38,8.17,4.62
						c0.21,0.73,0.42,1.46,0.63,2.19c-0.1,0.09-0.15,0.2-0.14,0.33c-1.69,0.67-1.07-2.17-2.61-1.72c-0.9-1.11-1.57-2.49-3.22-2.71
						C104.8,69.91,104.32,69.84,103.75,69.92z"/>
					<path class="st2" d="M90.22,73.11c-0.04-0.52-0.07-1.04-0.11-1.56c2.06-2.29,4.29-0.34,6.18,0.13
						c1.91,0.48,0.61,2.77,0.82,4.24c-1.67,0.11-0.6,2.81-2.53,2.66l-0.12-0.12c-0.44-1.26,1.33-2.58-0.08-3.82
						C93.45,72.93,92.1,72.3,90.22,73.11z"/>
					<path class="st3" d="M109.61,94.25c0.03,0.72,0.06,1.44,0.1,2.16c-0.66-0.08-1.56,0.16-1.53-0.93
						C108.19,94.62,108.83,94.31,109.61,94.25z"/>
					<path class="st2" d="M56.58,90.98c-0.54,0-1.09,0-1.63,0c0.08-0.56,0.21-1.08,0.95-0.99C56.47,90.06,56.51,90.54,56.58,90.98z"
						/>
					<path class="st2" d="M56.05,77.43c-0.18,0.4-0.37,0.38-0.57,0.01c0,0,0.03-0.04,0.04-0.04c0.17,0,0.34,0.01,0.52,0.01
						L56.05,77.43z"/>
					<path class="st2" d="M56.03,77.42c0.05-0.08,0.09-0.15,0.14-0.23c-0.04,0.08-0.08,0.16-0.12,0.24
						C56.05,77.43,56.03,77.42,56.03,77.42z"/>
					<path class="st3" d="M155.24,145.18c-0.13,0.88-0.26,1.59,1.01,1.89c2.11,0.49,4.22,1.05,6.36,0.81
						c2.79-0.31,3.82,0.68,3.18,3.41c-1.23,1.57-2.05,3.35-2.59,5.26c-0.13,0.13-0.26,0.26-0.4,0.39c-1.45,0.61-2.55-0.38-3.77-0.84
						c-1.09-1.34-2.91-1.48-4.24-2.6c-0.92-0.78-0.93-2.74-2.76-2.4c-0.32-0.7-1.22-1.08-1.11-2.01c1.4-1.34,2.79-2.68,4.19-4.03
						L155.24,145.18z"/>
					<path class="st4" d="M142.78,144.71c0.79-0.2,1.45,0.18,2.14,0.45c0.43,0.94,1.24,1.13,2.17,1.09l-0.02-0.02
						c0.19,0.19,0.37,0.37,0.56,0.56l-0.01-0.01c0.74,3.38-0.68,4.77-4.08,3.73c-1.32-0.4-1.31,0.23-1.4,1.07
						c-2.58-1.68-2.76-2.91-0.69-4.95C142.02,146.07,142.8,145.67,142.78,144.71z"/>
					<path class="st4" d="M159.04,156.1c1.22,0.46,2.31,1.45,3.77,0.84c0.62,1.01,1.58,1.27,2.69,1.21l0.04,0.03
						c-0.02,1.74,0.4,3.8-2.09,4.19c-2.89,0.46-3.9-0.34-4.54-3.16C160.04,158.22,159.12,157.14,159.04,156.1z"/>
					<path class="st2" d="M142.14,151.59c0.09-0.84,0.08-1.48,1.4-1.07c3.4,1.04,4.82-0.35,4.08-3.73c1.55,0.12,1.95,1.9,3.3,2.3
						c-0.11,0.93,0.79,1.31,1.11,2.01c-1.85,0.26-3.5,0.88-5.15,1.86C145.19,153.96,143.48,152.94,142.14,151.59z"/>
					<path class="st3" d="M108.5,124.48c-0.36-1.56-0.72-3.13-1.08-4.69c0.08-0.07,0.15-0.15,0.23-0.23
						c1.64,1.42,2.17,3.07,1.03,5.05C108.67,124.62,108.5,124.48,108.5,124.48z"/>
					<path class="st4" d="M105.6,118.65c0.16,0.09,0.34,0.18,0.52,0.28c-0.15,0.06-0.3,0.16-0.44,0.16c-0.15,0-0.3-0.1-0.45-0.16
						C105.33,118.85,105.44,118.77,105.6,118.65z"/>
					<path class="st3" d="M107.42,119.79c-0.12-0.12-0.36-0.33-0.35-0.35c0.26-0.36,0.42-0.11,0.58,0.12
						C107.57,119.64,107.5,119.72,107.42,119.79z"/>
					<path class="st3" d="M70.67,137.94c-0.19,0.01-0.38,0.02-0.56,0.03c0.14-0.33-0.22-0.85,0.37-1.01
						C70.54,137.29,70.61,137.62,70.67,137.94z"/>
					<path class="st2" d="M101.23,95.48c-0.78-1.19,0.54-0.83,0.8-0.9c2.14-0.56,3.79,0.26,4.6,2.26c0.84,2.1,0.05,3.74-2.2,5.19
						c0.15-2,2.27-3.87-0.33-5.17C103.43,95.82,102.53,95.24,101.23,95.48z"/>
					<path class="st6" d="M101.23,95.48c1.29-0.24,2.2,0.34,2.87,1.38c-1.19-0.41-2.39-0.27-3.59-0.06
						C100.27,96.04,101.14,95.98,101.23,95.48z"/>
					<path class="st2" d="M103.57,102.07c-0.9,0.36-1.47,0.39-2.1,0.03C102.09,101.58,102.69,101.72,103.57,102.07z"/>
					<path class="st2" d="M128.11,139.19c-1.46,1.81-3.12,1.63-4.91,0.26c1.75,0.91,3.3-0.04,4.93-0.24L128.11,139.19z"/>
					<path class="st2" d="M128.13,139.21c0.03-0.07,0.06-0.14,0.1-0.21c-0.04,0.06-0.07,0.13-0.11,0.19L128.13,139.21z"/>
					<path class="st5" d="M189.23,164.56c-0.33,0.81-1.02,1.15-1.81,1.34c-1.21-0.65-0.24-1.53-0.24-2.31
						c0.18-0.08,0.35-0.16,0.53-0.24c0.36,0.02,0.71,0.04,1.07,0.07C188.93,163.8,189.08,164.18,189.23,164.56z"/>
					<path class="st1" d="M187.18,163.59c0,0.78-0.97,1.66,0.24,2.31c-0.68,1.61-1.32,0.65-1.98-0.02
						C185.38,164.63,186.09,163.96,187.18,163.59z"/>
					<path class="st1" d="M188.78,163.42c-0.36-0.02-0.71-0.04-1.07-0.07c0.2-0.22,0.37-0.6,0.59-0.63
						C188.69,162.68,188.75,163.09,188.78,163.42z"/>
					<path class="st3" d="M198.62,161.98c-0.18,0.54-0.69,0.59-1.12,0.75C197.63,162.11,198.08,161.98,198.62,161.98z"/>
					<path class="st2" d="M165.49,158.15c-1.1,0.06-2.06-0.2-2.69-1.21c0.13-0.13,0.26-0.26,0.4-0.39
						C164.08,156.92,164.95,157.3,165.49,158.15z"/>
					<path class="st2" d="M114.58,91.52c1.21,0.57,1.37,1.32,0.39,2.27c-1.49-0.32-3.91,1.71-4.21-1.64c0.18-0.49,0.6-0.6,1.05-0.65
						C112.73,92.18,113.65,92.23,114.58,91.52z"/>
					<path class="st4" d="M135.65,130.05c0,0.68-0.01,1.36-0.01,2.04c-0.5,0.41-1,0.82-1.5,1.23c-0.77,0.25-1.71,0.98-1.78-0.66
						c-0.02-0.89-0.04-1.79-0.06-2.68c0.94,0.01,1.89,0.03,2.83,0.04C135.31,130.03,135.48,130.04,135.65,130.05z"/>
					<path class="st1" d="M132.31,129.98c0.02,0.89,0.04,1.79,0.06,2.68c-1.2,0.08-2.32-0.27-2.15-1.62
						C130.3,130.37,130.92,128.97,132.31,129.98z"/>
					<path class="st1" d="M168.2,163.04c-0.07-0.04-0.15-0.09-0.22-0.13c0.08,0.04,0.17,0.07,0.25,0.11L168.2,163.04z"/>
					<path class="st1" d="M119.43,74.26c0.05,1.09-0.12,1.89-1.46,1.03c0.01-2.03-0.7-3.27-3.01-2.77
						c-0.29,0.03-0.59,0.05-0.88,0.08c-2.63-2.8-6.27-4.73-7.49-8.72c-0.24-0.78-0.53-1.32-1.26-1.84c-0.79-0.55,0.1-0.73,0.57-0.87
						c0.13,0.12,0.24,0.29,0.4,0.35c1.67,0.61,4.06-0.67,5.06,1.04c0.8,1.38,0.47,3.42,0.66,5.42c2.65-1.15,5.32-1.5,8.07-1.43
						c1.08,0.03,1.92,0.27,2.59,1.09c0.51,1.18,1.04,2.36,1.14,3.67c-0.74-0.08-0.62,2.02-1.23,0.91c-0.88-1.6-1.75-1.19-2.79-0.74
						C118.25,72.16,119.63,73.34,119.43,74.26z"/>
					<path class="st5" d="M114.96,72.53c2.32-0.5,3.02,0.74,3.01,2.77c-1.43,0.65-2.8,1.51-4.49,1.13l-0.1-0.05
						c-0.37-0.55-0.74-1.1-1.1-1.65c-0.59-0.83-0.02-1.25,0.59-1.65c0.22-0.01,0.43-0.02,0.65-0.03c0.05,0.35,0.05,0.71,0.16,1.04
						c0.29,0.86,0.7,1.88,1.81,1.3c1.21-0.63,0.38-1.47-0.12-2.18C115.22,72.99,115.1,72.75,114.96,72.53z"/>
					<path class="st2" d="M114.96,72.53c0.14,0.22,0.26,0.46,0.41,0.67c0.5,0.72,1.33,1.56,0.12,2.18c-1.11,0.58-1.52-0.45-1.81-1.3
						c-0.11-0.33-0.11-0.69-0.16-1.04c0.19-0.14,0.37-0.29,0.56-0.43C114.38,72.58,114.67,72.55,114.96,72.53z"/>
					<path class="st2" d="M112.88,73.07c-0.61,0.4-1.18,0.82-0.59,1.65c-0.32,0.02-0.64,0.04-0.97,0.05
						c-0.13-0.03-0.26-0.06-0.38-0.09c-0.21-0.73-0.42-1.46-0.63-2.19C111.16,72.69,112.02,72.88,112.88,73.07z"/>
					<path class="st1" d="M153.05,130.01c-1.34,1.09-2.84,0.27-4.32,0.16c1.29-0.24,2.57-0.47,3.86-0.71
						C152.75,129.64,152.9,129.82,153.05,130.01z"/>
					<path class="st3" d="M141.21,122.99c-0.2,0.18-0.4,0.37-0.61,0.55c0.01-0.18,0.01-0.37,0.02-0.56
						C140.82,122.99,141.01,122.99,141.21,122.99z"/>
					<path class="st3" d="M143.82,131.03l-0.26,0.03l-0.26-0.01C143.46,130.77,143.64,130.75,143.82,131.03z"/>
					<path class="st1" d="M110.94,74.68c0.13,0.04,0.25,0.07,0.38,0.09c0.08,1.32,0.97,1.6,2.07,1.6l0.1,0.05
						c0.77,1.8,2.01,0.87,3.12,0.51c2.21-0.73,4.48-1.09,6.81-1.11c0.65-0.01,1.3,0.09,1.37,0.93c0.07,0.78-0.35,1.21-1.1,1.19
						c-4.31-0.13-8.69,1.13-12.92-0.6c0.01-0.78,0.02-1.55,0.03-2.33C110.79,74.88,110.84,74.77,110.94,74.68z"/>
					<path class="st5" d="M119.43,74.26c0.2-0.92-1.19-2.1,0.37-2.77c1.04-0.45,1.91-0.86,2.79,0.74c0.61,1.11,0.49-0.99,1.23-0.91
						c0.68,0.91,1.68,1.88,0.99,3.03c-0.64,1.07-1.94,0.38-2.94,0.42C121.06,74.8,120.16,74.81,119.43,74.26z"/>
					<path class="st2" d="M110.79,75.01c-0.01,0.78-0.02,1.55-0.03,2.33c-0.35,0.04-0.71,0.07-1.06,0.11
						c-0.52-1.38-1.45-2.62-1.52-4.17C109.72,72.84,109.1,75.68,110.79,75.01z"/>
					<path class="st5" d="M114.58,91.52c-0.93,0.71-1.85,0.66-2.77-0.03c-0.24-2.83,2.17-3.85,3.86-5.07
						c1.74-1.26,3.96-1.86,5.97-2.76c1.07,0.51,2.92-0.93,3.31,1.31c-0.11,0.08-0.17,0.19-0.18,0.32
						C121.21,87.1,117.42,88.52,114.58,91.52z"/>
					<path class="st2" d="M103.75,69.92c0.57-0.07,1.06-0.01,1.22,0.66c-0.08,0.87-0.16,1.74-0.25,2.6
						c-0.69-1.95-2.43-1.22-3.76-1.38c-0.63-0.08-1.05-0.14-1.12-0.75c-0.1-0.91,0.68-0.56,1.11-0.66
						C101.88,70.18,102.92,70.69,103.75,69.92z"/>
					<path class="st1" d="M124.05,99.14c0.14,0.08,0.28,0.16,0.41,0.23c-0.13,0.08-0.27,0.22-0.4,0.22c-0.13,0-0.27-0.13-0.41-0.2
						C123.79,99.3,123.92,99.22,124.05,99.14z"/>
					<path class="st4" d="M150.93,149.08c-1.35-0.4-1.75-2.18-3.3-2.3l0.01,0.01c-0.19-0.19-0.37-0.37-0.56-0.56l0.02,0.02
						c-0.08-0.76-0.47-1.3-1.15-1.64c0.25-0.52,0.5-1.03,0.75-1.55c0.12-0.2,0.25-0.41,0.37-0.61v-0.09
						c1.82,0.84,3.48,2.69,5.78,0.9c0.04-0.03,2.54-0.13,2.28,1.8C153.72,146.4,152.33,147.74,150.93,149.08z"/>
					<path class="st2" d="M145.94,144.61c0.69,0.33,1.08,0.87,1.15,1.64c-0.93,0.04-1.74-0.15-2.17-1.09
						C145.13,144.72,145.51,144.62,145.94,144.61z"/>
					<path class="st2" d="M147.06,142.45c-0.12,0.2-0.25,0.41-0.37,0.61C146.82,142.86,146.94,142.66,147.06,142.45z"/>
					<path class="st2" d="M154.13,138.66c1.92-3.29,6.65-2.74,9.23,1.09C160.34,138.9,157.03,140.5,154.13,138.66z"/>
					<path class="st5" d="M167.03,144.61c-0.76,1.79-2.02,0.88-3.16,0.58C164.77,144.18,165.98,144.8,167.03,144.61z"/>
					<path class="st3" d="M50.07,76.89c-0.13-0.18-0.27-0.35-0.4-0.53c0.1-0.06,0.2-0.12,0.3-0.18c0.06,0.22,0.11,0.44,0.17,0.66
						C50.14,76.84,50.07,76.89,50.07,76.89z"/>
					<path class="st5" d="M169.67,148.95c0.77-1.75,1.76-0.52,2.69-0.21C171.46,148.81,170.56,148.88,169.67,148.95z"/>
					<path class="st6" d="M90.22,73.11c1.88-0.81,3.22-0.18,4.16,1.54c-1.62-0.57-3.27-0.56-5.51,0.43
						C89.64,73.95,89.93,73.53,90.22,73.11z"/>
					<path class="st2" d="M94.59,78.59c-0.96,1.99-2.36,1.67-4.51,0.63c1.91-0.1,3.21-0.18,4.39-0.75L94.59,78.59z"/>
					<path class="st2" d="M147.08,146.24c0.19,0.19,0.37,0.37,0.56,0.56C147.45,146.61,147.26,146.42,147.08,146.24z"/>
					<path class="st3" d="M113.39,76.38c-1.1,0-1.99-0.28-2.07-1.6c0.32-0.02,0.65-0.03,0.97-0.05
						C112.65,75.27,113.02,75.82,113.39,76.38z"/>
					<path class="st5" d="M115.63,82.8c0,0,3.91-0.4,4.88,0l0.07-2.38h-4.49L115.63,82.8z"/>
					<path class="st5" d="M127.54,83.32c0,0,3.07,0.16,5.93,1.41c2.86,1.26,3.85,1.89,4.94,2.92l0.96-2.05l-5.91-3.17l-6.4-1.81
						L127.54,83.32z"/>
					<polygon class="st5" points="122.49,86.41 125.86,84.76 124.06,82.88 					"/>
					<path class="st5" d="M130.61,103.97c0,0-4.26,1.85-5.81,2.51s0.25,1.25,0.25,1.25l6.89-2.83L130.61,103.97z"/>
				</g>
			</g>
			<path class="st5" d="M82.16,157.4c0,0,8.6-15.44,17.95-21.35c0,0,21.09,6.34,33.08,13.73c11.99,7.4,47.71,30.62,47.71,30.62
				s-7.46,4-33.2,2.13C121.97,180.66,94.66,168.33,82.16,157.4z"/>
			<path class="st5" d="M44.6,106.48c0,0,3.13,16.5,18.18,18.16S91,120.36,91,120.36s4.66-5.07,2.5-15.64
				c-2.15-10.57-2.52-13.27-4.51-15.62c-1.98-2.35-6.32-8.73-19.33-4.39C56.65,89.06,43.52,99.93,44.6,106.48z"/>
		</g>
		<g>
			<text transform="matrix(1 0 0 1 197.3012 80.1648)" class="st7 st8">E</text>
		</g>
	</g>
</g>
</svg>
