<?xml version="1.0" encoding="utf-8"?>
<!-- Generator: Adobe Illustrator 24.3.0, SVG Export Plug-In . SVG Version: 6.00 Build 0)  -->
<svg version="1.1" id="Livello_1" xmlns="http://www.w3.org/2000/svg" xmlns:xlink="http://www.w3.org/1999/xlink" x="0px" y="0px"
	 viewBox="0 0 277.53 277.53" style="enable-background:new 0 0 277.53 277.53;" xml:space="preserve">
<style type="text/css">
	.st0{fill:#F7AA16;}
	.st1{fill:#FFFFFF;}
	.st2{fill:#F7AA16;stroke:#F7AA16;stroke-width:4.7497;stroke-miterlimit:9.9999;}
	.st3{fill:#F7AA16;stroke:#F7AA16;stroke-width:9.4995;stroke-miterlimit:10;}
	.st4{fill:#FFFFFF;stroke:#000000;stroke-width:5.2073;stroke-linecap:round;stroke-linejoin:round;stroke-miterlimit:10;}
	.st5{fill:#1D1D1B;stroke:#1D1D1B;stroke-width:3.9055;stroke-miterlimit:9.9999;}
	.st6{fill:#1D1D1B;stroke:#1D1D1B;stroke-width:9.2971;stroke-miterlimit:10;}
</style>
<g>
	<rect x="0.82" class="st0" width="275.89" height="275.89"/>
	<g>
		<g>
			<g>
				<g>
					<polygon class="st1" points="46.69,229.38 46.69,47.24 191.74,47.24 228.83,84.33 228.83,229.38 					"/>
					<path class="st0" d="M190.76,49.62l35.7,35.7V227H49.07V49.61h141.69 M192.72,44.87H44.32v186.89h186.89V83.36L192.72,44.87
						L192.72,44.87z"/>
				</g>
				<g>
					<polygon class="st1" points="195.1,80.97 195.1,50.6 225.47,80.97 					"/>
					<path class="st0" d="M197.47,56.33l22.27,22.27h-22.27V56.33 M192.72,44.87v38.48h38.48L192.72,44.87L192.72,44.87z"/>
				</g>
			</g>
			<g>
				
					<rect x="180.94" y="165.94" transform="matrix(0.7071 -0.7071 0.7071 0.7071 -78.526 186.8169)" class="st2" width="10.61" height="44.52"/>
				<path class="st3" d="M186,198.64l42.89,42.89c2.95,2.95,7.74,2.95,10.7,0c2.95-2.95,2.95-7.74,0-10.7l-42.89-42.89L186,198.64z"
					/>
				<g>
					<path class="st3" d="M100.19,102.13c-19.88,19.88-19.88,52.11,0,71.99s52.11,19.88,71.99,0s19.88-52.11,0-71.99
						S120.07,82.25,100.19,102.13z M164.61,166.55c-15.7,15.7-41.15,15.7-56.85,0s-15.7-41.15,0-56.85s41.15-15.7,56.85,0
						C180.31,125.4,180.31,150.85,164.61,166.55z"/>
					
						<ellipse transform="matrix(0.3827 -0.9239 0.9239 0.3827 -43.5398 211.0803)" class="st1" cx="136.18" cy="138.12" rx="40.2" ry="40.2"/>
				</g>
			</g>
		</g>
		<g>
			<g>
				<polygon class="st4" points="191.51,47.46 46.27,47.46 46.27,230.36 229.17,230.36 229.17,85.12 				"/>
				<polygon class="st4" points="191.51,85.12 229.17,85.12 191.51,47.46 				"/>
			</g>
			<g>
				
					<rect x="179.98" y="165.95" transform="matrix(0.7071 -0.7071 0.7071 0.7071 -78.5135 185.9278)" class="st5" width="10.39" height="43.57"/>
				<path class="st6" d="M184.93,197.96l41.97,41.97c2.89,2.89,7.58,2.89,10.47,0s2.89-7.58,0-10.47l-41.97-41.97L184.93,197.96z"/>
				<g>
					<path class="st6" d="M100.95,103.51c-19.46,19.46-19.45,51,0,70.45s51,19.46,70.45,0c19.46-19.46,19.45-51,0-70.45
						C151.95,84.05,120.4,84.05,100.95,103.51z M164,166.55c-15.36,15.36-40.28,15.36-55.64,0s-15.36-40.28,0-55.64
						c15.36-15.36,40.28-15.36,55.64,0C179.36,126.28,179.36,151.19,164,166.55z"/>
					
						<ellipse transform="matrix(0.7071 -0.7071 0.7071 0.7071 -58.2037 136.9187)" class="st1" cx="136.17" cy="138.72" rx="39.34" ry="39.34"/>
				</g>
			</g>
		</g>
	</g>
</g>
</svg>
