<?xml version="1.0" encoding="utf-8"?>
<!-- Generator: Adobe Illustrator 24.3.0, SVG Export Plug-In . SVG Version: 6.00 Build 0)  -->
<svg version="1.1" id="Livello_1" xmlns="http://www.w3.org/2000/svg" xmlns:xlink="http://www.w3.org/1999/xlink" x="0px" y="0px"
	 viewBox="0 0 277.53 277.53" style="enable-background:new 0 0 277.53 277.53;" xml:space="preserve">
<g>
	<g>
		<path d="M197.06,121.6h0.23l2.25-13.72l-5.96-0.31l-2.26,14.03h-23.65l-16.13-33.22h-0.01c-1.55-4.58-5.87-7.88-10.97-7.88
			c-5.07,0-9.37,3.26-10.94,7.79h-0.01l-15.62,47.03v0.01c-0.57,1.11-0.97,2.33-1.16,3.62l-0.06-0.04l-9.17,48.11
			c0,0-14.21,16.31-25.35,28.5c-9.22,10.09-0.36,23.26-0.36,23.26l41.78-42.65l11.35-30.61l18.38,18.62c0,0-5.91,26.91-7.19,40.77
			c-1.27,13.61,12.35,14.27,12.35,14.27l13.95-62l-26.96-32.39l0.71-2.33l6.47-27.18l11.83,20.05h5.28h23.61L176.8,238.87l5.96,0.31
			l12.66-103.85h1.66c0,0,6.39,0,6.39-7.1S197.06,121.6,197.06,121.6z"/>
		<circle cx="152.91" cy="55.38" r="17.03"/>
		<path d="M99.29,139.07c4.84,0,8.86-3.48,9.72-8.08h0.01l14.99-45.53l0,0c0.4-1.3,0.62-2.67,0.62-4.1
			c0-7.61-6.17-13.78-13.78-13.78c-6.91,0-12.61,5.09-13.61,11.72h-0.02l-7.61,47.85c-0.04,0.2-0.07,0.4-0.1,0.6l-0.06,0.36l0,0
			c-0.04,0.35-0.06,0.71-0.06,1.07C89.4,134.64,93.83,139.07,99.29,139.07z"/>
	</g>
</g>
</svg>
