<?xml version="1.0" encoding="utf-8"?>
<!-- Generator: Adobe Illustrator 24.3.0, SVG Export Plug-In . SVG Version: 6.00 Build 0)  -->
<svg version="1.1" id="Livello_1" xmlns="http://www.w3.org/2000/svg" xmlns:xlink="http://www.w3.org/1999/xlink" x="0px" y="0px"
	 viewBox="0 0 277.53 277.53" style="enable-background:new 0 0 277.53 277.53;" xml:space="preserve">
<style type="text/css">
	.st0{fill:#FFFFFF;}
</style>
<g>
	<g>
		<path class="st0" d="M155.52,74.04c9.4,0,17.03-7.62,17.03-17.03c0-9.4-7.62-17.03-17.03-17.03c-9.4,0-17.03,7.62-17.03,17.03
			S146.11,74.04,155.52,74.04z"/>
		<path class="st0" d="M177.99,168.79l19.07-23.49l1.03,1.03c0,0,5.08,3.89,9.39-1.75c4.32-5.64-1.04-9.15-1.04-9.15l-44.9-51.84
			c-0.01-0.02-0.01-0.03-0.01-0.03h-0.01c-2.68-4.02-7.71-6.09-12.64-4.77c-2.86,0.77-5.17,2.54-6.67,4.83l-0.01-0.01l-21.54,28.15
			l-19,24.79c0,0-3.89,5.08,1.75,9.39c3.75,2.87,6.56,1.46,8.02,0.2l-57.68,71.43l4.56,3.84l61.41-76.04l-4.38-3.68l23.48-27.18
			l-1.42,24.11l0.01,0.01c-0.38,1.75-0.37,3.61,0.12,5.46c0.25,0.93,0.61,1.79,1.05,2.59l0.39,0.8l-19.37,27.89
			c0,0-15.17,24.41-23.6,35.17s1.53,25.85,1.53,25.85l43.81-56.96l10.52-12.94l9.25,13.66l-30.4,37.44l4.56,3.84l29.33-36.12
			l3.08,4.54c0,0,16.31,25.03,22.35,37.3c7.5,15.23,25.74,9.24,25.74,9.24l-36.48-65.36L177.99,168.79z M166.2,148.21l0.33-10.01
			l-0.73-26.24l11.47,13.54l15.55,15.55l-18.01,22.18L166.2,148.21z"/>
	</g>
</g>
</svg>
