<?xml version="1.0" encoding="utf-8"?>
<!-- Generator: Adobe Illustrator 24.3.0, SVG Export Plug-In . SVG Version: 6.00 Build 0)  -->
<svg version="1.1" id="Livello_1" xmlns="http://www.w3.org/2000/svg" xmlns:xlink="http://www.w3.org/1999/xlink" x="0px" y="0px"
	 viewBox="0 0 392 277.53" style="enable-background:new 0 0 392 277.53;" xml:space="preserve">
<style type="text/css">
	.st0{fill:#8C8C8C;}
	.st1{fill:#666666;}
	.st2{fill:#1D1D1B;}
	.st3{fill:none;stroke:#FFFFFF;stroke-width:7.6273;stroke-linejoin:bevel;stroke-miterlimit:10;}
	.st4{fill:#F7AA16;}
</style>
<g>
	<g>
		<g>
			<polygon class="st0" points="12.33,268.7 117.8,29.5 233.73,268.7 			"/>
			<polygon class="st1" points="89.27,268.7 194.73,29.5 313.21,268.7 			"/>
			<polygon class="st2" points="166.21,268.7 271.67,29.5 387.6,268.7 			"/>
		</g>
		<line class="st3" x1="60.78" y1="203.73" x2="3.42" y2="203.73"/>
		<polygon class="st4" points="60.78,9 60.78,1.37 12.17,1.37 12.17,1.34 2,1.34 2,276.1 3.42,276.1 3.42,276.19 60.78,276.19 
			60.78,268.56 12.17,268.56 12.17,207.55 60.78,207.55 60.78,199.92 12.17,199.92 12.17,141.37 60.78,141.37 60.78,133.74 
			12.17,133.74 12.17,75.18 60.78,75.18 60.78,67.56 12.17,67.56 12.17,9 		"/>
	</g>
</g>
</svg>
