<?xml version="1.0" encoding="utf-8"?>
<!-- Generator: Adobe Illustrator 24.3.0, SVG Export Plug-In . SVG Version: 6.00 Build 0)  -->
<svg version="1.1" id="Livello_1" xmlns="http://www.w3.org/2000/svg" xmlns:xlink="http://www.w3.org/1999/xlink" x="0px" y="0px"
	 viewBox="0 0 277.53 277.53" style="enable-background:new 0 0 277.53 277.53;" xml:space="preserve">
<style type="text/css">
	.st0{fill:#1D1D1B;}
	.st1{fill:#8C8C8C;}
	.st2{fill:#666666;}
	.st3{fill:#F7AA16;}
	.st4{fill:none;stroke:#FFFFFF;stroke-width:4.2579;stroke-miterlimit:10;}
	.st5{fill:#FFFFFF;}
</style>
<rect x="0.58" y="0" class="st0" width="276.37" height="276.37"/>
<g>
	<g>
		<polygon class="st1" points="37.23,207.34 96.1,73.81 160.82,207.34 		"/>
		<polygon class="st2" points="80.18,207.34 139.05,73.81 205.19,207.34 		"/>
		<polygon class="st3" points="123.13,207.34 182,73.81 246.72,207.34 		"/>
	</g>
	<line class="st4" x1="64.28" y1="171.08" x2="32.25" y2="171.08"/>
	<polygon class="st5" points="64.28,62.37 64.28,58.11 37.14,58.11 37.14,58.09 31.46,58.09 31.46,211.48 32.25,211.48 
		32.25,211.53 64.28,211.53 64.28,207.27 37.14,207.27 37.14,173.21 64.28,173.21 64.28,168.95 37.14,168.95 37.14,136.26 
		64.28,136.26 64.28,132 37.14,132 37.14,99.31 64.28,99.31 64.28,95.06 37.14,95.06 37.14,62.37 	"/>
</g>
</svg>
