<?xml version="1.0" encoding="utf-8"?>
<!-- Generator: Adobe Illustrator 24.3.0, SVG Export Plug-In . SVG Version: 6.00 Build 0)  -->
<svg version="1.1" id="Livello_1" xmlns="http://www.w3.org/2000/svg" xmlns:xlink="http://www.w3.org/1999/xlink" x="0px" y="0px"
	 viewBox="0 0 277.53 277.53" style="enable-background:new 0 0 277.53 277.53;" xml:space="preserve">
<style type="text/css">
	.st0{fill:#F7AA16;}
	.st1{fill:#8C8C8C;}
	.st2{fill:#424241;}
	.st3{fill:#1D1D1B;}
	.st4{fill:#FFFFFF;}
</style>
<rect x="0.58" y="0.58" class="st0" width="276.37" height="276.37"/>
<g>
	<g>
		<polygon class="st1" points="35.79,206.98 94.67,73.45 159.39,206.98 		"/>
		<polygon class="st2" points="78.74,206.98 137.62,73.45 203.76,206.98 		"/>
		<polygon class="st3" points="121.69,206.98 180.57,73.45 245.28,206.98 		"/>
	</g>
	<polygon class="st4" points="245.22,190.31 245.22,206.84 205.56,206.84 205.56,190.31 201.3,190.31 201.3,206.84 163.07,206.84 
		163.07,190.31 158.81,190.31 158.81,206.84 120.58,206.84 120.58,190.31 116.32,190.31 116.32,206.84 78.08,206.84 78.08,190.31 
		73.83,190.31 73.83,206.84 35.59,206.84 35.59,190.31 31.33,190.31 31.33,226.09 35.59,226.09 35.59,212.52 73.83,212.52 
		73.83,226.09 78.08,226.09 78.08,212.52 116.32,212.52 116.32,226.09 120.58,226.09 120.58,212.52 158.81,212.52 158.81,226.09 
		163.07,226.09 163.07,212.52 201.3,212.52 201.3,226.09 205.56,226.09 205.56,212.52 245.22,212.52 245.22,226.09 249.48,226.09 
		249.48,190.31 	"/>
</g>
</svg>
