<?xml version="1.0" encoding="utf-8"?>
<!-- Generator: Adobe Illustrator 24.3.0, SVG Export Plug-In . SVG Version: 6.00 Build 0)  -->
<svg version="1.1" id="Livello_1" xmlns="http://www.w3.org/2000/svg" xmlns:xlink="http://www.w3.org/1999/xlink" x="0px" y="0px"
	 viewBox="0 0 277.53 277.53" style="enable-background:new 0 0 277.53 277.53;" xml:space="preserve">
<style type="text/css">
	.st0{fill:#F7AA16;}
	.st1{fill:#F9F9F9;}
	.st2{fill:#FABA09;}
	.st3{fill:#525252;}
	.st4{fill:#8F8C8F;}
	.st5{fill:#6A6B6B;}
	.st6{fill:#FFFFFF;}
	.st7{font-family:'Arial-BoldMT';}
	.st8{font-size:82.1774px;}
</style>
<rect x="0.28" y="0.28" class="st0" width="276.97" height="276.97"/>
<g>
	<circle class="st1" cx="138.77" cy="124.33" r="75.4"/>
	<rect x="135.88" y="67.32" class="st2" width="6.63" height="56.34"/>
	<rect x="139.97" y="120.99" class="st2" width="65.04" height="6.63"/>
	<path class="st3" d="M138.77,40.36c-46.37,0-83.97,37.59-83.97,83.97s37.59,83.97,83.97,83.97s83.97-37.59,83.97-83.97
		S185.14,40.36,138.77,40.36z M138.77,199.73c-41.64,0-75.4-33.76-75.4-75.4s33.76-75.4,75.4-75.4s75.4,33.76,75.4,75.4
		S180.41,199.73,138.77,199.73z"/>
	<rect x="142.58" y="70.11" class="st4" width="1.66" height="51.74"/>
	<rect x="147.27" y="127.51" class="st4" width="58.37" height="1.66"/>
	<circle class="st5" cx="139.2" cy="124.31" r="11.6"/>
</g>
<g>
	<text transform="matrix(1 0 0 1 16.6925 259.3723)" class="st6 st7 st8">A</text>
</g>
</svg>
