<?xml version="1.0" encoding="utf-8"?>
<!-- Generator: Adobe Illustrator 24.3.0, SVG Export Plug-In . SVG Version: 6.00 Build 0)  -->
<svg version="1.1" id="Livello_1" xmlns="http://www.w3.org/2000/svg" xmlns:xlink="http://www.w3.org/1999/xlink" x="0px" y="0px"
	 viewBox="0 0 397 277.53" style="enable-background:new 0 0 397 277.53;" xml:space="preserve">
<style type="text/css">
	.st0{fill:#8C8C8C;}
	.st1{fill:#424241;}
	.st2{fill:#1D1D1B;}
	.st3{fill:#F7AA16;}
</style>
<g>
	<g>
		<g>
			<polygon class="st0" points="11.41,241.24 116.88,2.06 232.81,241.24 			"/>
			<polygon class="st1" points="88.35,241.24 193.81,2.06 312.29,241.24 			"/>
			<polygon class="st2" points="165.28,241.24 270.75,2.06 386.68,241.24 			"/>
		</g>
		<polygon class="st3" points="386.56,211.38 386.56,241 315.52,241 315.52,211.38 307.9,211.38 307.9,241 239.4,241 239.4,211.38 
			231.78,211.38 231.78,241 163.29,241 163.29,211.38 155.66,211.38 155.66,241 87.17,241 87.17,211.38 79.54,211.38 79.54,241 
			11.05,241 11.05,211.38 3.42,211.38 3.42,275.47 11.05,275.47 11.05,251.17 79.54,251.17 79.54,275.47 87.17,275.47 87.17,251.17 
			155.66,251.17 155.66,275.47 163.29,275.47 163.29,251.17 231.78,251.17 231.78,275.47 239.4,275.47 239.4,251.17 307.9,251.17 
			307.9,275.47 315.52,275.47 315.52,251.17 386.56,251.17 386.56,275.47 394.19,275.47 394.19,211.38 		"/>
	</g>
</g>
</svg>
