<?xml version="1.0" encoding="utf-8"?>
<!-- Generator: Adobe Illustrator 24.3.0, SVG Export Plug-In . SVG Version: 6.00 Build 0)  -->
<svg version="1.1" id="Livello_1" xmlns="http://www.w3.org/2000/svg" xmlns:xlink="http://www.w3.org/1999/xlink" x="0px" y="0px"
	 viewBox="0 0 277.53 277.53" style="enable-background:new 0 0 277.53 277.53;" xml:space="preserve">
<style type="text/css">
	.st0{fill:#F9F9F9;}
	.st1{fill:#FABA09;}
	.st2{fill:#525252;}
	.st3{fill:#8F8C8F;}
	.st4{fill:#6A6B6B;}
</style>
<g>
	<g>
		<circle class="st0" cx="138.76" cy="138.76" r="123.61"/>
		<rect x="134.04" y="45.3" class="st1" width="10.87" height="92.37"/>
		<rect x="140.75" y="133.29" class="st1" width="106.63" height="10.87"/>
		<path class="st2" d="M138.77,1.1C62.74,1.1,1.1,62.74,1.1,138.76s61.63,137.66,137.66,137.66s137.66-61.63,137.66-137.66
			S214.79,1.1,138.77,1.1z M138.77,262.38c-68.27,0-123.61-55.34-123.61-123.61S70.5,15.15,138.77,15.15S262.38,70.5,262.38,138.76
			S207.03,262.38,138.77,262.38z"/>
		<rect x="145.02" y="49.87" class="st3" width="2.72" height="84.83"/>
		<rect x="152.71" y="143.99" class="st3" width="95.7" height="2.72"/>
		<circle class="st4" cx="139.47" cy="138.73" r="19.02"/>
	</g>
</g>
</svg>
