<?xml version="1.0" encoding="utf-8"?>
<!-- Generator: Adobe Illustrator 24.3.0, SVG Export Plug-In . SVG Version: 6.00 Build 0)  -->
<svg version="1.1" id="Livello_1" xmlns="http://www.w3.org/2000/svg" xmlns:xlink="http://www.w3.org/1999/xlink" x="0px" y="0px"
	 viewBox="0 0 277.53 277.53" style="enable-background:new 0 0 277.53 277.53;" xml:space="preserve">
<style type="text/css">
	.st0{fill:#2264A0;}
	.st1{fill:#23509E;}
	.st2{fill:#184587;}
	.st3{fill:#3780B7;}
	.st4{fill:#202020;}
	.st5{fill:#252525;}
	.st6{fill:#080808;}
	.st7{fill:#181818;}
	.st8{fill:#676767;}
	.st9{fill:#1E4987;}
	.st10{fill:#114170;}
	.st11{fill:#2956A2;}
	.st12{fill:#848484;}
	.st13{fill:#B5B5B5;}
	.st14{fill:#333333;}
	.st15{opacity:0.7;}
	.st16{fill:#138BCE;}
	.st17{fill:#424242;}
	.st18{opacity:0.56;fill:#184587;enable-background:new    ;}
	.st19{fill:#1188BC;}
	.st20{font-family:'ArialMT';}
	.st21{font-size:76.8914px;}
</style>
<g>
	<g>
		<g>
			<g>
				<g>
					<path class="st0" d="M119.39,175.01l-10.35-17.02l20.61-34.79l33.25,18.43l9.44-2.05l14.57-11.09c0,0,12.28,7.51,19.97,11.91
						c7.69,4.4,19.78,10.63,23.52,12.26l-2.58,14.68l-8.84,16.49l-36.26,6.32l-33.18-3.3L119.39,175.01z"/>
					<path class="st1" d="M132.36,125.82c0,0-2.72,5.61-2.72,11.05s-2.82,7.36-6.22,12.31c-3.4,4.95-8.71,9.89-9.35,11.82
						c-0.64,1.92,5.31,11.54,5.31,11.54l-25.17-14.55l-28.19-15.87l-3.64-25.75l18.06-19.58l20.37-1.51L132.36,125.82z"/>
					<path class="st2" d="M97.49,89.15c0,0,8.11-10.64,12.55-13.58c4.44-2.93,7.92-2.47,8.89-1.79s7.46,6.01,9,7.43
						c1.54,1.41,14.05,12.41,14.05,12.41l10.07,10.21l11.96,10.35l20.63,15.49l1.95,2.49l-2.24,2.12l-12.92,6.73l-6.31,0.6
						l-40.77-29.04L97.49,89.15z"/>
					<path class="st3" d="M152.87,104.57c0,0,8.83,9.43,10.48,10.9c1.65,1.47,9.07,7.51,10.63,8.52c1.56,1.01,3.59,2.02,4.86,3.12
						c1.27,1.1,5.21,3.11,5.58,3.48s1.1,1.16,0.64,1.59c0,0,0.76-0.73,0.15-1.77c-0.61-1.04-6.37-6.32-6.37-6.32l-20.18-16.76
						l-3.76-1.55L152.87,104.57z"/>
					<path class="st4" d="M140.46,93.07c0,0-9.35-8.3-10.36-9.4s-6.6-6.18-7.05-6.48c0,0,1.47-0.39,4.21,1.26
						c2.75,1.65,5.5,3.94,6.55,5.04s10.77,13.29,10.77,13.29s1.27-0.18,1.64,0s2.56,2.1,4.67,4.3s3.4,3.81,5.18,5.59
						c0,0,2.36,0.27,2.99,0.92c0.62,0.64,4.1,3.57,7.77,6.5c3.66,2.93,14.84,11.27,15.66,11.82c0.82,0.55-1.19,1.56-1.19,1.56
						s-7.15-5.77-9.89-7.56c-2.75-1.79-11.82-9.3-11.99-9.52c-0.18-0.22-13.02-11.49-13.02-11.49L140.46,93.07z"/>
					<path class="st5" d="M59.29,74.56l-1.37-2.06c0,0,4.4-2.34,6.32-3.3s6.6-3.16,9.21-3.57s4.63-0.17,6.44,1.7l3.46,7.23
						l4.12,11.59l-3.16,4.08l-8.93-5.22l-12.1-3.75C63.27,81.25,61.49,76.76,59.29,74.56z"/>
					<path class="st6" d="M64.24,85c0,0,7.56,0.14,10.72,2.2c3.16,2.06,7.69,6.41,7.69,6.41s-3.02,2.11-4.53,4.17
						s-4.12,4.53-6.73,6.05s-3.71,2.34-4.26,1.1c-0.55-1.24-0.82-5.86-1.24-9.66C65.48,91.46,64.24,85,64.24,85z"/>
					<path class="st7" d="M82.65,94.57c0,0-4.61-5.57-6.94-6.85s-8.31-2.71-11.47-2.71c0,0-1.51-8.24-4.95-10.44
						c0,0,4.4,3.44,5.77,3.98c1.37,0.55,6.87-0.14,8.38,1.1c1.51,1.24,5.36,4.95,6.87,7.15c1.51,2.2,3.98,1.51,4.67,0.55
						c0.69-0.96,1.1-4.67,0-5.77s-1.65-3.44-2.34-5.08c-0.69-1.65-1.24-4.67-1.92-5.63c-0.69-0.96-1.65-3.71-2.2-4.4
						c0,0,1.1,0.27,3.16,2.75c2.06,2.47,2.34,4.4,3.16,6.46c0.82,2.06,1.79,6.87,3.71,8.24c1.92,1.37,6.12,4.48,9.97,5.26
						c0,0-7.63,1.15-10.11,2.2C85.95,92.42,82.65,94.57,82.65,94.57z"/>
					<path class="st4" d="M50.5,77.84c0,0,1.92-3.42,4.95-3.97s2.79-0.57,3.39,0c1.72,1.65,4.85,5.08,6.05,12.27
						c1.19,7.2,1.63,15.49,1.7,16.03s0.55,3.78,2.05,3.12s5.09-2.92,9-7.81c4.36-5.45,13.54-7.26,13.54-7.26s6.8-2.54,14.57,0
						c7.26,2.37,13.65,9.11,13.65,9.11l2.02,2.84l-3.9,1.34c0,0-6.91-8.03-12.77-9.91c-5.86-1.88-10.95-1.15-16.17,0.96
						s-6.87,2.8-8.11,4.31s-5.5,8.19-11.68,10.07s-9.89-2.01-11.95-5.58s-0.73-16.16-1.28-18.35c-0.55-2.2,0.09-5.82-1.41-7.17
						C52.63,76.49,50.5,77.84,50.5,77.84z"/>
					<path class="st3" d="M80.45,98.88c1.24-1.51,2.89-2.2,8.11-4.31c5.22-2.11,10.31-2.83,16.17-0.96
						c5.86,1.88,12.77,9.91,12.77,9.91l8.1,2.81c0,0,18.38,16.07,21.59,19.05c3.19,2.96,6.2,4.56,10.13,8.4
						c3.93,3.85,10.62,7.42,10.62,7.42s3.99,2.47,1.81,3.57s-11.42,1.92-12.43,2.47s-11.81-9.53-15.34-11.36
						s-15.42-12.11-18.54-14.53c-3.13-2.42-18.06-14.96-18.7-15.83c-0.64-0.88-2.02-3.07-4.76-2.8s-4.4,1.1-7.97,1.1
						C92,103.83,86.22,101.63,80.45,98.88"/>
					<path class="st6" d="M50.5,77.84c0,0,2.35-3.31,4.06-3.72c1.71-0.4,4.28-0.25,4.28-0.25s-0.23-1.65-1.6-2.47
						s-4.35-2.41-7.25-1.56c-2.34,0.69-3.57,1.92-4.81,4.25C45.18,74.1,48.57,72.6,50.5,77.84z"/>
					<path class="st8" d="M46.65,87.89c0,0,3.53-3.02,5.47-2.89c1.95,0.14,3.87,0,3.87,0s0.36-5.44-1.87-7.16
						c-2.23-1.72-4.04,0.43-4.87,1.53C48.44,80.47,47.34,83.08,46.65,87.89z"/>
					<path class="st0" d="M80.45,98.88c0,0-0.14,3.79-0.96,7.25c-0.82,3.46-0.55,8.32-2.75,10.22s-5.08,2.46-6.87,4.1
						s-0.55,10.71,0,12.36s2.61,6.18,3.57,7.15s11.82,7.69,12.5,8.52c0.69,0.82,3.85,3.71,3.85,3.71s-15.97-10.35-21.71-14.47
						c-7.15-5.13-11.95-9.27-18.55-16.36s-7.28-11.97-7.28-11.97s0.55-6.85,1.24-9.64s0.69-4.13,0.82-6.14
						c0.14-2.01,2.34-5.72,2.34-5.72s2.69-2.93,5.47-2.89c2.78,0.05,3.87,0,3.87,0s-0.05,10.4,0.25,14.75s3.26,6.34,5.49,8.37
						c2.23,2.03,6.57,1.19,8.11,0.45c1.54-0.74,4.58-2.46,6.58-4.75C78.42,101.54,80.45,98.88,80.45,98.88z"/>
					<path class="st5" d="M89.8,152.2c0,0-15.97-10.35-21.71-14.47c-7.15-5.13-11.95-9.27-18.55-16.36s-7.28-11.97-7.28-11.97
						s-1.1,9.37-0.64,14.59c0,0-0.64,4.17,7.15,7.99s17.68,7.94,19.6,9.04C70.28,142.12,81.28,146.61,89.8,152.2z"/>
					<g>
						<path class="st9" d="M159.07,121.36c0,0,7.26-0.7,9.67,0l1.01-1.23c0,0-2-2.2-3.19-2.66c0,0-3.25-0.27-5.24,0L159.07,121.36z"
							/>
						<path class="st10" d="M168.27,131.51c-0.76,2.26,10.57-4.41,10.57-4.41c-2.47-0.45-8.01,0-8.01,0S168.6,130.52,168.27,131.51z
							"/>
						<path class="st10" d="M151.22,110.38c0,0,4.72-1.14,5.45-0.59s2.4,1.99,2.4,1.99l0.61-1.07c0,0-2.28-2.93-2.92-3.48
							c-0.64-0.55-1.07-1.06-2.96-1.08L151.22,110.38z"/>
						<path class="st10" d="M140.18,93.61l0.55-1.05l-1.56-1.19c0,0,1.37-0.16,2.84,0.79s2.29,1.96,2.29,1.96s0.37,0.73,0.46,1.37
							s-0.46,2.29-0.46,2.29L140.18,93.61z"/>
						<path class="st10" d="M149.78,102.88c0,0-2.46-1.52-3.01-1.79s-2.47-3.3-2.47-3.3l0.29-1c0,0,0.28,0.27,2,1.55
							c1.73,1.28,2.77,2.42,3.72,3.69L149.78,102.88z"/>
						<path class="st10" d="M133.82,88.72c0,0,4.07,0.93,5.36,2.65c0,0,0.92-1.92,0-3.21c-0.92-1.28-2.75-2.02-2.75-2.02h-0.55
							L133.82,88.72z"/>
						<path class="st9" d="M124.04,106.46c0,0-0.53,2.32-0.53,3.05s-0.37,1.19,0.46,0.87c0.82-0.32,3.94-1.88,4.58-1.42
							s1.1,0.92,1.1,0.92s0.18-1.01-0.55-1.83s-2.13-2.42-2.13-2.42L124.04,106.46z"/>
						<path class="st9" d="M135.87,120.14c0,0-1.37,0.73-1.15,0c0.23-0.73,0.78-4.16,0.78-4.16s6.14-2.99,8.52-3.72l-4.21,6.69
							C139.81,118.94,137.5,119.8,135.87,120.14z"/>
						<g>
							<path class="st11" d="M104.94,98.61c0,0,0-0.82,1.47-1.92c2.49-1.87,6.96-4.12,14.66-7.42c7.69-3.3,8.24-3.11,8.24-3.11
								l-4.67,6.23c0,0-9.98,3.85-16.21,7.97c0,0-0.55,0.73-1.28,0.73S104.94,98.61,104.94,98.61z"/>
							<path class="st11" d="M119.39,99.34c0,0,10.26-14.02,12.18-16.31c0,0,0.82-1.19,1.37-0.82s3.48,2.38,3.48,2.38
								s0.09,1.19,0,1.56c0,0,0.18-0.73-0.55,0c-0.73,0.73-8.34,10.81-11.18,15.12l-3.09,1.22L119.39,99.34z"/>
							<path class="st11" d="M116.55,108.78l-2.47-2.75c0,0,0.09-1.28,1.24-1.74c1.15-0.46,13.6-4.67,18.92-5.4l2.24,2.2
								c0,0-2.06,1.83-2.61,2.75C133.86,103.83,120.58,107.22,116.55,108.78z"/>
							<path class="st11" d="M129.65,109.88c0,0,3.38-5.86,6.82-8.79c0,0,2.07,1.28,3.35,3.3c0,0-3.21,4.49-4.21,6.14
								c0,0-2.75,1.37-3.48,1.74L129.65,109.88z"/>
							<path class="st11" d="M128.45,120.14l-2.75-2.38c0,0-0.73-1.1,0.73-2.29c1.47-1.19,15.34-8.7,21.21-8.79l-3.62,5.59
								C144.03,112.26,133.22,116.38,128.45,120.14z"/>
							<path class="st11" d="M141.69,120.64l-1.88-1.69l11.08-17.86v-0.64c0,0,0.37-0.27,1.01,0s2.84,2.47,2.84,2.47
								s0.27,0.46,0,1.47s-8.98,14.66-8.98,14.66S143.16,119.72,141.69,120.64z"/>
							<path class="st11" d="M138.13,128.1l-2.62-2.29c0,0,0.08-1.19,0.96-2.2s7.01-6.08,19.56-6.26l-3.04,4.51
								C152.98,121.86,144.51,122.43,138.13,128.1z"/>
							<path class="st11" d="M152.75,129.67l-3.22-2.49c0,0,4.95-7.24,10.99-17.95c0,0,0.46-1.1,1.37-0.46
								c0.92,0.64,2.75,1.6,2.75,1.6s0.55,0.23,0.46,1.88l-0.46-0.46c0,0-7.82,13.28-9.77,17.04L152.75,129.67z"/>
							<path class="st11" d="M145.54,134.79c0,0,0.23-1.28,1.79-2.38s6.32-4.67,16.95-4.95l-2.84,4.86c0,0-4.86-1.01-12.92,4.31
								c0,0,0,0.55-1.19,0C146.13,136.07,145.54,134.79,145.54,134.79z"/>
							<path class="st9" d="M159.27,135.51c0,0,7.85-13.54,13.07-18.03l3.76,2.66v0.73v0.55l-0.55-0.27c0,0-4.34,4.44-7.27,10.37
								c0,0-4.35,2.28-7.92,4.84L159.27,135.51z"/>
							<path class="st11" d="M158.23,144.78l-2.66-2.02c0,0-0.37-0.82,0-1.65c0.37-0.82,6.14-8.79,26.93-15.21
								c0,0,0.92-0.46,2.66,0.78s2.66,1.42,2.66,1.42s0.92,0.92,0.55,1.92c0,0-1.1-1.28-2.2-1.1s-8.87,2.66-14.24,5.59
								C166.56,137.45,160.97,141.02,158.23,144.78z"/>
						</g>
					</g>
					<path class="st3" d="M165.11,139.56c0,0,4.02,1.38,7.23,0c3.21-1.38,12.85-6.93,12.85-6.93s0.98-1.51-0.79-3.21l2.51-0.95
						l6.05,4.31l-4.97-1.58c0,0,0.03,1.3-0.89,2.22c-0.92,0.92-9.44,5.77-10.44,6.32c-1.01,0.55-4.69,2.37-7.48,2.37l-3.61-1.18
						L165.11,139.56z"/>
					<path class="st1" d="M241.59,165.3c0,0,0.37-6.87-4.26-9.41c-4.8-2.64-9.48-4.14-11.31-5.06c0,0-7.97,4.49-8.43,4.86
						s-0.46,0.46,0,1.47s4.58,7.97,5.04,9.62c0.46,1.65,0.82,2.84,0.09,3.76s-7.42,9.16-8.06,10.08s-0.64,3.21-0.64,3.21
						s7.24-1.37,11.91-3.76c0,0,0-6.69,3.11-8.43c3.11-1.74,9.62-5.22,10.9-6.23C239.94,165.39,241.5,164.75,241.59,165.3z"/>
					<path class="st12" d="M41.54,122.73c0,0-0.83,4.17,3.2,6.71c4.03,2.54,22.17,10.71,29.76,14.48
						c7.59,3.77,14.61,8.14,22.58,13.5s28.82,17.45,36.74,20.2s24.27,9.07,52.3,8.66c28.03-0.41,38.93-5.73,39.8-6.23
						c0,0,1.15,2.52,0.6,3.76c0,0-0.82,1.79-13.74,4.81s-35.31,6.73-59.22,3.16c0,0-16.76-2.75-32.98-11.4
						c0,0-9.34-6.18-14.98-10.58s-15.8-13.19-22.95-16.76c-7.15-3.57-20.16-9.62-26.64-11.54s-12.53-4.53-15.82-6.87
						c-3.3-2.34-1.92-7.4-1.37-8.79C39.37,124.44,41.54,122.73,41.54,122.73z"/>
					<path class="st13" d="M40.19,134.61c3.36,2.25,9.34,4.95,15.82,6.87s19.49,7.97,26.64,11.54c7.15,3.57,17.31,12.37,22.95,16.76
						s14.98,10.58,14.98,10.58c16.21,8.66,32.98,11.4,32.98,11.4c23.91,3.57,46.31-0.14,59.22-3.16
						c12.92-3.02,13.74-4.81,13.74-4.81s1.1,3.57-2.61,7.28c-3.71,3.71-11.54,8.79-40.26,16.08c0,0-3.02,1.37-6.32,0
						c0,0-4.53,2.34-18.82,2.61c0,0-2.75-0.14-4.95-2.06c0,0-2.61,2.2-5.91,2.06s-11.77-2.06-12.14-2.34
						c-0.37-0.27-2.48-1.1-3.14-2.61c0,0-0.8,1.79-4.23,0.96c-3.44-0.82-11.54-4.95-11.54-4.95s-1.65-1.1-1.92-2.47
						c0,0-1.51,0.55-4.95-1.37s-5.91-4.67-5.91-4.67s-0.55,0.41-1.1,0.27s-3.44-2.47-3.44-2.47l-0.96-0.96c0,0-1.1,0.27-2.06,0.14
						c-0.96-0.14-6.73-2.47-9.62-3.3c-2.89-0.82-10.31-2.61-11.27-2.89s-3.16-2.75-3.16-2.75s-4.9,0.96-12.55-2.06
						s-10.81-5.22-10.81-5.22s-1.55-1.24-1.73-2.2c-0.18-0.96-1.69-3.3-2.45-3.57s-1.74,0.82-2.9,0s-6.18-4.4-9.03-11.82
						c-2.85-7.42,0.72-15.33,2.37-19.14s2.96-4.38,2.96-4.38S39.37,134.06,40.19,134.61z"/>
					<path class="st7" d="M133.44,99.01l0.78-0.12c0,0,1.55,1.71,2.24,2.2c0.69,0.49,2.66,2.2,3.35,3.3l-0.23,0.33
						c0,0,0.83,0.54,0.92,0.4c0.09-0.14-0.82-2.47-2.84-4.03s-2.16-1.79-2.96-2.38C133.9,98.1,133.44,99.01,133.44,99.01z"/>
					<path class="st6" d="M184.68,206.9c0,0,24.48-5.76,33.64-11.68c0,0,7.68-3.72,8.35-9.08c0,0-0.88-6.67-0.57-8.38
						s0.73-5.54,3.72-6.88c2.99-1.34,9.33-5.24,10.12-5.49s1.56-0.51,2.38,0.82c1.79,2.89,3.58,7.69,3.57,13.47
						c0,2.34,0.14,2.06-1.51,3.16s-21.16,12.5-25.28,14.43c-4.12,1.92-7.98,3.96-17.73,7.01c-9.78,3.06-12.14,3.16-14.79,3.85
						C186.58,208.12,185.85,208.01,184.68,206.9z"/>
					<path class="st6" d="M33.52,157.33c0,0,2.9,6.41,8.24,9.98c0,0,0.62,0.48,1.38,0.26s1.5-0.45,1.97,0.06c0,0-0.9,0.4-1.57,0.54
						s-1.6,0.33-2.67-0.53c-1.07-0.87-5.25-5.2-7.36-10.01C31.41,152.82,33.52,157.33,33.52,157.33z"/>
					<path class="st6" d="M50.27,173.95c0,0,9.33,4.83,14.18,5.86s7.76,0.55,7.76,0.55l0.99,1.04c0,0-4.57,0.23-8.84-0.77
						C60.09,179.64,51.22,175.57,50.27,173.95z"/>
					<path class="st6" d="M106.83,195.06c0,0,2.9,1.68,3.99,2.5c1.1,0.82,2.39,0.99,3.85,0.81c0,0-0.03,1.62,3.88,3.44
						s9.59,3.98,9.59,3.98s3.07,0.94,4.23-0.96c0,0,0.97,2.59,7.63,3.73c6.66,1.14,7.65,1.22,7.65,1.22s4.72-0.34,5.91-2.06
						l1.01,0.74c0,0-2.15,1.94-6.22,2c-4.07,0.07-11.41-1.87-13.47-2.93c-2.07-1.07-2.5-1.47-2.5-1.47s-0.97,0.73-2.37,0.73
						s-2.53-0.33-4.07-0.93s-9.74-5-9.74-5s-1.2-0.67-1.33-0.93c-0.13-0.27-1.6-0.4-2.67-0.8
						C111.12,198.72,106.83,195.06,106.83,195.06z"/>
					<path class="st6" d="M161.41,209.68c0,0,12.95-0.61,15.92-2.52c0,0,0.79,0.5,2.11,0.55c0,0-3,1.75-9.01,2.75
						s-8.08,0.53-8.08,0.53L161.41,209.68z"/>
					<path class="st14" d="M46.8,86.92c0,0-3.86-3.29-3.79-6.72c0.07-3.44,4.15-10.84,9.11-10.43c0,0-1.37-0.56-4.56,0.81
						s-3.82,1.88-3.82,1.88s-2.31,1.41-2.86,3.41c-0.55,1.99-1.1,3.92-1.17,5.08s0.21,2.89,1.31,4.67c1.1,1.79,2.4,3.09,3.02,3.5
						s1.61,0.63,1.61,0.63l1-1.53L46.8,86.92z"/>
					<g>
						<path class="st12" d="M203,201.7c0,0-2.96-2.74-8.84-3.14c0,0,5.55,2.37,6.52,3.94L203,201.7z"/>
						<path class="st12" d="M165.03,200.87c0,0,10.5,2.74,12.74,6.44l-1.81,0.46l-1.14-1.45
							C174.81,206.32,172.17,203.6,165.03,200.87z"/>
						<path class="st12" d="M148.11,204.75c2.94,2.16,4.12,3.87,4.12,3.87l1.95-0.62c0,0-2.58-2.85-4.98-4.26
							c-2.4-1.42-11.74-8.62-15.26-13.05c0,0-0.73-0.68-0.46,0.41C133.75,192.2,145.37,202.74,148.11,204.75z"/>
						<path class="st12" d="M124.71,198.17c2.33,2.58,6.13,7.67,6.13,7.67l1.71-0.8c0,0-5.7-6.16-8.52-9.48
							c-2.92-3.45-7.98-9.62-7.98-9.62s-1.06-0.92-0.4,0.3C116.31,187.45,120.42,193.41,124.71,198.17z"/>
						<path class="st12" d="M114.5,198.22c0,0-1.44-2.3-3.15-4.72s-6.01-9.32-6.15-9.56c-0.14-0.24-2.89-4.77-2.89-4.77
							s-0.59-0.67-0.78-0.36s-0.01,0.82,0.83,2.31c0.84,1.49,3.51,6.69,4.3,7.59c0.79,0.91,4.42,5.14,4.58,5.62
							c0.16,0.48,0,0.71,0,0.71l2.24,3.36l1.01,0.16v-0.34H114.5z"/>
						<path class="st12" d="M98.37,189.15c0,0-1.27-2.68-2.4-3.52c-1.13-0.84-2.74-2.24-3.33-2.82c-0.59-0.57-2.72-2.36-2.72-2.36
							s-0.58-0.17,0.55,1.04c1.13,1.21,2.54,2.34,2.65,3.19c0.11,0.85,0.33,0.53,0.96,1.25s1.12,1.36,1.67,1.99s0.56,1.4,0.56,1.4
							L98.37,189.15z"/>
						<path class="st12" d="M69.74,180.43c0,0-0.62-2.87-3.51-4.78c-4.56-3.02-8.09-12.64-9.2-11.89c-0.56,0.38,3.47,6.66,3.47,6.66
							s2.81,3.98,3.79,5.67c0.99,1.68,1.62,2.37,1.16,2.62s-0.51,1.32-0.51,1.32S66.97,180.51,69.74,180.43z"/>
						<path class="st12" d="M44,167.27c0,0-2.2-1.65-3.15-3.13s-3.2-6.85-3.2-15.24c0,0-0.92-2-0.67,1.92s0.74,6.77,1.48,10.82
							c0.45,2.46,1.02,3.3,1.02,3.3s1.07,2.13,2.19,2.3c0,0,0.29,0.38,1.31,0.34C43.39,167.56,44,167.27,44,167.27z"/>
						<path class="st12" d="M58.1,141.62c0,0,13.55,17.67,18.64,21.98c0,0,2.59,0.75,4.24,1.01c0,0-11.34-11.79-16.92-21.12
							C64.06,143.49,59.52,142.68,58.1,141.62z"/>
						<path class="st12" d="M46.94,137.79l4.64,2.36c0,0-0.4,5.93,5.07,13.91l-1.99-0.65C54.65,153.41,52.15,151.12,46.94,137.79z"
							/>
						<path class="st12" d="M40.92,134.58c0,0-2.29-1.53-2.58-2.6l0.54,6.38c0,0,0.36,0.89,0.52,0.12
							C39.56,137.72,40.92,134.58,40.92,134.58z"/>
					</g>
				</g>
			</g>
			<g class="st15">
				<g>
					<path class="st0" d="M119.39,175.01l-10.35-17.02l20.61-34.79l33.25,18.43l9.44-2.05l14.57-11.09c0,0,12.28,7.51,19.97,11.91
						c7.69,4.4,19.78,10.63,23.52,12.26l-2.58,14.68l-8.84,16.49l-36.26,6.32l-33.18-3.3L119.39,175.01z"/>
					<path class="st1" d="M132.36,125.82c0,0-2.72,5.61-2.72,11.05s-2.82,7.36-6.22,12.31c-3.4,4.95-8.71,9.89-9.35,11.82
						c-0.64,1.92,5.31,11.54,5.31,11.54l-25.17-14.55l-28.19-15.87l-3.64-25.75l18.06-19.58l20.37-1.51L132.36,125.82z"/>
					<path class="st16" d="M152.87,104.57c0,0,8.83,9.43,10.48,10.9c1.65,1.47,9.07,7.51,10.63,8.52c1.56,1.01,3.59,2.02,4.86,3.12
						c1.27,1.1,5.21,3.11,5.58,3.48s1.1,1.16,0.64,1.59c0,0,0.76-0.73,0.15-1.77c-0.61-1.04-6.37-6.32-6.37-6.32l-20.18-16.76
						l-3.76-1.55L152.87,104.57z"/>
					<path class="st4" d="M140.46,93.07c0,0-9.35-8.3-10.36-9.4s-6.6-6.18-7.05-6.48c0,0,1.47-0.39,4.21,1.26
						c2.75,1.65,5.5,3.94,6.55,5.04s10.77,13.29,10.77,13.29s1.27-0.18,1.64,0s2.56,2.1,4.67,4.3s3.4,3.81,5.18,5.59
						c0,0,2.36,0.27,2.99,0.92c0.62,0.64,4.1,3.57,7.77,6.5c3.66,2.93,14.84,11.27,15.66,11.82c0.82,0.55-1.19,1.56-1.19,1.56
						s-7.15-5.77-9.89-7.56c-2.75-1.79-11.82-9.3-11.99-9.52c-0.18-0.22-13.02-11.49-13.02-11.49L140.46,93.07z"/>
					<path class="st5" d="M59.29,74.56l-1.37-2.06c0,0,4.4-2.34,6.32-3.3s6.6-3.16,9.21-3.57s4.63-0.17,6.44,1.7l3.46,7.23
						l4.12,11.59l-3.16,4.08l-8.93-5.22l-12.1-3.75C63.27,81.25,61.49,76.76,59.29,74.56z"/>
					<path class="st6" d="M64.24,85c0,0,7.56,0.14,10.72,2.2c3.16,2.06,7.69,6.41,7.69,6.41s-3.02,2.11-4.53,4.17
						s-4.12,4.53-6.73,6.05s-3.71,2.34-4.26,1.1c-0.55-1.24-0.82-5.86-1.24-9.66C65.48,91.46,64.24,85,64.24,85z"/>
					<path class="st17" d="M82.65,94.57c0,0-4.61-5.57-6.94-6.85s-8.31-2.71-11.47-2.71c0,0-1.51-8.24-4.95-10.44
						c0,0,4.4,3.44,5.77,3.98c1.37,0.55,6.87-0.14,8.38,1.1c1.51,1.24,5.36,4.95,6.87,7.15c1.51,2.2,3.98,1.51,4.67,0.55
						c0.69-0.96,1.1-4.67,0-5.77s-1.65-3.44-2.34-5.08c-0.69-1.65-1.24-4.67-1.92-5.63c-0.69-0.96-1.65-3.71-2.2-4.4
						c0,0,1.1,0.27,3.16,2.75c2.06,2.47,2.34,4.4,3.16,6.46c0.82,2.06,1.79,6.87,3.71,8.24c1.92,1.37,6.12,4.48,9.97,5.26
						c0,0-7.63,1.15-10.11,2.2C85.95,92.42,82.65,94.57,82.65,94.57z"/>
					<path class="st3" d="M80.45,98.88c1.24-1.51,2.89-2.2,8.11-4.31c5.22-2.11,10.31-2.83,16.17-0.96
						c5.86,1.88,12.77,9.91,12.77,9.91l8.1,2.81c0,0,18.38,16.07,21.59,19.05c3.19,2.96,6.2,4.56,10.13,8.4
						c3.93,3.85,10.62,7.42,10.62,7.42s3.99,2.47,1.81,3.57s-11.42,1.92-12.43,2.47s-11.81-9.53-15.34-11.36
						s-15.42-12.11-18.54-14.53c-3.13-2.42-18.06-14.96-18.7-15.83c-0.64-0.88-2.02-3.07-4.76-2.8s-4.4,1.1-7.97,1.1
						C92,103.83,86.22,101.63,80.45,98.88"/>
					<path class="st6" d="M50.5,77.84c0,0,2.35-3.31,4.06-3.72c1.71-0.4,4.28-0.25,4.28-0.25s-0.23-1.65-1.6-2.47
						s-4.35-2.41-7.25-1.56c-2.34,0.69-3.57,1.92-4.81,4.25C45.18,74.1,48.57,72.6,50.5,77.84z"/>
					<path class="st8" d="M46.65,87.89c0,0,3.53-3.02,5.47-2.89c1.95,0.14,3.87,0,3.87,0s0.36-5.44-1.87-7.16
						c-2.23-1.72-4.04,0.43-4.87,1.53C48.44,80.47,47.34,83.08,46.65,87.89z"/>
					<path class="st0" d="M80.45,98.88c0,0-0.14,3.79-0.96,7.25c-0.82,3.46-0.55,8.32-2.75,10.22s-5.08,2.46-6.87,4.1
						s-0.55,10.71,0,12.36s2.61,6.18,3.57,7.15s11.82,7.69,12.5,8.52c0.69,0.82,3.85,3.71,3.85,3.71s-15.97-10.35-21.71-14.47
						c-7.15-5.13-11.95-9.27-18.55-16.36s-7.28-11.97-7.28-11.97s0.55-6.85,1.24-9.64s0.69-4.13,0.82-6.14
						c0.14-2.01,2.34-5.72,2.34-5.72s2.69-2.93,5.47-2.89c2.78,0.05,3.87,0,3.87,0s-0.05,10.4,0.25,14.75s3.26,6.34,5.49,8.37
						c2.23,2.03,6.57,1.19,8.11,0.45c1.54-0.74,4.58-2.46,6.58-4.75C78.42,101.54,80.45,98.88,80.45,98.88z"/>
					<path class="st5" d="M89.8,152.2c0,0-15.97-10.35-21.71-14.47c-7.15-5.13-11.95-9.27-18.55-16.36s-7.28-11.97-7.28-11.97
						s-1.1,9.37-0.64,14.59c0,0-0.64,4.17,7.15,7.99s17.68,7.94,19.6,9.04C70.28,142.12,81.28,146.61,89.8,152.2z"/>
					<g>
						<path class="st9" d="M159.07,121.36c0,0,7.26-0.7,9.67,0l1.01-1.23c0,0-2-2.2-3.19-2.66c0,0-3.25-0.27-5.24,0L159.07,121.36z"
							/>
						<path class="st10" d="M168.27,131.51c-0.76,2.26,10.57-4.41,10.57-4.41c-2.47-0.45-8.01,0-8.01,0S168.6,130.52,168.27,131.51z
							"/>
						<path class="st10" d="M151.22,110.38c0,0,4.72-1.14,5.45-0.59s2.4,1.99,2.4,1.99l0.61-1.07c0,0-2.28-2.93-2.92-3.48
							c-0.64-0.55-1.07-1.06-2.96-1.08L151.22,110.38z"/>
						<path class="st16" d="M140.18,93.61l0.55-1.05l-1.56-1.19c0,0,1.37-0.16,2.84,0.79s2.29,1.96,2.29,1.96s0.37,0.73,0.46,1.37
							s-0.46,2.29-0.46,2.29L140.18,93.61z"/>
						<path class="st16" d="M149.78,102.88c0,0-2.46-1.52-3.01-1.79s-2.47-3.3-2.47-3.3l0.29-1c0,0,0.28,0.27,2,1.55
							c1.73,1.28,2.77,2.42,3.72,3.69L149.78,102.88z"/>
						<path class="st10" d="M133.82,88.72c0,0,4.07,0.93,5.36,2.65c0,0,0.92-1.92,0-3.21c-0.92-1.28-2.75-2.02-2.75-2.02h-0.55
							L133.82,88.72z"/>
						<path class="st9" d="M124.04,106.46c0,0-0.53,2.32-0.53,3.05s-0.37,1.19,0.46,0.87c0.82-0.32,3.94-1.88,4.58-1.42
							s1.1,0.92,1.1,0.92s0.18-1.01-0.55-1.83s-2.13-2.42-2.13-2.42L124.04,106.46z"/>
						<path class="st9" d="M135.87,120.14c0,0-1.37,0.73-1.15,0c0.23-0.73,0.78-4.16,0.78-4.16s6.14-2.99,8.52-3.72l-4.21,6.69
							C139.81,118.94,137.5,119.8,135.87,120.14z"/>
						<g>
							<path class="st11" d="M104.94,98.61c0,0,0-0.82,1.47-1.92c2.49-1.87,6.96-4.12,14.66-7.42c7.69-3.3,8.24-3.11,8.24-3.11
								l-4.67,6.23c0,0-9.98,3.85-16.21,7.97c0,0-0.55,0.73-1.28,0.73S104.94,98.61,104.94,98.61z"/>
							<path class="st11" d="M119.39,99.34c0,0,10.26-14.02,12.18-16.31c0,0,0.82-1.19,1.37-0.82s3.48,2.38,3.48,2.38
								s0.09,1.19,0,1.56c0,0,0.18-0.73-0.55,0c-0.73,0.73-8.34,10.81-11.18,15.12l-3.09,1.22L119.39,99.34z"/>
							<path class="st11" d="M116.55,108.78l-2.47-2.75c0,0,0.09-1.28,1.24-1.74c1.15-0.46,13.6-4.67,18.92-5.4l2.24,2.2
								c0,0-2.06,1.83-2.61,2.75C133.86,103.83,120.58,107.22,116.55,108.78z"/>
							<path class="st11" d="M129.65,109.88c0,0,3.38-5.86,6.82-8.79c0,0,2.07,1.28,3.35,3.3c0,0-3.21,4.49-4.21,6.14
								c0,0-2.75,1.37-3.48,1.74L129.65,109.88z"/>
							<path class="st11" d="M128.45,120.14l-2.75-2.38c0,0-0.73-1.1,0.73-2.29c1.47-1.19,15.34-8.7,21.21-8.79l-3.62,5.59
								C144.03,112.26,133.22,116.38,128.45,120.14z"/>
							<path class="st11" d="M141.69,120.64l-1.88-1.69l11.08-17.86v-0.64c0,0,0.37-0.27,1.01,0s2.84,2.47,2.84,2.47
								s0.27,0.46,0,1.47s-8.98,14.66-8.98,14.66S143.16,119.72,141.69,120.64z"/>
							<path class="st11" d="M138.13,128.1l-2.62-2.29c0,0,0.08-1.19,0.96-2.2s7.01-6.08,19.56-6.26l-3.04,4.51
								C152.98,121.86,144.51,122.43,138.13,128.1z"/>
							<path class="st11" d="M152.75,129.67l-3.22-2.49c0,0,4.95-7.24,10.99-17.95c0,0,0.46-1.1,1.37-0.46
								c0.92,0.64,2.75,1.6,2.75,1.6s0.55,0.23,0.46,1.88l-0.46-0.46c0,0-7.82,13.28-9.77,17.04L152.75,129.67z"/>
							<path class="st11" d="M145.54,134.79c0,0,0.23-1.28,1.79-2.38s6.32-4.67,16.95-4.95l-2.84,4.86c0,0-4.86-1.01-12.92,4.31
								c0,0,0,0.55-1.19,0C146.13,136.07,145.54,134.79,145.54,134.79z"/>
							<path class="st9" d="M159.27,135.51c0,0,7.85-13.54,13.07-18.03l3.76,2.66v0.73v0.55l-0.55-0.27c0,0-4.34,4.44-7.27,10.37
								c0,0-4.35,2.28-7.92,4.84L159.27,135.51z"/>
							<path class="st11" d="M158.23,144.78l-2.66-2.02c0,0-0.37-0.82,0-1.65c0.37-0.82,6.14-8.79,26.93-15.21
								c0,0,0.92-0.46,2.66,0.78s2.66,1.42,2.66,1.42s0.92,0.92,0.55,1.92c0,0-1.1-1.28-2.2-1.1s-8.87,2.66-14.24,5.59
								C166.56,137.45,160.97,141.02,158.23,144.78z"/>
						</g>
					</g>
					<path class="st3" d="M165.11,139.56c0,0,4.02,1.38,7.23,0c3.21-1.38,12.85-6.93,12.85-6.93s0.98-1.51-0.79-3.21l2.51-0.95
						l6.05,4.31l-4.97-1.58c0,0,0.03,1.3-0.89,2.22c-0.92,0.92-9.44,5.77-10.44,6.32c-1.01,0.55-4.69,2.37-7.48,2.37l-3.61-1.18
						L165.11,139.56z"/>
					<path class="st1" d="M241.59,165.3c0,0,0.37-6.87-4.26-9.41c-4.8-2.64-9.48-4.14-11.31-5.06c0,0-7.97,4.49-8.43,4.86
						s-0.46,0.46,0,1.47s4.58,7.97,5.04,9.62c0.46,1.65,0.82,2.84,0.09,3.76s-7.42,9.16-8.06,10.08s-0.64,3.21-0.64,3.21
						s7.24-1.37,11.91-3.76c0,0,0-6.69,3.11-8.43c3.11-1.74,9.62-5.22,10.9-6.23C239.94,165.39,241.5,164.75,241.59,165.3z"/>
					<path class="st8" d="M41.54,122.73c0,0-0.83,4.17,3.2,6.71c4.03,2.54,22.17,10.71,29.76,14.48c7.59,3.77,14.61,8.14,22.58,13.5
						s28.82,17.45,36.74,20.2s24.27,9.07,52.3,8.66c28.03-0.41,38.93-5.73,39.8-6.23c0,0,1.15,2.52,0.6,3.76
						c0,0-0.82,1.79-13.74,4.81s-35.31,6.73-59.22,3.16c0,0-16.76-2.75-32.98-11.4c0,0-9.34-6.18-14.98-10.58
						s-15.8-13.19-22.95-16.76c-7.15-3.57-20.16-9.62-26.64-11.54s-12.53-4.53-15.82-6.87c-3.3-2.34-1.92-7.4-1.37-8.79
						C39.37,124.44,41.54,122.73,41.54,122.73z"/>
					<path class="st18" d="M40.35,134.83c3.36,2.25,9.34,4.95,15.82,6.87s19.49,7.97,26.64,11.54c7.15,3.57,17.31,12.37,22.95,16.76
						c5.63,4.4,14.98,10.58,14.98,10.58c16.21,8.66,32.98,11.4,32.98,11.4c23.91,3.57,46.31-0.14,59.22-3.16
						c12.92-3.02,13.74-4.81,13.74-4.81s1.1,3.57-2.61,7.28c-3.71,3.71-11.54,8.79-40.26,16.08c0,0-3.02,1.37-6.32,0
						c0,0-4.53,2.34-18.82,2.61c0,0-2.75-0.14-4.95-2.06c0,0-2.61,2.2-5.91,2.06s-11.77-2.06-12.14-2.34
						c-0.37-0.27-2.48-1.1-3.14-2.61c0,0-0.8,1.79-4.23,0.96c-3.44-0.82-11.54-4.95-11.54-4.95s-1.65-1.1-1.92-2.47
						c0,0-1.51,0.55-4.95-1.37s-5.91-4.67-5.91-4.67s-0.55,0.41-1.1,0.27s-3.44-2.47-3.44-2.47l-0.96-0.96c0,0-1.1,0.27-2.06,0.14
						s-6.73-2.47-9.62-3.3s-10.31-2.61-11.27-2.89c-0.96-0.27-3.16-2.75-3.16-2.75s-4.9,0.96-12.55-2.06s-10.81-5.22-10.81-5.22
						s-1.55-1.24-1.73-2.2c-0.18-0.96-1.69-3.3-2.45-3.57s-1.74,0.82-2.9,0s-6.18-4.4-9.03-11.82s0.72-15.33,2.37-19.14
						s2.96-4.38,2.96-4.38S39.53,134.28,40.35,134.83z"/>
					<path class="st7" d="M133.44,99.01l0.78-0.12c0,0,1.55,1.71,2.24,2.2c0.69,0.49,2.66,2.2,3.35,3.3l-0.23,0.33
						c0,0,0.83,0.54,0.92,0.4c0.09-0.14-0.82-2.47-2.84-4.03s-2.16-1.79-2.96-2.38C133.9,98.1,133.44,99.01,133.44,99.01z"/>
					<path class="st6" d="M184.68,206.9c0,0,24.48-5.76,33.64-11.68c0,0,7.68-3.72,8.35-9.08c0,0-0.88-6.67-0.57-8.38
						s0.73-5.54,3.72-6.88c2.99-1.34,9.33-5.24,10.12-5.49s1.56-0.51,2.38,0.82c1.79,2.89,3.58,7.69,3.57,13.47
						c0,2.34,0.14,2.06-1.51,3.16s-21.16,12.5-25.28,14.43c-4.12,1.92-7.98,3.96-17.73,7.01c-9.78,3.06-12.14,3.16-14.79,3.85
						C186.58,208.12,185.85,208.01,184.68,206.9z"/>
					<path class="st6" d="M33.52,157.33c0,0,2.9,6.41,8.24,9.98c0,0,0.62,0.48,1.38,0.26s1.5-0.45,1.97,0.06c0,0-0.9,0.4-1.57,0.54
						s-1.6,0.33-2.67-0.53c-1.07-0.87-5.25-5.2-7.36-10.01C31.41,152.82,33.52,157.33,33.52,157.33z"/>
					<path class="st6" d="M50.27,173.95c0,0,9.33,4.83,14.18,5.86s7.76,0.55,7.76,0.55l0.99,1.04c0,0-4.57,0.23-8.84-0.77
						C60.09,179.64,51.22,175.57,50.27,173.95z"/>
					<path class="st6" d="M106.83,195.06c0,0,2.9,1.68,3.99,2.5c1.1,0.82,2.39,0.99,3.85,0.81c0,0-0.03,1.62,3.88,3.44
						s9.59,3.98,9.59,3.98s3.07,0.94,4.23-0.96c0,0,0.97,2.59,7.63,3.73c6.66,1.14,7.65,1.22,7.65,1.22s4.72-0.34,5.91-2.06
						l1.01,0.74c0,0-2.15,1.94-6.22,2c-4.07,0.07-11.41-1.87-13.47-2.93c-2.07-1.07-2.5-1.47-2.5-1.47s-0.97,0.73-2.37,0.73
						s-2.53-0.33-4.07-0.93s-9.74-5-9.74-5s-1.2-0.67-1.33-0.93c-0.13-0.27-1.6-0.4-2.67-0.8
						C111.12,198.72,106.83,195.06,106.83,195.06z"/>
					<path class="st6" d="M161.41,209.68c0,0,12.95-0.61,15.92-2.52c0,0,0.79,0.5,2.11,0.55c0,0-3,1.75-9.01,2.75
						s-8.08,0.53-8.08,0.53L161.41,209.68z"/>
					<path class="st14" d="M46.8,86.92c0,0-3.86-3.29-3.79-6.72c0.07-3.44,4.15-10.84,9.11-10.43c0,0-1.37-0.56-4.56,0.81
						s-3.82,1.88-3.82,1.88s-2.31,1.41-2.86,3.41c-0.55,1.99-1.1,3.92-1.17,5.08s0.21,2.89,1.31,4.67c1.1,1.79,2.4,3.09,3.02,3.5
						s1.61,0.63,1.61,0.63l1-1.53L46.8,86.92z"/>
					<g>
						<path class="st12" d="M203,201.7c0,0-2.96-2.74-8.84-3.14c0,0,5.55,2.37,6.52,3.94L203,201.7z"/>
						<path class="st12" d="M165.03,200.87c0,0,10.5,2.74,12.74,6.44l-1.81,0.46l-1.14-1.45
							C174.81,206.32,172.17,203.6,165.03,200.87z"/>
						<path class="st12" d="M148.11,204.75c2.94,2.16,4.12,3.87,4.12,3.87l1.95-0.62c0,0-2.58-2.85-4.98-4.26
							c-2.4-1.42-11.74-8.62-15.26-13.05c0,0-0.73-0.68-0.46,0.41C133.75,192.2,145.37,202.74,148.11,204.75z"/>
						<path class="st12" d="M124.71,198.17c2.33,2.58,6.13,7.67,6.13,7.67l1.71-0.8c0,0-5.7-6.16-8.52-9.48
							c-2.92-3.45-7.98-9.62-7.98-9.62s-1.06-0.92-0.4,0.3C116.31,187.45,120.42,193.41,124.71,198.17z"/>
						<path class="st12" d="M114.5,198.22c0,0-1.44-2.3-3.15-4.72s-6.01-9.32-6.15-9.56c-0.14-0.24-2.89-4.77-2.89-4.77
							s-0.59-0.67-0.78-0.36s-0.01,0.82,0.83,2.31c0.84,1.49,3.51,6.69,4.3,7.59c0.79,0.91,4.42,5.14,4.58,5.62
							c0.16,0.48,0,0.71,0,0.71l2.24,3.36l1.01,0.16v-0.34H114.5z"/>
						<path class="st12" d="M98.37,189.15c0,0-1.27-2.68-2.4-3.52c-1.13-0.84-2.74-2.24-3.33-2.82c-0.59-0.57-2.72-2.36-2.72-2.36
							s-0.58-0.17,0.55,1.04c1.13,1.21,2.54,2.34,2.65,3.19c0.11,0.85,0.33,0.53,0.96,1.25s1.12,1.36,1.67,1.99s0.56,1.4,0.56,1.4
							L98.37,189.15z"/>
						<path class="st12" d="M69.74,180.43c0,0-0.62-2.87-3.51-4.78c-4.56-3.02-8.09-12.64-9.2-11.89c-0.56,0.38,3.47,6.66,3.47,6.66
							s2.81,3.98,3.79,5.67c0.99,1.68,1.62,2.37,1.16,2.62s-0.51,1.32-0.51,1.32S66.97,180.51,69.74,180.43z"/>
						<path class="st12" d="M44,167.27c0,0-2.2-1.65-3.15-3.13s-3.2-6.85-3.2-15.24c0,0-0.92-2-0.67,1.92s0.74,6.77,1.48,10.82
							c0.45,2.46,1.02,3.3,1.02,3.3s1.07,2.13,2.19,2.3c0,0,0.29,0.38,1.31,0.34C43.39,167.56,44,167.27,44,167.27z"/>
						<path class="st12" d="M58.1,141.62c0,0,13.55,17.67,18.64,21.98c0,0,2.59,0.75,4.24,1.01c0,0-11.34-11.79-16.92-21.12
							C64.06,143.49,59.52,142.68,58.1,141.62z"/>
						<path class="st12" d="M46.94,137.79l4.64,2.36c0,0-0.4,5.93,5.07,13.91l-1.99-0.65C54.65,153.41,52.15,151.12,46.94,137.79z"
							/>
						<path class="st12" d="M40.92,134.58c0,0-2.29-1.53-2.58-2.6l0.54,6.38c0,0,0.36,0.89,0.52,0.12
							C39.56,137.72,40.92,134.58,40.92,134.58z"/>
					</g>
				</g>
			</g>
			<g>
				<path class="st16" d="M105.07,98.52c0,0,0-0.82,1.47-1.92c2.49-1.87,6.96-4.12,14.66-7.42c7.69-3.3,8.24-3.11,8.24-3.11
					l-4.67,6.23c0,0-9.98,3.85-16.21,7.97c0,0-0.55,0.73-1.28,0.73S105.07,98.52,105.07,98.52z"/>
				<path class="st16" d="M119.52,99.25c0,0,10.26-14.02,12.18-16.31c0,0,0.82-1.19,1.37-0.82s3.48,2.38,3.48,2.38s0.09,1.19,0,1.56
					c0,0,0.18-0.73-0.55,0s-8.34,10.81-11.18,15.12l-3.09,1.22L119.52,99.25z"/>
				<path class="st16" d="M116.68,108.69l-2.47-2.75c0,0,0.09-1.28,1.24-1.74c1.15-0.46,13.6-4.67,18.92-5.4l2.24,2.2
					c0,0-2.06,1.83-2.61,2.75C133.99,103.74,120.71,107.13,116.68,108.69z"/>
				<path class="st16" d="M129.78,109.79c0,0,3.38-5.86,6.82-8.79c0,0,2.07,1.28,3.35,3.3c0,0-3.21,4.49-4.21,6.14
					c0,0-2.75,1.37-3.48,1.74L129.78,109.79z"/>
				<path class="st16" d="M128.59,120.05l-2.75-2.38c0,0-0.73-1.1,0.73-2.29c1.47-1.19,15.34-8.7,21.21-8.79l-3.62,5.59
					C144.16,112.17,133.35,116.29,128.59,120.05z"/>
				<path class="st16" d="M141.83,120.55l-1.88-1.69L151.03,101v-0.64c0,0,0.37-0.27,1.01,0s2.84,2.47,2.84,2.47s0.27,0.46,0,1.47
					s-8.98,14.66-8.98,14.66S143.29,119.63,141.83,120.55z"/>
				<path class="st16" d="M138.26,128.02l-2.62-2.29c0,0,0.08-1.19,0.96-2.2s7.01-6.08,19.56-6.26l-3.04,4.51
					C153.12,121.77,144.64,122.34,138.26,128.02z"/>
				<path class="st16" d="M152.88,129.58l-3.22-2.49c0,0,4.95-7.24,10.99-17.95c0,0,0.46-1.1,1.37-0.46c0.92,0.64,2.75,1.6,2.75,1.6
					s0.55,0.23,0.46,1.88l-0.46-0.46c0,0-7.82,13.28-9.77,17.04L152.88,129.58z"/>
				<path class="st16" d="M145.67,134.7c0,0,0.23-1.28,1.79-2.38s6.32-4.67,16.95-4.95l-2.84,4.86c0,0-4.86-1.01-12.92,4.31
					c0,0,0,0.55-1.19,0S145.67,134.7,145.67,134.7z"/>
				<path class="st16" d="M159.4,135.42c0,0,7.85-13.54,13.07-18.03l3.76,2.66v0.73v0.55l-0.55-0.27c0,0-4.34,4.44-7.27,10.37
					c0,0-4.35,2.28-7.92,4.84L159.4,135.42z"/>
				<path class="st16" d="M158.36,144.69l-2.66-2.02c0,0-0.37-0.82,0-1.65c0.37-0.82,6.14-8.79,26.93-15.21c0,0,0.92-0.46,2.66,0.78
					s2.66,1.42,2.66,1.42s0.92,0.92,0.55,1.92c0,0-1.1-1.28-2.2-1.1s-8.87,2.66-14.24,5.59
					C166.7,137.36,161.11,140.93,158.36,144.69z"/>
			</g>
			<path class="st16" d="M140.53,93.51l0.55-1.05l-1.56-1.19c0,0,1.37-0.16,2.84,0.79c1.47,0.95,2.29,1.96,2.29,1.96
				s0.37,0.73,0.46,1.37s-0.46,2.29-0.46,2.29L140.53,93.51z"/>
			<path class="st16" d="M150.7,101.82c0,0-2.46-1.52-3.01-1.79c-0.55-0.27-2.47-3.3-2.47-3.3l0.29-1c0,0,0.28,0.27,2,1.55
				s2.77,2.42,3.72,3.69L150.7,101.82z"/>
			<path class="st16" d="M149.81,102.54c0,0-2.46-1.52-3.01-1.79c-0.55-0.27-2.47-3.3-2.47-3.3l0.29-1c0,0,0.28,0.27,2,1.55
				s2.77,2.42,3.72,3.69L149.81,102.54z"/>
			<path class="st19" d="M159.07,121.36c0,0,7.26-0.7,9.67,0l1.01-1.23c0,0-2-2.2-3.19-2.66c0,0-3.25-0.27-5.24,0L159.07,121.36z"/>
			<path class="st19" d="M168.27,131.51c-0.76,2.26,10.57-4.41,10.57-4.41c-2.47-0.45-8.01,0-8.01,0S168.6,130.52,168.27,131.51z"/>
			<path class="st19" d="M151.22,110.38c0,0,4.72-1.14,5.45-0.59s2.4,1.99,2.4,1.99l0.61-1.07c0,0-2.28-2.93-2.92-3.48
				c-0.64-0.55-1.07-1.06-2.96-1.08L151.22,110.38z"/>
		</g>
		<g>
			<text transform="matrix(1 0 0 1 198.402 81.7429)" class="st20 st21">T</text>
		</g>
	</g>
</g>
</svg>
