<?xml version="1.0" encoding="utf-8"?>
<!-- Generator: Adobe Illustrator 24.3.0, SVG Export Plug-In . SVG Version: 6.00 Build 0)  -->
<svg version="1.1" id="Livello_1" xmlns="http://www.w3.org/2000/svg" xmlns:xlink="http://www.w3.org/1999/xlink" x="0px" y="0px"
	 viewBox="0 0 277.53 277.53" style="enable-background:new 0 0 277.53 277.53;" xml:space="preserve">
<style type="text/css">
	.st0{fill:#FFFFFF;}
</style>
<g>
	<g>
		<path class="st0" d="M69.37,77.73c8.8,0,15.93-7.13,15.93-15.93s-7.13-15.93-15.93-15.93S53.44,53,53.44,61.8
			S60.58,77.73,69.37,77.73z"/>
		<path class="st0" d="M138.85,158.12c4.89,0,8.86-3.97,8.86-8.86s-3.97-8.86-8.86-8.86s-8.86,3.97-8.86,8.86
			C129.99,154.15,133.96,158.12,138.85,158.12z"/>
		<path class="st0" d="M209.38,79.53c8.8,0,15.93-7.13,15.93-15.93s-7.13-15.93-15.93-15.93s-15.93,7.13-15.93,15.93
			S200.59,79.53,209.38,79.53z"/>
		<path class="st0" d="M252.17,154.97l-6.79-28.42l-7.68-32.26c-2.92-7.51-6.39-9.38-8.15-9.83c-0.85-0.29-1.72-0.46-2.58-0.5v-0.01
			h-19.14h-19.14v0.01c-0.86,0.04-1.73,0.2-2.58,0.5c-1.75,0.46-5.23,2.32-8.15,9.83l-7.68,32.26l-7.24,30.33l-4.29,1.44
			l-13.81,2.46h-12.67l-13.8-2.46l-4.32-1.46l0,0l-7.53-31.55l-7.68-32.26c-2.92-7.51-6.39-9.38-8.15-9.83
			c-0.85-0.29-1.72-0.46-2.58-0.5v-0.01H69.39H50.57v0.01c-0.86,0.04-1.73,0.2-2.58,0.5c-1.75,0.45-5.23,2.32-8.15,9.83l-7.68,32.26
			l-6.79,28.42c0,0-1.39,5.82,5.07,7.36c4.3,1.03,6.16-1.25,6.93-2.89l1.65-5.3l9.71-32.17l0.7-2.27l-0.87,27.14h0.06l-0.66,76.93
			c-0.04,4.69,3.73,8.52,8.42,8.56c0.02,0,0.05,0,0.07,0c4.66,0,8.45-3.75,8.49-8.42l0.44-51.01l0.79-16.77
			c0-1.83,1.43-3.33,3.23-3.44c1.8,0.11,3.23,1.61,3.23,3.44l0.79,16.77l0.44,51.01c0.04,4.66,3.83,8.42,8.49,8.42
			c0.02,0,0.05,0,0.07,0c4.69-0.04,8.46-3.87,8.42-8.56l-0.66-76.93h0.06l-0.87-27.14l0.7,2.27l9.71,32.17l1.65,5.3
			c0.15,0.32,0.35,0.67,0.59,1.01c0.44,1.05,1.25,1.9,1.67,2.17l2.23,1.01l13.67,5.61l7.93,2.09l-6.31,33.4h7.03l-0.21,24.15
			c-0.02,2.18,1.74,3.97,3.92,3.99c0.01,0,0.02,0,0.03,0c2.17,0,4.53-1.75,4.54-3.92l0.21-24.22h3.95l0.21,24.22
			c0.02,2.17,2.38,3.92,4.54,3.92c0.01,0,0.02,0,0.03,0c2.18-0.02,3.94-1.8,3.92-3.99l-0.21-24.15h7.03l-5.82-33.57l7.27-1.92
			l14.55-5.35l0.71-0.54c0.74-0.34,1.31-0.82,1.74-1.34c0.26-0.23,0.5-0.55,0.65-0.95c0.07-0.13,0.14-0.26,0.2-0.38l1.65-5.3
			l3.35-11.12l-4.01,28.88h11.39l-0.45,51.87c-0.04,4.31,3.43,7.84,7.74,7.88c0.02,0,0.05,0,0.07,0c4.28,0,7.77-3.45,7.81-7.74
			l0.45-52h4.34h4.34l0.45,52c0.04,4.29,3.53,7.74,7.81,7.74c0.02,0,0.05,0,0.07,0c4.31-0.04,7.78-3.57,7.74-7.88l-0.45-51.87h11.39
			l-4.01-28.88l3.36,11.12l1.65,5.3c0.77,1.64,2.63,3.91,6.92,2.89C253.55,160.79,252.17,154.97,252.17,154.97z"/>
	</g>
</g>
</svg>
