<?xml version="1.0" encoding="utf-8"?>
<!-- Generator: Adobe Illustrator 24.3.0, SVG Export Plug-In . SVG Version: 6.00 Build 0)  -->
<svg version="1.1" id="Livello_1" xmlns="http://www.w3.org/2000/svg" xmlns:xlink="http://www.w3.org/1999/xlink" x="0px" y="0px"
	 viewBox="0 0 277.53 277.53" style="enable-background:new 0 0 277.53 277.53;" xml:space="preserve">
<g>
	<g>
		<g>
			<path d="M209,134.12l-28.78,0.22l0.27-31.3c0.79-4.26-0.94-11.9-4.43-15.5l0,0l-0.03-0.03c-0.02-0.02-0.04-0.04-0.06-0.06
				l-33.06-32.97l-7.58,7.64l-24.08,24.42c0,0-4.62,4.69,0.59,9.83c5.21,5.13,9.49,0.1,9.49,0.1l21.09-20.66l14.34,15.44
				l-33.86,30.87v0.01c-1.54,1.02-2.87,2.4-3.83,4.11c-0.18,0.32-0.34,0.64-0.48,0.97l0,0l-0.01,0.01c-0.26,0.59-0.46,1.19-0.63,1.8
				l-16.6,47.65c0,0-20.74,14.43-32.7,21.86s-4.34,23.58-4.34,23.58l54.34-34.75l11.08-26.8L156,176.09c0,0-7.79,12.11-16.14,23.46
				c-8.35,11.35,4.73,23.5,4.73,23.5l37.56-52.36l-37.64-27.76l0.18-0.17l19.5-21.17l1.96-2.23v29.19l10.76-0.04l32.18-0.24
				c0,0,6.59-0.05,6.53-7.36C215.58,133.59,209,134.12,209,134.12z"/>
		</g>
		<circle cx="195.8" cy="73.87" r="17.03"/>
	</g>
</g>
</svg>
