<?xml version="1.0" encoding="utf-8"?>
<!-- Generator: Adobe Illustrator 24.3.0, SVG Export Plug-In . SVG Version: 6.00 Build 0)  -->
<svg version="1.1" id="Livello_1" xmlns="http://www.w3.org/2000/svg" xmlns:xlink="http://www.w3.org/1999/xlink" x="0px" y="0px"
	 viewBox="0 0 277.53 277.53" style="enable-background:new 0 0 277.53 277.53;" xml:space="preserve">
<style type="text/css">
	.st0{fill:#F7AA16;}
	.st1{fill:#FFFFFF;}
	.st2{fill:#1D1D1B;}
</style>
<g>
	<rect x="0.82" y="0.82" class="st0" width="275.89" height="275.89"/>
	<g>
		<g>
			<ellipse class="st1" cx="138.26" cy="203.8" rx="83.61" ry="30.33"/>
			<path class="st2" d="M186.36,91.83c0-26.56-21.53-48.1-48.1-48.1c-26.56,0-48.1,21.53-48.1,48.1c0,5.59,1,10.94,2.76,15.93h-0.06
				l35.55,101.98h0.05c1.42,4.07,5.25,7,9.8,7c4.58,0,8.42-2.97,9.82-7.08h0.05l36.09-103.52h-0.03
				C185.6,101.62,186.36,96.82,186.36,91.83z M138.26,119.11c-15.07,0-27.28-12.22-27.28-27.28c0-15.07,12.22-27.28,27.28-27.28
				s27.28,12.22,27.28,27.28C165.55,106.9,153.33,119.11,138.26,119.11z"/>
		</g>
	</g>
</g>
</svg>
