<?xml version="1.0" encoding="utf-8"?>
<!-- Generator: Adobe Illustrator 24.3.0, SVG Export Plug-In . SVG Version: 6.00 Build 0)  -->
<svg version="1.1" id="Livello_1" xmlns="http://www.w3.org/2000/svg" xmlns:xlink="http://www.w3.org/1999/xlink" x="0px" y="0px"
	 viewBox="0 0 277.53 277.53" style="enable-background:new 0 0 277.53 277.53;" xml:space="preserve">
<style type="text/css">
	.st0{fill:#F7AA16;}
	.st1{fill:#FFFFFF;}
	.st2{fill:#1D1D1B;}
</style>
<g>
	<rect x="0.82" y="0.82" class="st0" width="275.89" height="275.89"/>
	<g>
		<g>
			<path class="st1" d="M207.26,230.25H98.24c-27.07,0-47.48-19.27-47.48-44.83c0-25.11,17.93-42.84,46.8-46.25l66.92-11.66
				c23.37-2.77,37.14-15.87,37.14-35.08c0-19.11-15.56-33.52-36.19-33.52H78.99V47.62h86.44c27.07,0,47.49,19.26,47.49,44.82
				c0,25.11-17.93,42.84-46.8,46.25L99.2,150.35c-23.37,2.77-37.14,15.87-37.14,35.08c0,19.12,15.56,33.53,36.19,33.53h109.02v11.29
				H207.26z"/>
			<circle class="st2" cx="207.26" cy="224.6" r="19.68"/>
			<circle class="st2" cx="81.72" cy="53.27" r="19.68"/>
		</g>
	</g>
</g>
</svg>
