<?xml version="1.0" encoding="utf-8"?>
<!-- Generator: Adobe Illustrator 24.3.0, SVG Export Plug-In . SVG Version: 6.00 Build 0)  -->
<svg version="1.1" id="Livello_1" xmlns="http://www.w3.org/2000/svg" xmlns:xlink="http://www.w3.org/1999/xlink" x="0px" y="0px"
	 viewBox="0 0 277.53 277.53" style="enable-background:new 0 0 277.53 277.53;" xml:space="preserve">
<style type="text/css">
	.st0{fill:#F7AA16;}
	.st1{fill:#1D1D1B;stroke:#1D1D1B;stroke-width:4.9248;stroke-miterlimit:10;}
	.st2{fill:#1D1D1B;stroke:#1D1D1B;stroke-width:11.7235;stroke-miterlimit:10;}
	.st3{fill:#FFFFFF;}
</style>
<g>
	<rect x="0.82" class="st0" width="275.89" height="275.89"/>
	<g>
		<g>
			<g>
				
					<rect x="163.07" y="139.3" transform="matrix(0.7071 -0.7071 0.7071 0.7071 -68.2421 168.7864)" class="st1" width="13.1" height="54.94"/>
				<path class="st2" d="M169.32,179.66l52.93,52.93c3.65,3.65,9.56,3.65,13.2,0c3.65-3.65,3.65-9.56,0-13.2l-52.93-52.93
					L169.32,179.66z"/>
				<g>
					<path class="st2" d="M63.42,60.56c-24.53,24.53-24.53,64.31,0,88.84c24.53,24.53,64.31,24.53,88.84,0s24.53-64.31,0-88.84
						C127.72,36.03,87.95,36.03,63.42,60.56z M142.92,140.06c-19.37,19.37-50.79,19.37-70.16,0c-19.37-19.37-19.37-50.79,0-70.16
						c19.37-19.37,50.79-19.37,70.16,0C162.29,89.28,162.29,120.69,142.92,140.06z"/>
					
						<ellipse transform="matrix(0.3827 -0.9239 0.9239 0.3827 -30.422 164.4334)" class="st3" cx="107.83" cy="104.98" rx="49.61" ry="49.61"/>
				</g>
			</g>
		</g>
	</g>
</g>
</svg>
