<?xml version="1.0" encoding="utf-8"?>
<!-- Generator: Adobe Illustrator 24.3.0, SVG Export Plug-In . SVG Version: 6.00 Build 0)  -->
<svg version="1.1" id="Livello_1" xmlns="http://www.w3.org/2000/svg" xmlns:xlink="http://www.w3.org/1999/xlink" x="0px" y="0px"
	 viewBox="0 0 277.53 277.53" style="enable-background:new 0 0 277.53 277.53;" xml:space="preserve">
<style type="text/css">
	.st0{fill:#FBB03B;}
	.st1{fill:#201E20;}
	.st2{fill:#3A3637;}
	.st3{fill:#504E4D;}
	.st4{fill:#272628;}
	.st5{fill:#73747B;}
	.st6{fill:#C66523;}
	.st7{fill:#FFFFFF;}
	.st8{font-family:'Arial-BoldMT';}
	.st9{font-size:77.1011px;}
	.st10{letter-spacing:1;}
</style>
<g>
	<rect x="0.07" class="st0" width="277.18" height="277.18"/>
	<g>
		<g>
			<g>
				<g>
					<path class="st1" d="M47.27,206.96c-2.17,1.32-4.16,1.24-5.76-0.9c-0.64-0.86-1.58-0.59-2.37-0.9
						c0.28-0.91,0.96-1.47,1.73-1.92c0.59-0.34,1.85,0.33,1.76-0.98c-0.06-0.9-0.64-1.85-1.5-2.09c-2.82-0.81-2.15-2.17-0.6-3.6
						c-0.93-0.97-2.53,0.14-2.92-1.21c-0.5-1.76,1.88-0.49,2.02-1.72c0.01-0.09,0.03-0.17,0.05-0.26c2.78,1.63,5.81,2.64,8.79,3.83
						c5.54,2.19,11.16,4.1,16.93,5.58c1.41,0.36,2.84,0.57,4.21-0.18c0.45,0,0.92,0.08,1.35-0.01c7.53-1.67,14.16,0.37,20.39,4.6
						c2.86,1.94,5.99,3.49,9,5.22c5.52,4.08,11.4,7.37,17.88,9.81c13.63,5.16,27.71,7.57,42.21,7.89c3.26,0.07,6.38-1.23,9.66-1.02
						c3.48-0.17,6.71-0.85,8.86-4.06c0.58-0.88,1.22-1.67,0.81-2.69c-0.5-1.26-1.73-0.77-2.63-0.71
						c-8.76,0.46-17.38-1.02-26.07-1.63c-0.59-0.83-1.44-0.51-2.22-0.51c-0.89-0.01-1.78-0.02-2.67-0.03
						c-0.89-0.85-1.79-0.8-2.72-0.07c-0.53-0.01-1.08-0.01-1.61-0.02c-0.11-0.78-0.65-0.9-1.34-1.04
						c-3.49-0.74-7.04-1.33-10.42-2.41c-9.25-2.92-17.82-7.45-26.54-11.59c-2.8-1.33-5.26-3.46-8.47-3.92l0,0
						c-0.34-1.53-1.7-1.29-2.75-1.59c-0.58-0.04-1.22,0.03-1.58-0.6c-0.2-1.27-1.2-1.44-2.2-1.59c-0.17-0.01-0.34-0.03-0.5-0.05
						c-0.09-1.1-0.88-1.07-1.66-1.05c-0.17-0.01-0.34-0.02-0.51-0.04c-0.08-1.1-0.87-1.09-1.66-1.05c-0.17-0.01-0.34-0.02-0.51-0.04
						c-0.62-1.89-2.45-1.63-3.85-2.13c-0.17,0-0.34-0.02-0.51-0.03c-0.03-0.71-0.4-1.08-1.12-1.06c-0.52-0.03-1.05-0.05-1.58-0.08
						c-0.07-0.7-0.44-1.05-1.16-0.99c-2.14-0.38-4.07-1.38-6.08-2.14c-4.41-1.68-8.66-3.83-13.4-4.53
						c-0.72-1.76-2.47-1.58-3.88-2.04c-0.52-0.03-1.05-0.05-1.57-0.08c-0.11-1.08-0.89-1.05-1.67-1.02
						c-0.52-0.03-1.06-0.06-1.58-0.09c-0.07-0.68-0.46-1.01-1.14-1c-0.92-0.53-1.83-1.06-2.75-1.59c0.48-0.81,0.55-1.68,0.6-2.6
						c0.24-3.94,2.07-6.12,5.89-7.14c3.21-0.86,3.79-0.54,5.06,2.65c0.27,0.68,0.69,1.33,1.5,1.39c0.27,0.02,0.68-0.27,0.83-0.53
						c0.37-0.67-0.06-1.38-0.48-1.7c-2.11-1.62-2.05-3.88-1.94-6.14c0.1-2.13,0.34-4.22-2.8-4.28c-0.63-0.01-1.53-0.51-1.33-1.41
						c0.21-0.95,0.99-0.66,1.75-0.56c2.98,0.39,5.94,0.49,8.62-1.31c1.79-1.21,3.78-0.91,5.4,0.12c1.79,1.15,3.38,1.8,5.12,0.33
						c0.89,0.8-1.03,1.5,0.24,2.15c0.99,0.51,1.2-0.33,1.69-0.81c0.44-0.42,1.06-0.64,1.54-1.04c0.97-0.79,1.87,0.39,2.82,0.05
						c0,0.24,0.04,0.49-0.02,0.72c-0.32,1.23-1.44,0.21-2.02,0.71c-0.11,0.1-0.13,0.31-0.27,0.69c3.01,2.37,6.36,2.83,10.19,1.91
						c-1.02-1.92-2.77-2.57-4.21-3.6c-1.88-1.35-3.69-2.78-5.54-4.17c0.39-0.07,0.79-0.14,1.19-0.2c-0.39-0.33-0.79-0.65-1.17-0.99
						c-0.31-0.14-0.61-0.27-0.93-0.41c-0.3-0.43-0.72-0.6-1.25-0.52l-0.02-0.01c-0.23-0.17-0.46-0.35-0.69-0.52l-0.14-0.02
						c-0.26-0.97-1.18-1.19-1.88-1.64c-1.49-1.89-2.62-4.72-4.55-5.46c-2.71-1.04-4.25-2.96-5.92-4.8
						c-4.45-4.91-9.34-9.46-12.41-15.51c-1.09-2.15-1.65-4.68-3.73-6.26c-1.48-1.97-0.98-4.31-1.19-6.51c1.04,0.56,1.17,2,2.84,2.68
						c-0.66-1.48-0.13-2.79-1.47-3.89c-0.47-0.38-1.69-1.48-0.79-2.8c1.91-2.79,1.91-6.52,4.39-9.06c1.17-1.59,2.99-2.43,4.36-3.78
						c1.65-0.21,2.65-1.23,3.32-2.66c1.22-0.52,2.79-0.54,3.21-2.22c0.91-0.54,1.8-1.1,2.71-1.64c4.07-1.09,7.76-3.19,11.92-4.08
						c5.93-1.26,11.42,0.92,14.63,6.03c3.01,4.8,3.12,10.41,4.52,15.66c0.48,1.79-0.89,3.78,0.77,5.36c-1.44,0.84-1.4,1.39,0.3,1.71
						c0.31,0.06,0.28,0.5,0.06,0.65c-2.19,1.5-1.47,4.62-3.49,6.23c-0.52,0.42-0.57,1.18-0.14,1.73c0.45,0.59,1.17,0.46,1.74,0.18
						c2.44-1.21,5.04-1.81,7.67-2.39c1.05-0.23,1.72-0.82,2.23-1.77c0.69-1.28,1.33-3.16,2.43-3.55c2.44-0.87,2.97-3.06,4.13-4.73
						c1.91-2.77,1.42-4.52-1.32-6.93c0.11-0.34,0.23-0.68,0.34-1.03c0.85-0.14,0.84-0.58,0.63-1.32c-0.45-1.6,0.4-1.37,1.37-0.87
						c0.71,1.71,1.15,3.77,3.81,2.93c0.16,1.37,0.97,1.88,2.28,1.71c0.38,0.06,0.75,0.13,1.14,0.19c0.35,0.67,0.91,0.56,1.48,0.39
						c2.81,0.43,5.6-0.67,8.41-0.17c1.13,0.75,2.46-0.03,3.64,0.47c-0.05,0.67-1.23,0.51-1.01,1.36c-3.81,0.69-7.18,2.6-10.7,4.05
						c-3.44,1.41-7.06,2.78-9.09,6.3c-1.03,0.23-2.21,0.29-1.99,1.85c-0.55,1.01-1.24,0.83-2.24,0.55
						c-1.93-0.52-4.76,1.25-5.61,3.38c-0.91,2.31-0.17,4.26,1.69,5.78c2.16,1.76,3.78,1.74,6.11-0.14c-1.28,0-2.33,0-3.37,0
						c1.55-0.29,2.64-1.25,3.76-2.13l0.17,0.14c2.67,0.69,5.05-0.23,7.4-1.33l0.15,0.2c-0.12,0.64-1.23,0.74-0.99,1.47
						c0.29,0.88,1.21,0.65,1.86,0.62c2.96-0.15,5.88-0.41,8.76-1.33c2.43-0.77,4.89-1.66,7.56-1.56c-1.73,1.44-4.13,2.2-3.7,5.08
						c-1.87,0.71-2.05,2.57-2.74,4.09c-0.65,0.44-1.34,0.44-2.05,0.18c-0.13-2.54-0.6-2.89-1.08-2.12
						c-1.43,2.33-3.27,1.59-5.19,1.21c-0.56-0.11-1.14,0.09-1.75,0.39c-1.35,0.68-2.97,0.29-4.46,0.87
						c-0.73,0.28-0.37-1.16-0.69-1.75c-0.47-0.86-1.2-0.42-1.89-0.44c-1.79-0.06-2.67,1.69-4.27,1.97c-2.45,0.43-3.9,2.31-5.51,3.92
						c-0.8,0.8-0.34,1.89,0.44,1.89c2.71-0.02,4.84,1.94,7.57,1.85c1.8-0.05,3.63-0.08,5.38,0.99c1.29,0.79,2.97,1.19,4.21-1.01
						c-0.52,1.52-0.14,2.09,1.01,2.83c3.49,2.22,7.77,2.81,11.05,5.33c2.53,1.95,5.81,2.08,8.4,3.92
						c5.94,4.22,12.03,8.23,18.03,12.37c1.09,0.75,2.21,1.2,3.53,1.07c0.53,0.37,1.07,0.74,1.6,1.12c0.18,0.18,0.35,0.36,0.53,0.53
						c1.38,1.56,2.43,3.75,5.77,2.88c-1.99-1.6-3.78-2.39-5.7-2.95c-0.18-0.18-0.36-0.36-0.53-0.53c-0.09-1.09-0.88-1.08-1.66-1.06
						c0-0.13,0.01-0.26,0.02-0.39c1.81-0.17,3.68,0.11,5.43-0.66l-0.01,0.16c0.29,1.03,1.04,1.41,1.99,1.2
						c1.01-0.22,1.41-0.96,1.2-1.99c0-0.16,0.01-0.32,0.04-0.47l0.03-0.02c2.19-0.48-0.14-1.89,0.54-2.69
						c1.09-1.27,2.17-2.55,3.26-3.81c0.28-0.02,0.55-0.03,0.84-0.05c0.86,1.33,2.18,1.41,3.56,1.33c2.96-0.18,5.92-0.35,9.07-0.53
						c-0.56,1.27-0.96,2.15-1.35,3.04c-0.06,0.37-0.12,0.74-0.18,1.12c-0.85-0.49-0.15-2.06-1.64-2.18
						c-1.93-0.16-3.75,0.4-5.59,0.78c-0.78,0.16-1.25,1.17-0.52,1.65c0.68,0.45,0.4,2.49,1.97,1.42c1.62-1.1,2.87-0.24,4.19,0.52
						c0.03,0.39,0.06,0.78,0.09,1.17c-0.05,0.5-0.1,1.01-0.16,1.51c-1.06,0.26-2.08,0.73-3.21,0.56c-2.13-1.43-4.02-3.32-6.7-3.75
						c-0.54-0.09-1.18-0.77-1.66,0.13c-1.2,2.21-2.38,4.43-2.65,7.01c-0.07,0.61-0.49,1.25,0.18,1.71c3.03,2.06,5.21,5.3,8.95,6.4
						c0.8,0.23,1.53,0.83,1.52,1.65c-0.01,0.65-0.87,0.87-1.48,0.93c-3.08,0.28-6.23,1.02-9.23,0.61c-2.71-0.35-2.91,1.03-3.2,2.89
						c-0.7-0.55-1.08-1.42-1.9-1.22c-1.58,0.38-2.71,0.57-1.96-1.74c0.19-0.59-0.6-1.06-1.36-0.78c-0.31,0.12-1.24-0.08-0.78,0.61
						c1.16,1.72-0.44,1.57-1.18,1.79c-2.32,0.69-4.99-1.27-7.16,0.91c-0.05,0.05-0.56-0.18-0.61-0.34c-0.34-1.22-1.34-0.95-2.2-1.08
						c-4.88-0.71-9.76-1.4-14.63-2.23c-13.62-2.34-26.25-7.35-38.11-14.37c-1.02-0.6-1.96-1.01-3.03-0.57
						c-1.16,0.46-2.01,0.33-2.9-0.6c-0.72-0.77-1.8-0.74-2.82-0.67c-0.06-0.55-0.2-1.06-0.92-1.01c-0.12,0.01-0.34,0.21-0.32,0.28
						c0.15,0.65,0.71,0.65,1.23,0.72c0.13,0.33,0.47,0.78,0.36,1c-1.05,2.09,0.27,3.23,1.62,4.47c0.77,0.7,2.16,0.7,2.35,2.05
						c0.65,4.98,5.67,5.82,8.58,8.57c1.9,1.8,4.24,4.13,7.48,4.25c0.4,0.02,0.72,0.97,1.17,1.4c1.71,1.66,3.04,4.17,5.91,3.76
						c4.01-0.56,6.92,1.95,10.11,3.47c1.6,0.77,2.93,0.61,4.45,0.81c2.82,0.34,2.39-1.57,3.32-2.74c1.03-1.28,1.77-3.96,4.24-2.6
						c2.26,1.25,4.2,3.07,6.35,4.55c2.14,1.47,3.98,3.99,7.04,3.03c2.15-0.67,4.33-0.94,6.45-0.64c2.84,0.39,5.4-0.92,8.12-0.91
						c2.17,0.01,4.44,1.04,6.38-0.88c0.21-0.21,0.96-0.16,1.25,0.05c1.73,1.23,2.89,1.14,3.67-1.09c0.33-0.95,1.46-1.46,2.5-1.22
						c1.35,0.31,0.74,1.34,0.58,2.2c-0.16,0.9,0.12,1.62,1.08,1.91c0.65,0.19,1.64,0.07,1.43,1.17c-0.16,0.89-0.52,1.77-1.51,2.08
						c-0.59,0.19-1.32,0.05-1.73,0.62c-0.19,0.26-0.28,0.65-0.27,0.99c0,0.15,0.46,0.47,0.52,0.43c1.14-0.77,3.08-0.23,3.61-1.86
						c0.74-2.26,2.6-2.54,4.46-2.78c2.22-0.29,4.37-1.1,6.4-1.82c2-0.71,3.96-1.58,6.05-2.12c1.88-0.49,4.07-0.85,5.45-2.03
						c2.36-2.01,5.14-2.14,8.03-3.01c-1.82,1.74-0.11,2.9,0.62,3.8c0.72,0.89,1.74-0.25,2.59-0.72c1.45-0.81,1.59-1.85,0.65-3.13
						c-0.58-0.8-0.35-1.6,0.47-1.67c1.88-0.14,2.79-1.58,3.97-2.63c1.95-1.74,3.36-0.07,4.26,1.03c1.15,1.39-1.02,1.39-1.58,2.09
						c-0.53,0.66-1.6,0.88-1.97,1.77c-0.11,0.28-0.03,0.68,0.09,0.99c0.04,0.1,0.58,0.16,0.68,0.05c1.67-1.98,3.29-1.18,4.95,0
						c0.4,0.28,0.88,0.22,1.25-0.11c1.24-1.12,2.8-1,4.3-1.3c1.61-0.32,3.29-0.1,4.88-1.35c2.02-1.59,3.03-0.84,3.18,1.85
						c0.04,0.73,0.18,1.38,0.53,2.05c1.5,2.9,1.48,4.12-0.23,6.6c-0.66,0.97-1.01,2.43-2.68,2.37c-1.11-0.04-2.19,0.36-1.79,1.69
						c0.46,1.53,1.54,0.57,2.44,0.29c1.38-0.43,3.65-0.96,3.64,0.71c-0.03,3.53,3.47,6.65,1.11,10.39c-0.48,0.76,0.13,1.54,0.78,2.1
						c-0.01,0.37-0.02,0.73-0.02,1.11c-0.63-0.01-1.1,0.08-1.57,0.71c-3.4,4.52-8.32,6.36-13.61,7.38
						c-1.33,0.26-2.77,0.13-3.56,1.44c-0.9,1.47,0.92,1.88,1.29,2.88c0.06,0.16,0.07,0.35,0.11,0.52c-0.67,0.51-1.47,0.59-2.27,0.59
						l-0.14-0.07l-0.12,0.11c-1.11,0.46-2.22,0.94-3.33,1.4c0.01-0.62,0.02-1.2,0.35-1.81c1.61-3.01,1.36-3.49-1.88-3.36
						c-2.49,0.11-4.87,0.95-7.3,1.43c-7.41,1.47-14.8,2.92-22.4,2.9c-1.9,0-4.41-0.85-4.21,2.63c0.01,0.18-0.34,0.38-0.53,0.57
						c-1.62,2.04-3.74,3.48-5.89,4.92c-1.65,1.11-3.45-0.37-5.21,0.55c-2.11,1.12-3.04-0.74-3.97-2.19
						c-0.54-0.86-0.92-0.5-1.67-0.14c-2.9,1.39-5.71,3.43-9.14,2.77c-2.12-0.41-4.18-0.56-6.31-0.37c-1.81,0.17-3.14-0.57-3.75-2.39
						c-0.52-1.56-1.55-1.99-3.14-1.56c-1.56,0.42-3.18,0.7-4.78,0.94c-2.6,0.38-5.26,1.5-7.65-0.75c-0.29-0.27-1.05-0.12-1.58-0.06
						c-2.02,0.22-3.31-0.7-3.91-2.57c-0.57-1.77-1.62-2.36-3.46-1.92c-3.3,0.76-6.44-0.06-9.53-1.23c-1.2-0.45-1.59-1.46-1.94-2.45
						c-0.51-1.42-1.39-1.82-2.88-1.76c-3.78,0.15-5.43-0.86-6.5-4.25c-0.47-1.49-1.32-1.54-2.41-1.42
						c-2.67,0.29-4.24-1.04-4.64-3.47c-0.63-3.93-3.42-5.65-6.59-7.14c-1.16-0.54-1.78-0.28-2.35,0.86
						c-0.66,1.35-5.28,3.6-6.59,3.39c-1.25-0.2-0.97-1.37-1.33-2.11c-0.38-0.79,0.21-2.35-1.28-2.19c-1.35,0.14-3,0.34-3.34,2.19
						c-0.45,2.47-1.72,4.24-4.17,5.04c-0.08,0.03-0.14,0.12-0.21,0.16c-2.3,1.32-7.85-0.87-8.61-3.38c-0.05-0.18-0.1-0.35-0.15-0.53
						c-0.3-0.26-0.6-0.53-0.91-0.8c-0.13-0.5-0.11-1.25-0.43-1.46c-2.13-1.39-3.49,2.88-5.8,0.86c-0.11,0.41-0.21,0.83-0.32,1.24
						c-2.7-0.3-1.97-2.73-2.65-4.28c0.66-1.33-0.19-1.69-1.17-1.47C48.98,205.7,47.72,205.68,47.27,206.96z M48.35,116.21
						c-0.01,0.74,0.37,1.09,1.1,1.08c0.42,1.58,1.15,2.84,3.39,3.18c-0.98-1.66-1.79-2.83-3.39-3.17
						C49.42,116.59,49.09,116.2,48.35,116.21c-0.06-0.65-0.19-1.28-0.94-1.46c-0.32-0.08-0.52,0.15-0.46,0.46
						C47.09,115.98,47.69,116.14,48.35,116.21z M80.95,149c2.42-1,1.68-2.77,1.09-4.49c-1.44-2.31-1.89-5.54-5.8-6.2
						c2.78,2.88,2.78,2.88,1.45,4.34c-0.56-0.2-2.7,1.34-1.25-1.14c0.4-0.68-0.24-1.35-0.66-1.57c-1.21-0.65-1.88-1.86-2.96-2.61
						c-0.4-1.06-1.31-1.66-2.15-2.31c-0.71-0.55-1.47-2.02-2.3-1.08c-0.58,0.67-1.52,2-0.74,3.32c0.27,0.47,1.04,1.07-0.26,1.22
						c-0.16-0.2-0.31-0.4-0.47-0.6c0.04-1.06-0.75-2.02-0.23-3.17c0.28-0.61-0.1-1.26-0.78-1.53c-0.22-0.09-0.58-0.07-0.77,0.06
						c-0.61,0.45-0.54,1.13-0.28,1.72c0.48,1.11,0.35,2.6,1.89,3.06c0.03,0.16,0.06,0.33,0.08,0.49c0.59,3.17,3.46,4.69,5.08,7.1
						c1.99,2.96,4.84,3.53,7.97,3.76c0.19-0.01,0.38-0.02,0.58-0.03C80.62,149.24,80.78,149.12,80.95,149z M128.79,153.69
						c1.33,1.94,3.51,2.13,5.52,2.62c0.65,0.16,1.24-0.34,1.45-0.99c0.3-0.94-0.46-0.92-1.07-1.11c-0.75-0.23-1.64-0.44-2.16-0.97
						c-1.54-1.54-2.68-1.16-3.74,0.46c0.24-3.38-3.07-3.35-4.77-4.82c-1.35-1.17-2.49,0-4.35,1.38c2.87,0.43,4.67,1.55,6.42,2.68
						C127,153.55,127.84,153.65,128.79,153.69z M202.34,195.95c0.37-0.22,1.01-0.39,1.24-0.8c0.73-1.24,1.84-1.22,3.04-1.28
						c1.25-0.06,2.49-0.35,3.72-0.54c0.63-0.1,1.15-0.47,0.6-1.04c-0.81-0.84-2.26-1.94-3-1.35c-2.01,1.64-4.66,1.6-6.69,2.99
						c-0.43,0.29-0.77,0.56-0.57,1.03C200.93,195.62,201.55,195.84,202.34,195.95z M117.59,198.24c2.15,0.54,2.06-1.38,2.33-2.63
						c0.28-1.36-1-1.65-1.93-1.62c-1.39,0.05-2.7,0.5-2.77,2.3C115.14,197.85,116.04,198.33,117.59,198.24z M179.3,228.78
						c-0.67-0.05-1.76,0.05-1.84,1.08c-0.08,1.06,1.05,1.02,1.83,0.99c1.04-0.04,1.89,0.43,2.78,0.82c0.74,0.32,1.22-0.04,1.46-0.7
						c0.21-0.59-0.09-1.09-0.65-1.27C181.78,229.36,180.66,229.12,179.3,228.78z M55.1,122.13c1.98,1.3,3.8,3.23,7.07,2.31
						C59.75,123.08,57.25,123.15,55.1,122.13z M78.02,124.48c1.42,0.07,2.84,0.67,4.26-0.2C80.86,123.79,79.44,123.57,78.02,124.48z
						 M86.72,161.74c0.88,1,1.72,2.02,3.71,2.11C89.32,162.23,88.09,161.83,86.72,161.74z M72.47,131.88
						c-0.92-1.46-2.23-2.27-4.52-1.86C69.75,130.76,71.11,131.32,72.47,131.88z M65.4,124.31c-0.01,0.46,0.33,0.56,0.67,0.57
						c0.24,0.01,0.65,0,0.71-0.13c0.21-0.44-0.27-0.48-0.51-0.62C65.95,123.95,65.62,123.94,65.4,124.31z M47.07,205.47
						c-0.06-0.15-0.09-0.39-0.19-0.44c-0.11-0.05-0.3,0.1-0.45,0.15c0.06,0.15,0.08,0.39,0.19,0.44
						C46.72,205.68,46.91,205.53,47.07,205.47z M53.81,120.74c-0.14,0.08-0.35,0.13-0.38,0.24c-0.03,0.12,0.06,0.37,0.16,0.41
						c0.26,0.12,0.49-0.01,0.49-0.31C54.09,120.97,53.91,120.86,53.81,120.74z M63.97,124.47c-0.09-0.14-0.15-0.35-0.27-0.39
						c-0.12-0.04-0.39,0.05-0.43,0.15c-0.12,0.28,0.04,0.5,0.34,0.51C63.72,124.74,63.84,124.57,63.97,124.47z"/>
					<path class="st2" d="M243.41,214c-0.64-0.56-1.26-1.34-0.78-2.1c2.37-3.73-1.13-6.85-1.11-10.39c0.01-1.67-2.26-1.15-3.64-0.71
						c-0.9,0.28-1.97,1.24-2.44-0.29c-0.4-1.33,0.68-1.73,1.79-1.69c1.67,0.06,2.01-1.4,2.68-2.37c1.71-2.49,1.73-3.69,0.23-6.6
						c-0.35-0.67-0.48-1.32-0.53-2.05c-0.15-2.69-1.16-3.44-3.18-1.85c-1.59,1.25-3.27,1.03-4.88,1.35c-1.5,0.3-3.06,0.17-4.3,1.3
						c-0.37,0.34-0.86,0.39-1.25,0.11c-1.66-1.18-3.28-1.98-4.95,0c-0.09,0.11-0.64,0.05-0.68-0.05c-0.11-0.3-0.2-0.7-0.09-0.99
						c0.37-0.9,1.44-1.11,1.97-1.77c0.56-0.7,2.73-0.7,1.58-2.09c-0.91-1.09-2.32-2.76-4.26-1.03c-1.18,1.05-2.08,2.49-3.97,2.63
						c-0.83,0.06-1.06,0.88-0.47,1.67c0.94,1.27,0.8,2.32-0.65,3.13c-0.85,0.47-1.86,1.61-2.59,0.72c-0.73-0.91-2.45-2.06-0.62-3.8
						c-2.89,0.87-5.69,1-8.03,3.01c-1.39,1.19-3.56,1.54-5.45,2.03c-2.09,0.54-4.05,1.41-6.05,2.12c-2.03,0.72-4.17,1.53-6.4,1.82
						c-1.87,0.24-3.72,0.51-4.46,2.78c-0.53,1.63-2.47,1.1-3.61,1.86c-0.06,0.04-0.51-0.27-0.52-0.43
						c-0.01-0.33,0.08-0.71,0.27-0.99c0.41-0.58,1.15-0.43,1.73-0.62c1-0.32,1.35-1.21,1.51-2.08c0.2-1.1-0.78-0.98-1.43-1.17
						c-0.96-0.28-1.24-1.02-1.08-1.91c0.16-0.87,0.77-1.89-0.58-2.2c-1.04-0.24-2.16,0.28-2.5,1.22c-0.79,2.22-1.94,2.32-3.67,1.09
						c-0.3-0.21-1.04-0.26-1.25-0.05c-1.93,1.91-4.2,0.89-6.38,0.88c-2.73-0.01-5.28,1.3-8.12,0.91c-2.12-0.29-4.31-0.03-6.45,0.64
						c-3.07,0.96-4.89-1.56-7.04-3.03c-2.14-1.47-4.09-3.3-6.35-4.55c-2.46-1.36-3.2,1.32-4.24,2.6c-0.95,1.18-0.5,3.09-3.32,2.74
						c-1.52-0.18-2.84-0.04-4.45-0.81c-3.19-1.52-6.1-4.04-10.11-3.47c-2.87,0.4-4.2-2.1-5.91-3.76c-0.44-0.43-0.77-1.39-1.17-1.4
						c-3.24-0.12-5.58-2.45-7.48-4.25c-2.91-2.75-7.92-3.58-8.58-8.57c-0.18-1.35-1.58-1.35-2.35-2.05
						c-1.35-1.24-2.67-2.37-1.62-4.47c0.11-0.21-0.23-0.65-0.36-1l0,0c1.02-0.06,2.09-0.08,2.82,0.67c0.89,0.93,1.74,1.07,2.9,0.6
						c1.08-0.43,2.02-0.03,3.03,0.57c11.86,7.03,24.49,12.03,38.11,14.37c4.86,0.84,9.74,1.51,14.63,2.23
						c0.87,0.13,1.86-0.15,2.2,1.08c0.05,0.17,0.56,0.39,0.61,0.34c2.16-2.17,4.84-0.21,7.16-0.91c0.74-0.22,2.34-0.08,1.18-1.79
						c-0.47-0.69,0.46-0.49,0.78-0.61c0.75-0.29,1.55,0.18,1.36,0.78c-0.74,2.32,0.39,2.12,1.96,1.74c0.83-0.2,1.2,0.66,1.9,1.22
						c0.29-1.86,0.49-3.24,3.2-2.89c3,0.39,6.15-0.33,9.23-0.61c0.61-0.06,1.47-0.27,1.48-0.93c0.01-0.83-0.72-1.42-1.52-1.65
						c-3.72-1.11-5.92-4.34-8.95-6.4c-0.67-0.46-0.24-1.1-0.18-1.71c0.27-2.58,1.45-4.79,2.65-7.01c0.48-0.89,1.12-0.21,1.66-0.13
						c2.69,0.43,4.57,2.33,6.7,3.75c0.02,0.39,0.04,0.78,0.06,1.17c-1.18,0.77-2.37,1.52-2.31,3.18c-0.45,2.28,0.66,3.74,2.73,3.54
						c0.8-0.08,1.59-0.27,2.39-0.29c3.45-0.07,5.14-1.4,6.27-4.99c0.14-0.16,0.28-0.33,0.42-0.49c1.12,0.03,1.36,0.74,1.3,1.68
						c-0.04,0.08-0.08,0.16-0.12,0.24c0.04-0.07,0.09-0.15,0.13-0.22c0.97,0.4,1.94,0.81,2.91,1.21c0.61,0.26,1.03,0.37,1.48-0.43
						c1.15-2.04,3.12-3,5.33-3.52c0.01,0.27,0,0.54,0.05,0.82c0.14,0.74-0.4,1.92,0.56,2.12c1.13,0.23,0.89-1.04,1.18-1.73
						c0.66-1.6,2.7-2.99,4.58-3.21c-2.46,2.69-3.14,4.74-2.15,6.45c2.44-6.5,1.96-5.9,10.94-5.65c-0.31,0.73-0.61,1.43-0.93,2.15
						c-1.03-1.1-1.07-1.15-1.26-1c-0.42,0.33-0.87,0.7-0.77,1.33c0.08,0.53,0.22,1.05,0.34,1.57c-0.34-0.02-0.67-0.05-1.02-0.07
						c-0.96-0.45-0.82-2.43-2.08-2.04c-1.68,0.5-1.66,2.58-3.25,4.18c1.29-0.2,2.08-1.37,2.54-0.08c-0.32,0.38-0.65,0.75-0.98,1.14
						c-0.74,0.52-0.72,1.12-0.13,1.72c0.15,0.15,0.52,0.28,0.67,0.2c0.79-0.42,0.36-1.22,0.5-1.85c0.94-0.57,1.56-1.59,2.7-1.87
						c0,0.36,0.03,0.72-0.02,1.08c-0.51,3.95,1.26,5.28,5.01,3.73c0.8-0.33,1.67-0.47,2.38-0.18c3.5,1.45,6.13-0.72,8.95-2.05
						c0.93-0.43,1.57-1.58,2.84-0.85c1.55,0.9,0.59,2.04,0.03,3.14c1.55,0.02,2.04-1.17,2.96-1.67c0.6-0.33,1.15-1.12,1.87-0.4
						c1.11,1.09,1.75-0.05,2.57-0.42c1.1,0.52,1.69,1.52,2.3,2.51c-0.11,0.76,0.16,1.23,0.98,1.29c0.91,0.83,1.34,1.93,1.63,3.05
						c2.72,10.33,4.37,20.73,1.72,31.35C243.94,213.06,243.64,213.52,243.41,214z M204.31,174.33c-2.73-2.75-2.72,2.16-4.72,1.57
						c0.82,0.86,1.54,1.66,2.67,0.66C203.95,176.75,204.54,175.92,204.31,174.33z M162.57,186.06c1.54,1.73,1.58,1.73,3.39,0.05
						C164.85,186.69,163.77,185.82,162.57,186.06z M159.33,186.44c-0.07,0.56,0.23,0.83,0.73,0.9c0.35,0.05,0.84,0.07,0.88-0.32
						c0.06-0.55-0.21-1.07-0.87-1.14C159.71,185.84,159.4,186.02,159.33,186.44z"/>
					<path class="st2" d="M76.08,153.1c1.84,1.4,3.65,2.83,5.54,4.17c1.44,1.03,3.19,1.67,4.21,3.6c-3.83,0.92-7.18,0.45-10.19-1.91
						c0.14-0.38,0.16-0.59,0.27-0.69c0.57-0.5,1.7,0.51,2.02-0.71c0.06-0.23,0.01-0.48,0.02-0.72c-0.94,0.34-1.84-0.83-2.82-0.05
						c-0.48,0.38-1.1,0.61-1.54,1.04c-0.49,0.47-0.7,1.32-1.69,0.81c-1.27-0.65,0.64-1.36-0.24-2.15c-1.74,1.47-3.32,0.82-5.12-0.33
						c-1.61-1.03-3.61-1.33-5.4-0.12c-2.68,1.8-5.64,1.7-8.62,1.31c-0.77-0.1-1.54-0.39-1.75,0.56c-0.2,0.91,0.69,1.4,1.33,1.41
						c3.13,0.06,2.9,2.14,2.8,4.28c-0.11,2.26-0.17,4.52,1.94,6.14c0.41,0.32,0.86,1.03,0.48,1.7c-0.15,0.26-0.55,0.55-0.83,0.53
						c-0.82-0.06-1.23-0.69-1.5-1.39c-1.27-3.19-1.85-3.51-5.06-2.65c-3.81,1.02-5.65,3.2-5.89,7.14c-0.06,0.92-0.12,1.79-0.6,2.6
						c-3.29-0.19-4.55-3.18-6.71-4.91c-0.16-0.25-0.31-0.51-0.47-0.76c0.21-0.82-0.03-1.33-0.92-1.43
						c-0.18-0.36-0.35-0.72-0.53-1.09c0.92-1.17,0.55-2.28,0.03-3.5c-0.73-1.73-1.53-4.15-1.22-5.36c0.84-3.19,0.57-6.54,1.88-9.69
						c1.05-2.51,2.46-5.17,1.48-8.17c-0.19-0.58-0.03-1.33,0.56-1.71c3.83-2.47,1.88-6.25,1.77-9.33c-0.11-3.01-1.26-6.04-1.36-9.15
						c1.25-1.94,0.6-4.25,1.21-6.31c0.33-0.14,0.46-0.32,0.09-0.57c0-1.97,0.03-3.95,0.46-5.89c1.69-1.47,2.15-3.7,3.45-5.47
						c2.3-3.1,1.98-6.51,0.24-9.84c0.46-1.98-1.49-3.37-1.29-5.28c0.85-0.32,1.16-1.46,2.17-1.46c0.43,0,1.09,0.09,1.25,0.37
						c0.38,0.64-0.58,0.38-0.68,0.74c-0.12,0.42-0.38,0.96-0.23,1.27c1.13,2.28,1.13,4.99,2.67,7.11c-0.34,0.06-0.74,0.04-0.82,0.5
						c-0.01,0.09,0.21,0.31,0.3,0.3c0.46-0.07,0.45-0.46,0.5-0.82c0.35-0.01,0.71-0.02,1.07-0.02c-2.48,2.54-2.47,6.27-4.39,9.06
						c-0.91,1.32,0.31,2.42,0.79,2.8c1.34,1.1,0.81,2.41,1.47,3.89c-1.66-0.67-1.8-2.11-2.84-2.68c-1.31-0.78-1.57-0.05-1.53,1.09
						c0.06,1.55-0.14,3.02-0.7,4.5c-1.53,3.96-2.26,8.01-0.95,12.2c0.13,0.42,0.09,0.93,0.64,1.07c0.56,0.14,0.71-0.28,1.01-0.64
						c2.06-2.63,4.05-2.67,6.09-0.17c0.31,0.37,0.7,0.73,1.13,0.57c0.67-0.25,0.52-1,0.25-1.37c-1-1.35-1.93-2.96-3.67-3.31
						c-0.87-0.17-1.35-0.62-1-1.07c1.79-2.2,0.15-4.25-0.08-6.35c2.07,1.58,2.64,4.11,3.73,6.26c3.07,6.05,7.97,10.6,12.41,15.51
						c1.67,1.84,3.22,3.77,5.92,4.8c1.93,0.73,3.06,3.56,4.55,5.46c0.11,1.14,0.95,1.45,1.88,1.64l0.14,0.02
						c0.23,0.17,0.46,0.35,0.69,0.52l0.02,0.01c0.25,0.56,0.73,0.59,1.25,0.52c0.31,0.14,0.61,0.27,0.93,0.41
						C76.08,152.32,76.08,152.71,76.08,153.1z M64.13,146.62c-0.15-0.44,0.32-1.2-0.53-1.25c-0.4-0.03-1,0.19-0.87,0.76
						c0.16,0.7,0.86,0.45,1.35,0.52c-0.48,1.62,1.6,1.95,1.65,3.3c0.07,2.98,0.89,3.92,3.3,3.71c1.36,1.1,2.69,1.08,4.01-0.1
						c-0.24-0.72-1.29-0.17-1.63-1.34c-0.37-1.3-1.59-2.37-3.55-2.64C66.7,149.43,66.32,146.56,64.13,146.62z M49.16,130.19
						c1.6,0.22,0.98,3.15,3.55,2.71C51.34,131.88,51.37,129.82,49.16,130.19z M54.61,134.82c-0.68-0.79-1.34-0.82-2.3-0.4
						C53.12,135.35,53.75,135.5,54.61,134.82z"/>
					<path class="st3" d="M36.7,172.74c2.16,1.73,3.42,4.72,6.71,4.91c0.92,0.53,1.83,1.06,2.75,1.59c0.05,0.7,0.39,1.08,1.14,1
						c0.52,0.03,1.06,0.06,1.58,0.09c0.09,1.1,0.87,1.08,1.67,1.02c0.52,0.03,1.05,0.05,1.57,0.08c0.83,1.57,2.45,1.62,3.88,2.04
						c4.74,0.7,8.99,2.84,13.4,4.53c2,0.77,3.94,1.76,6.08,2.14c0.09,0.68,0.44,1.05,1.16,0.99c0.52,0.03,1.05,0.05,1.58,0.08
						c0.06,0.68,0.41,1.06,1.12,1.06c0.17,0.02,0.34,0.03,0.51,0.03c0.61,1.92,2.06,2.32,3.85,2.13c0.17,0.02,0.34,0.03,0.51,0.04
						c0.08,1.09,0.87,1.09,1.66,1.05c0.17,0.01,0.34,0.03,0.51,0.04c0.09,1.09,0.87,1.09,1.66,1.05c0.17,0.02,0.34,0.03,0.5,0.05
						c0.13,1.37,1.03,1.68,2.2,1.59c0.36,0.62,1,0.55,1.58,0.6c0.39,1.43,1.74,1.23,2.75,1.6l0,0c0.15,0.31,0.21,0.83,0.45,0.93
						c4.35,1.82,7.28,6.1,12.08,7.04c2.44,0.48,3.97,2.48,6.07,3.29c4.95,1.91,9.74,4.32,15.05,5.26c4.38,0.79,8.64,2.24,13.13,2.44
						c0.53,0.01,1.08,0.01,1.61,0.02c0.89,0.87,1.79,0.81,2.72,0.07c0.89,0.01,1.78,0.02,2.67,0.03c0.46,1.37,1.27,1.26,2.22,0.51
						c8.69,0.61,17.31,2.09,26.07,1.63c0.89-0.05,2.12-0.53,2.63,0.71c0.4,1.02-0.22,1.81-0.81,2.69c-2.14,3.21-5.37,3.88-8.86,4.06
						c0.99-1.79-0.45-1.47-1.35-1.5c-2.89-0.07-5.94,0.49-8.64-0.26c-3.86-1.09-7.77-1.29-11.66-1.7
						c-6.18-0.66-12.34-1.55-18.32-3.09c-9.04-2.33-17.73-5.74-25.97-10.2c-1.19-0.64-2.57-0.89-3.83,0.06
						c-3.01-1.73-6.13-3.28-9-5.22c-6.23-4.23-12.86-6.28-20.39-4.6c-0.43,0.09-0.9,0.01-1.35,0.01c-0.3-1.16-1.1-1.86-2.16-2.24
						c-5.37-1.92-10.87-3.43-16.13-5.71c-1.23-0.53-2.25-0.85-2.78-2.1c0.54-0.18,1.05-0.1,1.57,0.11c0.94,0.37,2.13,1.41,2.8-0.02
						c0.56-1.22-0.98-1.66-1.62-2.45c-1.15-1.4-3.48-2.6-1.01-4.81c0.37-0.33,0.18-0.87-0.23-1.16c-1.08-0.76-1.88-1.75-3.16-2.4
						c-3.74-1.88-8.16-2.73-10.83-6.43C36.27,174.5,36.48,173.63,36.7,172.74z"/>
					<path class="st4" d="M144.76,105.21c0.18,0.01,0.28,0.1,0.3,0.27c0.32,1.47,0.62,2.94,1.34,4.31c0.62,1.2,1,2.59,2.83,2.14
						l0.13,0.08l-0.05,0.15c0.03,0.4,0.06,0.82,0.09,1.22c-0.09,0.21-0.19,0.41-0.28,0.62c-1.72-0.35-2.92,0.67-4.15,1.59
						c-1.08,0.82-2.11,1.61-3.54,1.84c-8.69,1.38-17.29,3.14-25.69,5.85c0,0-0.15-0.2-0.14-0.19c2.9-1.4,1.35-3.4,0.7-5.28
						c-0.23-1.3-0.11-2.78-1.7-3.4c1.27-1.21,2.93-1.7,4.45-2.43c4.72-2.25,9.47-4.46,14.21-6.67c1.71-0.15,2.24-2.48,4.16-2.26
						c0.41,0.05,0.84,0.09,1.25,0.14C140.75,103.69,142.42,105.43,144.76,105.21z"/>
					<path class="st4" d="M53.82,55.99c0.87-0.95,1.87-1.67,3.13-2c0.12,0.94,0.44,1.57,1.58,1.13c2.79-1.11,5.74-1.02,8.6-0.69
						c1.63,0.18,3.97,0.11,4.4,2.39c0.35,1.88,1.73,2.87,2.99,3.53c1.28,0.67,2.61,2.24,4.23,1.52c2-0.91,2.13,0.13,2.19,1.58
						c-7.7,1.27-14.67,4.55-21.56,7.98c-0.52,0.26-0.88,0.89-1.31,1.34c-0.64,0.4-1.33,0.61-2.09,0.54
						c-1.59-0.72-2.05-2.75-3.8-3.28c-0.17-1.26-1.18-1.49-2.14-1.58c-1.04-0.1-2.07-0.16-2.13-1.46c-0.05-1.14-0.53-2.4,1.17-3.12
						c1.1-0.47,1.6-1.73,0.92-3.06c0-0.37,0-0.74,0-1.12c0.53-0.35,1.08-0.7,1.61-1.07C53.09,58.39,55.06,58.57,53.82,55.99z"/>
					<path class="st2" d="M80.92,63.43c-0.06-1.44-0.19-2.49-2.19-1.58c-1.61,0.73-2.95-0.85-4.23-1.52
						c-1.26-0.66-2.64-1.65-2.99-3.53c-0.43-2.27-2.77-2.2-4.4-2.39c-2.86-0.32-5.81-0.4-8.6,0.69c-1.13,0.44-1.46-0.18-1.58-1.13
						c1.38-1.37,3.14-1.68,4.96-1.66c9.04,0.11,18.16-1.22,27.08,1.42c1.12,0.33,2.12-0.12,2.84-1.1c0.08-0.04,0.22-0.08,0.22-0.11
						c0-0.14-0.05-0.28-0.09-0.42c0.21-0.59,0.42-1.19,0.64-1.78c0.62,0.06,1.25,0.12,1.87,0.18c0.08,0.11,0.11,0.23,0.1,0.37
						c0.18,0.22,0.35,0.44,0.53,0.67l0.03-0.05c-0.13,1.22-0.82,2.19-1.55,3.08c-1.57,1.89-0.49,3.69,0.91,4.39
						c2.9,1.45,2.33,2.09-0.15,3.01c-0.2,0.07-0.22,0.63-0.33,0.97C89.64,62.61,85.28,62.9,80.92,63.43z"/>
					<path class="st2" d="M184.21,232.44c0.18-0.19,0.54-0.39,0.53-0.57c-0.2-3.47,2.31-2.63,4.21-2.63
						c7.6,0.01,14.99-1.43,22.4-2.9c2.43-0.48,4.82-1.32,7.3-1.43c3.25-0.14,3.5,0.35,1.88,3.36c-0.33,0.61-0.34,1.19-0.35,1.81
						c-3.42,1.4-7.06,2.09-10.57,3.17c-2.01,0.62-3.43,0.36-4.26-1.69c-0.07-0.49,1.55-0.89,0.1-1.47c-1.5-0.61-2.11,0.04-2.14,1.51
						c0.07,0.15,0.04,0.27-0.11,0.35c-1.51,0.37-2.5,1.23-2.62,2.87c-3.8,1.09-7.77,1.19-11.65,1.83c-1.41,0.23-2.12-0.44-2.78-1.57
						C185.61,234.13,185.7,232.68,184.21,232.44z"/>
					<path class="st3" d="M237.44,174.36c-0.82,0.37-1.46,1.51-2.57,0.42c-0.72-0.71-1.27,0.07-1.87,0.4
						c-0.92,0.5-1.41,1.69-2.96,1.67c0.55-1.1,1.52-2.24-0.03-3.14c-1.27-0.73-1.91,0.41-2.84,0.85c-2.82,1.33-5.45,3.5-8.95,2.05
						c-0.7-0.29-1.58-0.15-2.38,0.18c-3.75,1.55-5.54,0.21-5.01-3.73c0.05-0.35,0.02-0.72,0.02-1.08c0.32-0.46,1.09-0.57,1.06-1.32
						c-0.11-0.52-0.26-1.05-0.34-1.57c-0.09-0.62,0.34-1,0.77-1.33c0.19-0.15,0.23-0.1,1.26,1c0.31-0.71,0.61-1.42,0.93-2.15
						c-8.98-0.25-8.5-0.86-10.94,5.65c-0.99-1.72-0.3-3.76,2.15-6.45c-1.88,0.23-3.91,1.61-4.58,3.21
						c-0.29,0.68-0.05,1.96-1.18,1.73c-0.97-0.2-0.42-1.38-0.56-2.12c-0.05-0.26-0.03-0.54-0.05-0.82
						c2.73-3.28,6.43-3.87,10.39-3.77c1.65,0.11,3.36,2.27,4.95-0.12c0.98,0.68,2.16,0.31,3.2,0.67c-0.96,1.09-2.57,1.9-1.63,3.8
						c-0.04,0.06-0.08,0.11-0.11,0.17c0.03-0.06,0.07-0.12,0.1-0.18c1.39-0.32,2.98-0.17,3.83-1.7c1.1,0.36,2.18,0.72,3.28,1.08
						c0.07,0.41,0.23,0.52,0.51,0.13c0.83,0.15,1.56,0.47,2.18,1.04c1.69,1.76,3.89,2.84,5.85,4.22c0.41,0.29,1.24,0.23,1.72-0.34
						c0.91,0.16,1.89-0.35,2.73,0.33c0.03,0.17,0.13,0.24,0.3,0.2C237.15,173.51,237.39,173.87,237.44,174.36z"/>
					<path class="st5" d="M36.06,175.39c2.67,3.7,7.09,4.55,10.83,6.43c1.28,0.64,2.08,1.63,3.16,2.4c0.41,0.29,0.6,0.83,0.23,1.16
						c-2.48,2.21-0.13,3.41,1.01,4.81c0.63,0.79,2.18,1.22,1.62,2.45c-0.66,1.43-1.85,0.39-2.8,0.02c-0.52-0.21-1.04-0.29-1.57-0.11
						c-1.34,0.29-2.54-0.03-3.83-0.51c-2.88-1.08-5.73-2.31-8.81-2.78c-0.26-0.73-0.78-1.17-1.55-1.3
						C34.95,183.76,35.09,179.52,36.06,175.39z"/>
					<path class="st2" d="M107.17,39.41c2.43-0.07,4.27,1.54,6.44,2.21c-0.13,0.96,0.6,1.35,1.15,1.95
						c2.67,2.96,2.74,4.87,0.37,8.09c-0.32,0.44-0.32,0.8-0.09,1.2c1.18,2.01,0.51,4.21,0.68,6.32c-1.18,0.66-2.47,0.96-3.8,1.04
						c-0.71-1.64-2.39-1.68-3.75-2.12c-1.15-0.37-2.26-0.62-2.83-1.83c-1.07-2.27-2.13-4.55-3.2-6.82
						c3.87-1.16,7.91-1.22,11.92-1.71c-2.59-6.24-6.12-7.9-10.31-4.97c-0.45-0.55-1.13-0.37-1.71-0.48
						c0.07-1.11,0.14-2.21,0.21-3.31c0.31-0.08,0.62-0.15,0.94-0.23C104.07,41.6,105.79,39.48,107.17,39.41z M106.19,52.91
						c2.49,1.28,4.84,0.45,7.83,0C111,52.91,108.59,52.91,106.19,52.91z"/>
					<path class="st6" d="M115.75,123.29c8.38-2.71,16.99-4.47,25.69-5.85c1.43-0.23,2.47-1.03,3.54-1.84
						c1.23-0.93,2.43-1.95,4.15-1.59c0,0.35,0.14,0.79-0.01,1.04c-2.1,3.39,0.42,3.7,2.74,4.16c-0.25,0.57-0.5,1.14-0.75,1.71
						c-3.1,0.07-6.17-1.28-9.29-0.16c-2.06-0.74-0.82,1.55-1.71,1.87c-1.75,0.4-3.34,1.16-4.77,2.23c-1.03,0.18-1.95,0.56-2.73,1.28
						c-1.5-0.41-2.07,1.33-3.35,1.44c-0.42-2.88,1.97-3.64,3.7-5.08c-2.67-0.09-5.12,0.8-7.56,1.56c-2.87,0.91-5.8,1.18-8.76,1.33
						c-0.66,0.03-1.58,0.25-1.86-0.62C114.52,124.02,115.63,123.93,115.75,123.29z"/>
					<path class="st6" d="M138.16,69.82c0.11,2.41-2.07,3.85-2.54,6c-1.99,0.87-4.71,2.47-4.67,3.87c0.05,1.82,3.21,1.38,4.98,2.05
						c0.41,0.15,0.87,0.17,1.31,0.25c1.05,2.16,3.98,2.63,4.65,5.12c-0.14,0.47-0.42,0.81-0.93,0.93c-1.02-0.95-2.02-1.9-3.47-2.11
						c-0.81-0.95-1.93-1.17-3.06-1.37c-0.54-0.9-1.23-1.46-2.36-1.06c-1.43-0.55-2.87-1.05-4.43-0.93c-0.47-0.64-1.03-0.53-1.62-0.2
						c-2.33-0.28-4.61-1.09-7-0.54c-0.57-0.24-1.14-0.24-1.71,0c-3.75-0.54-7.54-0.11-11.3-0.35c-1.09-0.39-2.16-0.79-3.25-1.18
						c-0.18-0.19-0.37-0.38-0.55-0.57c0.05-0.14,0.06-0.28,0.03-0.42c2.19-1.07,4.58-1.12,6.95-1.3c4.1,0.68,8.26,0.32,12.35,0.79
						c4.38,0.5,7.45-0.8,9.55-4.76l-0.01-0.08c1,0.09,1.36-0.88,2.06-1.26c1.61-0.18,1.36-1.89,2.2-2.7
						C136.28,69.93,137.22,69.88,138.16,69.82z"/>
					<path class="st4" d="M127.64,82.57c1.57-0.13,3.01,0.37,4.43,0.93c0.52,0.93,1.35,1.19,2.36,1.06c1.14,0.2,2.26,0.42,3.06,1.37
						c0.13,1.92,1.64,2.2,3.06,2.61c0.16,0.8,0.34,1.58,0.49,2.39c0.31,1.61,1.71,4.08,2.78,4.85c-0.01,0.18-0.09,0.32-0.24,0.42
						c-1.95-0.17-3.68-0.3-5.06,1.78c-1.18,1.78-3.2,2.51-5.41,1.37c-0.02-0.19-0.03-0.37-0.05-0.56c-1.08-2.87-2.14-5.74-3.22-8.62
						c-0.58-2.74-1.01-5.63-4.86-5.45c0.72-0.31,1.07-0.91,1.18-1.65C126.7,83.04,127.29,83.16,127.64,82.57z"/>
					<path class="st3" d="M37.93,122.52c0.1,3.12,1.25,6.14,1.36,9.15c0.11,3.08,2.05,6.86-1.77,9.33
						c-0.59,0.38-0.75,1.13-0.56,1.71c0.98,3-0.44,5.68-1.48,8.17c-1.31,3.14-1.05,6.49-1.88,9.69c-0.32,1.21,0.48,3.63,1.22,5.36
						c0.51,1.23,0.89,2.35-0.03,3.5c-3.18-5.81-3.26-12.14-2.38-18.36c1.11-7.81,2.84-15.53,4.44-23.27
						C37.2,126.07,36.14,123.98,37.93,122.52z"/>
					<path class="st2" d="M122.97,48.22c2.28-0.04,3.92,1.27,5.42,2.73c2.13,2.09,2.86,5.01,4.26,7.54
						c-2.01,0.05-3.56,1.45-5.45,1.84c-0.06-0.5,0.1-1.29-0.46-1.38c-0.74-0.13-0.63,0.64-0.65,1.14c-0.02,0.43,0.03,0.88,0.05,1.32
						l0.03,0.02c-2.74,0.39-3.93-0.91-3.95-3.55c0-0.51-0.36-1.05-0.32-1.55c0.12-1.21-0.14-2.45-1.4-2.42
						c-1.7,0.05-0.63,1.69-0.98,2.56c-0.36-0.02-0.72-0.04-1.08-0.05c-1.51-3.19-0.85-5.95,1.63-8.35c0.75-0.18,1.5-0.23,2.24,0.05
						C122.53,48.15,122.74,48.18,122.97,48.22z M122.7,52.04c0.46-0.11,1.32-0.92,1.21-1.24c-0.24-0.68-1.02-1.3-1.87-1.3
						c-0.92,0-0.83,0.78-0.83,1.4C121.2,51.69,121.6,52.07,122.7,52.04z"/>
					<path class="st6" d="M163.68,132.46c0.49-0.02,0.84,0.22,1.11,0.61c-0.24,0.66-0.47,1.33-0.71,2
						c-0.17,0.07-0.34,0.14-0.51,0.22c-2.6-0.04-4.98-1.45-7.62-1.19c-0.64,0.06-1.72-0.4-1.8,0.55c-0.18,2.06-2.05,3.08-2.65,4.84
						c-1.01,0.31-1.93,1.03-3.08,0.51c-0.06-2.52,2.05-4,3.23-6.22c-1.04,0-1.74-0.01-2.45,0c-4.04,0.09-8.07,0.46-12.11-0.07
						c-1.17-0.15-1.92-0.38-1.73-1.73c0.53,0.02,0.84-0.27,1.02-0.73c0.42-0.08,0.86-0.16,1.28-0.23c0.25,0,0.49,0,0.74,0
						c0.81,0.08,1.61,0.16,2.41,0.24c3.74-0.01,7.48-0.02,11.22-0.04c0.87-0.01,1.62-0.22,1.62-1.32c0.75-1.67,1.52-3.33,2.27-5
						c1.68-0.31,2.09,0.92,2.09,2.07c0,0.94-0.54,1.88-0.92,2.79c-0.35,0.86-0.58,1.51,0.73,1.7
						C159.79,131.71,161.73,132.12,163.68,132.46z"/>
					<path class="st2" d="M49.95,60.78c0.68,1.32,0.18,2.59-0.92,3.06c-1.7,0.73-1.22,1.98-1.17,3.12c0.06,1.3,1.11,1.36,2.13,1.46
						c0.98,0.09,1.97,0.32,2.14,1.58c-0.02,0.72-0.34,1.13-1.12,1.06c-0.3-1.53-1.15-1.1-1.88-0.44c-1.6,1.4-2.97,3.04-4.71,4.31
						c-0.45,0.33-1.88,1.44,0,2.13c0.08,0.52,0.16,1.05,0.23,1.57c-0.28,2.59-0.95,5.02-2.76,7.02c-0.7,0.78,0.03,1.25,0.45,1.76
						c-1.48,1.07-1.56-0.31-1.96-1.13c0.01-0.52,0.03-1.04,0.04-1.56c1.29-2.62,1.95-5.3,0.86-8.18c-0.01-0.9-0.01-1.8-0.02-2.7
						c0.02-0.36,0.04-0.71,0.06-1.08c0.97-0.31,1.24-0.84,0.48-1.66c0.01-0.36,0.02-0.72,0.04-1.09c0.91-1.45,1.81-2.9,2.72-4.35
						c1.22-1.74,3.62-2.49,4.01-4.98C48.69,60.07,49.48,60.65,49.95,60.78z"/>
					<path class="st6" d="M133.11,99.33c2.2,1.14,4.22,0.41,5.41-1.37c1.38-2.08,3.12-1.94,5.06-1.78c-0.23,0.56-0.31,1.3-0.71,1.67
						c-1.98,1.81-2.43,3.46,0.22,5.02c-1.39,1.32-3.02-0.98-4.42,0.29c-0.41-0.05-0.84-0.09-1.25-0.14c-3.5-1.38-7.05-1-10.61-0.23
						c-2.82-0.5-5.6,0.6-8.41,0.17c-0.32-0.77-0.8-0.98-1.48-0.39c-0.38-0.06-0.75-0.13-1.14-0.19c-0.49-1.19,0.21-1.93,0.98-2.66
						c1.47,0.02,2.94,0.03,4.41,0.05C125.18,100.16,129.13,99.21,133.11,99.33z"/>
					<path class="st6" d="M183.82,160.2c0.39-0.89,0.8-1.78,1.36-3.05c-3.15,0.19-6.11,0.36-9.07,0.53c-1.39,0.08-2.71,0-3.56-1.33
						c1.11-0.84,2.34-1.18,3.72-1.16c1.59,0.01,3.18-0.17,4.67-0.86c2.41-0.14,5.31,0.53,5.36-3.36l0.06-0.03
						c2.04-0.17,2.31,2.14,3.8,2.73c2.45,2.24,5.41,1.23,8.19,1.27c0.16,0.12,0.33,0.24,0.49,0.37c0.16,0.65,0.32,1.31,0.48,1.97
						c-0.99,0.45-1.92,0.68-3.08,0.42c-1.72-0.39-3.54-0.34-5.28-0.67c-2.71-0.5-3.78,0.58-3.52,3.23
						c-0.16,0.19-0.32,0.37-0.48,0.56C185.95,160.5,184.5,162.23,183.82,160.2z"/>
					<path class="st2" d="M39.69,193.39c-0.02,0.09-0.04,0.17-0.05,0.26c-0.14,1.23-2.53-0.04-2.02,1.72
						c0.38,1.36,1.99,0.24,2.92,1.21c-1.55,1.42-2.22,2.79,0.6,3.6c0.86,0.25,1.44,1.21,1.5,2.09c0.09,1.31-1.17,0.63-1.76,0.98
						c-0.78,0.45-1.45,1.02-1.73,1.92c-1.16-0.13-2.23-0.87-2.4-1.79c-0.29-1.64-1.63-1.34-2.53-1.86c0.06-0.92-0.1-1.73-1.03-2.17
						c-0.02-0.18-0.04-0.36-0.06-0.54c0.69-0.52,0.7-1.06,0.04-1.62c0.02-0.91-0.1-1.84,0.36-2.69c0.68-0.28,0.84-0.64,0.16-1.12
						c0.05-0.36,0.09-0.71,0.14-1.08c0.75-0.11,0.94-0.63,0.94-1.29c-0.01-0.74,0.12-1.39,1.09-1.36
						C37,191.02,38.03,192.53,39.69,193.39z"/>
					<path class="st2" d="M226.05,228.04c-0.03-0.17-0.05-0.36-0.11-0.52c-0.37-1-2.18-1.41-1.29-2.88c0.8-1.3,2.22-1.18,3.56-1.44
						c5.29-1.03,10.22-2.87,13.61-7.38c0.47-0.63,0.94-0.71,1.57-0.71c1.31,3.97,0.96,4.83-2.64,6.56c-0.23-0.46-0.54-1.05-1.08-0.9
						c-0.9,0.27-0.45,1.11-0.49,1.73c-1.36,0.48-2.33,1.75-3.84,1.93c-1.94-0.68-5.98,0.67-7.66,2.58
						c-0.02,0.16-0.03,0.33-0.03,0.49l-0.09,0.03c-0.14-0.04-0.24,0-0.32,0.12C226.85,227.79,226.44,227.91,226.05,228.04z"/>
					<path class="st5" d="M41.29,73.85c0.01,0.9,0.01,1.8,0.02,2.7c-0.35,0.17-0.71,0.33-1.07,0.5c-0.22,0.03-1.12,1.18-1.29,1.54
						c-2.09,4.43-1.61,8.72,0.59,13.3c1-1.25,0.59-2.36,0.72-3.36c0.6,0.21,1.21,0.42,1.81,0.63c-0.2,1.91,1.75,3.31,1.29,5.28
						c-1.21-0.18-1.48,0.64-1.8,1.55c-0.36,0.99-0.38,2.17-1.42,2.84c-0.63-1.76-1.43-3.49-1.03-5.47c0.09-0.45-0.15-0.79-0.47-1.17
						c-2.89-3.43-3.73-7.23-1.96-11.48c0.2-0.47,0.26-1.04,0.25-1.56c-0.05-2.23,0.69-3.84,3.11-4.33
						C40.52,74.74,40.88,74.19,41.29,73.85z"/>
					<path class="st6" d="M127.19,60.34c1.89-0.4,3.44-1.79,5.45-1.84c1.1,1.1,3.09,0.97,3.72,2.71c-0.3,0.52-0.87,0.54-1.36,0.68
						c-2.58-0.21-4.59,0.83-6.21,2.76c-0.13,0.16-0.26,0.32-0.39,0.48l-0.17,0.17c-0.11,0.11-0.21,0.22-0.32,0.33
						c-0.41,0.44-0.77,0.92-0.8,1.56c-1.19,0.47-0.81,2.21-2.16,2.66c-1.77-2.02-1.13-4.1-0.17-6.16c0.37-0.8,1.34-1.25,1.38-2.26
						l-0.03-0.02C126.48,61.04,126.83,60.69,127.19,60.34z"/>
					<path class="st3" d="M40.15,98.83c1.04-0.66,1.06-1.84,1.42-2.84c0.33-0.91,0.59-1.73,1.8-1.55c1.74,3.33,2.05,6.74-0.24,9.84
						c-1.3,1.75-1.75,4-3.45,5.47c-0.7-2.52-0.57-5.05-0.18-7.59c0.57-0.26,0.92-0.58,0.27-1.13C39.9,100.3,40.03,99.56,40.15,98.83
						z"/>
					<path class="st5" d="M181.48,145.08c3.23,1.73,6.27,3.86,9.91,4.71c0.16,0.04,0.23,0.46,0.35,0.7c-1,1.17-1.62,0.03-2.47-0.28
						c-1.02-0.38-2.55-1.78-2.91,0.74l-0.06,0.03c-2.81,1.43-4.77-0.5-6.93-1.72l0.02-0.13c0.21-0.66,0.41-1.34,0.62-2
						c0.09-0.34,0.19-0.69,0.28-1.04C181.04,146.13,181.43,145.8,181.48,145.08z"/>
					<path class="st5" d="M143.82,95.76c-1.07-0.79-2.47-3.25-2.78-4.85c-0.15-0.8-0.33-1.59-0.49-2.39
						c0.14-0.16,0.27-0.33,0.41-0.49c0.5-0.11,0.79-0.44,0.93-0.93c0.85,0.94,2.46-1.08,3.1,0.88c0.7,2.13,1.39,4.23,0.95,6.52
						C145.69,95.75,144.61,95.49,143.82,95.76z"/>
					<path class="st4" d="M120.07,48.05c-2.48,2.41-3.14,5.17-1.63,8.35c-0.58,1.24-1.07,2.58-2.71,2.78
						c-0.18-2.11,0.48-4.32-0.68-6.32c-0.23-0.4-0.24-0.75,0.09-1.2c2.37-3.22,2.3-5.13-0.37-8.09c-0.54-0.6-1.28-1-1.15-1.95
						c2.95,0.37,3.92,2.68,4.86,5c-0.12,0.48-0.11,0.92,0.43,1.15C119.29,47.87,119.68,47.96,120.07,48.05z"/>
					<path class="st3" d="M49.95,60.78c-0.46-0.14-1.26-0.7-1.35-0.09c-0.38,2.5-2.79,3.24-4.01,4.98c-1.56-0.06-1.69,1.96-3.1,2.12
						c-0.14-5.27,1.47-7.66,6.24-9.23c0.88,0.09,1.55,0.59,2.22,1.1C49.95,60.03,49.95,60.41,49.95,60.78z"/>
					<path class="st5" d="M134.99,61.89c0.5-0.14,1.06-0.16,1.36-0.68c1.06,0.32,2.42,0.13,2.84,1.59c-0.17,0.19-0.33,0.37-0.5,0.56
						c0.09,0.07,0.18,0.15,0.27,0.22c0.1-0.24,0.19-0.47,0.29-0.71c1.02,1.65,1.12,3.53,1.34,5.38c0.21,1.83-0.62,2.02-2.02,1.18
						c-0.44-1.75-1.87-0.56-2.77-0.93C135.08,66.34,135.48,64.06,134.99,61.89z M137.24,62.91c0.15-0.07,0.31-0.14,0.46-0.22
						c-0.15-0.09-0.29-0.23-0.44-0.24c-0.15,0-0.31,0.13-0.47,0.21C136.95,62.75,137.1,62.83,137.24,62.91z"/>
					<path class="st3" d="M181.48,145.08c-0.04,0.73-0.44,1.06-1.16,1.02c-3.37-0.94-5.49-3.87-8.49-5.4
						c-0.92-0.82-0.96-2.33-2.24-2.85c0.16-0.49,0.32-0.99,0.47-1.47c1.02-0.02,1.79,0.33,2.13,1.36c0.18,0.08,0.36,0.15,0.54,0.23
						C175.65,140.36,178.28,143.06,181.48,145.08z"/>
					<path class="st5" d="M102.26,38.97c-0.07,1.11-0.14,2.21-0.21,3.31c-2.62,0.65-2.51,3.04-3.15,4.95
						c-0.88-0.43-1.64-0.16-2.45,0.33c0.97,0.52,1.61,1.18,1.32,2.34c-1.48-0.47-1.61,1.28-2.62,1.58l-0.03,0.05
						c-0.18-0.22-0.35-0.44-0.53-0.67c0.01-0.13-0.03-0.26-0.1-0.37c1.62-1.4,0.96-3.75,2.33-5.39c0.79-0.94,2.18-2.02,1.51-3.71
						C99.65,40.62,100.29,38.71,102.26,38.97z"/>
					<path class="st4" d="M137.25,81.99c-0.43-0.08-0.9-0.09-1.31-0.25c-1.77-0.66-4.93-0.23-4.98-2.05
						c-0.04-1.41,2.67-3.01,4.67-3.87c0.42,1.26,0.86,2.52,1.28,3.77v-0.05C137.02,80.35,137.13,81.17,137.25,81.99z"/>
					<path class="st2" d="M163.68,132.46c-1.95-0.34-3.89-0.74-5.85-1.02c-1.32-0.18-1.09-0.84-0.73-1.7
						c0.37-0.92,0.92-1.86,0.92-2.79c0-1.16-0.41-2.38-2.09-2.07h0.01c0.03-0.14,0.05-0.29,0.07-0.43c0.29-0.38,0.58-0.75,0.87-1.14
						c0.34-0.07,0.69-0.14,1.04-0.2c1.74,0.97,1.31,3.07,1.4,4.28c0.17,2.49,1.94,2.89,3.28,3.99
						C162.98,131.69,163.31,132.1,163.68,132.46z"/>
					<path class="st5" d="M170.07,136.37c-0.16,0.49-0.32,0.99-0.48,1.47c-0.39,0.35-0.78,0.7-1.17,1.07c-0.47,0-0.94,0-1.41,0
						c-0.31-0.87-0.77-1.55-1.82-1.5c-0.17-0.19-0.35-0.38-0.52-0.57c0.06-0.68,0.64-1.54-0.59-1.77c0.24-0.66,0.47-1.33,0.71-2
						C167.21,133.11,168.2,135.45,170.07,136.37z"/>
					<path class="st5" d="M156.87,123.31c-0.29,0.38-0.58,0.75-0.87,1.14c-0.2,0.08-0.41,0.16-0.61,0.24
						c-0.86-0.12-1.66-0.32-1.94-1.31l0.04-0.23l-0.06,0.23c-1.73,0.08-1.48-1.7-2.33-2.47c0.25-0.57,0.5-1.14,0.75-1.71
						c1.71,0.05,3.54-0.18,3.68,2.42c0.05,0.9,1.59,0.2,1.84,1.2c-0.31,0.08-0.61,0.16-0.93,0.25
						C156.59,123.15,156.73,123.23,156.87,123.31z"/>
					<path class="st5" d="M199.35,157.3c-0.16-0.65-0.32-1.31-0.48-1.96c2.46-0.01,4.11,2.24,6.53,2.33
						c0.33,0.92-0.33,1.41-0.87,1.95c-0.29,0.53-0.78,0.67-1.34,0.62C201.6,159.66,199.79,159.37,199.35,157.3z"/>
					<path class="st3" d="M98.32,41.39c0.67,1.69-0.72,2.78-1.51,3.71c-1.37,1.63-0.7,3.98-2.33,5.39
						c-0.62-0.06-1.25-0.12-1.87-0.18C93.97,46.99,95.12,43.54,98.32,41.39z"/>
					<path class="st3" d="M198.37,154.96c-2.79-0.04-5.75,0.98-8.19-1.27c0.64,0,1.04-0.27,1.06-0.96c0.2-0.03,0.39-0.06,0.59-0.1
						c1.54,1.07,1.57-0.06,1.64-1.13C195.1,152.66,196.74,153.82,198.37,154.96z"/>
					<path class="st2" d="M193.47,151.51c-0.07,1.07-0.1,2.19-1.64,1.13c-0.04-0.54-0.16-1.06-0.87-0.93
						c-0.19,0.04-0.34,0.33-0.5,0.51c0.26,0.17,0.52,0.34,0.78,0.51c-0.02,0.68-0.42,0.96-1.06,0.96c-1.5-0.58-1.76-2.91-3.8-2.73
						c0.36-2.53,1.89-1.13,2.91-0.74c0.85,0.32,1.48,1.46,2.47,0.28C192.32,150.84,192.89,151.17,193.47,151.51z"/>
					<path class="st2" d="M53.77,211.2c0.11-0.41,0.21-0.83,0.32-1.24c2.3,2.02,3.65-2.24,5.8-0.86c0.32,0.21,0.29,0.96,0.43,1.46
						c-0.42,0.31-0.83,0.66-1.27,0.93c-1.11,0.65-2.2,2.11-3.3-0.13C55.39,210.65,54.45,211.27,53.77,211.2z"/>
					<path class="st2" d="M214.71,163.9c-1.59,2.4-3.3,0.23-4.95,0.12c-0.19-0.66-0.39-1.32-0.58-1.98c0.1-0.14,0.17-0.29,0.21-0.46
						C211.39,161.81,213.07,162.83,214.71,163.9z"/>
					<path class="st5" d="M216.29,168.37c-0.95-1.9,0.66-2.72,1.63-3.8c1.03,0.39,1.82,1.01,2.18,2.08
						c-0.85,1.54-2.44,1.39-3.83,1.7L216.29,168.37z"/>
					<path class="st3" d="M149.23,111.93c-1.82,0.43-2.2-0.96-2.83-2.14c-0.71-1.37-1.03-2.83-1.34-4.31
						c0.59-0.01,1.28-0.22,1.49,0.64C147.09,108.22,148.34,109.99,149.23,111.93z"/>
					<path class="st3" d="M204.53,159.62c0.53-0.54,1.19-1.03,0.86-1.95c2.6,0.02,3.62,1.64,4,3.92c-0.04,0.16-0.12,0.32-0.21,0.45
						c-0.71-0.09-1.42-0.18-2.13-0.26C207.44,159.62,206.15,159.42,204.53,159.62z"/>
					<path class="st5" d="M233.65,172.79c-0.48,0.57-1.31,0.63-1.72,0.34c-1.96-1.39-4.16-2.47-5.85-4.22
						C228.85,169.71,231.29,171.19,233.65,172.79z"/>
					<path class="st4" d="M227.69,227.02c1.68-1.9,5.72-3.26,7.66-2.58c-1.76,0.72-3.53,1.45-5.29,2.17
						c-0.53-0.15-0.97-0.04-1.27,0.45l0,0C228.42,227.05,228.05,227.04,227.69,227.02z"/>
					<path class="st6" d="M138.67,103.17c1.39-1.27,3.03,1.03,4.42-0.29c0.42,0.88,1.61,1.2,1.67,2.34
						C142.42,105.43,140.75,103.69,138.67,103.17z"/>
					<path class="st5" d="M49.95,59.66c-0.67-0.49-1.35-1.01-2.22-1.1c1.09-1.65,3.08-0.71,4.45-1.55c-0.2,0.52-0.41,1.06-0.61,1.58
						C51.02,58.96,50.49,59.31,49.95,59.66z"/>
					<path class="st5" d="M41.49,67.8c1.41-0.16,1.54-2.18,3.1-2.12c-0.91,1.45-1.81,2.9-2.72,4.35
						C41.27,69.36,41.26,68.6,41.49,67.8z"/>
					<path class="st3" d="M35.86,189.64c-0.97-0.03-1.09,0.61-1.09,1.36c0.01,0.65-0.17,1.19-0.94,1.29
						c-0.17-1.49,0.26-2.91,0.52-4.35c0.78,0.12,1.29,0.56,1.55,1.29C35.95,189.38,35.93,189.51,35.86,189.64z"/>
					<path class="st5" d="M107.17,39.41c-1.38,0.07-3.1,2.18-3.98-0.67C104.59,38.57,105.87,39.05,107.17,39.41z"/>
					<path class="st2" d="M51.56,58.59c0.2-0.52,0.41-1.06,0.61-1.58c0.44-0.5,0.87-1.06,1.64-1.04
						C55.06,58.57,53.09,58.39,51.56,58.59z"/>
					<path class="st4" d="M200.56,234.82c0.12-1.64,1.11-2.5,2.62-2.87C203.5,233.99,202.52,234.85,200.56,234.82z"/>
					<path class="st3" d="M135.8,68.49c0.91,0.36,2.33-0.83,2.77,0.93c-0.14,0.14-0.28,0.27-0.42,0.41
						c-0.94,0.05-1.87,0.11-2.81,0.17C135.5,69.49,135.65,68.98,135.8,68.49z"/>
					<path class="st2" d="M47.27,206.96c0.45-1.28,1.71-1.27,2.69-1.5s1.83,0.14,1.17,1.47C49.83,205.35,48.56,207.26,47.27,206.96z
						"/>
					<path class="st4" d="M203.29,231.59c0.04-1.47,0.64-2.12,2.14-1.51c1.45,0.59-0.17,0.98-0.1,1.47
						C204.66,231.57,203.98,231.58,203.29,231.59z"/>
					<path class="st4" d="M239.19,222.51c0.03-0.62-0.41-1.47,0.49-1.73c0.53-0.16,0.85,0.43,1.08,0.9
						C240.37,222.23,239.85,222.5,239.19,222.51z"/>
					<path class="st5" d="M41.83,71.12c0.75,0.82,0.48,1.34-0.48,1.66C41.08,72.09,41.32,71.56,41.83,71.12z"/>
					<path class="st3" d="M33.19,199.34c0.93,0.44,1.09,1.26,1.03,2.17C33.27,201.08,33.07,200.28,33.19,199.34z"/>
					<path class="st3" d="M33.18,197.18c0.66,0.55,0.64,1.1-0.04,1.62C32.72,198.25,32.85,197.71,33.18,197.18z"/>
					<path class="st5" d="M39.78,101.02c0.64,0.55,0.3,0.87-0.27,1.13C39.26,101.7,39.4,101.33,39.78,101.02z"/>
					<path class="st3" d="M35.3,170.55c0.9,0.1,1.14,0.61,0.92,1.43C35.71,171.63,35.32,171.21,35.3,170.55z"/>
					<path class="st3" d="M33.7,193.37c0.68,0.47,0.52,0.84-0.16,1.12C33.59,194.11,33.65,193.74,33.7,193.37z"/>
					<path class="st3" d="M240.72,178.16c-0.82-0.06-1.09-0.52-0.98-1.29C240.31,177.1,240.63,177.54,240.72,178.16z"/>
					<path class="st3" d="M149.4,113.37c-0.03-0.4-0.06-0.82-0.09-1.22C149.88,112.53,149.8,112.94,149.4,113.37z"/>
					<path class="st3" d="M156.87,123.31c-0.14-0.08-0.28-0.17-0.42-0.25c0.31-0.08,0.61-0.16,0.93-0.25
						c0.18,0.1,0.35,0.2,0.53,0.29C157.55,123.18,157.21,123.25,156.87,123.31z"/>
					<path class="st3" d="M118.91,47.77c-0.54-0.23-0.55-0.66-0.43-1.15C118.62,47.01,118.77,47.39,118.91,47.77z"/>
					<path class="st3" d="M227.69,227.02c0.36,0.01,0.73,0.03,1.1,0.04c-0.23,0.51-0.68,0.47-1.14,0.45
						C227.66,227.35,227.67,227.19,227.69,227.02z"/>
					<path class="st3" d="M228.78,227.07c0.3-0.49,0.73-0.6,1.27-0.45C229.73,227.07,229.26,227.07,228.78,227.07z"/>
					<path class="st5" d="M172.75,137.97c-0.18-0.08-0.36-0.15-0.54-0.23C172.55,137.45,172.65,137.7,172.75,137.97z"/>
					<path class="st5" d="M39.23,115.64c0.37,0.25,0.24,0.43-0.09,0.57C39.17,116.02,39.2,115.83,39.23,115.64z"/>
					<path class="st2" d="M61.22,211.36c0.05,0.18,0.1,0.35,0.15,0.53c-0.09-0.11-0.19-0.22-0.25-0.34
						C61.1,211.52,61.18,211.42,61.22,211.36z"/>
					<path class="st6" d="M136.9,79.53v0.05c0.06,0,0.12,0,0.18,0C137.02,79.57,136.96,79.55,136.9,79.53z"/>
					<path class="st5" d="M223.89,167.88c-0.28,0.38-0.43,0.28-0.51-0.13C223.54,167.79,223.72,167.83,223.89,167.88z"/>
					<path class="st3" d="M91.96,52.1c0.03,0.14,0.08,0.28,0.09,0.42c0,0.04-0.14,0.08-0.22,0.11
						C91.88,52.45,91.92,52.28,91.96,52.1z"/>
					<path class="st3" d="M227.25,227.67c0.07-0.12,0.18-0.16,0.32-0.12l-0.12,0.18L227.25,227.67z"/>
					<polygon class="st3" points="223.5,228.68 223.62,228.57 223.78,228.64 223.65,228.79 					"/>
					<path class="st3" d="M122.97,48.22c-0.22-0.03-0.43-0.07-0.65-0.1C122.53,48.15,122.74,48.18,122.97,48.22z"/>
					<path class="st5" d="M236.67,173.32c-0.17,0.04-0.27-0.03-0.3-0.2l0.22-0.01L236.67,173.32z"/>
					<path class="st2" d="M55.96,73.29c0.77,0.06,1.46-0.14,2.09-0.54c1.25-0.01,2.52-0.11,3.68,0.91c0.35-1.16-0.08-2.48,1.23-2.98
						c3.68-1.4,7.42-2.7,11.02-4.28c1.8-0.79,1.87,1.38,3.03,1.35c1.77-0.05-0.05-2.37,1.94-2.84c4.15-0.99,8.32-0.86,12.49-1.05
						c3.69-0.17,6.98,1.29,10.17,2.96c0,0.23,0.01,0.46,0.01,0.69c-0.2,0.13-0.4,0.26-0.6,0.39c-2.15,0.21-3.86,3.31-3.14,6.01
						c0.44,1.68,1.02,3.36,2.2,4.72c-1.51,0.2-3.02,0.39-4.53,0.59c1.01-1.03,1.32-2.25,1.04-3.65c-0.21-1.48,1.09-3.77-0.83-4.26
						c-1.89-0.47-4.13-2.43-6.2-0.13c-2.96,1.36-4.04,3.45-3.01,6.22c0.81,2.18,2.74,3.21,4.73,4.11c0.1,0.93,0.6,0.92,1.33,0.64
						c1.35-0.51,2.77-0.63,4.22-0.77c3.3-0.31,6.07,1.3,9.05,2.15c1.08,0.31,2.66-1.33,3.22,0.69c0.35,1.28,0.86,2.58,0.65,3.97
						c-0.18,1.24-0.34,2.48-0.5,3.71c-0.04,0.67-0.08,1.35-0.12,2.02c-0.78,0.07-1.42,0.37-1.44,1.23
						c-0.02,1.09,0.88,0.86,1.54,0.94c0.16,0.54,0.31,1.09,0.47,1.63c-0.97-0.5-1.81-0.72-1.37,0.87c0.2,0.73,0.21,1.18-0.63,1.32
						c-0.29-0.94-0.73-1.79-0.75-2.85c-0.06-3.25-1-4.09-4.29-4.3c-2.78-0.18-4.4,1.49-5.46,3.64c-1.08,2.18-0.4,4.16,1.48,5.77
						c2.46,2.11,4.69,1.83,8.69-1.25c2.74,2.41,3.23,4.16,1.32,6.93c-1.16,1.67-1.69,3.87-4.13,4.73c-1.1,0.39-1.73,2.27-2.43,3.55
						c-0.52,0.96-1.2,1.54-2.23,1.77c-2.63,0.57-5.24,1.18-7.67,2.39c-0.57,0.28-1.29,0.41-1.74-0.18
						c-0.42-0.55-0.38-1.31,0.14-1.73c2.02-1.61,1.29-4.73,3.49-6.23c0.22-0.15,0.25-0.59-0.06-0.65c-1.7-0.32-1.73-0.88-0.3-1.71
						c-1.65-1.56-0.28-3.55-0.77-5.36c-1.4-5.25-1.51-10.86-4.52-15.66c-3.2-5.1-8.7-7.29-14.63-6.03
						c-4.16,0.89-7.85,2.99-11.92,4.08c-0.14-0.5-0.29-1.77-0.63-1.22c-0.87,1.42-2.81,1.4-3.55,3.03c0.61-0.07,1.05-0.12,1.48-0.17
						c-0.42,1.68-1.99,1.7-3.21,2.22l-0.04-0.04c-0.07-0.44-0.12-0.92-0.68-0.99c-0.73-0.09-0.88,0.43-0.95,1l0.01-0.01
						c-3.3,0.26-1.9-2.23-2.15-3.72c-0.1-0.58-0.12-1.35,0.68-1.57c0.69-0.19,1.43-0.32,1.91,0.48c1.16,1.93,2.12,0.73,3.18-0.16
						c1.96-1.66,0.68-4.36,2.05-6.25c0.35-0.49-0.74-0.9-1.08-0.6c-1.88,1.69-4.64,0.44-6.51,2.05c-0.88,0.74-1.89,0.1-2.15-0.47
						c-0.59-1.3,0.73-1.01,1.39-1.26c1.28-0.48,3.29-0.67,1.07-2.6c0.79-0.11,1.48,0.15,2.13,0.54c0.2,0.37,0.38,0.38,0.56-0.01
						c0.04-0.08,0.08-0.16,0.12-0.24c-0.04,0.07-0.09,0.15-0.13,0.22c-0.17,0-0.34-0.01-0.51-0.01
						C53.96,75.44,56.79,74.88,55.96,73.29z"/>
					<path class="st2" d="M159.23,164.72c-0.01,0.13-0.02,0.26-0.02,0.39v0.01c-1.33,0.12-2.45-0.32-3.53-1.07
						c-6-4.14-12.09-8.15-18.03-12.37c-2.59-1.83-5.87-1.96-8.4-3.92c-3.28-2.54-7.56-3.12-11.05-5.33
						c-1.15-0.73-1.53-1.31-1.01-2.83c-1.24,2.2-2.91,1.8-4.21,1.01c-1.74-1.07-3.56-1.04-5.38-0.99c-2.72,0.08-4.86-1.87-7.57-1.85
						c-0.8,0.01-1.24-1.1-0.44-1.89c1.61-1.61,3.06-3.48,5.51-3.92c1.6-0.28,2.47-2.04,4.27-1.97c0.69,0.02,1.41-0.41,1.89,0.44
						c0.32,0.58-0.04,2.03,0.69,1.75c1.49-0.57,3.11-0.19,4.46-0.87c0.61-0.31,1.19-0.51,1.75-0.39c1.92,0.38,3.76,1.12,5.19-1.21
						c0.47-0.77,0.95-0.41,1.08,2.12c-0.52,1.64-2.07,2.39-3.12,3.56c-1.66,1.87-1.59,3.46,0.3,5.04c2.92,2.44,6.59,1.24,9-2.96
						c0.3-0.03,0.59-0.05,0.9-0.08c1.1,0.59,2.02-1.75,2.76-0.48c0.78,1.33,1.54,1.33,2.72,1.12c0.46-0.08,0.97,0.23,0.93,0.75
						c-0.12,1.58,1.01,2.05,1.95,2.99c0.84,0.83,2.72,1.01,2.53,2.79c0.02,0.97-0.77,1.37-1.33,1.93c-2.07,2.05-1.9,3.28,0.69,4.96
						c1.34,1.36,3.06,2.39,4.76,1.38c1.66-0.99,3.31-1.61,5.16-1.87c1.84-0.33,1.84,1.63,2.77,2.42c1.33,1.12,3.15,1.26,4.25,2.61
						c0.08,1.05,1.01,2.12-0.14,3.12c-2.07,0.7-1.84,1.91-0.71,3.3C157.99,163.36,158.16,164.32,159.23,164.72z"/>
					<path class="st6" d="M100.35,212.41c1.26-0.94,2.64-0.7,3.83-0.06c8.24,4.47,16.93,7.88,25.97,10.2
						c5.98,1.54,12.14,2.43,18.32,3.09c3.89,0.41,7.79,0.61,11.66,1.7c2.69,0.75,5.74,0.19,8.64,0.26c0.91,0.02,2.35-0.3,1.35,1.5
						c-3.28-0.21-6.39,1.1-9.66,1.02c-14.5-0.32-28.58-2.74-42.21-7.89C111.75,219.78,105.86,216.48,100.35,212.41z"/>
					<path class="st3" d="M52.72,76.57c2.22,1.92,0.21,2.12-1.07,2.6c-0.66,0.25-1.99-0.04-1.39,1.26c0.26,0.57,1.28,1.23,2.15,0.47
						c1.88-1.61,4.64-0.37,6.51-2.05c0.33-0.29,1.43,0.11,1.08,0.6c-1.38,1.89-0.1,4.59-2.05,6.25c-1.06,0.9-2.02,2.08-3.18,0.16
						c-0.48-0.81-1.22-0.67-1.91-0.48c-0.81,0.22-0.78,0.99-0.68,1.57c0.25,1.49-1.15,4,2.15,3.72c0.03,1.26-1.83,1.36-1.65,2.71
						c-1.36,1.37-3.19,2.19-4.36,3.78c-0.35,0.01-0.71,0.01-1.07,0.02l0.01,0.01c-1.54-2.12-1.54-4.82-2.67-7.11
						c-0.15-0.31,0.11-0.86,0.23-1.27c0.11-0.36,1.08-0.1,0.68-0.74c-0.16-0.28-0.82-0.37-1.25-0.37c-1.02,0-1.34,1.14-2.17,1.46
						c-0.6-0.21-1.21-0.42-1.81-0.63c-0.63-0.28-0.6-0.89-0.69-1.43c0.27-0.27,0.55-0.53,0.83-0.81c0.4,0.82,0.48,2.19,1.96,1.13
						c1.2-0.49,1.59-1.6,2.1-2.66c1.8-3.65,4.57-6.37,8.15-8.27L52.72,76.57z"/>
					<path class="st5" d="M116.31,117.8c0.63,1.88,2.18,3.88-0.7,5.28c-2.36,1.1-4.73,2.01-7.41,1.32c1.15-1.99,0.61-3.64-1.03-5.06
						c-0.15-0.23-0.31-0.48-0.57-0.12c-0.02,0.02,0.23,0.23,0.35,0.35c0.36,1.57,0.72,3.13,1.09,4.7c-1.13,0.88-2.21,1.84-3.76,2.13
						c1.05,0,2.09,0,3.37,0c-2.33,1.88-3.95,1.9-6.11,0.14c-1.87-1.52-2.6-3.47-1.69-5.78c0.84-2.14,3.67-3.92,5.61-3.38
						c1.01,0.27,1.69,0.45,2.24-0.55c2.15,1.01,4.26,2.15,6.77,1.13C114.99,117.74,115.69,117.85,116.31,117.8z M105.11,118.43
						c-0.16,0.11-0.27,0.19-0.37,0.27c0.15,0.06,0.3,0.16,0.45,0.16c0.15,0,0.3-0.1,0.44-0.16
						C105.45,118.61,105.27,118.52,105.11,118.43z"/>
					<path class="st6" d="M35.86,189.64c0.07-0.13,0.09-0.26,0.05-0.4c3.08,0.47,5.93,1.7,8.81,2.78c1.29,0.48,2.49,0.81,3.83,0.51
						c0.51,1.26,1.55,1.58,2.78,2.11c5.25,2.27,10.76,3.79,16.13,5.71c1.07,0.38,1.86,1.09,2.16,2.24c-1.37,0.75-2.8,0.54-4.21,0.18
						c-5.77-1.48-11.38-3.38-16.93-5.58c-2.98-1.18-6.01-2.18-8.79-3.83C38.03,192.53,37,191.02,35.86,189.64z"/>
					<path class="st2" d="M67.37,138.49c1.3-0.14,0.53-0.74,0.26-1.22c-0.78-1.33,0.16-2.65,0.74-3.32c0.83-0.96,1.58,0.52,2.3,1.08
						c0.85,0.64,1.75,1.24,2.15,2.31c-1.02-0.49-1.91-0.27-2.74,0.45c-0.06-0.32-0.13-0.65-0.19-0.98
						c-0.59,0.17-0.23,0.68-0.37,1.02c0.17,0.29,0.3,0.62,0.52,0.88c0.89,1.04,1.58-0.95,2.32-0.23c1.3,1.25-1.46,0.76-0.85,1.79
						c0.09,0.15,0.2,0.3,0.33,0.42c2.44,2.22,4.87,4.45,7.67,7.01c-0.55-2.01,1.52-4.4-1.82-5.03c1.33-1.46,1.33-1.46-1.45-4.34
						c3.91,0.66,4.36,3.9,5.8,6.2c-0.84,1.37-0.36,3.51-2.44,4.16c0.09,0.24,0.18,0.49,0.27,0.73c-3.14-0.23-5.99-0.81-7.97-3.76
						c-1.62-2.41-4.49-3.94-5.08-7.11C67,138.52,67.18,138.5,67.37,138.49z"/>
					<path class="st2" d="M141.85,219.38c-4.49-0.19-8.75-1.65-13.13-2.44c-5.29-0.95-10.1-3.35-15.05-5.26
						c-2.1-0.82-3.62-2.81-6.07-3.29c-4.8-0.95-7.74-5.21-12.08-7.04c-0.24-0.1-0.3-0.6-0.45-0.93c3.21,0.45,5.67,2.59,8.47,3.92
						c8.73,4.14,17.29,8.67,26.54,11.59c3.39,1.07,6.94,1.66,10.42,2.41C141.2,218.48,141.74,218.6,141.85,219.38z"/>
					<path class="st3" d="M44.55,116.74c0.23,2.1,1.87,4.16,0.08,6.35c-0.35,0.43,0.12,0.9,1,1.07c1.74,0.35,2.68,1.96,3.67,3.31
						c0.27,0.36,0.42,1.12-0.25,1.37c-0.42,0.16-0.82-0.2-1.13-0.57c-2.04-2.5-4.03-2.45-6.09,0.17c-0.29,0.36-0.44,0.8-1.01,0.64
						c-0.55-0.14-0.51-0.65-0.64-1.07c-1.32-4.2-0.58-8.24,0.95-12.2c0.57-1.48,0.78-2.95,0.7-4.5c-0.05-1.13,0.21-1.85,1.53-1.09
						C43.58,112.45,43.07,114.77,44.55,116.74z"/>
					<path class="st5" d="M107.35,100.95c-4,3.07-6.22,3.35-8.69,1.25c-1.88-1.61-2.56-3.58-1.48-5.77
						c1.07-2.15,2.68-3.83,5.46-3.64c3.29,0.21,4.23,1.06,4.29,4.3c0.02,1.05,0.46,1.91,0.75,2.85
						C107.59,100.27,107.47,100.61,107.35,100.95z M103.62,96.57c2.61,1.31,0.48,3.17,0.32,5.18c2.25-1.45,3.05-3.1,2.2-5.2
						c-0.81-2-2.47-2.82-4.61-2.26c-0.26,0.07-1.59-0.29-0.81,0.91c-0.09,0.5-0.97,0.56-0.71,1.33
						C101.21,96.31,102.42,96.16,103.62,96.57z M103.08,101.8c-0.88-0.35-1.48-0.48-2.1,0.03
						C101.6,102.2,102.17,102.16,103.08,101.8z"/>
					<path class="st6" d="M133.27,105.3c-4.74,2.22-9.48,4.43-14.21,6.67c-1.52,0.72-3.19,1.22-4.45,2.43
						c-1.6,0.57-3.23,0.99-4.94,0.57c2.04-3.52,5.65-4.88,9.09-6.3c3.52-1.45,6.89-3.35,10.7-4.05c0.75-0.22,1.52-0.41,2.26-0.66
						C133.03,103.51,133.29,104.22,133.27,105.3z"/>
					<path class="st5" d="M130.63,137.48c-2.42,4.19-6.08,5.4-9,2.96c-1.89-1.58-1.96-3.17-0.3-5.04c1.05-1.18,2.61-1.92,3.12-3.56
						c0.71,0.27,1.4,0.26,2.05-0.17C128.57,133.1,131.27,134.11,130.63,137.48z M127.7,139.04c-1.63,0.21-3.19,1.16-4.94,0.24
						c1.79,1.37,3.47,1.56,4.93-0.26c0.04-0.06,0.07-0.13,0.11-0.19C127.77,138.9,127.74,138.97,127.7,139.04z"/>
					<path class="st3" d="M180.96,154.35c-1.48,0.68-3.07,0.87-4.67,0.85c-1.4-0.01-2.63,0.32-3.72,1.16
						c-0.28,0.01-0.55,0.03-0.84,0.05c-0.1-0.79,0.82-1.45,0.19-2.5c-1.05,0.95-2.72,0.24-3.68,1.68c-0.3,0.45-1.29-0.14-1.07-0.58
						c0.94-1.9-0.73-1.37-1.61-1.71c1.34-0.4,1.98-1.78,3.38-1.79c1.04,0.36,3.02,1.12,2.93,0c-0.22-2.83,1.76-1.63,2.43-1.44
						c1.94,0.55,3.93,1.13,5.68,2.3C180.74,152.9,181.03,153.49,180.96,154.35z"/>
					<path class="st3" d="M186.97,160.84c0.16-0.19,0.32-0.37,0.48-0.56c0.41,1.47,1.03,0.76,1.68,0.18
						c2.43-2.18,7.29-1.41,9.25,1.47v-0.06c-0.54,0-1,0.14-1.13,0.75c-1.97,1.61-4.42,2.15-6.73,3c1.15-2.62-1.07-0.74-1.56-1.17
						c-0.15-0.38-0.3-0.76-0.45-1.15c-0.04-0.33-0.09-0.73-0.48-0.69c-0.22,0.02-0.39,0.4-0.59,0.62c-0.18,0.08-0.35,0.16-0.53,0.24
						c-1.1,0.37-1.8,1.04-1.74,2.3c-0.61-1.46-1.83-1.25-3.03-1.12c-0.03-0.39-0.06-0.78-0.09-1.17c0.5,0,1.01,0,1.5-0.01
						C185.13,163.17,186.14,162.12,186.97,160.84z"/>
					<path class="st5" d="M168.92,151.51c-1.4,0.01-2.03,1.39-3.38,1.79c0.89,0.33,2.55-0.19,1.61,1.71
						c-0.22,0.44,0.77,1.04,1.07,0.58c0.98-1.44,2.65-0.73,3.68-1.68c0.63,1.06-0.28,1.71-0.19,2.5c-1.09,1.27-2.17,2.55-3.26,3.81
						c-1.09-0.72-2.16-1.44-3.25-2.16l-0.04-0.03c-0.54-0.86-1.42-1.24-2.3-1.61c0.54-1.91,1.37-3.69,2.6-5.26
						c0.95-0.09,1.9-0.18,2.85-0.27C168.51,151.09,168.72,151.3,168.92,151.51z"/>
					<path class="st5" d="M109.7,97.74c-0.16-0.54-0.31-1.09-0.47-1.63c-0.03-0.72-0.06-1.44-0.09-2.16
						c0.04-0.67,0.08-1.35,0.12-2.02c0.34-0.03,0.68-0.05,1.03-0.08c0.3,3.37,2.73,1.33,4.22,1.65c0.57,1.77,1.15,3.54,1.72,5.31
						c-0.77,0.83-2.14,0.77-2.71,1.87C110.85,101.51,110.4,99.45,109.7,97.74z"/>
					<path class="st3" d="M187.91,169.35c-1.13,3.59-2.82,4.92-6.27,4.99c-0.8,0.02-1.59,0.21-2.39,0.29
						c-2.06,0.19-3.17-1.26-2.73-3.54c1,1.01,2.45,1.01,3.61,1.65c1.69,0.92,2.81-0.39,3.56-1.52c1.04-1.56-0.65-1.89-1.55-2.5
						c-1.01-0.67-2.09-1.08-3.33-0.81c-0.02-0.39-0.04-0.78-0.06-1.17c1.14,0.17,2.15-0.31,3.22-0.56
						C183.01,169.01,185.52,169.08,187.91,169.35z"/>
					<path class="st3" d="M130.63,137.48c0.64-3.37-2.05-4.38-4.13-5.83c0.67-1.52,0.87-3.36,2.74-4.09
						c1.28-0.11,1.85-1.85,3.35-1.44c-0.51,1.94,2.38,1.91,2.13,3.7c-0.95-0.01-1.89-0.03-2.84-0.04c-1.39-1.01-2.01,0.39-2.09,1.07
						c-0.17,1.35,0.95,1.71,2.15,1.62c0.07,1.64,1.02,0.91,1.78,0.65c0.47,2.04-2.35,2.4-2.21,4.26
						C131.22,137.42,130.93,137.45,130.63,137.48z"/>
					<path class="st2" d="M70.09,137.77c0.82-0.71,1.72-0.95,2.74-0.45c1.09,0.75,1.76,1.95,2.96,2.61
						c0.41,0.23,1.06,0.89,0.66,1.57c-1.45,2.48,0.68,0.93,1.25,1.14c3.34,0.63,1.27,3.02,1.82,5.03c-2.8-2.56-5.24-4.77-7.67-7.01
						c-0.13-0.12-0.24-0.27-0.33-0.42c-0.61-1.04,2.14-0.54,0.85-1.79c-0.73-0.71-1.43,1.27-2.32,0.23
						c-0.22-0.25-0.35-0.58-0.52-0.88C69.71,137.79,69.9,137.78,70.09,137.77z"/>
					<path class="st3" d="M165.2,158.07c1.09,0.72,2.16,1.44,3.25,2.16c-0.68,0.8,1.65,2.2-0.54,2.69
						c-0.08-0.04-0.17-0.07-0.25-0.11c0.07,0.04,0.15,0.09,0.22,0.13c-0.03,0.16-0.04,0.32-0.04,0.48c-1.15-0.09-2.17,0.34-3.19,0.8
						l0.01-0.16c-2.27-0.55-4.55-1.11-6.82-1.65c-1.12-1.4-1.36-2.61,0.72-3.3c0.64,2.83,1.65,3.62,4.55,3.17
						C165.6,161.87,165.19,159.81,165.2,158.07z"/>
					<path class="st2" d="M183.56,163.49c-0.5,0-1.01,0-1.5,0.01c-1.32-0.76-2.57-1.63-4.19-0.52c-1.57,1.07-1.28-0.97-1.97-1.42
						c-0.72-0.47-0.25-1.49,0.52-1.65c1.84-0.37,3.65-0.94,5.59-0.78c1.48,0.12,0.8,1.69,1.64,2.18
						C183.62,162.03,183.59,162.77,183.56,163.49z"/>
					<path class="st5" d="M187.91,169.35c-2.4-0.27-4.9-0.34-5.93-3.18c0.05-0.5,0.1-1.01,0.16-1.51c1.2-0.13,2.43-0.33,3.03,1.12
						c0.65,0.67,1.3,1.64,1.98,0.02c0.8-0.19,1.48-0.53,1.81-1.34c0.49,0.42,2.71-1.45,1.56,1.16c-0.07,0.08-0.11,0.19-0.1,0.32
						c-0.7,0.98-1.4,1.94-2.1,2.92C188.19,169.03,188.05,169.19,187.91,169.35z"/>
					<path class="st3" d="M109.66,114.98c1.72,0.41,3.34,0,4.94-0.57c1.59,0.61,1.47,2.09,1.7,3.4c-0.62,0.04-1.31-0.06-1.86,0.16
						c-2.52,1.03-4.63-0.12-6.77-1.13C107.45,115.26,108.64,115.21,109.66,114.98z"/>
					<path class="st2" d="M202.34,195.95c-0.79-0.11-1.4-0.33-1.66-0.97c-0.19-0.47,0.15-0.73,0.57-1.03
						c2.04-1.4,4.68-1.35,6.69-2.99c0.73-0.59,2.19,0.51,3,1.35c0.54,0.55,0.03,0.94-0.6,1.04c-1.24,0.19-2.48,0.47-3.72,0.54
						c-1.21,0.06-2.32,0.04-3.04,1.28C203.33,195.56,202.7,195.73,202.34,195.95z"/>
					<path class="st5" d="M128.79,153.69c-0.96-0.04-1.79-0.14-2.72-0.73c-1.75-1.13-3.55-2.24-6.42-2.68
						c1.86-1.38,3-2.55,4.35-1.38c1.7,1.47,5.01,1.44,4.77,4.82L128.79,153.69z"/>
					<path class="st6" d="M133.27,105.3c0.03-1.08-0.23-1.79-1.55-1.33c-0.74,0.26-1.51,0.44-2.26,0.66
						c-0.22-0.85,0.97-0.68,1.01-1.36c-1.19-0.5-2.52,0.28-3.64-0.47c3.55-0.78,7.11-1.15,10.61,0.23
						C135.52,102.82,134.98,105.15,133.27,105.3z"/>
					<path class="st2" d="M117.59,198.24c-1.54,0.09-2.44-0.39-2.38-1.95c0.07-1.79,1.37-2.24,2.77-2.3
						c0.95-0.03,2.21,0.26,1.93,1.62C119.65,196.86,119.74,198.78,117.59,198.24z"/>
					<path class="st5" d="M128.76,153.73c1.07-1.62,2.21-2,3.74-0.46c0.52,0.52,1.41,0.73,2.16,0.97c0.6,0.19,1.38,0.17,1.07,1.11
						c-0.2,0.63-0.79,1.15-1.45,0.99c-2-0.49-4.19-0.67-5.52-2.62C128.79,153.69,128.76,153.73,128.76,153.73z"/>
					<path class="st2" d="M179.3,228.78c1.36,0.34,2.48,0.58,3.57,0.92c0.56,0.17,0.88,0.67,0.65,1.27
						c-0.24,0.65-0.71,1.03-1.46,0.7c-0.9-0.39-1.74-0.87-2.78-0.82c-0.78,0.03-1.91,0.07-1.83-0.99
						C177.54,228.83,178.63,228.73,179.3,228.78z"/>
					<path class="st5" d="M157.84,162.4c2.27,0.55,4.55,1.11,6.82,1.65c-1.74,0.78-3.61,0.49-5.43,0.66
						C158.16,164.32,157.99,163.36,157.84,162.4z"/>
					<path class="st3" d="M55.1,122.13c2.14,1.01,4.65,0.94,7.07,2.31C58.91,125.37,57.08,123.43,55.1,122.13z"/>
					<path class="st2" d="M161.42,166.7c1.92,0.56,3.71,1.35,5.7,2.95c-3.34,0.88-4.39-1.32-5.77-2.88L161.42,166.7z"/>
					<path class="st3" d="M66.73,138.03c-1.53-0.46-1.4-1.96-1.88-3.06c-0.26-0.58-0.33-1.26,0.28-1.72
						c0.18-0.13,0.54-0.15,0.77-0.06c0.67,0.27,1.05,0.92,0.78,1.53c-0.52,1.15,0.27,2.11,0.23,3.17
						C66.9,137.88,66.73,138.03,66.73,138.03z"/>
					<path class="st3" d="M113.51,100.68c0.57-1.11,1.94-1.05,2.72-1.87c0.42,0.17,0.57,0.49,0.54,0.93
						c-0.75,0.72-1.47,1.47-0.98,2.66C114.48,102.56,113.67,102.05,113.51,100.68z"/>
					<path class="st5" d="M79.86,149.39c-0.09-0.24-0.18-0.49-0.27-0.73c2.07-0.64,1.6-2.79,2.44-4.16
						c0.59,1.73,1.33,3.49-1.09,4.49c-0.16,0.12-0.33,0.24-0.5,0.37C80.26,149.37,80.06,149.38,79.86,149.39z"/>
					<path class="st6" d="M183.56,163.49c0.03-0.72,0.06-1.45,0.09-2.17c0.06-0.37,0.12-0.74,0.18-1.12
						c0.67,2.04,2.11,0.31,3.14,0.65C186.14,162.12,185.13,163.17,183.56,163.49z"/>
					<path class="st3" d="M59.22,88.5c-0.43,0.05-0.86,0.1-1.48,0.17c0.73-1.63,2.69-1.61,3.55-3.03c0.33-0.55,0.49,0.71,0.63,1.22
						C61.02,87.4,60.11,87.95,59.22,88.5z"/>
					<path class="st2" d="M164.65,164.22c1.02-0.45,2.04-0.88,3.19-0.8c0.21,1.04-0.19,1.77-1.2,1.99
						C165.7,165.61,164.94,165.23,164.65,164.22z"/>
					<path class="st3" d="M49.43,117.3c1.6,0.34,2.43,1.51,3.4,3.17C50.59,120.14,49.87,118.88,49.43,117.3L49.43,117.3z"/>
					<path class="st2" d="M83.69,194.43c-1.78,0.19-3.23-0.21-3.85-2.13C81.24,192.79,83.06,192.53,83.69,194.43z"/>
					<path class="st2" d="M78.02,124.48c1.42-0.91,2.84-0.69,4.26-0.2C80.86,125.15,79.44,124.56,78.02,124.48z"/>
					<path class="st2" d="M86.72,161.74c1.38,0.09,2.6,0.49,3.71,2.11C88.44,163.77,87.59,162.75,86.72,161.74z"/>
					<path class="st5" d="M72.47,131.88c-1.36-0.56-2.72-1.12-4.52-1.86C70.23,129.61,71.55,130.41,72.47,131.88z"/>
					<path class="st2" d="M52.69,93.38c-0.18-1.35,1.68-1.45,1.65-2.71l-0.01,0.01c0.54,0,1.1,0,1.64,0l0.04,0.04
						C55.33,92.15,54.34,93.17,52.69,93.38z"/>
					<path class="st2" d="M56,183.48c-1.43-0.42-3.05-0.47-3.88-2.04C53.53,181.9,55.28,181.72,56,183.48z"/>
					<path class="st2" d="M146.18,219.47c-0.93,0.73-1.83,0.81-2.72-0.07C144.39,218.67,145.29,218.62,146.18,219.47z"/>
					<path class="st2" d="M90.74,198.24c-1.18,0.08-2.07-0.22-2.2-1.59C89.56,196.8,90.54,196.97,90.74,198.24z"/>
					<path class="st2" d="M95.08,200.43c-1.01-0.37-2.36-0.17-2.75-1.6C93.38,199.14,94.74,198.9,95.08,200.43z"/>
					<path class="st2" d="M151.07,220.01c-0.96,0.74-1.76,0.86-2.22-0.51C149.62,219.5,150.48,219.19,151.07,220.01z"/>
					<path class="st3" d="M48.35,116.21c-0.65-0.08-1.26-0.24-1.41-1c-0.06-0.31,0.14-0.54,0.46-0.46
						C48.16,114.94,48.29,115.57,48.35,116.21C48.36,116.21,48.35,116.21,48.35,116.21z"/>
					<path class="st6" d="M116.94,102.58c0.68-0.57,1.16-0.36,1.48,0.39C117.84,103.14,117.29,103.25,116.94,102.58z"/>
					<path class="st2" d="M85.86,195.52c-0.8,0.04-1.58,0.04-1.66-1.05C85,194.43,85.78,194.42,85.86,195.52z"/>
					<path class="st2" d="M50.55,181.36c-0.81,0.06-1.57,0.07-1.67-1.02C49.67,180.31,50.44,180.28,50.55,181.36z"/>
					<path class="st2" d="M88.04,196.6c-0.8,0.04-1.57,0.04-1.66-1.05C87.16,195.53,87.95,195.5,88.04,196.6z"/>
					<path class="st3" d="M65.4,124.31c0.23-0.37,0.56-0.36,0.88-0.18c0.24,0.14,0.72,0.18,0.51,0.62
						c-0.06,0.13-0.47,0.15-0.71,0.13C65.72,124.88,65.39,124.78,65.4,124.31z"/>
					<path class="st2" d="M85.84,164.02c-0.51-0.07-1.09-0.07-1.23-0.72c-0.02-0.07,0.2-0.27,0.32-0.28
						C85.65,162.97,85.79,163.46,85.84,164.02C85.85,164.02,85.84,164.02,85.84,164.02z"/>
					<path class="st3" d="M73.06,150.41c-0.94-0.19-1.77-0.5-1.88-1.64C71.88,149.23,72.79,149.45,73.06,150.41z"/>
					<path class="st2" d="M79.33,192.27c-0.7,0-1.06-0.36-1.12-1.06C78.94,191.19,79.3,191.55,79.33,192.27z"/>
					<path class="st2" d="M160.81,166.24c-0.53-0.37-1.07-0.74-1.6-1.12v-0.01c0.8-0.02,1.58-0.02,1.66,1.06
						C160.87,166.17,160.81,166.24,160.81,166.24z"/>
					<path class="st2" d="M76.63,191.14c-0.71,0.06-1.08-0.31-1.16-0.99C76.19,190.09,76.56,190.44,76.63,191.14z"/>
					<path class="st3" d="M49.44,117.3c-0.72,0.01-1.11-0.33-1.1-1.08l0.01-0.01C49.09,116.2,49.42,116.59,49.44,117.3
						C49.43,117.3,49.44,117.3,49.44,117.3z"/>
					<path class="st2" d="M47.07,205.47c-0.15,0.06-0.35,0.2-0.45,0.15c-0.11-0.05-0.13-0.29-0.19-0.44
						c0.15-0.06,0.35-0.2,0.45-0.15C46.98,205.07,47.01,205.31,47.07,205.47z"/>
					<path class="st3" d="M76.08,153.1c0-0.39,0.01-0.8,0.01-1.19c0.39,0.32,0.79,0.65,1.17,0.99
						C76.86,152.97,76.47,153.04,76.08,153.1z"/>
					<path class="st3" d="M53.81,120.74c0.1,0.12,0.28,0.23,0.27,0.34c0,0.3-0.23,0.43-0.49,0.31c-0.1-0.05-0.19-0.29-0.16-0.41
						C53.46,120.88,53.68,120.82,53.81,120.74z"/>
					<path class="st3" d="M63.97,124.47c-0.13,0.1-0.25,0.27-0.36,0.26c-0.3-0.01-0.46-0.22-0.34-0.51c0.04-0.1,0.31-0.19,0.43-0.15
						C63.81,124.11,63.87,124.32,63.97,124.47z"/>
					<path class="st2" d="M47.3,180.25c-0.74,0.08-1.09-0.29-1.14-1C46.84,179.24,47.23,179.57,47.3,180.25z"/>
					<path class="st3" d="M75.16,151.5c-0.52,0.07-1,0.04-1.25-0.52C74.43,150.91,74.85,151.07,75.16,151.5z"/>
					<path class="st3" d="M73.89,150.97c-0.23-0.17-0.46-0.35-0.69-0.52C73.42,150.62,73.66,150.79,73.89,150.97z"/>
					<path class="st2" d="M80.45,149.36c0.17-0.12,0.33-0.24,0.5-0.37C80.78,149.12,80.62,149.24,80.45,149.36z"/>
					<path class="st3" d="M67.37,138.49c-0.19,0.01-0.37,0.02-0.56,0.04c-0.02-0.16-0.04-0.33-0.08-0.49l0.16-0.14
						C67.06,138.08,67.21,138.29,67.37,138.49z"/>
					<path class="st2" d="M161.35,166.77c-0.18-0.18-0.35-0.36-0.53-0.53l0.06-0.06c0.18,0.18,0.36,0.36,0.53,0.53
						C161.42,166.7,161.35,166.77,161.35,166.77z"/>
					<path class="st4" d="M188.33,168.87c0.7-0.98,1.4-1.94,2.09-2.91c0.28,2.41,1.67,2.94,4.36,1.72c3.29-1.48,6.49-3.16,9.95-4.27
						c0.91-0.29,1.95-0.5,2.3-1.63c0.71,0.09,1.42,0.17,2.13,0.26c0.19,0.66,0.39,1.32,0.58,1.98c-3.96-0.1-7.66,0.49-10.39,3.77
						c-2.2,0.52-4.19,1.48-5.33,3.52c-0.45,0.81-0.87,0.69-1.48,0.43c-0.97-0.4-1.93-0.81-2.91-1.21l-0.01-0.01
						C189.69,169.6,189.45,168.89,188.33,168.87z"/>
					<path class="st5" d="M178.83,167.9c1.24-0.27,2.33,0.13,3.33,0.81c0.9,0.6,2.59,0.94,1.55,2.5c-0.75,1.14-1.87,2.44-3.56,1.52
						c-1.18-0.63-2.63-0.64-3.61-1.65C176.47,169.42,177.66,168.66,178.83,167.9z"/>
					<path class="st3" d="M208.08,172.64c-0.45-1.29-1.24-0.13-2.54,0.08c1.59-1.6,1.57-3.67,3.25-4.18
						c1.27-0.38,1.13,1.59,2.08,2.04C209.96,171.27,209.02,171.96,208.08,172.64z"/>
					<path class="st5" d="M202.25,176.57c-1.13,1-1.85,0.19-2.67-0.66c2,0.6,1.99-4.32,4.72-1.57
						C203.49,174.96,201.89,174.87,202.25,176.57z"/>
					<path class="st5" d="M208.08,172.64c0.94-0.68,1.86-1.37,2.8-2.05c0.34,0.02,0.67,0.04,1.02,0.07
						c0.03,0.74-0.73,0.86-1.06,1.32c-1.14,0.28-1.76,1.3-2.7,1.87c-0.35-0.02-0.69-0.05-1.05-0.07
						C207.43,173.4,207.76,173.02,208.08,172.64z"/>
					<path class="st3" d="M162.57,186.06c1.22-0.25,2.3,0.62,3.39,0.05C164.14,187.8,164.11,187.8,162.57,186.06z"/>
					<path class="st3" d="M202.25,176.57c-0.35-1.7,1.24-1.61,2.05-2.23C204.54,175.92,203.95,176.75,202.25,176.57z"/>
					<path class="st3" d="M207.11,173.78c0.35,0.02,0.69,0.05,1.05,0.07c-0.15,0.62,0.28,1.43-0.5,1.85
						c-0.15,0.08-0.52-0.05-0.67-0.2C206.38,174.9,206.36,174.3,207.11,173.78z"/>
					<path class="st3" d="M159.33,186.45c0.07-0.42,0.37-0.6,0.75-0.56c0.65,0.08,0.93,0.59,0.87,1.14
						c-0.04,0.38-0.52,0.37-0.88,0.32C159.57,187.27,159.26,187,159.33,186.45z"/>
					<path class="st4" d="M189.65,170.55c-0.04,0.07-0.09,0.15-0.13,0.22c0.04-0.08,0.08-0.16,0.12-0.24
						C189.64,170.54,189.65,170.55,189.65,170.55z"/>
					<path class="st3" d="M65.74,149.96c-0.05-1.35-2.14-1.68-1.65-3.3l0.04-0.04c2.19-0.06,2.57,2.81,3.73,2.97
						c1.96,0.27,3.18,1.35,3.55,2.64c0.34,1.18,1.38,0.62,1.63,1.34c-1.32,1.18-2.65,1.2-4.01,0.1
						C68,152.39,67.19,150.89,65.74,149.96z"/>
					<path class="st4" d="M65.74,149.96c1.44,0.93,2.25,2.43,3.3,3.71C66.64,153.87,65.81,152.94,65.74,149.96z"/>
					<path class="st3" d="M49.16,130.19c2.2-0.38,2.17,1.69,3.55,2.71C50.15,133.34,50.77,130.42,49.16,130.19z"/>
					<path class="st3" d="M54.61,134.82c-0.86,0.67-1.49,0.52-2.3-0.4C53.27,134.01,53.92,134.04,54.61,134.82z"/>
					<path class="st3" d="M64.09,146.66c-0.49-0.07-1.19,0.18-1.35-0.52c-0.13-0.57,0.46-0.8,0.87-0.76
						c0.85,0.06,0.38,0.82,0.53,1.25C64.13,146.62,64.09,146.66,64.09,146.66z"/>
					<path class="st3" d="M47.26,97.19c-0.05,0.34-0.04,0.74-0.5,0.82c-0.09,0.01-0.31-0.21-0.3-0.3
						C46.53,97.24,46.93,97.26,47.26,97.19C47.27,97.2,47.26,97.19,47.26,97.19z"/>
					<path class="st3" d="M101.64,66.82c-3.19-1.67-6.46-3.13-10.17-2.96c-4.17,0.19-8.34,0.06-12.49,1.05
						c-1.99,0.47-0.17,2.79-1.94,2.84c-1.16,0.03-1.24-2.13-3.03-1.35c-3.6,1.58-7.34,2.88-11.02,4.28
						c-1.32,0.5-0.89,1.81-1.23,2.98c-1.17-1.02-2.44-0.93-3.68-0.91c0.43-0.45,0.78-1.08,1.31-1.34c6.9-3.43,13.86-6.71,21.56-7.98
						c4.35-0.53,8.72-0.82,13.1-0.49C96.86,63.63,100.39,63,101.64,66.82z"/>
					<path class="st3" d="M54.86,77.11c-0.65-0.39-1.35-0.65-2.13-0.54c0,0-0.09-0.09-0.08-0.09c0.19-1.4,1.41-1.81,2.42-2.44
						c-0.39-0.85-0.97-1.29-1.85-1.28c-1.06,0.04-2.03-0.1-2.67-1.1c0.17-0.2,0.33-0.4,0.5-0.61c0.78,0.07,1.1-0.33,1.12-1.06
						c1.75,0.53,2.21,2.57,3.8,3.28c0.84,1.6-1.99,2.16-1.07,3.78C54.89,77.07,54.86,77.11,54.86,77.11z"/>
					<path class="st4" d="M101.64,66.82c-1.25-3.81-4.77-3.19-7.61-3.89c0.11-0.33,0.13-0.9,0.33-0.97
						c2.48-0.92,3.05-1.56,0.15-3.01c-1.4-0.69-2.48-2.5-0.91-4.39c0.73-0.89,1.41-1.86,1.55-3.08c1.01-0.31,1.15-2.05,2.62-1.58
						c0.19,0.39,0.44,0.75,0.55,1.17c0.2,0.7-0.34,1.89,0.84,1.97c1.12,0.07,1.73-0.84,1.87-1.94c0.07-0.53,0.03-1.09,0.04-1.63
						c0.36,0,0.71-0.01,1.08-0.01c1.07,2.27,2.13,4.55,3.2,6.82c0.56,1.21,1.68,1.47,2.83,1.83c1.37,0.44,3.04,0.47,3.75,2.12
						c-2.22-0.43-4.35,0.31-6.51,0.56c-0.46,0.14-1.36,0.32-0.57,0.88c0.74,0.52,1.03,1.07,1.27,1.85c1.23,4,4.87,5.94,7.51,8.75
						c-0.19,0.14-0.37,0.29-0.56,0.43c-0.21,0.01-0.43,0.02-0.64,0.03c-0.86-0.19-1.72-0.38-2.58-0.58
						c-2.04-4.25-3.9-5.29-8.19-4.63C101.64,67.28,101.64,67.05,101.64,66.82z"/>
					<path class="st4" d="M94.59,50.86c0.18,0.22,0.35,0.44,0.53,0.67C94.94,51.31,94.76,51.08,94.59,50.86z"/>
					<path class="st5" d="M216.27,168.36c-0.03,0.06-0.07,0.12-0.1,0.18c0.04-0.06,0.08-0.11,0.11-0.17
						C216.29,168.37,216.27,168.36,216.27,168.36z"/>
					<path class="st3" d="M105.41,60.79c2.16-0.24,4.29-1,6.51-0.56c1.34-0.08,2.63-0.37,3.8-1.04c1.64-0.2,2.12-1.54,2.71-2.78
						c0.36,0.02,0.72,0.04,1.08,0.05c-0.25,2.52,0.44,4.8,1.62,7c0.63,1.19,1.34,2.38,1.1,3.81c-0.67-0.82-1.52-1.07-2.6-1.1
						c-2.77-0.07-5.44,0.28-8.09,1.44c-0.19-2,0.14-4.06-0.66-5.44c-1-1.71-3.39-0.43-5.07-1.04
						C105.66,61.09,105.54,60.91,105.41,60.79z"/>
					<path class="st3" d="M102.15,49.45c-0.36,0-0.71,0.01-1.08,0.01c-0.86-0.33-0.43-1.13-0.61-1.7c1.1-1.66,2.19-3.33,3.3-4.99
						c4.19-2.93,7.73-1.27,10.31,4.97C110.05,48.25,106.01,48.3,102.15,49.45z"/>
					<path class="st3" d="M103.76,42.77c-1.1,1.66-2.19,3.33-3.3,4.99c-0.57-0.02-1.19,0.07-1.56-0.52c0.64-1.9,0.53-4.3,3.15-4.95
						C102.63,42.4,103.3,42.21,103.76,42.77z"/>
					<path class="st3" d="M106.19,52.91c2.41,0,4.81,0,7.83,0C111.04,53.36,108.67,54.18,106.19,52.91z"/>
					<path class="st4" d="M151.1,120.91c0.84,0.77,0.59,2.55,2.33,2.47l0.03,0.01c0.27,0.99,1.08,1.19,1.93,1.31
						c0.18,0.06,0.36,0.13,0.54,0.19h-0.01c-0.75,1.67-1.52,3.33-2.27,5c-0.31-0.02-0.63-0.05-0.95-0.07
						c-0.15-0.18-0.3-0.36-0.46-0.55c-0.1-0.99-0.74-1.68-1.49-2.14c-2.88-1.82-4.97-5.14-9.01-4.82c0.02-0.51,0.04-1.04,0.07-1.55
						C144.92,119.62,148,120.98,151.1,120.91z"/>
					<path class="st2" d="M135.32,124.86c1.43-1.08,3.02-1.83,4.77-2.23l0.14,0.15c-0.01,0.18-0.01,0.37-0.02,0.55
						c-0.71,0.85-2,1.09-2.59,2.35c0.69,0.21,1.52,0.22,1.78,0.6c0.89,1.28,1.5,2.8,3.52,2.05c0.22,1.04,1.67,1.14,1.71,2.26
						c0,0.07-0.79,0.16-1.21,0.24c-0.18-0.29-0.35-0.26-0.52,0.01c-0.36,0-0.71,0.01-1.08,0.01c-0.21-1.35-1.29-0.96-2.12-1.08
						c-3.32-0.49-3.59-0.91-3.23-4.3C136.57,124.57,135.72,125.06,135.32,124.86z"/>
					<path class="st4" d="M135.32,124.86c0.4,0.2,1.26-0.28,1.17,0.63c-0.36,3.4-0.09,3.81,3.23,4.3c0.84,0.12,1.92-0.27,2.12,1.08
						c-0.34,0.13-0.69,0.25-1.04,0.38c-0.81-0.08-1.61-0.16-2.41-0.24c-0.25,0-0.5,0-0.74,0c-0.42,0.08-0.86,0.16-1.28,0.23
						c0.07-0.83,0.01-1.54-1.12-1.39c-0.17-0.01-0.34-0.02-0.51-0.02c0.24-1.78-2.65-1.76-2.13-3.7
						C133.36,125.42,134.29,125.04,135.32,124.86z"/>
					<path class="st2" d="M141.81,120.75c-0.02,0.51-0.04,1.04-0.06,1.55c-0.3,0.16-0.61,0.31-0.92,0.47c-0.19,0-0.39,0-0.58,0
						l-0.14-0.15C140.98,122.29,139.74,120.01,141.81,120.75z"/>
					<path class="st4" d="M122.23,67.28c0.24-1.45-0.46-2.63-1.1-3.81c-1.17-2.19-1.86-4.48-1.62-7c0.34-0.88-0.71-2.52,0.98-2.56
						c1.26-0.03,1.52,1.21,1.4,2.42c-0.05,0.5,0.31,1.03,0.32,1.55c0.02,2.65,1.21,3.95,3.95,3.55c-0.04,1.01-1.01,1.46-1.38,2.26
						c-0.97,2.06-1.6,4.14,0.17,6.16c1.36-0.44,0.98-2.18,2.16-2.66c1.44,1.91,2.44,4.02,3.07,6.32c0.06,0.23,0.59,0.34,0.9,0.51
						c-2.11,3.97-5.17,5.26-9.55,4.76c-4.09-0.47-8.25-0.1-12.35-0.79c0.01-0.29,0.03-0.59,0.04-0.89c0.35-0.04,0.7-0.07,1.07-0.11
						c4.25,1.73,8.64,0.46,12.95,0.6c0.75,0.02,1.17-0.41,1.11-1.19c-0.07-0.85-0.72-0.95-1.38-0.94c-2.34,0.02-4.61,0.38-6.82,1.12
						c-1.11,0.36-2.36,1.3-3.13-0.51c1.69,0.38,3.07-0.48,4.5-1.13c1.34,0.86,1.51,0.06,1.46-1.04c0.73,0.55,1.64,0.54,2.45,0.51
						c1-0.04,2.31,0.64,2.94-0.42c0.68-1.16-0.31-2.13-1-3.04C123.28,69.65,122.74,68.47,122.23,67.28z"/>
					<path class="st4" d="M110.28,91.84c-0.34,0.03-0.68,0.05-1.03,0.08c0.17-1.24,0.33-2.48,0.5-3.71c0.2-1.39-0.3-2.69-0.65-3.97
						c-0.55-2.01-2.13-0.38-3.22-0.69c-2.97-0.86-5.75-2.47-9.05-2.15c-1.45,0.14-2.86,0.25-4.22,0.77
						c-0.72,0.28-1.23,0.28-1.33-0.64c1.62-0.38,2.91-1.42,4.28-2.28c1.51-0.2,3.02-0.39,4.53-0.59c0.49,0.02,1,0.04,1.49,0.06
						c0.21,0.2,0.42,0.39,0.63,0.59c0.03,0.14,0.02,0.28-0.03,0.42c0.18,0.19,0.37,0.38,0.55,0.57c1.09,0.39,2.16,0.79,3.25,1.18
						c3.01,0.73,6.06,1.16,9.17,1.01c0.74-0.04,1.67,0.35,2.14-0.65c0.57-0.23,1.14-0.24,1.71,0c0.3,1.12,2.04,0.17,2.17,1.52
						c-2.01,0.9-4.24,1.5-5.99,2.76c-1.7,1.23-4.12,2.24-3.88,5.08C110.89,91.24,110.46,91.35,110.28,91.84z"/>
					<path class="st2" d="M131.08,74.02c-0.31-0.17-0.84-0.28-0.9-0.51c-0.62-2.31-1.63-4.42-3.07-6.32
						c0.03-0.64,0.38-1.11,0.8-1.56c0.13-0.09,0.23-0.2,0.32-0.33l0.17-0.17c0.13-0.16,0.26-0.32,0.39-0.48
						c1.62-1.93,3.63-2.98,6.21-2.76c0.47,2.17,0.07,4.46,0.81,6.59c-0.15,0.5-0.3,1.01-0.45,1.5c-0.85,0.81-0.59,2.52-2.2,2.7
						c-0.18-0.81,0.51-2.14-0.6-2.33c-1.24-0.19-0.93,1.25-1.17,2.03c-0.16,0.5-0.2,1.04-0.29,1.56L131.08,74.02z"/>
					<path class="st2" d="M102.24,79.3c-0.21-0.2-0.42-0.39-0.63-0.59c0.09-0.42,0.12-1.02,0.7-0.93c3.28,0.52,2.91-1.35,2.28-3.42
						c-0.15-0.5-0.24-1.02-0.36-1.53c0.08-0.88,0.16-1.74,0.25-2.62c1.65,0.22,2.33,1.6,3.22,2.72c0.07,1.55,1,2.79,1.53,4.18
						c-0.01,0.3-0.03,0.59-0.04,0.89C106.82,78.18,104.43,78.23,102.24,79.3z"/>
					<path class="st6" d="M121.2,83.35c-0.14-1.35-1.88-0.4-2.17-1.52c2.39-0.54,4.67,0.27,7,0.54c0.05,0.23,0.09,0.46,0.14,0.69
						c-0.11,0.74-0.45,1.34-1.18,1.65c-0.15-0.03-0.31-0.05-0.46-0.06C124.12,82.41,122.27,83.86,121.2,83.35z"/>
					<path class="st6" d="M117.31,81.83c-0.47,1.01-1.4,0.61-2.14,0.65c-3.1,0.15-6.16-0.27-9.17-1.01
						C109.77,81.71,113.55,81.27,117.31,81.83z"/>
					<path class="st4" d="M131.07,73.94c0.09-0.52,0.13-1.06,0.29-1.56c0.25-0.78-0.07-2.22,1.17-2.03c1.11,0.17,0.42,1.52,0.6,2.33
						C132.43,73.07,132.08,74.03,131.07,73.94z"/>
					<path class="st6" d="M140.96,88.04c-0.14,0.16-0.27,0.33-0.41,0.49c-1.42-0.4-2.94-0.69-3.06-2.61
						C138.95,86.13,139.95,87.09,140.96,88.04z"/>
					<path class="st6" d="M134.42,84.54c-1.01,0.14-1.83-0.13-2.36-1.06C133.19,83.08,133.89,83.65,134.42,84.54z"/>
					<path class="st6" d="M126.17,83.06c-0.05-0.23-0.09-0.46-0.14-0.69c0.58-0.33,1.15-0.44,1.62,0.2
						C127.29,83.16,126.7,83.04,126.17,83.06z"/>
					<path class="st2" d="M102.75,80.29c-0.18-0.19-0.37-0.38-0.55-0.57C102.39,79.9,102.57,80.09,102.75,80.29z"/>
					<path class="st2" d="M124.52,84.65c0.15,0.01,0.31,0.03,0.46,0.06c3.86-0.18,4.28,2.71,4.86,5.45
						c-0.91-0.03-1.47-1.32-2.79-0.2c-1.52,1.29-2.97,2.3-2.34,4.51c0.66,2.31,1.06,4.93,4.58,4.38c1.23-0.19,2.51-0.05,3.76-0.06
						c0.02,0.19,0.04,0.37,0.05,0.56c-3.99-0.12-7.94,0.82-11.94,0.45c-0.18-1.08-1.58-1.5-1.46-2.76c0.28-3.11,0.99-6.08,2.41-8.91
						c0.6-1.2,2.43-1.46,2.21-3.14C124.34,84.85,124.41,84.73,124.52,84.65z M123.62,98.86c-0.14,0.08-0.27,0.17-0.4,0.25
						c0.14,0.07,0.27,0.2,0.41,0.2c0.13,0,0.27-0.14,0.4-0.22C123.89,99.02,123.76,98.94,123.62,98.86z"/>
					<path class="st3" d="M133.06,98.77c-1.26,0.01-2.54-0.13-3.76,0.06c-3.51,0.55-3.92-2.06-4.58-4.38
						c-0.63-2.2,0.82-3.22,2.34-4.51c1.32-1.12,1.88,0.17,2.79,0.2C130.92,93.03,131.98,95.9,133.06,98.77z"/>
					<path class="st3" d="M122.7,52.04c-1.11,0.04-1.5-0.35-1.5-1.13c0-0.62-0.09-1.41,0.83-1.4c0.87,0,1.63,0.6,1.87,1.3
						C124.02,51.12,123.16,51.93,122.7,52.04z"/>
					<path class="st4" d="M127.19,60.34c-0.35,0.35-0.7,0.71-1.06,1.07c-0.02-0.43-0.07-0.88-0.05-1.32
						c0.02-0.49-0.09-1.27,0.65-1.14C127.28,59.05,127.12,59.82,127.19,60.34z"/>
					<path class="st4" d="M131.52,137.4c-0.13-1.87,2.68-2.21,2.2-4.27c0.5-0.41,1.01-0.83,1.5-1.24l0.1,0.08
						c-0.19,1.35,0.55,1.58,1.73,1.73c4.05,0.53,8.07,0.16,12.11,0.07c0.7-0.02,1.41,0,2.45,0c-1.18,2.22-3.29,3.7-3.23,6.22
						c-0.22,1.01-1.68,1.04-1.71,2.19v0.09c-0.12,0.2-0.24,0.41-0.37,0.61c-0.25,0.51-0.5,1.04-0.75,1.55
						c-0.43,0-0.82,0.11-1.03,0.54c-0.69-0.27-1.36-0.64-2.14-0.44c0.2-1.78-1.69-1.96-2.53-2.79c-0.95-0.94-2.06-1.41-1.95-2.99
						c0.04-0.52-0.46-0.84-0.93-0.75c-1.18,0.21-1.94,0.22-2.72-1.12C133.55,135.65,132.62,137.99,131.52,137.4z"/>
					<path class="st2" d="M146.68,142.2c0.03-1.15,1.49-1.19,1.71-2.19c1.14,0.51,2.07-0.21,3.08-0.51c1.03,0.25,1.52-0.69,2.3-1.01
						c2.91,1.85,6.23,0.25,9.25,1.09c2.05,0.82,3.65,2.02,3.83,4.45c0.03,0.17-0.02,0.31-0.14,0.43c-1.06,0.2-2.26-0.42-3.17,0.58
						c-2.89,0.55-5.77-1.34-8.65-0.01c0,0-0.13-0.12-0.12-0.12c0.26-1.93-2.24-1.83-2.28-1.8
						C150.18,144.9,148.51,143.04,146.68,142.2z"/>
					<path class="st3" d="M140.82,122.77c0.31-0.16,0.61-0.32,0.92-0.47c4.03-0.32,6.12,2.99,9.01,4.82
						c0.74,0.47,1.39,1.16,1.49,2.14c-1.29,0.24-2.58,0.47-3.87,0.71c1.48,0.11,2.99,0.94,4.33-0.16c0.31,0.02,0.63,0.05,0.95,0.07
						c0,1.1-0.77,1.32-1.62,1.32c-3.74,0.03-7.48,0.03-11.22,0.04c0.34-0.13,0.69-0.25,1.04-0.38c0.36,0,0.71-0.01,1.08-0.01
						l0.26,0.01l0.26-0.03c0.42-0.08,1.22-0.17,1.21-0.24c-0.04-1.13-1.49-1.23-1.71-2.26c-2.02,0.74-2.65-0.77-3.52-2.05
						c-0.26-0.38-1.09-0.38-1.78-0.6c0.58-1.27,1.87-1.5,2.59-2.36C140.41,123.15,140.61,122.96,140.82,122.77z"/>
					<path class="st4" d="M166.85,144.02c-0.17-2.43-1.77-3.63-3.83-4.45c-2.59-3.84-7.33-4.39-9.25-1.09
						c-0.78,0.31-1.27,1.26-2.3,1.01c0.59-1.76,2.47-2.79,2.65-4.84c0.08-0.96,1.16-0.48,1.8-0.55c2.64-0.26,5.02,1.15,7.62,1.19
						c-0.02,0.8,0.04,1.54,1.12,1.56c0.17,0.19,0.35,0.38,0.52,0.57c0.1,1.12,0.67,1.66,1.82,1.5c0.47,0,0.94,0,1.41,0
						C168.54,140.81,168.29,142.6,166.85,144.02z"/>
					<path class="st3" d="M135.25,129.85c1.13-0.14,1.19,0.56,1.12,1.39c-0.18,0.46-0.49,0.75-1.03,0.73l-0.1-0.08
						C135.24,131.22,135.24,130.53,135.25,129.85z"/>
					<path class="st2" d="M164.67,136.84c-1.08-0.02-1.14-0.75-1.12-1.56c0.17-0.07,0.34-0.14,0.51-0.22
						C165.31,135.31,164.73,136.16,164.67,136.84z"/>
					<path class="st3" d="M137.64,131.01c0.25,0,0.5,0,0.74,0C138.14,131.01,137.89,131.01,137.64,131.01z"/>
					<path class="st4" d="M53.2,72.77c0.89-0.01,1.46,0.43,1.85,1.28c-1,0.62-2.22,1.04-2.42,2.44c-3.58,1.91-6.36,4.62-8.16,8.27
						c-0.51,1.05-0.91,2.16-2.1,2.66c-0.41-0.52-1.15-1-0.45-1.76c1.81-1.99,2.48-4.43,2.76-7.02c2.07,0.42,3.74-0.06,4.75-2.07
						l0.07-0.06C51.21,75.73,52.33,74.38,53.2,72.77z"/>
					<path class="st5" d="M53.2,72.77c-0.86,1.61-1.99,2.96-3.7,3.73c-0.06-0.22-0.11-0.44-0.17-0.66c-0.1,0.06-0.2,0.12-0.29,0.18
						c0.13,0.18,0.26,0.35,0.4,0.53c-1.01,2.01-2.68,2.5-4.75,2.07c-0.08-0.52-0.15-1.05-0.23-1.57c2.03-1.8,4.06-3.59,6.09-5.4
						C51.17,72.66,52.14,72.81,53.2,72.77z"/>
					<path class="st4" d="M50.53,71.67c-2.03,1.8-4.06,3.59-6.09,5.4c-1.88-0.69-0.45-1.8,0-2.13c1.74-1.27,3.11-2.91,4.71-4.31
						c0.74-0.65,1.59-1.09,1.88,0.44C50.87,71.27,50.7,71.47,50.53,71.67z"/>
					<path class="st3" d="M40.23,77.05c0.35-0.17,0.71-0.33,1.07-0.5c1.1,2.87,0.43,5.56-0.86,8.18c-0.08-1.14-0.16-2.28-0.25-3.42
						C40.21,79.89,40.22,78.47,40.23,77.05z"/>
					<path class="st5" d="M40.2,81.31c0.08,1.14,0.16,2.28,0.25,3.42c-0.01,0.52-0.03,1.04-0.04,1.56
						c-0.27,0.27-0.55,0.54-0.83,0.81C38.58,85.04,38.72,83.1,40.2,81.31z"/>
					<path class="st4" d="M124.34,84.98c0.2,1.68-1.62,1.94-2.21,3.14c-1.42,2.84-2.12,5.8-2.41,8.91
						c-0.11,1.26,1.28,1.67,1.46,2.76c-1.47-0.02-2.94-0.03-4.41-0.05c0.02-0.43-0.13-0.75-0.54-0.93
						c-0.57-1.77-1.15-3.54-1.72-5.31c0.98-0.95,0.82-1.7-0.39-2.27C116.96,88.22,120.76,86.79,124.34,84.98z"/>
					<path class="st4" d="M168.92,151.51c-0.2-0.21-0.39-0.42-0.59-0.63c0.12-0.81,0.28-1.58,1.04-2.07c0.9-0.07,1.79-0.14,2.7-0.21
						c1.92,0.21,3.94-0.09,5.72,0.95c0.66,0.64,1.1-0.1,1.62-0.28c2.14,1.22,4.12,3.14,6.93,1.72c-0.04,3.91-2.96,3.22-5.36,3.36
						c0.07-0.88-0.21-1.46-1.01-1.99c-1.75-1.17-3.73-1.73-5.68-2.3c-0.65-0.19-2.64-1.39-2.43,1.44
						C171.94,152.63,169.95,151.87,168.92,151.51z"/>
					<path class="st4" d="M198.38,161.93c-1.96-2.88-6.82-3.66-9.25-1.47c-0.64,0.58-1.27,1.3-1.68-0.18
						c-0.26-2.64,0.83-3.73,3.52-3.23c1.74,0.32,3.56,0.28,5.28,0.67c1.16,0.26,2.09,0.04,3.08-0.42c0.44,2.07,2.26,2.35,3.85,2.94
						C201.94,161.82,199.93,161.21,198.38,161.93z"/>
					<path class="st2" d="M40.2,81.31c-1.48,1.79-1.62,3.72-0.62,5.79c0.09,0.54,0.05,1.15,0.69,1.43
						c-0.13,1.01,0.27,2.11-0.72,3.36c-2.21-4.58-2.69-8.87-0.59-13.3c0.17-0.36,1.07-1.51,1.29-1.54
						C40.22,78.47,40.21,79.89,40.2,81.31z"/>
					<path class="st4" d="M128.23,65.3c-0.09,0.13-0.19,0.24-0.32,0.33C128.02,65.52,128.13,65.41,128.23,65.3z"/>
					<path class="st4" d="M128.78,64.64c-0.13,0.16-0.26,0.32-0.39,0.48C128.53,64.97,128.66,64.8,128.78,64.64z"/>
					<path class="st6" d="M169.36,148.81c-0.75,0.48-0.92,1.27-1.04,2.07c-0.95,0.09-1.9,0.18-2.85,0.27
						c0.64-2.74-0.38-3.73-3.18-3.42c-2.14,0.24-4.27-0.32-6.38-0.82c-1.28-0.3-1.15-1.02-1.02-1.89c2.89-1.33,5.77,0.56,8.65,0.01
						c1.15,0.3,2.41,1.22,3.17-0.58c0.12-0.12,0.16-0.26,0.14-0.43c1.44-1.42,1.69-3.21,1.58-5.11c0.39-0.35,0.78-0.7,1.17-1.07
						c1.29,0.52,1.33,2.03,2.24,2.85c-0.26,0.95-0.43,1.93-0.81,2.84c-0.8,1.92-0.14,2.49,1.84,2.6c2.4,0.13,4.78,0.64,7.17,1
						c-0.21,0.66-0.41,1.34-0.62,2c-0.59-0.07-1.21-0.18-1.64,0.41c-1.79-1.04-3.79-0.73-5.72-0.95
						C171.12,148.29,170.12,147.05,169.36,148.81z"/>
					<path class="st4" d="M180.03,147.13c-2.39-0.35-4.76-0.87-7.17-1c-1.98-0.1-2.64-0.67-1.84-2.6c0.37-0.91,0.54-1.89,0.81-2.84
						c3,1.53,5.1,4.46,8.49,5.4C180.22,146.44,180.13,146.79,180.03,147.13z"/>
					<path class="st6" d="M177.76,149.55c0.43-0.59,1.04-0.48,1.64-0.41l-0.02,0.14C178.86,149.45,178.44,150.18,177.76,149.55z"/>
					<path class="st5" d="M137.24,62.91c-0.15-0.08-0.29-0.16-0.44-0.24c0.16-0.08,0.31-0.21,0.47-0.21c0.15,0,0.29,0.15,0.44,0.24
						C137.55,62.77,137.4,62.84,137.24,62.91z"/>
					<path class="st5" d="M139.26,62.85c-0.1,0.24-0.19,0.47-0.29,0.71c-0.09-0.07-0.18-0.15-0.27-0.22
						c0.17-0.19,0.33-0.37,0.5-0.56C139.2,62.79,139.26,62.85,139.26,62.85z"/>
					<path class="st2" d="M98.9,47.23c0.37,0.6,0.99,0.5,1.56,0.52c0.18,0.57-0.25,1.37,0.61,1.7c-0.01,0.54,0.03,1.09-0.04,1.63
						c-0.14,1.1-0.74,2-1.87,1.94c-1.18-0.07-0.63-1.26-0.84-1.97c-0.12-0.41-0.37-0.79-0.55-1.17c0.29-1.16-0.35-1.81-1.32-2.34
						C97.26,47.07,98.02,46.8,98.9,47.23z"/>
					<path class="st3" d="M155.92,124.89c-0.18-0.07-0.36-0.13-0.54-0.19c0.2-0.08,0.41-0.16,0.61-0.24
						C155.98,124.6,155.95,124.74,155.92,124.89z"/>
					<path class="st2" d="M167.01,138.92c-1.15,0.15-1.72-0.38-1.82-1.5C166.25,137.37,166.7,138.05,167.01,138.92z"/>
					<polygon class="st3" points="153.45,123.38 153.42,123.37 153.49,123.15 					"/>
					<path class="st6" d="M198.38,161.93c1.54-0.72,3.56-0.11,4.8-1.69c0.56,0.04,1.05-0.09,1.34-0.62
						c1.63-0.19,2.92,0.01,2.52,2.16c-0.35,1.13-1.4,1.34-2.3,1.63c-3.45,1.11-6.66,2.79-9.95,4.27c-2.69,1.21-4.08,0.68-4.36-1.72
						c-0.01-0.14,0.03-0.25,0.1-0.33c2.31-0.85,4.75-1.39,6.72-3c0.43-0.16,0.95-0.21,1.13-0.75L198.38,161.93z"/>
					<path class="st5" d="M191.23,152.74c-0.26-0.17-0.52-0.34-0.78-0.51c0.17-0.18,0.31-0.47,0.5-0.51
						c0.7-0.13,0.83,0.38,0.87,0.93C191.64,152.67,191.43,152.7,191.23,152.74z"/>
					<path class="st5" d="M95.58,79.23c-1.37,0.87-2.65,1.89-4.28,2.28c-1.98-0.9-3.93-1.92-4.73-4.11
						c-1.02-2.77,0.06-4.86,3.01-6.22c0.04,0.52,0.07,1.05,0.11,1.57c-0.29,0.42-0.58,0.85-1.35,1.97c2.24-0.99,3.9-1,5.53-0.42
						c1.42,1.25-0.36,2.57,0.08,3.84c-1.19,0.57-2.5,0.64-4.41,0.75c2.16,1.05,3.57,1.37,4.53-0.63C96,78.4,94.93,75.7,96.6,75.6
						C96.9,76.97,96.58,78.2,95.58,79.23z"/>
					<path class="st5" d="M104.22,72.84c0.12,0.51,0.21,1.03,0.36,1.53c0.62,2.07,1,3.94-2.28,3.42c-0.58-0.09-0.61,0.5-0.7,0.93
						c-0.5-0.02-1-0.04-1.49-0.06c-1.18-1.37-1.75-3.05-2.2-4.72c-0.71-2.7,0.99-5.8,3.14-6.01c0.13,1.37,1.16,1.53,2.21,1.65
						c-0.83,0.78-1.88,0.26-2.8,0.47c-0.43,0.1-1.21-0.25-1.11,0.65c0.07,0.61,0.49,0.67,1.12,0.75
						C101.79,71.61,103.54,70.87,104.22,72.84z"/>
					<path class="st6" d="M103.26,69.56c-1.06-0.12-2.08-0.28-2.21-1.65c0.2-0.13,0.4-0.26,0.6-0.39c4.3-0.66,6.15,0.38,8.19,4.63
						c0.21,0.73,0.42,1.46,0.63,2.19c-0.1,0.09-0.15,0.19-0.14,0.32c-1.7,0.67-1.07-2.17-2.62-1.73c-0.9-1.12-1.57-2.5-3.22-2.72
						C104.31,69.56,103.82,69.49,103.26,69.56z"/>
					<path class="st3" d="M89.7,72.76c-0.04-0.52-0.07-1.05-0.11-1.57c2.07-2.3,4.31-0.34,6.2,0.13c1.91,0.47,0.61,2.78,0.83,4.26
						c-1.67,0.11-0.59,2.82-2.54,2.67l-0.12-0.12c-0.44-1.27,1.34-2.59-0.08-3.84C92.93,72.58,91.58,71.95,89.7,72.76z"/>
					<path class="st4" d="M109.13,93.96c0.03,0.72,0.06,1.44,0.09,2.16c-0.65-0.08-1.56,0.15-1.54-0.94
						C107.71,94.33,108.35,94.03,109.13,93.96z"/>
					<path class="st3" d="M55.97,90.67c-0.54,0-1.1,0-1.64,0c0.08-0.56,0.21-1.09,0.95-1C55.85,89.76,55.9,90.24,55.97,90.67z"/>
					<path class="st3" d="M55.42,77.09c-0.18,0.4-0.37,0.38-0.56,0.01c0,0,0.03-0.04,0.04-0.04c0.17,0,0.34,0.01,0.51,0.01
						L55.42,77.09z"/>
					<path class="st3" d="M55.41,77.08c0.04-0.07,0.09-0.15,0.13-0.22c-0.04,0.08-0.08,0.16-0.12,0.24
						C55.42,77.09,55.41,77.08,55.41,77.08z"/>
					<path class="st4" d="M154.88,145.02c-0.13,0.88-0.26,1.59,1.02,1.89c2.11,0.49,4.24,1.06,6.38,0.82
						c2.8-0.31,3.84,0.68,3.18,3.42c-1.23,1.58-2.05,3.35-2.6,5.27c-0.13,0.13-0.26,0.26-0.39,0.39c-1.46,0.61-2.56-0.38-3.77-0.85
						c-1.1-1.35-2.92-1.49-4.25-2.61c-0.93-0.78-0.93-2.75-2.77-2.42c-0.31-0.7-1.22-1.08-1.12-2.01c1.4-1.35,2.8-2.69,4.2-4.04
						L154.88,145.02z"/>
					<path class="st5" d="M142.39,144.56c0.79-0.2,1.46,0.18,2.14,0.44c0.43,0.95,1.25,1.14,2.18,1.1l-0.02-0.02
						c0.18,0.18,0.37,0.37,0.55,0.55l-0.01-0.01c0.74,3.39-0.68,4.78-4.1,3.74c-1.33-0.4-1.31,0.23-1.41,1.08
						c-2.59-1.68-2.77-2.92-0.69-4.96C141.63,145.93,142.41,145.51,142.39,144.56z"/>
					<path class="st5" d="M158.7,155.97c1.22,0.46,2.33,1.45,3.77,0.85c0.62,1.02,1.59,1.28,2.7,1.22c0,0,0.03,0.03,0.04,0.03
						c-0.02,1.74,0.4,3.8-2.09,4.2c-2.9,0.45-3.91-0.33-4.55-3.17C159.7,158.11,158.78,157.02,158.7,155.97z"/>
					<path class="st3" d="M141.76,151.45c0.09-0.85,0.08-1.48,1.41-1.08c3.4,1.05,4.84-0.34,4.1-3.74c1.56,0.12,1.95,1.9,3.31,2.31
						c-0.11,0.94,0.8,1.31,1.12,2.01c-1.85,0.26-3.5,0.89-5.16,1.87C144.81,153.83,143.1,152.81,141.76,151.45z"/>
					<path class="st4" d="M108.02,124.27c-0.36-1.57-0.72-3.13-1.09-4.7c0.08-0.07,0.15-0.15,0.23-0.23
						c1.65,1.43,2.17,3.08,1.03,5.06C108.2,124.41,108.02,124.27,108.02,124.27z"/>
					<path class="st5" d="M105.11,118.43c0.16,0.09,0.34,0.18,0.52,0.28c-0.15,0.06-0.3,0.16-0.44,0.16c-0.15,0-0.3-0.1-0.45-0.16
						C104.84,118.62,104.95,118.54,105.11,118.43z"/>
					<path class="st4" d="M106.94,119.57c-0.12-0.12-0.36-0.33-0.35-0.35c0.26-0.36,0.42-0.11,0.57,0.12
						C107.09,119.42,107.01,119.49,106.94,119.57z"/>
					<path class="st4" d="M70.09,137.77c-0.19,0.01-0.37,0.02-0.56,0.03c0.14-0.33-0.22-0.85,0.37-1.02
						C69.96,137.12,70.02,137.44,70.09,137.77z"/>
					<path class="st3" d="M100.73,95.19c-0.79-1.19,0.54-0.84,0.81-0.91c2.14-0.55,3.8,0.26,4.61,2.26c0.85,2.1,0.05,3.75-2.2,5.2
						c0.15-2.01,2.27-3.88-0.32-5.18C102.93,95.53,102.03,94.95,100.73,95.19z"/>
					<path class="st7" d="M100.73,95.19c1.3-0.24,2.2,0.33,2.88,1.39c-1.19-0.41-2.4-0.27-3.59-0.06
						C99.76,95.76,100.64,95.7,100.73,95.19z"/>
					<path class="st3" d="M103.08,101.8c-0.9,0.35-1.47,0.39-2.1,0.03C101.6,101.31,102.2,101.45,103.08,101.8z"/>
					<path class="st3" d="M127.69,139.02c-1.46,1.82-3.13,1.63-4.93,0.26c1.75,0.92,3.31-0.04,4.94-0.24L127.69,139.02z"/>
					<path class="st3" d="M127.7,139.04c0.03-0.07,0.06-0.14,0.1-0.21c-0.04,0.06-0.07,0.13-0.11,0.19L127.7,139.04z"/>
					<path class="st6" d="M188.98,164.46c-0.33,0.82-1.03,1.15-1.82,1.34c-1.21-0.65-0.24-1.54-0.24-2.32
						c0.18-0.08,0.35-0.16,0.53-0.23c0.36,0.02,0.71,0.04,1.08,0.07C188.68,163.7,188.83,164.07,188.98,164.46z"/>
					<path class="st2" d="M186.91,163.49c0,0.78-0.98,1.66,0.24,2.32c-0.67,1.61-1.33,0.65-1.98-0.02
						C185.11,164.53,185.83,163.86,186.91,163.49z"/>
					<path class="st2" d="M188.53,163.32c-0.36-0.02-0.71-0.04-1.08-0.07c0.19-0.22,0.37-0.6,0.59-0.62
						C188.43,162.57,188.48,162.99,188.53,163.32z"/>
					<path class="st4" d="M198.39,161.87c-0.18,0.54-0.68,0.59-1.13,0.75C197.39,162.01,197.85,161.87,198.39,161.87z"/>
					<path class="st3" d="M165.17,158.03c-1.11,0.06-2.07-0.2-2.7-1.22c0.13-0.13,0.26-0.26,0.39-0.39
						C163.75,156.8,164.63,157.18,165.17,158.03z"/>
					<path class="st3" d="M114.12,91.22c1.21,0.57,1.37,1.33,0.39,2.27c-1.5-0.32-3.92,1.72-4.22-1.65c0.18-0.49,0.6-0.6,1.06-0.65
						C112.26,91.88,113.18,91.93,114.12,91.22z"/>
					<path class="st5" d="M135.25,129.85c0,0.68-0.01,1.36-0.01,2.04c-0.5,0.41-1.01,0.83-1.51,1.24c-0.77,0.25-1.71,0.99-1.78-0.65
						c-0.02-0.9-0.04-1.79-0.06-2.69c0.95,0.01,1.89,0.03,2.84,0.04C134.9,129.84,135.08,129.84,135.25,129.85z"/>
					<path class="st2" d="M131.89,129.79c0.02,0.9,0.04,1.79,0.06,2.69c-1.21,0.08-2.33-0.27-2.15-1.62
						C129.88,130.17,130.51,128.77,131.89,129.79z"/>
					<path class="st2" d="M167.88,162.94c-0.07-0.04-0.15-0.09-0.22-0.13c0.08,0.04,0.17,0.07,0.25,0.11
						C167.91,162.92,167.88,162.94,167.88,162.94z"/>
					<path class="st2" d="M118.98,73.91c0.05,1.1-0.12,1.89-1.46,1.04c0.01-2.03-0.69-3.28-3.02-2.78
						c-0.29,0.03-0.58,0.05-0.88,0.08c-2.64-2.8-6.29-4.75-7.51-8.75c-0.24-0.79-0.52-1.33-1.27-1.85c-0.79-0.55,0.1-0.73,0.57-0.88
						c0.13,0.12,0.24,0.29,0.4,0.35c1.68,0.6,4.08-0.67,5.07,1.04c0.81,1.39,0.46,3.43,0.66,5.44c2.66-1.16,5.33-1.51,8.09-1.44
						c1.09,0.03,1.92,0.27,2.6,1.1c0.51,1.19,1.04,2.37,1.15,3.68c-0.74-0.08-0.62,2.02-1.24,0.92c-0.88-1.6-1.75-1.19-2.8-0.74
						C117.79,71.81,119.18,72.99,118.98,73.91z"/>
					<path class="st6" d="M114.5,72.17c2.33-0.5,3.03,0.74,3.02,2.78c-1.43,0.64-2.81,1.52-4.5,1.13l-0.1-0.05
						c-0.37-0.55-0.73-1.11-1.11-1.65c-0.59-0.84-0.02-1.25,0.59-1.66c0.21-0.01,0.43-0.02,0.64-0.03c0.05,0.35,0.05,0.71,0.16,1.05
						c0.29,0.86,0.7,1.88,1.81,1.31c1.21-0.63,0.38-1.47-0.12-2.19C114.76,72.64,114.64,72.4,114.5,72.17z"/>
					<path class="st3" d="M114.5,72.17c0.13,0.22,0.26,0.46,0.41,0.67c0.5,0.71,1.33,1.56,0.12,2.19c-1.11,0.58-1.52-0.45-1.81-1.31
						c-0.11-0.33-0.11-0.69-0.16-1.05c0.19-0.14,0.37-0.29,0.56-0.43C113.92,72.23,114.21,72.2,114.5,72.17z"/>
					<path class="st3" d="M112.41,72.72c-0.61,0.4-1.19,0.83-0.59,1.66c-0.32,0.02-0.64,0.03-0.97,0.05
						c-0.13-0.03-0.25-0.06-0.38-0.09c-0.21-0.73-0.42-1.46-0.63-2.19C110.7,72.33,111.55,72.52,112.41,72.72z"/>
					<path class="st2" d="M152.69,129.81c-1.34,1.1-2.85,0.27-4.33,0.16c1.29-0.24,2.58-0.47,3.87-0.71
						C152.39,129.45,152.54,129.63,152.69,129.81z"/>
					<path class="st4" d="M140.82,122.77c-0.2,0.18-0.4,0.37-0.6,0.55c0.01-0.18,0.01-0.37,0.02-0.55
						C140.43,122.77,140.62,122.77,140.82,122.77z"/>
					<path class="st4" d="M143.43,130.85l-0.26,0.03l-0.26-0.01C143.08,130.59,143.25,130.55,143.43,130.85z"/>
					<path class="st2" d="M110.46,74.34c0.13,0.04,0.25,0.07,0.38,0.09c0.08,1.32,0.97,1.61,2.07,1.6l0.1,0.05
						c0.78,1.8,2.01,0.88,3.13,0.51c2.22-0.72,4.5-1.1,6.82-1.12c0.65-0.01,1.3,0.09,1.38,0.94c0.07,0.78-0.35,1.21-1.11,1.19
						c-4.32-0.13-8.71,1.13-12.95-0.6c0.01-0.78,0.02-1.56,0.03-2.34C110.31,74.53,110.36,74.43,110.46,74.34z"/>
					<path class="st6" d="M118.98,73.91c0.2-0.93-1.19-2.1,0.36-2.78c1.04-0.45,1.91-0.87,2.8,0.74c0.6,1.11,0.49-1,1.24-0.92
						c0.68,0.92,1.68,1.88,1,3.04c-0.63,1.07-1.95,0.38-2.94,0.42C120.62,74.46,119.71,74.47,118.98,73.91z"/>
					<path class="st3" d="M110.32,74.67c-0.01,0.78-0.02,1.56-0.03,2.34c-0.35,0.04-0.71,0.07-1.07,0.11
						c-0.52-1.39-1.46-2.63-1.53-4.18C109.25,72.48,108.62,75.33,110.32,74.67z"/>
					<path class="st6" d="M114.12,91.22c-0.94,0.71-1.85,0.66-2.77-0.03c-0.24-2.84,2.17-3.86,3.88-5.08
						c1.75-1.26,3.97-1.87,5.99-2.76c1.08,0.51,2.92-0.93,3.31,1.31c-0.11,0.08-0.17,0.19-0.17,0.32
						C120.76,86.79,116.96,88.22,114.12,91.22z"/>
					<path class="st3" d="M103.26,69.56c0.56-0.07,1.06-0.01,1.22,0.66c-0.08,0.87-0.16,1.74-0.25,2.61
						c-0.68-1.95-2.44-1.22-3.76-1.38c-0.63-0.08-1.05-0.14-1.12-0.75c-0.1-0.91,0.68-0.56,1.11-0.65
						C101.37,69.83,102.43,70.34,103.26,69.56z"/>
					<path class="st2" d="M123.62,98.86c0.14,0.08,0.27,0.15,0.41,0.23c-0.13,0.08-0.26,0.21-0.4,0.22c-0.13,0-0.27-0.13-0.41-0.2
						C123.35,99.03,123.48,98.94,123.62,98.86z"/>
					<path class="st5" d="M150.57,148.95c-1.36-0.4-1.75-2.18-3.31-2.31l0.01,0.01c-0.18-0.18-0.37-0.37-0.55-0.55l0.02,0.02
						c-0.08-0.77-0.46-1.31-1.16-1.64c0.25-0.51,0.5-1.04,0.75-1.55c0.12-0.2,0.24-0.41,0.37-0.61v-0.09
						c1.82,0.85,3.49,2.7,5.79,0.91c0.04-0.03,2.55-0.13,2.28,1.8C153.36,146.25,151.97,147.6,150.57,148.95z"/>
					<path class="st3" d="M145.56,144.46c0.68,0.33,1.08,0.88,1.16,1.64c-0.94,0.04-1.74-0.15-2.18-1.1
						C144.75,144.57,145.13,144.47,145.56,144.46z"/>
					<path class="st3" d="M146.69,142.29c-0.12,0.2-0.25,0.41-0.37,0.61C146.44,142.7,146.57,142.5,146.69,142.29z"/>
					<path class="st3" d="M153.78,138.49c1.92-3.3,6.66-2.75,9.25,1.09C160,138.73,156.69,140.34,153.78,138.49z"/>
					<path class="st6" d="M166.71,144.46c-0.77,1.79-2.02,0.89-3.17,0.58C164.45,144.03,165.66,144.65,166.71,144.46z"/>
					<path class="st4" d="M49.42,76.55c-0.13-0.18-0.26-0.35-0.4-0.53c0.1-0.06,0.2-0.12,0.29-0.18c0.06,0.22,0.11,0.44,0.17,0.66
						C49.49,76.5,49.42,76.55,49.42,76.55z"/>
					<path class="st6" d="M169.36,148.81c0.77-1.75,1.77-0.51,2.7-0.21C171.15,148.67,170.26,148.74,169.36,148.81z"/>
					<path class="st7" d="M89.7,72.76c1.88-0.81,3.23-0.18,4.18,1.54c-1.63-0.57-3.28-0.56-5.53,0.42
						C89.11,73.6,89.41,73.18,89.7,72.76z"/>
					<path class="st3" d="M94.08,78.25c-0.96,1.99-2.37,1.68-4.53,0.63c1.91-0.1,3.21-0.18,4.41-0.75L94.08,78.25z"/>
					<path class="st3" d="M146.7,146.09c0.18,0.18,0.37,0.37,0.55,0.55C147.07,146.46,146.89,146.27,146.7,146.09z"/>
					<path class="st4" d="M112.92,76.04c-1.11,0-1.99-0.28-2.07-1.6c0.32-0.02,0.64-0.03,0.97-0.05
						C112.19,74.93,112.56,75.48,112.92,76.04z"/>
					<path class="st6" d="M115.17,82.47c0,0,3.92-0.4,4.89,0l0.07-2.39h-4.51L115.17,82.47z"/>
					<path class="st6" d="M127.11,82.99c0,0,3.08,0.16,5.95,1.42s3.86,1.89,4.95,2.93l0.96-2.05l-5.93-3.18l-6.41-1.81L127.11,82.99
						z"/>
					<polygon class="st6" points="122.05,86.09 125.43,84.44 123.62,82.55 					"/>
					<path class="st6" d="M130.18,103.71c0,0-4.27,1.85-5.83,2.52c-1.56,0.67,0.25,1.25,0.25,1.25l6.92-2.84L130.18,103.71z"/>
				</g>
			</g>
			<path class="st6" d="M81.61,157.28c0,0,8.62-15.48,18-21.41c0,0,21.15,6.35,33.18,13.77c12.03,7.42,47.84,30.7,47.84,30.7
				s-7.48,4.01-33.29,2.13C121.54,180.6,94.15,168.23,81.61,157.28z"/>
			<path class="st6" d="M43.94,106.23c0,0,3.14,16.55,18.23,18.21c15.09,1.67,28.3-4.29,28.3-4.29s4.67-5.08,2.51-15.68
				c-2.15-10.6-2.53-13.31-4.52-15.66c-1.99-2.36-6.34-8.75-19.39-4.4C56.03,88.75,42.86,99.65,43.94,106.23z"/>
		</g>
		<g>
			<text transform="matrix(1 0 0 1 197.0635 79.8293)" class="st8 st9 st10">E</text>
		</g>
	</g>
</g>
</svg>
