<?xml version="1.0" encoding="utf-8"?>
<!-- Generator: Adobe Illustrator 24.3.0, SVG Export Plug-In . SVG Version: 6.00 Build 0)  -->
<svg version="1.1" id="Livello_1" xmlns="http://www.w3.org/2000/svg" xmlns:xlink="http://www.w3.org/1999/xlink" x="0px" y="0px"
	 viewBox="0 0 277.53 277.53" style="enable-background:new 0 0 277.53 277.53;" xml:space="preserve">
<style type="text/css">
	.st0{fill:#65ABCE;}
	.st1{fill:#2264A0;}
	.st2{fill:#23509E;}
	.st3{fill:#184587;}
	.st4{fill:#3780B7;}
	.st5{fill:#202020;}
	.st6{fill:#252525;}
	.st7{fill:#080808;}
	.st8{fill:#181818;}
	.st9{fill:#676767;}
	.st10{fill:#1E4987;}
	.st11{fill:#114170;}
	.st12{fill:#2956A2;}
	.st13{fill:#848484;}
	.st14{fill:#B5B5B5;}
	.st15{fill:#333333;}
	.st16{opacity:0.7;}
	.st17{fill:#138BCE;}
	.st18{fill:#424242;}
	.st19{opacity:0.56;fill:#184587;enable-background:new    ;}
	.st20{fill:#1188BC;}
	.st21{fill:#FFFFFF;}
	.st22{font-family:'Arial-BoldMT';}
	.st23{font-size:77.0627px;}
	.st24{letter-spacing:1;}
</style>
<g>
	<rect x="0.25" y="-0.06" class="st0" width="277.04" height="277.04"/>
	<g>
		<g>
			<g>
				<g>
					<path class="st1" d="M119.33,178.27l-10.37-17.06l20.66-34.87l33.32,18.47l9.46-2.05l14.6-11.12c0,0,12.3,7.53,20.01,11.93
						c7.71,4.41,19.82,10.65,23.57,12.28l-2.59,14.71l-8.86,16.53l-36.34,6.34l-33.25-3.31L119.33,178.27z"/>
					<path class="st2" d="M132.34,128.97c0,0-2.73,5.62-2.73,11.07c0,5.44-2.83,7.37-6.23,12.33c-3.41,4.96-8.73,9.92-9.38,11.84
						c-0.64,1.92,5.32,11.57,5.32,11.57l-25.23-14.58L65.84,145.3l-3.64-25.81l18.11-19.62l20.41-1.52L132.34,128.97z"/>
					<path class="st3" d="M97.38,92.22c0,0,8.13-10.66,12.58-13.6c4.46-2.94,7.94-2.47,8.9-1.79c0.97,0.68,7.48,6.03,9.01,7.45
						c1.54,1.42,14.08,12.44,14.08,12.44l10.09,10.24l11.98,10.37l20.68,15.52l1.95,2.5l-2.25,2.12l-12.95,6.75l-6.33,0.59
						l-40.87-29.11L97.38,92.22z"/>
					<path class="st4" d="M152.89,107.67c0,0,8.85,9.45,10.5,10.92c1.65,1.47,9.09,7.53,10.65,8.54c1.56,1.01,3.59,2.03,4.87,3.13
						c1.28,1.1,5.22,3.12,5.59,3.48c0.36,0.37,1.11,1.17,0.64,1.59c0,0,0.76-0.73,0.15-1.77c-0.61-1.05-6.38-6.34-6.38-6.34
						l-20.22-16.8l-3.76-1.55L152.89,107.67z"/>
					<path class="st5" d="M140.46,96.15c0,0-9.38-8.31-10.38-9.42c-1.01-1.11-6.61-6.2-7.07-6.49c0,0,1.47-0.39,4.23,1.26
						c2.76,1.65,5.51,3.94,6.57,5.05s10.8,13.32,10.8,13.32s1.27-0.18,1.64,0c0.37,0.18,2.58,2.11,4.68,4.32
						c2.1,2.2,3.4,3.82,5.19,5.6c0,0,2.36,0.27,2.99,0.92c0.62,0.64,4.11,3.58,7.79,6.52c3.67,2.94,14.87,11.29,15.69,11.84
						c0.82,0.55-1.2,1.56-1.2,1.56s-7.16-5.79-9.92-7.58s-11.84-9.33-12.01-9.55c-0.17-0.22-13.05-11.52-13.05-11.52L140.46,96.15z"
						/>
					<path class="st6" d="M59.1,77.6l-1.38-2.06c0,0,4.41-2.34,6.34-3.31c1.93-0.97,6.61-3.17,9.23-3.58
						c2.62-0.41,4.64-0.17,6.45,1.7l3.46,7.24l4.14,11.61l-3.17,4.08l-8.95-5.23l-12.12-3.76C63.09,84.3,61.31,79.8,59.1,77.6z"/>
					<path class="st7" d="M64.06,88.06c0,0,7.58,0.14,10.75,2.2c3.17,2.06,7.72,6.43,7.72,6.43s-3.03,2.11-4.55,4.18
						c-1.52,2.06-4.14,4.55-6.75,6.06c-2.62,1.52-3.72,2.34-4.27,1.11c-0.55-1.24-0.82-5.88-1.24-9.68
						C65.3,94.53,64.06,88.06,64.06,88.06z"/>
					<path class="st8" d="M82.51,97.65c0,0-4.62-5.58-6.96-6.87c-2.34-1.29-8.33-2.72-11.5-2.72c0,0-1.52-8.26-4.96-10.46
						c0,0,4.41,3.44,5.79,3.99c1.38,0.55,6.88-0.14,8.4,1.11c1.52,1.24,5.37,4.96,6.88,7.16c1.52,2.2,3.99,1.52,4.68,0.55
						c0.68-0.97,1.11-4.68,0-5.79c-1.1-1.11-1.65-3.44-2.34-5.09c-0.68-1.65-1.24-4.68-1.93-5.64c-0.68-0.97-1.65-3.72-2.2-4.41
						c0,0,1.11,0.27,3.17,2.76c2.06,2.47,2.34,4.41,3.17,6.47c0.83,2.06,1.79,6.88,3.72,8.26c1.93,1.38,6.14,4.5,9.99,5.27
						c0,0-7.65,1.15-10.13,2.2C85.81,95.5,82.51,97.65,82.51,97.65z"/>
					<path class="st5" d="M50.29,80.89c0,0,1.93-3.42,4.96-3.97c3.03-0.55,2.8-0.57,3.4,0c1.73,1.66,4.86,5.09,6.06,12.3
						s1.64,15.52,1.71,16.07s0.55,3.79,2.06,3.12c1.5-0.67,5.1-2.93,9.01-7.83c4.37-5.46,13.57-7.28,13.57-7.28s6.82-2.55,14.6,0
						c7.27,2.37,13.68,9.14,13.68,9.14l2.02,2.85l-3.91,1.35c0,0-6.92-8.05-12.8-9.93c-5.88-1.88-10.97-1.16-16.21,0.96
						c-5.23,2.11-6.88,2.81-8.13,4.32c-1.24,1.52-5.51,8.21-11.7,10.09c-6.2,1.89-9.92-2.01-11.98-5.59
						c-2.06-3.58-0.73-16.19-1.29-18.39c-0.55-2.2,0.09-5.84-1.41-7.19C52.43,79.52,50.29,80.89,50.29,80.89z"/>
					<path class="st4" d="M80.31,101.98c1.24-1.52,2.89-2.2,8.13-4.32c5.23-2.11,10.33-2.84,16.21-0.96
						c5.88,1.88,12.8,9.93,12.8,9.93l8.12,2.82c0,0,18.42,16.1,21.64,19.1c3.19,2.97,6.21,4.57,10.15,8.42
						c3.94,3.85,10.64,7.44,10.64,7.44s3.99,2.47,1.81,3.58s-11.45,1.93-12.47,2.47c-1.02,0.55-11.84-9.55-15.38-11.39
						c-3.54-1.84-15.45-12.14-18.58-14.56c-3.13-2.41-18.1-14.99-18.74-15.87c-0.64-0.88-2.02-3.08-4.78-2.81
						c-2.76,0.27-4.41,1.11-7.99,1.11C91.88,106.93,86.1,104.72,80.31,101.98"/>
					<path class="st7" d="M50.29,80.89c0,0,2.35-3.32,4.06-3.72c1.71-0.4,4.29-0.25,4.29-0.25s-0.23-1.65-1.61-2.47
						c-1.38-0.82-4.37-2.41-7.26-1.56c-2.34,0.68-3.58,1.92-4.82,4.27C44.96,77.13,48.36,75.64,50.29,80.89z"/>
					<path class="st9" d="M46.44,90.96c0,0,3.53-3.03,5.48-2.89s3.88,0,3.88,0s0.36-5.45-1.87-7.18c-2.23-1.72-4.05,0.43-4.88,1.53
						C48.22,83.52,47.12,86.13,46.44,90.96z"/>
					<path class="st1" d="M80.31,101.98c0,0-0.14,3.8-0.97,7.27c-0.83,3.47-0.55,8.34-2.76,10.24c-2.2,1.9-5.09,2.46-6.88,4.11
						c-1.79,1.65-0.55,10.73,0,12.38s2.62,6.2,3.58,7.16c0.97,0.97,11.84,7.72,12.54,8.54c0.68,0.83,3.85,3.72,3.85,3.72
						s-16.01-10.37-21.76-14.51c-7.16-5.14-11.98-9.3-18.59-16.4s-7.29-11.99-7.29-11.99s0.55-6.86,1.24-9.66
						c0.68-2.8,0.68-4.14,0.83-6.16c0.14-2.02,2.34-5.73,2.34-5.73s2.7-2.94,5.48-2.89c2.79,0.05,3.88,0,3.88,0
						s-0.05,10.42,0.25,14.78c0.3,4.36,3.27,6.36,5.5,8.39s6.58,1.2,8.13,0.45c1.55-0.74,4.59-2.46,6.59-4.76
						C78.27,104.63,80.31,101.98,80.31,101.98z"/>
					<path class="st6" d="M89.68,155.41c0,0-16.01-10.37-21.76-14.51c-7.16-5.14-11.98-9.3-18.59-16.4s-7.29-11.99-7.29-11.99
						s-1.11,9.39-0.64,14.62c0,0-0.64,4.19,7.16,8.01c7.81,3.83,17.72,7.96,19.65,9.06S81.14,149.81,89.68,155.41z"/>
					<g>
						<path class="st10" d="M159.1,124.5c0,0,7.27-0.7,9.69,0l1.02-1.23c0,0-2-2.2-3.19-2.67c0,0-3.26-0.27-5.25,0L159.1,124.5z"/>
						<path class="st11" d="M168.32,134.68c-0.76,2.26,10.59-4.42,10.59-4.42c-2.47-0.45-8.03,0-8.03,0S168.66,133.68,168.32,134.68
							z"/>
						<path class="st11" d="M151.23,113.5c0,0,4.73-1.15,5.46-0.59c0.73,0.55,2.4,1.99,2.4,1.99l0.61-1.07c0,0-2.28-2.94-2.93-3.49
							c-0.64-0.55-1.08-1.07-2.97-1.09L151.23,113.5z"/>
						<path class="st11" d="M140.17,96.7l0.55-1.06l-1.56-1.2c0,0,1.38-0.16,2.85,0.79c1.47,0.96,2.29,1.96,2.29,1.96
							s0.36,0.73,0.46,1.38c0.09,0.64-0.46,2.29-0.46,2.29L140.17,96.7z"/>
						<path class="st11" d="M149.79,105.97c0,0-2.46-1.52-3.02-1.8c-0.55-0.27-2.47-3.31-2.47-3.31l0.29-1.01c0,0,0.28,0.27,2,1.56
							c1.72,1.29,2.77,2.43,3.73,3.7L149.79,105.97z"/>
						<path class="st11" d="M133.79,91.8c0,0,4.08,0.94,5.36,2.66c0,0,0.92-1.93,0-3.21c-0.92-1.29-2.76-2.02-2.76-2.02h-0.55
							L133.79,91.8z"/>
						<path class="st10" d="M124,109.56c0,0-0.53,2.32-0.53,3.06s-0.36,1.19,0.46,0.88c0.82-0.32,3.94-1.89,4.59-1.43
							c0.64,0.46,1.11,0.93,1.11,0.93s0.18-1.01-0.55-1.84c-0.73-0.82-2.14-2.42-2.14-2.42L124,109.56z"/>
						<path class="st10" d="M135.86,123.28c0,0-1.38,0.73-1.15,0c0.23-0.73,0.78-4.17,0.78-4.17s6.15-2.99,8.54-3.72l-4.23,6.7
							C139.8,122.08,137.49,122.93,135.86,123.28z"/>
						<g>
							<path class="st12" d="M104.85,101.7c0,0,0-0.82,1.47-1.93c2.5-1.87,6.98-4.14,14.69-7.44c7.72-3.31,8.26-3.12,8.26-3.12
								l-4.68,6.24c0,0-10.01,3.85-16.25,7.99c0,0-0.55,0.73-1.29,0.73C106.32,104.18,104.85,101.7,104.85,101.7z"/>
							<path class="st12" d="M119.33,102.43c0,0,10.28-14.05,12.21-16.34c0,0,0.82-1.2,1.38-0.82s3.49,2.38,3.49,2.38
								s0.09,1.19,0,1.56c0,0,0.18-0.73-0.55,0c-0.73,0.73-8.35,10.84-11.2,15.15l-3.09,1.22L119.33,102.43z"/>
							<path class="st12" d="M116.48,111.89l-2.47-2.76c0,0,0.09-1.29,1.24-1.74c1.15-0.46,13.63-4.68,18.95-5.41l2.24,2.2
								c0,0-2.06,1.84-2.62,2.76C133.84,106.93,120.52,110.33,116.48,111.89z"/>
							<path class="st12" d="M129.61,112.99c0,0,3.39-5.88,6.83-8.81c0,0,2.07,1.29,3.36,3.31c0,0-3.21,4.5-4.23,6.15
								c0,0-2.76,1.38-3.49,1.74L129.61,112.99z"/>
							<path class="st12" d="M128.41,123.28l-2.76-2.38c0,0-0.73-1.11,0.73-2.29c1.47-1.2,15.38-8.72,21.26-8.81l-3.62,5.6
								C144.03,115.38,133.19,119.51,128.41,123.28z"/>
							<path class="st12" d="M141.68,123.78l-1.88-1.7l11.11-17.9v-0.64c0,0,0.36-0.27,1.01,0c0.64,0.27,2.85,2.47,2.85,2.47
								s0.27,0.46,0,1.47s-8.99,14.69-8.99,14.69S143.15,122.86,141.68,123.78z"/>
							<path class="st12" d="M138.11,131.26l-2.63-2.29c0,0,0.08-1.2,0.96-2.2c0.88-1.01,7.03-6.09,19.61-6.28l-3.05,4.52
								C153,125.01,144.5,125.57,138.11,131.26z"/>
							<path class="st12" d="M152.76,132.83l-3.23-2.5c0,0,4.96-7.25,11.02-18c0,0,0.46-1.11,1.38-0.46s2.76,1.61,2.76,1.61
								s0.55,0.23,0.46,1.88l-0.46-0.46c0,0-7.84,13.31-9.79,17.07L152.76,132.83z"/>
							<path class="st12" d="M145.54,137.97c0,0,0.23-1.29,1.79-2.38c1.56-1.11,6.34-4.68,16.98-4.96l-2.85,4.87
								c0,0-4.87-1.01-12.95,4.32c0,0,0,0.55-1.2,0C146.14,139.24,145.54,137.97,145.54,137.97z"/>
							<path class="st10" d="M159.3,138.68c0,0,7.87-13.57,13.1-18.07l3.76,2.67v0.73v0.55l-0.55-0.27c0,0-4.35,4.46-7.28,10.39
								c0,0-4.36,2.28-7.94,4.85L159.3,138.68z"/>
							<path class="st12" d="M158.25,147.97l-2.67-2.02c0,0-0.36-0.82,0-1.65c0.36-0.82,6.15-8.81,26.99-15.24
								c0,0,0.92-0.46,2.67,0.78c1.74,1.24,2.67,1.42,2.67,1.42s0.92,0.92,0.55,1.93c0,0-1.11-1.29-2.2-1.11
								c-1.11,0.18-8.89,2.67-14.27,5.6C166.61,140.62,161.01,144.2,158.25,147.97z"/>
						</g>
					</g>
					<path class="st4" d="M165.15,142.74c0,0,4.02,1.39,7.24,0c3.21-1.39,12.88-6.94,12.88-6.94s0.99-1.51-0.79-3.22l2.52-0.95
						l6.06,4.32l-4.99-1.58c0,0,0.03,1.31-0.89,2.22c-0.92,0.92-9.46,5.79-10.46,6.34c-1.01,0.55-4.7,2.37-7.5,2.37l-3.61-1.19
						L165.15,142.74z"/>
					<path class="st2" d="M241.8,168.53c0,0,0.36-6.88-4.27-9.44c-4.81-2.65-9.51-4.16-11.34-5.07c0,0-7.99,4.5-8.45,4.87
						c-0.46,0.37-0.46,0.46,0,1.47c0.46,1.01,4.59,7.99,5.05,9.64c0.46,1.65,0.82,2.85,0.09,3.76c-0.73,0.92-7.44,9.19-8.08,10.1
						c-0.64,0.92-0.64,3.21-0.64,3.21s7.25-1.38,11.93-3.76c0,0,0-6.7,3.12-8.45c3.12-1.74,9.64-5.23,10.93-6.25
						C240.15,168.63,241.71,167.99,241.8,168.53z"/>
					<path class="st13" d="M41.31,125.87c0,0-0.84,4.18,3.2,6.72c4.03,2.55,22.22,10.73,29.83,14.52
						c7.61,3.78,14.65,8.16,22.64,13.53c7.99,5.37,28.88,17.49,36.82,20.24c7.94,2.76,24.33,9.09,52.42,8.67s39.02-5.73,39.89-6.25
						c0,0,1.15,2.53,0.59,3.76c0,0-0.82,1.79-13.77,4.82s-35.39,6.75-59.36,3.17c0,0-16.8-2.76-33.05-11.43c0,0-9.37-6.2-15.01-10.6
						s-15.84-13.22-23-16.8c-7.16-3.58-20.2-9.64-26.69-11.57c-6.5-1.93-12.56-4.55-15.86-6.88c-3.31-2.34-1.93-7.41-1.38-8.8
						C39.13,127.59,41.31,125.87,41.31,125.87z"/>
					<path class="st14" d="M39.96,137.77c3.36,2.25,9.37,4.96,15.86,6.88c6.5,1.93,19.54,7.99,26.69,11.57
						c7.16,3.58,17.36,12.4,23,16.8s15.01,10.6,15.01,10.6c16.25,8.67,33.05,11.43,33.05,11.43c23.97,3.58,46.41-0.14,59.36-3.17
						s13.77-4.82,13.77-4.82s1.11,3.58-2.62,7.29s-11.57,8.81-40.35,16.11c0,0-3.03,1.38-6.34,0c0,0-4.55,2.34-18.86,2.62
						c0,0-2.76-0.14-4.96-2.06c0,0-2.62,2.2-5.93,2.06c-3.31-0.14-11.8-2.06-12.16-2.34c-0.36-0.28-2.49-1.11-3.15-2.62
						c0,0-0.79,1.79-4.24,0.97s-11.57-4.96-11.57-4.96s-1.65-1.11-1.93-2.47c0,0-1.52,0.55-4.96-1.38
						c-3.44-1.93-5.93-4.68-5.93-4.68s-0.55,0.41-1.11,0.27c-0.55-0.14-3.44-2.47-3.44-2.47l-0.97-0.97c0,0-1.11,0.27-2.06,0.14
						c-0.97-0.14-6.75-2.47-9.64-3.31c-2.89-0.82-10.33-2.62-11.29-2.89c-0.97-0.27-3.17-2.76-3.17-2.76s-4.91,0.97-12.58-2.06
						s-10.84-5.23-10.84-5.23s-1.55-1.24-1.74-2.2c-0.18-0.97-1.69-3.31-2.45-3.58c-0.76-0.27-1.74,0.83-2.91,0
						c-1.17-0.82-6.19-4.41-9.04-11.84c-2.86-7.43,0.72-15.36,2.37-19.19c1.65-3.82,2.96-4.39,2.96-4.39S39.13,137.22,39.96,137.77z
						"/>
					<path class="st8" d="M133.42,102.1l0.78-0.12c0,0,1.55,1.71,2.24,2.2s2.67,2.2,3.36,3.31l-0.23,0.33c0,0,0.84,0.54,0.93,0.4
						c0.09-0.14-0.82-2.47-2.85-4.04c-2.02-1.56-2.16-1.79-2.97-2.38C133.88,101.19,133.42,102.1,133.42,102.1z"/>
					<path class="st7" d="M184.76,210.23c0,0,24.54-5.77,33.71-11.71c0,0,7.7-3.72,8.37-9.1c0,0-0.89-6.69-0.57-8.4
						c0.31-1.71,0.72-5.55,3.72-6.89c3-1.34,9.35-5.25,10.14-5.5c0.79-0.25,1.56-0.51,2.38,0.82c1.79,2.89,3.58,7.72,3.58,13.49
						c0,2.34,0.14,2.06-1.52,3.17c-1.66,1.11-21.21,12.54-25.34,14.46c-4.14,1.93-8,3.97-17.77,7.02
						c-9.8,3.06-12.16,3.17-14.83,3.85C186.67,211.46,185.94,211.34,184.76,210.23z"/>
					<path class="st7" d="M33.27,160.55c0,0,2.91,6.43,8.26,10.01c0,0,0.62,0.48,1.39,0.26s1.51-0.45,1.97,0.06
						c0,0-0.91,0.4-1.57,0.53c-0.66,0.13-1.6,0.33-2.68-0.53c-1.07-0.87-5.26-5.21-7.37-10.03
						C31.15,156.03,33.27,160.55,33.27,160.55z"/>
					<path class="st7" d="M50.06,177.2c0,0,9.36,4.85,14.22,5.88c4.86,1.03,7.78,0.55,7.78,0.55l0.99,1.05c0,0-4.58,0.23-8.85-0.76
						C59.9,182.91,51.01,178.83,50.06,177.2z"/>
					<path class="st7" d="M106.74,198.36c0,0,2.91,1.68,4,2.51c1.1,0.83,2.39,1,3.85,0.81c0,0-0.03,1.62,3.88,3.44
						c3.91,1.82,9.61,3.99,9.61,3.99s3.07,0.95,4.24-0.97c0,0,0.97,2.6,7.65,3.73c6.67,1.15,7.67,1.22,7.67,1.22
						s4.73-0.34,5.93-2.06l1.01,0.74c0,0-2.15,1.94-6.24,2.01c-4.07,0.07-11.43-1.87-13.5-2.94c-2.07-1.07-2.51-1.47-2.51-1.47
						s-0.98,0.73-2.37,0.73c-1.4,0-2.55-0.33-4.07-0.94c-1.54-0.6-9.76-5.01-9.76-5.01s-1.21-0.66-1.34-0.94
						c-0.13-0.27-1.6-0.4-2.68-0.8C111.04,202.03,106.74,198.36,106.74,198.36z"/>
					<path class="st7" d="M161.44,213.02c0,0,12.98-0.61,15.95-2.53c0,0,0.79,0.5,2.11,0.55c0,0-3.01,1.75-9.03,2.76
						s-8.1,0.53-8.1,0.53L161.44,213.02z"/>
					<path class="st15" d="M46.58,89.98c0,0-3.86-3.3-3.8-6.74c0.07-3.44,4.16-10.86,9.14-10.45c0,0-1.38-0.56-4.57,0.81
						c-3.19,1.38-3.83,1.89-3.83,1.89s-2.31,1.42-2.87,3.41s-1.11,3.92-1.17,5.09s0.21,2.89,1.31,4.68c1.11,1.79,2.41,3.1,3.03,3.51
						c0.62,0.41,1.61,0.63,1.61,0.63l1.01-1.53L46.58,89.98z"/>
					<g>
						<path class="st13" d="M203.12,205.02c0,0-2.97-2.75-8.85-3.15c0,0,5.56,2.37,6.54,3.94L203.12,205.02z"/>
						<path class="st13" d="M165.07,204.2c0,0,10.52,2.75,12.77,6.45l-1.82,0.46l-1.15-1.45
							C174.87,209.65,172.23,206.92,165.07,204.2z"/>
						<path class="st13" d="M148.11,208.08c2.95,2.16,4.12,3.88,4.12,3.88l1.95-0.62c0,0-2.59-2.85-4.99-4.27
							s-11.77-8.64-15.29-13.08c0,0-0.73-0.68-0.46,0.41C133.72,195.49,145.36,206.06,148.11,208.08z"/>
						<path class="st13" d="M124.67,201.48c2.34,2.59,6.14,7.69,6.14,7.69l1.71-0.79c0,0-5.71-6.18-8.53-9.5
							c-2.93-3.46-8-9.64-8-9.64s-1.06-0.92-0.4,0.3S120.36,196.71,124.67,201.48z"/>
						<path class="st13" d="M114.43,201.54c0,0-1.45-2.3-3.16-4.73c-1.71-2.42-6.02-9.35-6.17-9.58c-0.14-0.24-2.9-4.79-2.9-4.79
							s-0.59-0.66-0.78-0.36c-0.19,0.31-0.01,0.83,0.84,2.31c0.85,1.49,3.51,6.7,4.32,7.61c0.79,0.91,4.43,5.15,4.59,5.63
							c0.16,0.48,0,0.71,0,0.71l2.24,3.37l1.02,0.16v-0.34H114.43z"/>
						<path class="st13" d="M98.27,192.44c0,0-1.28-2.69-2.4-3.53c-1.14-0.85-2.75-2.24-3.34-2.82c-0.59-0.57-2.73-2.36-2.73-2.36
							s-0.58-0.17,0.55,1.04c1.13,1.21,2.55,2.34,2.66,3.2c0.11,0.86,0.32,0.53,0.96,1.26c0.63,0.72,1.13,1.37,1.68,1.99
							c0.55,0.63,0.56,1.4,0.56,1.4L98.27,192.44z"/>
						<path class="st13" d="M69.58,183.7c0,0-0.62-2.88-3.51-4.79c-4.57-3.03-8.11-12.67-9.22-11.92c-0.55,0.37,3.48,6.67,3.48,6.67
							s2.82,3.99,3.8,5.67c0.99,1.69,1.62,2.37,1.17,2.63c-0.45,0.25-0.51,1.32-0.51,1.32S66.79,183.78,69.58,183.7z"/>
						<path class="st13" d="M43.77,170.51c0,0-2.2-1.66-3.16-3.14s-3.21-6.86-3.21-15.27c0,0-0.93-2-0.67,1.92
							c0.25,3.93,0.74,6.78,1.49,10.85c0.45,2.46,1.03,3.3,1.03,3.3s1.08,2.13,2.2,2.3c0,0,0.28,0.37,1.31,0.34
							C43.17,170.8,43.77,170.51,43.77,170.51z"/>
						<path class="st13" d="M57.91,144.81c0,0,13.58,17.71,18.68,22.03c0,0,2.6,0.74,4.25,1.02c0,0-11.36-11.81-16.96-21.17
							C63.87,146.69,59.32,145.86,57.91,144.81z"/>
						<path class="st13" d="M46.72,140.96l4.65,2.36c0,0-0.39,5.95,5.08,13.94l-2-0.65C54.44,156.62,51.95,154.32,46.72,140.96z"/>
						<path class="st13" d="M40.69,137.74c0,0-2.29-1.54-2.59-2.61l0.54,6.4c0,0,0.36,0.9,0.52,0.12
							C39.32,140.89,40.69,137.74,40.69,137.74z"/>
					</g>
				</g>
			</g>
			<g class="st16">
				<g>
					<path class="st1" d="M119.33,178.27l-10.37-17.06l20.66-34.87l33.32,18.47l9.46-2.05l14.6-11.12c0,0,12.3,7.53,20.01,11.93
						c7.71,4.41,19.82,10.65,23.57,12.28l-2.59,14.71l-8.86,16.53l-36.34,6.34l-33.25-3.31L119.33,178.27z"/>
					<path class="st2" d="M132.34,128.97c0,0-2.73,5.62-2.73,11.07c0,5.44-2.83,7.37-6.23,12.33c-3.41,4.96-8.73,9.92-9.38,11.84
						c-0.64,1.92,5.32,11.57,5.32,11.57l-25.23-14.58L65.84,145.3l-3.64-25.81l18.11-19.62l20.41-1.52L132.34,128.97z"/>
					<path class="st17" d="M152.89,107.67c0,0,8.85,9.45,10.5,10.92c1.65,1.47,9.09,7.53,10.65,8.54c1.56,1.01,3.59,2.03,4.87,3.13
						c1.28,1.1,5.22,3.12,5.59,3.48c0.36,0.37,1.11,1.17,0.64,1.59c0,0,0.76-0.73,0.15-1.77c-0.61-1.05-6.38-6.34-6.38-6.34
						l-20.22-16.8l-3.76-1.55L152.89,107.67z"/>
					<path class="st5" d="M140.46,96.15c0,0-9.38-8.31-10.38-9.42c-1.01-1.11-6.61-6.2-7.07-6.49c0,0,1.47-0.39,4.23,1.26
						c2.76,1.65,5.51,3.94,6.57,5.05s10.8,13.32,10.8,13.32s1.27-0.18,1.64,0c0.37,0.18,2.58,2.11,4.68,4.32
						c2.1,2.2,3.4,3.82,5.19,5.6c0,0,2.36,0.27,2.99,0.92c0.62,0.64,4.11,3.58,7.79,6.52c3.67,2.94,14.87,11.29,15.69,11.84
						c0.82,0.55-1.2,1.56-1.2,1.56s-7.16-5.79-9.92-7.58s-11.84-9.33-12.01-9.55c-0.17-0.22-13.05-11.52-13.05-11.52L140.46,96.15z"
						/>
					<path class="st6" d="M59.1,77.6l-1.38-2.06c0,0,4.41-2.34,6.34-3.31c1.93-0.97,6.61-3.17,9.23-3.58
						c2.62-0.41,4.64-0.17,6.45,1.7l3.46,7.24l4.14,11.61l-3.17,4.08l-8.95-5.23l-12.12-3.76C63.09,84.3,61.31,79.8,59.1,77.6z"/>
					<path class="st7" d="M64.06,88.06c0,0,7.58,0.14,10.75,2.2c3.17,2.06,7.72,6.43,7.72,6.43s-3.03,2.11-4.55,4.18
						c-1.52,2.06-4.14,4.55-6.75,6.06c-2.62,1.52-3.72,2.34-4.27,1.11c-0.55-1.24-0.82-5.88-1.24-9.68
						C65.3,94.53,64.06,88.06,64.06,88.06z"/>
					<path class="st18" d="M82.51,97.65c0,0-4.62-5.58-6.96-6.87c-2.34-1.29-8.33-2.72-11.5-2.72c0,0-1.52-8.26-4.96-10.46
						c0,0,4.41,3.44,5.79,3.99c1.38,0.55,6.88-0.14,8.4,1.11c1.52,1.24,5.37,4.96,6.88,7.16c1.52,2.2,3.99,1.52,4.68,0.55
						c0.68-0.97,1.11-4.68,0-5.79c-1.1-1.11-1.65-3.44-2.34-5.09c-0.68-1.65-1.24-4.68-1.93-5.64c-0.68-0.97-1.65-3.72-2.2-4.41
						c0,0,1.11,0.27,3.17,2.76c2.06,2.47,2.34,4.41,3.17,6.47c0.83,2.06,1.79,6.88,3.72,8.26c1.93,1.38,6.14,4.5,9.99,5.27
						c0,0-7.65,1.15-10.13,2.2C85.81,95.5,82.51,97.65,82.51,97.65z"/>
					<path class="st4" d="M80.31,101.98c1.24-1.52,2.89-2.2,8.13-4.32c5.23-2.11,10.33-2.84,16.21-0.96
						c5.88,1.88,12.8,9.93,12.8,9.93l8.12,2.82c0,0,18.42,16.1,21.64,19.1c3.19,2.97,6.21,4.57,10.15,8.42
						c3.94,3.85,10.64,7.44,10.64,7.44s3.99,2.47,1.81,3.58s-11.45,1.93-12.47,2.47c-1.02,0.55-11.84-9.55-15.38-11.39
						c-3.54-1.84-15.45-12.14-18.58-14.56c-3.13-2.41-18.1-14.99-18.74-15.87c-0.64-0.88-2.02-3.08-4.78-2.81
						c-2.76,0.27-4.41,1.11-7.99,1.11C91.88,106.93,86.1,104.72,80.31,101.98"/>
					<path class="st7" d="M50.29,80.89c0,0,2.35-3.32,4.06-3.72c1.71-0.4,4.29-0.25,4.29-0.25s-0.23-1.65-1.61-2.47
						c-1.38-0.82-4.37-2.41-7.26-1.56c-2.34,0.68-3.58,1.92-4.82,4.27C44.96,77.13,48.36,75.64,50.29,80.89z"/>
					<path class="st9" d="M46.44,90.96c0,0,3.53-3.03,5.48-2.89s3.88,0,3.88,0s0.36-5.45-1.87-7.18c-2.23-1.72-4.05,0.43-4.88,1.53
						C48.22,83.52,47.12,86.13,46.44,90.96z"/>
					<path class="st1" d="M80.31,101.98c0,0-0.14,3.8-0.97,7.27c-0.83,3.47-0.55,8.34-2.76,10.24c-2.2,1.9-5.09,2.46-6.88,4.11
						c-1.79,1.65-0.55,10.73,0,12.38s2.62,6.2,3.58,7.16c0.97,0.97,11.84,7.72,12.54,8.54c0.68,0.83,3.85,3.72,3.85,3.72
						s-16.01-10.37-21.76-14.51c-7.16-5.14-11.98-9.3-18.59-16.4s-7.29-11.99-7.29-11.99s0.55-6.86,1.24-9.66
						c0.68-2.8,0.68-4.14,0.83-6.16c0.14-2.02,2.34-5.73,2.34-5.73s2.7-2.94,5.48-2.89c2.79,0.05,3.88,0,3.88,0
						s-0.05,10.42,0.25,14.78c0.3,4.36,3.27,6.36,5.5,8.39s6.58,1.2,8.13,0.45c1.55-0.74,4.59-2.46,6.59-4.76
						C78.27,104.63,80.31,101.98,80.31,101.98z"/>
					<path class="st6" d="M89.68,155.41c0,0-16.01-10.37-21.76-14.51c-7.16-5.14-11.98-9.3-18.59-16.4s-7.29-11.99-7.29-11.99
						s-1.11,9.39-0.64,14.62c0,0-0.64,4.19,7.16,8.01c7.81,3.83,17.72,7.96,19.65,9.06S81.14,149.81,89.68,155.41z"/>
					<g>
						<path class="st10" d="M159.1,124.5c0,0,7.27-0.7,9.69,0l1.02-1.23c0,0-2-2.2-3.19-2.67c0,0-3.26-0.27-5.25,0L159.1,124.5z"/>
						<path class="st11" d="M168.32,134.68c-0.76,2.26,10.59-4.42,10.59-4.42c-2.47-0.45-8.03,0-8.03,0S168.66,133.68,168.32,134.68
							z"/>
						<path class="st11" d="M151.23,113.5c0,0,4.73-1.15,5.46-0.59c0.73,0.55,2.4,1.99,2.4,1.99l0.61-1.07c0,0-2.28-2.94-2.93-3.49
							c-0.64-0.55-1.08-1.07-2.97-1.09L151.23,113.5z"/>
						<path class="st17" d="M140.17,96.7l0.55-1.06l-1.56-1.2c0,0,1.38-0.16,2.85,0.79c1.47,0.96,2.29,1.96,2.29,1.96
							s0.36,0.73,0.46,1.38c0.09,0.64-0.46,2.29-0.46,2.29L140.17,96.7z"/>
						<path class="st17" d="M149.79,105.97c0,0-2.46-1.52-3.02-1.8c-0.55-0.27-2.47-3.31-2.47-3.31l0.29-1.01c0,0,0.28,0.27,2,1.56
							c1.72,1.29,2.77,2.43,3.73,3.7L149.79,105.97z"/>
						<path class="st11" d="M133.79,91.8c0,0,4.08,0.94,5.36,2.66c0,0,0.92-1.93,0-3.21c-0.92-1.29-2.76-2.02-2.76-2.02h-0.55
							L133.79,91.8z"/>
						<path class="st10" d="M124,109.56c0,0-0.53,2.32-0.53,3.06s-0.36,1.19,0.46,0.88c0.82-0.32,3.94-1.89,4.59-1.43
							c0.64,0.46,1.11,0.93,1.11,0.93s0.18-1.01-0.55-1.84c-0.73-0.82-2.14-2.42-2.14-2.42L124,109.56z"/>
						<path class="st10" d="M135.86,123.28c0,0-1.38,0.73-1.15,0c0.23-0.73,0.78-4.17,0.78-4.17s6.15-2.99,8.54-3.72l-4.23,6.7
							C139.8,122.08,137.49,122.93,135.86,123.28z"/>
						<g>
							<path class="st12" d="M104.85,101.7c0,0,0-0.82,1.47-1.93c2.5-1.87,6.98-4.14,14.69-7.44c7.72-3.31,8.26-3.12,8.26-3.12
								l-4.68,6.24c0,0-10.01,3.85-16.25,7.99c0,0-0.55,0.73-1.29,0.73C106.32,104.18,104.85,101.7,104.85,101.7z"/>
							<path class="st12" d="M119.33,102.43c0,0,10.28-14.05,12.21-16.34c0,0,0.82-1.2,1.38-0.82s3.49,2.38,3.49,2.38
								s0.09,1.19,0,1.56c0,0,0.18-0.73-0.55,0c-0.73,0.73-8.35,10.84-11.2,15.15l-3.09,1.22L119.33,102.43z"/>
							<path class="st12" d="M116.48,111.89l-2.47-2.76c0,0,0.09-1.29,1.24-1.74c1.15-0.46,13.63-4.68,18.95-5.41l2.24,2.2
								c0,0-2.06,1.84-2.62,2.76C133.84,106.93,120.52,110.33,116.48,111.89z"/>
							<path class="st12" d="M129.61,112.99c0,0,3.39-5.88,6.83-8.81c0,0,2.07,1.29,3.36,3.31c0,0-3.21,4.5-4.23,6.15
								c0,0-2.76,1.38-3.49,1.74L129.61,112.99z"/>
							<path class="st12" d="M128.41,123.28l-2.76-2.38c0,0-0.73-1.11,0.73-2.29c1.47-1.2,15.38-8.72,21.26-8.81l-3.62,5.6
								C144.03,115.38,133.19,119.51,128.41,123.28z"/>
							<path class="st12" d="M141.68,123.78l-1.88-1.7l11.11-17.9v-0.64c0,0,0.36-0.27,1.01,0c0.64,0.27,2.85,2.47,2.85,2.47
								s0.27,0.46,0,1.47s-8.99,14.69-8.99,14.69S143.15,122.86,141.68,123.78z"/>
							<path class="st12" d="M138.11,131.26l-2.63-2.29c0,0,0.08-1.2,0.96-2.2c0.88-1.01,7.03-6.09,19.61-6.28l-3.05,4.52
								C153,125.01,144.5,125.57,138.11,131.26z"/>
							<path class="st12" d="M152.76,132.83l-3.23-2.5c0,0,4.96-7.25,11.02-18c0,0,0.46-1.11,1.38-0.46s2.76,1.61,2.76,1.61
								s0.55,0.23,0.46,1.88l-0.46-0.46c0,0-7.84,13.31-9.79,17.07L152.76,132.83z"/>
							<path class="st12" d="M145.54,137.97c0,0,0.23-1.29,1.79-2.38c1.56-1.11,6.34-4.68,16.98-4.96l-2.85,4.87
								c0,0-4.87-1.01-12.95,4.32c0,0,0,0.55-1.2,0C146.14,139.24,145.54,137.97,145.54,137.97z"/>
							<path class="st10" d="M159.3,138.68c0,0,7.87-13.57,13.1-18.07l3.76,2.67v0.73v0.55l-0.55-0.27c0,0-4.35,4.46-7.28,10.39
								c0,0-4.36,2.28-7.94,4.85L159.3,138.68z"/>
							<path class="st12" d="M158.25,147.97l-2.67-2.02c0,0-0.36-0.82,0-1.65c0.36-0.82,6.15-8.81,26.99-15.24
								c0,0,0.92-0.46,2.67,0.78c1.74,1.24,2.67,1.42,2.67,1.42s0.92,0.92,0.55,1.93c0,0-1.11-1.29-2.2-1.11
								c-1.11,0.18-8.89,2.67-14.27,5.6C166.61,140.62,161.01,144.2,158.25,147.97z"/>
						</g>
					</g>
					<path class="st4" d="M165.15,142.74c0,0,4.02,1.39,7.24,0c3.21-1.39,12.88-6.94,12.88-6.94s0.99-1.51-0.79-3.22l2.52-0.95
						l6.06,4.32l-4.99-1.58c0,0,0.03,1.31-0.89,2.22c-0.92,0.92-9.46,5.79-10.46,6.34c-1.01,0.55-4.7,2.37-7.5,2.37l-3.61-1.19
						L165.15,142.74z"/>
					<path class="st2" d="M241.8,168.53c0,0,0.36-6.88-4.27-9.44c-4.81-2.65-9.51-4.16-11.34-5.07c0,0-7.99,4.5-8.45,4.87
						c-0.46,0.37-0.46,0.46,0,1.47c0.46,1.01,4.59,7.99,5.05,9.64c0.46,1.65,0.82,2.85,0.09,3.76c-0.73,0.92-7.44,9.19-8.08,10.1
						c-0.64,0.92-0.64,3.21-0.64,3.21s7.25-1.38,11.93-3.76c0,0,0-6.7,3.12-8.45c3.12-1.74,9.64-5.23,10.93-6.25
						C240.15,168.63,241.71,167.99,241.8,168.53z"/>
					<path class="st9" d="M41.31,125.87c0,0-0.84,4.18,3.2,6.72c4.03,2.55,22.22,10.73,29.83,14.52
						c7.61,3.78,14.65,8.16,22.64,13.53c7.99,5.37,28.88,17.49,36.82,20.24c7.94,2.76,24.33,9.09,52.42,8.67s39.02-5.73,39.89-6.25
						c0,0,1.15,2.53,0.59,3.76c0,0-0.82,1.79-13.77,4.82s-35.39,6.75-59.36,3.17c0,0-16.8-2.76-33.05-11.43c0,0-9.37-6.2-15.01-10.6
						s-15.84-13.22-23-16.8c-7.16-3.58-20.2-9.64-26.69-11.57c-6.5-1.93-12.56-4.55-15.86-6.88c-3.31-2.34-1.93-7.41-1.38-8.8
						C39.13,127.59,41.31,125.87,41.31,125.87z"/>
					<path class="st19" d="M40.12,138.01c3.36,2.25,9.37,4.96,15.86,6.88c6.5,1.93,19.54,7.99,26.69,11.57
						c7.16,3.58,17.36,12.4,23,16.8s15.01,10.6,15.01,10.6c16.25,8.67,33.05,11.43,33.05,11.43c23.97,3.58,46.41-0.14,59.36-3.17
						c12.95-3.03,13.77-4.82,13.77-4.82s1.11,3.58-2.62,7.29c-3.72,3.72-11.57,8.81-40.35,16.11c0,0-3.03,1.38-6.34,0
						c0,0-4.55,2.34-18.86,2.62c0,0-2.76-0.14-4.96-2.06c0,0-2.62,2.2-5.93,2.06c-3.31-0.14-11.8-2.06-12.16-2.34
						c-0.36-0.27-2.49-1.11-3.15-2.62c0,0-0.79,1.79-4.25,0.97c-3.44-0.82-11.57-4.96-11.57-4.96s-1.65-1.11-1.93-2.47
						c0,0-1.52,0.55-4.96-1.38c-3.44-1.93-5.93-4.68-5.93-4.68s-0.55,0.41-1.1,0.27c-0.55-0.14-3.44-2.47-3.44-2.47l-0.97-0.97
						c0,0-1.1,0.27-2.06,0.14c-0.97-0.14-6.75-2.47-9.64-3.31c-2.89-0.82-10.33-2.62-11.29-2.89c-0.97-0.27-3.17-2.76-3.17-2.76
						s-4.91,0.97-12.58-2.06c-7.67-3.03-10.84-5.23-10.84-5.23s-1.55-1.24-1.74-2.2c-0.19-0.97-1.69-3.31-2.45-3.58
						s-1.74,0.82-2.91,0c-1.17-0.82-6.19-4.41-9.04-11.84c-2.86-7.43,0.72-15.36,2.37-19.19c1.65-3.81,2.96-4.39,2.96-4.39
						S39.29,137.45,40.12,138.01z"/>
					<path class="st8" d="M133.42,102.1l0.78-0.12c0,0,1.55,1.71,2.24,2.2s2.67,2.2,3.36,3.31l-0.23,0.33c0,0,0.84,0.54,0.93,0.4
						c0.09-0.14-0.82-2.47-2.85-4.04c-2.02-1.56-2.16-1.79-2.97-2.38C133.88,101.19,133.42,102.1,133.42,102.1z"/>
					<path class="st7" d="M184.76,210.23c0,0,24.54-5.77,33.71-11.71c0,0,7.7-3.72,8.37-9.1c0,0-0.89-6.69-0.57-8.4
						c0.31-1.71,0.72-5.55,3.72-6.89c3-1.34,9.35-5.25,10.14-5.5c0.79-0.25,1.56-0.51,2.38,0.82c1.79,2.89,3.58,7.72,3.58,13.49
						c0,2.34,0.14,2.06-1.52,3.17c-1.66,1.11-21.21,12.54-25.34,14.46c-4.14,1.93-8,3.97-17.77,7.02
						c-9.8,3.06-12.16,3.17-14.83,3.85C186.67,211.46,185.94,211.34,184.76,210.23z"/>
					<path class="st7" d="M33.27,160.55c0,0,2.91,6.43,8.26,10.01c0,0,0.62,0.48,1.39,0.26s1.51-0.45,1.97,0.06
						c0,0-0.91,0.4-1.57,0.53c-0.66,0.13-1.6,0.33-2.68-0.53c-1.07-0.87-5.26-5.21-7.37-10.03
						C31.15,156.03,33.27,160.55,33.27,160.55z"/>
					<path class="st7" d="M50.06,177.2c0,0,9.36,4.85,14.22,5.88c4.86,1.03,7.78,0.55,7.78,0.55l0.99,1.05c0,0-4.58,0.23-8.85-0.76
						C59.9,182.91,51.01,178.83,50.06,177.2z"/>
					<path class="st7" d="M106.74,198.36c0,0,2.91,1.68,4,2.51c1.1,0.83,2.39,1,3.85,0.81c0,0-0.03,1.62,3.88,3.44
						c3.91,1.82,9.61,3.99,9.61,3.99s3.07,0.95,4.24-0.97c0,0,0.97,2.6,7.65,3.73c6.67,1.15,7.67,1.22,7.67,1.22
						s4.73-0.34,5.93-2.06l1.01,0.74c0,0-2.15,1.94-6.24,2.01c-4.07,0.07-11.43-1.87-13.5-2.94c-2.07-1.07-2.51-1.47-2.51-1.47
						s-0.98,0.73-2.37,0.73c-1.4,0-2.55-0.33-4.07-0.94c-1.54-0.6-9.76-5.01-9.76-5.01s-1.21-0.66-1.34-0.94
						c-0.13-0.27-1.6-0.4-2.68-0.8C111.04,202.03,106.74,198.36,106.74,198.36z"/>
					<path class="st7" d="M161.44,213.02c0,0,12.98-0.61,15.95-2.53c0,0,0.79,0.5,2.11,0.55c0,0-3.01,1.75-9.03,2.76
						s-8.1,0.53-8.1,0.53L161.44,213.02z"/>
					<path class="st15" d="M46.58,89.98c0,0-3.86-3.3-3.8-6.74c0.07-3.44,4.16-10.86,9.14-10.45c0,0-1.38-0.56-4.57,0.81
						c-3.19,1.38-3.83,1.89-3.83,1.89s-2.31,1.42-2.87,3.41s-1.11,3.92-1.17,5.09s0.21,2.89,1.31,4.68c1.11,1.79,2.41,3.1,3.03,3.51
						c0.62,0.41,1.61,0.63,1.61,0.63l1.01-1.53L46.58,89.98z"/>
					<g>
						<path class="st13" d="M203.12,205.02c0,0-2.97-2.75-8.85-3.15c0,0,5.56,2.37,6.54,3.94L203.12,205.02z"/>
						<path class="st13" d="M165.07,204.2c0,0,10.52,2.75,12.77,6.45l-1.82,0.46l-1.15-1.45
							C174.87,209.65,172.23,206.92,165.07,204.2z"/>
						<path class="st13" d="M148.11,208.08c2.95,2.16,4.12,3.88,4.12,3.88l1.95-0.62c0,0-2.59-2.85-4.99-4.27
							s-11.77-8.64-15.29-13.08c0,0-0.73-0.68-0.46,0.41C133.72,195.49,145.36,206.06,148.11,208.08z"/>
						<path class="st13" d="M124.67,201.48c2.34,2.59,6.14,7.69,6.14,7.69l1.71-0.79c0,0-5.71-6.18-8.53-9.5
							c-2.93-3.46-8-9.64-8-9.64s-1.06-0.92-0.4,0.3S120.36,196.71,124.67,201.48z"/>
						<path class="st13" d="M114.43,201.54c0,0-1.45-2.3-3.16-4.73c-1.71-2.42-6.02-9.35-6.17-9.58c-0.14-0.24-2.9-4.79-2.9-4.79
							s-0.59-0.66-0.78-0.36c-0.19,0.31-0.01,0.83,0.84,2.31c0.85,1.49,3.51,6.7,4.32,7.61c0.79,0.91,4.43,5.15,4.59,5.63
							c0.16,0.48,0,0.71,0,0.71l2.24,3.37l1.02,0.16v-0.34H114.43z"/>
						<path class="st13" d="M98.27,192.44c0,0-1.28-2.69-2.4-3.53c-1.14-0.85-2.75-2.24-3.34-2.82c-0.59-0.57-2.73-2.36-2.73-2.36
							s-0.58-0.17,0.55,1.04c1.13,1.21,2.55,2.34,2.66,3.2c0.11,0.86,0.32,0.53,0.96,1.26c0.63,0.72,1.13,1.37,1.68,1.99
							c0.55,0.63,0.56,1.4,0.56,1.4L98.27,192.44z"/>
						<path class="st13" d="M69.58,183.7c0,0-0.62-2.88-3.51-4.79c-4.57-3.03-8.11-12.67-9.22-11.92c-0.55,0.37,3.48,6.67,3.48,6.67
							s2.82,3.99,3.8,5.67c0.99,1.69,1.62,2.37,1.17,2.63c-0.45,0.25-0.51,1.32-0.51,1.32S66.79,183.78,69.58,183.7z"/>
						<path class="st13" d="M43.77,170.51c0,0-2.2-1.66-3.16-3.14s-3.21-6.86-3.21-15.27c0,0-0.93-2-0.67,1.92
							c0.25,3.93,0.74,6.78,1.49,10.85c0.45,2.46,1.03,3.3,1.03,3.3s1.08,2.13,2.2,2.3c0,0,0.28,0.37,1.31,0.34
							C43.17,170.8,43.77,170.51,43.77,170.51z"/>
						<path class="st13" d="M57.91,144.81c0,0,13.58,17.71,18.68,22.03c0,0,2.6,0.74,4.25,1.02c0,0-11.36-11.81-16.96-21.17
							C63.87,146.69,59.32,145.86,57.91,144.81z"/>
						<path class="st13" d="M46.72,140.96l4.65,2.36c0,0-0.39,5.95,5.08,13.94l-2-0.65C54.44,156.62,51.95,154.32,46.72,140.96z"/>
						<path class="st13" d="M40.69,137.74c0,0-2.29-1.54-2.59-2.61l0.54,6.4c0,0,0.36,0.9,0.52,0.12
							C39.32,140.89,40.69,137.74,40.69,137.74z"/>
					</g>
				</g>
			</g>
			<g>
				<path class="st17" d="M104.98,101.6c0,0,0-0.82,1.47-1.93c2.5-1.87,6.98-4.14,14.69-7.44c7.72-3.31,8.26-3.12,8.26-3.12
					l-4.68,6.24c0,0-10.01,3.85-16.25,7.99c0,0-0.55,0.73-1.29,0.73C106.45,104.09,104.98,101.6,104.98,101.6z"/>
				<path class="st17" d="M119.47,102.34c0,0,10.28-14.05,12.21-16.34c0,0,0.82-1.2,1.38-0.82c0.55,0.37,3.49,2.38,3.49,2.38
					s0.09,1.19,0,1.56c0,0,0.18-0.73-0.55,0c-0.73,0.73-8.35,10.84-11.2,15.15l-3.09,1.22L119.47,102.34z"/>
				<path class="st17" d="M116.62,111.8l-2.47-2.76c0,0,0.09-1.29,1.24-1.74c1.15-0.46,13.63-4.68,18.95-5.41l2.24,2.2
					c0,0-2.06,1.84-2.62,2.76C133.97,106.84,120.66,110.24,116.62,111.8z"/>
				<path class="st17" d="M129.75,112.9c0,0,3.39-5.88,6.83-8.81c0,0,2.07,1.29,3.36,3.31c0,0-3.21,4.5-4.23,6.15
					c0,0-2.76,1.38-3.49,1.74L129.75,112.9z"/>
				<path class="st17" d="M128.55,123.19l-2.76-2.38c0,0-0.73-1.11,0.73-2.29c1.47-1.2,15.37-8.72,21.26-8.81l-3.62,5.6
					C144.16,115.29,133.32,119.42,128.55,123.19z"/>
				<path class="st17" d="M141.82,123.69l-1.88-1.7l11.11-17.9v-0.64c0,0,0.37-0.27,1.01,0c0.64,0.27,2.85,2.47,2.85,2.47
					s0.27,0.46,0,1.47s-8.99,14.69-8.99,14.69S143.29,122.77,141.82,123.69z"/>
				<path class="st17" d="M138.25,131.17l-2.63-2.29c0,0,0.08-1.2,0.96-2.2s7.03-6.09,19.61-6.28l-3.05,4.52
					C153.14,124.92,144.64,125.48,138.25,131.17z"/>
				<path class="st17" d="M152.9,132.74l-3.23-2.5c0,0,4.96-7.25,11.02-18c0,0,0.46-1.11,1.38-0.46c0.92,0.64,2.76,1.61,2.76,1.61
					s0.55,0.23,0.46,1.88l-0.46-0.46c0,0-7.84,13.31-9.79,17.07L152.9,132.74z"/>
				<path class="st17" d="M145.68,137.87c0,0,0.23-1.29,1.79-2.38c1.56-1.1,6.34-4.68,16.98-4.96l-2.85,4.87
					c0,0-4.87-1.01-12.95,4.32c0,0,0,0.55-1.2,0C146.27,139.16,145.68,137.87,145.68,137.87z"/>
				<path class="st17" d="M159.43,138.59c0,0,7.87-13.57,13.1-18.07l3.76,2.67v0.73v0.55l-0.55-0.27c0,0-4.35,4.46-7.28,10.39
					c0,0-4.36,2.28-7.94,4.85L159.43,138.59z"/>
				<path class="st17" d="M158.39,147.88l-2.67-2.02c0,0-0.36-0.82,0-1.65c0.37-0.82,6.15-8.81,26.99-15.24c0,0,0.92-0.46,2.67,0.78
					c1.74,1.24,2.67,1.42,2.67,1.42s0.92,0.92,0.55,1.93c0,0-1.11-1.29-2.2-1.11c-1.11,0.18-8.89,2.67-14.27,5.6
					C166.74,140.53,161.14,144.11,158.39,147.88z"/>
			</g>
			<path class="st17" d="M140.52,96.58l0.55-1.06l-1.56-1.2c0,0,1.38-0.16,2.85,0.79c1.47,0.96,2.29,1.96,2.29,1.96
				s0.36,0.73,0.46,1.38c0.09,0.64-0.46,2.29-0.46,2.29L140.52,96.58z"/>
			<path class="st17" d="M150.72,104.91c0,0-2.46-1.52-3.02-1.8c-0.55-0.27-2.47-3.31-2.47-3.31l0.29-1.01c0,0,0.28,0.27,2,1.56
				c1.72,1.29,2.77,2.43,3.73,3.7L150.72,104.91z"/>
			<path class="st17" d="M149.82,105.64c0,0-2.46-1.52-3.02-1.8c-0.55-0.27-2.47-3.31-2.47-3.31l0.29-1.01c0,0,0.28,0.27,2,1.56
				c1.73,1.29,2.77,2.43,3.73,3.7L149.82,105.64z"/>
			<path class="st20" d="M159.1,124.5c0,0,7.27-0.7,9.69,0l1.02-1.23c0,0-2-2.2-3.19-2.67c0,0-3.26-0.27-5.25,0L159.1,124.5z"/>
			<path class="st20" d="M168.32,134.68c-0.76,2.26,10.59-4.42,10.59-4.42c-2.47-0.45-8.03,0-8.03,0S168.66,133.68,168.32,134.68z"
				/>
			<path class="st20" d="M151.23,113.5c0,0,4.73-1.15,5.46-0.59c0.73,0.55,2.4,1.99,2.4,1.99l0.61-1.07c0,0-2.28-2.94-2.93-3.49
				c-0.64-0.55-1.08-1.07-2.97-1.09L151.23,113.5z"/>
		</g>
		<g>
			<text transform="matrix(1 0 0 1 198.5199 81.7979)" class="st21 st22 st23 st24">T</text>
		</g>
	</g>
</g>
</svg>
