<?xml version="1.0" encoding="utf-8"?>
<!-- Generator: Adobe Illustrator 24.3.0, SVG Export Plug-In . SVG Version: 6.00 Build 0)  -->
<svg version="1.1" id="Livello_1" xmlns="http://www.w3.org/2000/svg" xmlns:xlink="http://www.w3.org/1999/xlink" x="0px" y="0px"
	 viewBox="0 0 277.53 277.53" style="enable-background:new 0 0 277.53 277.53;" xml:space="preserve">
<style type="text/css">
	.st0{fill:#FBB03B;}
	.st1{fill:#201E20;}
	.st2{fill:#3A3637;}
	.st3{fill:#504E4D;}
	.st4{fill:#272628;}
	.st5{fill:#73747B;}
	.st6{fill:#C66523;}
	.st7{fill:#FFFFFF;}
	.st8{fill:#FCFAFA;}
	.st9{font-family:'Arial-BoldMT';}
	.st10{font-size:77.1011px;}
	.st11{letter-spacing:1;}
</style>
<g>
	<rect x="0.16" y="-0.18" class="st0" width="277.18" height="277.18"/>
	<g>
		<g>
			<g>
				<g>
					<path class="st1" d="M47.36,206.77c-2.17,1.32-4.16,1.24-5.76-0.9c-0.64-0.86-1.58-0.59-2.37-0.9
						c0.28-0.91,0.96-1.47,1.73-1.92c0.59-0.34,1.85,0.33,1.76-0.98c-0.06-0.9-0.64-1.85-1.5-2.09c-2.82-0.81-2.15-2.17-0.6-3.6
						c-0.93-0.97-2.53,0.14-2.92-1.21c-0.5-1.76,1.88-0.49,2.02-1.72c0.01-0.09,0.03-0.17,0.05-0.26c2.78,1.63,5.81,2.64,8.79,3.83
						c5.54,2.19,11.16,4.1,16.93,5.58c1.41,0.36,2.84,0.57,4.21-0.18c0.45,0,0.92,0.08,1.35-0.01c7.53-1.67,14.16,0.37,20.39,4.6
						c2.86,1.94,5.99,3.49,9,5.22c5.52,4.08,11.4,7.37,17.88,9.81c13.63,5.16,27.71,7.57,42.21,7.89c3.26,0.07,6.38-1.23,9.66-1.02
						c3.48-0.17,6.71-0.85,8.86-4.06c0.58-0.88,1.22-1.67,0.81-2.69c-0.5-1.26-1.73-0.77-2.63-0.71
						c-8.76,0.46-17.38-1.02-26.07-1.63c-0.59-0.83-1.44-0.51-2.22-0.51c-0.89-0.01-1.78-0.02-2.67-0.03
						c-0.89-0.85-1.79-0.8-2.72-0.07c-0.53-0.01-1.08-0.01-1.61-0.02c-0.11-0.78-0.65-0.9-1.34-1.04
						c-3.49-0.74-7.04-1.33-10.42-2.41c-9.25-2.92-17.82-7.45-26.54-11.59c-2.8-1.33-5.26-3.46-8.47-3.92l0,0
						c-0.34-1.53-1.7-1.29-2.75-1.59c-0.58-0.04-1.22,0.03-1.58-0.6c-0.2-1.27-1.2-1.44-2.2-1.59c-0.17-0.01-0.34-0.03-0.5-0.05
						c-0.09-1.1-0.88-1.07-1.66-1.05c-0.17-0.01-0.34-0.02-0.51-0.04c-0.08-1.1-0.87-1.09-1.66-1.05c-0.17-0.01-0.34-0.02-0.51-0.04
						c-0.62-1.89-2.45-1.63-3.85-2.13c-0.17,0-0.34-0.02-0.51-0.03c-0.03-0.71-0.4-1.08-1.12-1.06c-0.52-0.03-1.05-0.05-1.58-0.08
						c-0.07-0.7-0.44-1.05-1.16-0.99c-2.14-0.38-4.07-1.38-6.08-2.14c-4.41-1.68-8.66-3.83-13.4-4.53
						c-0.72-1.76-2.47-1.58-3.88-2.04c-0.52-0.03-1.05-0.05-1.57-0.08c-0.11-1.08-0.89-1.05-1.67-1.02
						c-0.52-0.03-1.06-0.06-1.58-0.09c-0.07-0.68-0.46-1.01-1.14-1c-0.92-0.53-1.83-1.06-2.75-1.59c0.48-0.81,0.55-1.68,0.6-2.6
						c0.24-3.94,2.07-6.12,5.89-7.14c3.21-0.86,3.79-0.54,5.06,2.65c0.27,0.68,0.69,1.33,1.5,1.39c0.27,0.02,0.68-0.27,0.83-0.53
						c0.37-0.67-0.06-1.38-0.48-1.7c-2.11-1.62-2.05-3.88-1.94-6.14c0.1-2.13,0.34-4.22-2.8-4.28c-0.63-0.01-1.53-0.51-1.33-1.41
						c0.21-0.95,0.99-0.66,1.75-0.56c2.98,0.39,5.94,0.49,8.62-1.31c1.79-1.21,3.78-0.91,5.4,0.12c1.79,1.15,3.38,1.8,5.12,0.33
						c0.89,0.8-1.03,1.5,0.24,2.15c0.99,0.51,1.2-0.33,1.69-0.81c0.44-0.42,1.06-0.64,1.54-1.04c0.97-0.79,1.87,0.39,2.82,0.05
						c0,0.24,0.04,0.49-0.02,0.72c-0.32,1.23-1.44,0.21-2.02,0.71c-0.11,0.1-0.13,0.31-0.27,0.69c3.01,2.37,6.36,2.83,10.19,1.91
						c-1.02-1.92-2.77-2.57-4.21-3.6c-1.88-1.35-3.69-2.78-5.54-4.17c0.39-0.07,0.79-0.14,1.19-0.2c-0.39-0.33-0.79-0.65-1.17-0.99
						c-0.31-0.14-0.61-0.27-0.93-0.41c-0.3-0.43-0.72-0.6-1.25-0.52l-0.02-0.01c-0.23-0.17-0.46-0.35-0.69-0.52l-0.14-0.02
						c-0.26-0.97-1.18-1.19-1.88-1.64c-1.49-1.89-2.62-4.72-4.55-5.46c-2.71-1.04-4.25-2.96-5.92-4.8
						c-4.45-4.91-9.34-9.46-12.41-15.51c-1.09-2.15-1.65-4.68-3.73-6.26c-1.48-1.97-0.98-4.31-1.19-6.51c1.04,0.56,1.17,2,2.84,2.68
						c-0.66-1.48-0.13-2.79-1.47-3.89c-0.47-0.38-1.69-1.48-0.79-2.8c1.91-2.79,1.91-6.52,4.39-9.06c1.17-1.59,2.99-2.43,4.36-3.78
						c1.65-0.21,2.65-1.23,3.32-2.66c1.22-0.52,2.79-0.54,3.21-2.22c0.91-0.54,1.8-1.1,2.71-1.64c4.07-1.09,7.76-3.19,11.92-4.08
						c5.93-1.26,11.42,0.92,14.63,6.03c3.01,4.8,3.12,10.41,4.52,15.66c0.48,1.79-0.89,3.78,0.77,5.36c-1.44,0.84-1.4,1.39,0.3,1.71
						c0.31,0.06,0.28,0.5,0.06,0.65c-2.19,1.5-1.47,4.62-3.49,6.23c-0.52,0.42-0.57,1.18-0.14,1.73c0.45,0.59,1.17,0.46,1.74,0.18
						c2.44-1.21,5.04-1.81,7.67-2.39c1.05-0.23,1.72-0.82,2.23-1.77c0.69-1.28,1.33-3.16,2.43-3.55c2.44-0.87,2.97-3.06,4.13-4.73
						c1.91-2.77,1.42-4.52-1.32-6.93c0.11-0.34,0.23-0.68,0.34-1.03c0.85-0.14,0.84-0.58,0.63-1.32c-0.45-1.6,0.4-1.37,1.37-0.87
						c0.71,1.71,1.15,3.77,3.81,2.93c0.16,1.37,0.97,1.88,2.28,1.71c0.38,0.06,0.75,0.13,1.14,0.19c0.35,0.67,0.91,0.56,1.48,0.39
						c2.81,0.43,5.6-0.67,8.41-0.17c1.13,0.75,2.46-0.03,3.64,0.47c-0.05,0.67-1.23,0.51-1.01,1.36c-3.81,0.69-7.18,2.6-10.7,4.05
						c-3.44,1.41-7.06,2.78-9.09,6.3c-1.03,0.23-2.21,0.29-1.99,1.85c-0.55,1.01-1.24,0.83-2.24,0.55
						c-1.93-0.52-4.76,1.25-5.61,3.38c-0.91,2.31-0.17,4.26,1.69,5.78c2.16,1.76,3.78,1.74,6.11-0.14c-1.28,0-2.33,0-3.37,0
						c1.55-0.29,2.64-1.25,3.76-2.13l0.17,0.14c2.67,0.69,5.05-0.23,7.4-1.33l0.15,0.2c-0.12,0.64-1.23,0.74-0.99,1.47
						c0.29,0.88,1.21,0.65,1.86,0.62c2.96-0.15,5.88-0.41,8.76-1.33c2.43-0.77,4.89-1.66,7.56-1.56c-1.73,1.44-4.13,2.2-3.7,5.08
						c-1.87,0.71-2.05,2.57-2.74,4.09c-0.65,0.44-1.34,0.44-2.05,0.18c-0.13-2.54-0.6-2.89-1.08-2.12
						c-1.43,2.33-3.27,1.59-5.19,1.21c-0.56-0.11-1.14,0.09-1.75,0.39c-1.35,0.68-2.97,0.29-4.46,0.87
						c-0.73,0.28-0.37-1.16-0.69-1.75c-0.47-0.86-1.2-0.42-1.89-0.44c-1.79-0.06-2.67,1.69-4.27,1.97c-2.45,0.43-3.9,2.31-5.51,3.92
						c-0.8,0.8-0.34,1.89,0.44,1.89c2.71-0.02,4.84,1.94,7.57,1.85c1.8-0.05,3.63-0.08,5.38,0.99c1.29,0.79,2.97,1.19,4.21-1.01
						c-0.52,1.52-0.14,2.09,1.01,2.83c3.49,2.22,7.77,2.81,11.05,5.33c2.53,1.95,5.81,2.08,8.4,3.92
						c5.94,4.22,12.03,8.23,18.03,12.37c1.09,0.75,2.21,1.2,3.53,1.07c0.53,0.37,1.07,0.74,1.6,1.12c0.18,0.18,0.35,0.36,0.53,0.53
						c1.38,1.56,2.43,3.75,5.77,2.88c-1.99-1.6-3.78-2.39-5.7-2.95c-0.18-0.18-0.36-0.36-0.53-0.53c-0.09-1.09-0.88-1.08-1.66-1.06
						c0-0.13,0.01-0.26,0.02-0.39c1.81-0.17,3.68,0.11,5.43-0.66l-0.01,0.16c0.29,1.03,1.04,1.41,1.99,1.2
						c1.01-0.22,1.41-0.96,1.2-1.99c0-0.16,0.01-0.32,0.04-0.47l0.03-0.02c2.19-0.48-0.14-1.89,0.54-2.69
						c1.09-1.27,2.17-2.55,3.26-3.81c0.28-0.02,0.55-0.03,0.84-0.05c0.86,1.33,2.18,1.41,3.56,1.33c2.96-0.18,5.92-0.35,9.07-0.53
						c-0.56,1.27-0.96,2.15-1.35,3.04c-0.06,0.37-0.12,0.74-0.18,1.12c-0.85-0.49-0.15-2.06-1.64-2.18
						c-1.93-0.16-3.75,0.4-5.59,0.78c-0.78,0.16-1.25,1.17-0.52,1.65c0.68,0.45,0.4,2.49,1.97,1.42c1.62-1.1,2.87-0.24,4.19,0.52
						c0.03,0.39,0.06,0.78,0.09,1.17c-0.05,0.5-0.1,1.01-0.16,1.51c-1.06,0.26-2.08,0.73-3.21,0.56c-2.13-1.43-4.02-3.32-6.7-3.75
						c-0.54-0.09-1.18-0.77-1.66,0.13c-1.2,2.21-2.38,4.43-2.65,7.01c-0.07,0.61-0.49,1.25,0.18,1.71c3.03,2.06,5.21,5.3,8.95,6.4
						c0.8,0.23,1.53,0.83,1.52,1.65c-0.01,0.65-0.87,0.87-1.48,0.93c-3.08,0.28-6.23,1.02-9.23,0.61c-2.71-0.35-2.91,1.03-3.2,2.89
						c-0.7-0.55-1.08-1.42-1.9-1.22c-1.58,0.38-2.71,0.57-1.96-1.74c0.19-0.59-0.6-1.06-1.36-0.78c-0.31,0.12-1.24-0.08-0.78,0.61
						c1.16,1.72-0.44,1.57-1.18,1.79c-2.32,0.69-4.99-1.27-7.16,0.91c-0.05,0.05-0.56-0.18-0.61-0.34c-0.34-1.22-1.34-0.95-2.2-1.08
						c-4.88-0.71-9.76-1.4-14.63-2.23c-13.62-2.34-26.25-7.35-38.11-14.37c-1.02-0.6-1.96-1.01-3.03-0.57
						c-1.16,0.46-2.01,0.33-2.9-0.6c-0.72-0.77-1.8-0.74-2.82-0.67c-0.06-0.55-0.2-1.06-0.92-1.01c-0.12,0.01-0.34,0.21-0.32,0.28
						c0.15,0.65,0.71,0.65,1.23,0.72c0.13,0.33,0.47,0.78,0.36,1c-1.05,2.09,0.27,3.23,1.62,4.47c0.77,0.7,2.16,0.7,2.35,2.05
						c0.65,4.98,5.67,5.82,8.58,8.57c1.9,1.8,4.24,4.13,7.48,4.25c0.4,0.02,0.72,0.97,1.17,1.4c1.71,1.66,3.04,4.17,5.91,3.76
						c4.01-0.56,6.92,1.95,10.11,3.47c1.6,0.76,2.93,0.61,4.45,0.81c2.82,0.34,2.39-1.57,3.32-2.74c1.03-1.28,1.77-3.96,4.24-2.6
						c2.26,1.25,4.2,3.07,6.35,4.55c2.14,1.47,3.98,3.99,7.04,3.03c2.15-0.67,4.33-0.94,6.45-0.64c2.84,0.39,5.4-0.92,8.12-0.91
						c2.17,0.01,4.44,1.04,6.38-0.88c0.21-0.21,0.96-0.16,1.25,0.05c1.73,1.23,2.89,1.14,3.67-1.09c0.33-0.95,1.46-1.46,2.5-1.22
						c1.35,0.31,0.74,1.34,0.58,2.2c-0.16,0.9,0.12,1.62,1.08,1.91c0.65,0.19,1.64,0.07,1.43,1.17c-0.16,0.89-0.52,1.77-1.51,2.08
						c-0.59,0.19-1.32,0.05-1.73,0.62c-0.19,0.26-0.28,0.65-0.27,0.99c0,0.15,0.46,0.47,0.52,0.43c1.14-0.76,3.08-0.23,3.61-1.86
						c0.74-2.26,2.6-2.54,4.46-2.78c2.22-0.29,4.37-1.1,6.4-1.82c2-0.71,3.96-1.58,6.05-2.12c1.88-0.49,4.07-0.85,5.45-2.03
						c2.36-2.01,5.14-2.14,8.03-3.01c-1.82,1.74-0.11,2.9,0.62,3.8c0.72,0.89,1.74-0.25,2.59-0.72c1.45-0.81,1.59-1.85,0.65-3.13
						c-0.58-0.8-0.35-1.6,0.47-1.67c1.88-0.14,2.79-1.58,3.97-2.63c1.95-1.74,3.36-0.07,4.26,1.03c1.15,1.39-1.02,1.39-1.58,2.09
						c-0.53,0.66-1.6,0.88-1.97,1.77c-0.11,0.28-0.03,0.68,0.09,0.99c0.04,0.1,0.58,0.16,0.68,0.05c1.67-1.98,3.29-1.18,4.95,0
						c0.4,0.28,0.88,0.22,1.25-0.11c1.24-1.12,2.8-1,4.3-1.3c1.61-0.32,3.29-0.1,4.88-1.35c2.02-1.59,3.03-0.84,3.18,1.85
						c0.04,0.73,0.18,1.38,0.53,2.05c1.5,2.9,1.48,4.12-0.23,6.6c-0.66,0.97-1.01,2.43-2.68,2.37c-1.11-0.04-2.19,0.36-1.79,1.69
						c0.46,1.53,1.54,0.57,2.44,0.29c1.38-0.43,3.65-0.96,3.64,0.71c-0.03,3.53,3.47,6.65,1.11,10.39c-0.48,0.76,0.13,1.54,0.78,2.1
						c-0.01,0.37-0.02,0.73-0.02,1.11c-0.63-0.01-1.1,0.08-1.57,0.71c-3.4,4.52-8.32,6.36-13.61,7.38
						c-1.33,0.26-2.77,0.13-3.56,1.44c-0.9,1.47,0.92,1.88,1.29,2.88c0.06,0.16,0.07,0.35,0.11,0.52c-0.67,0.51-1.47,0.59-2.27,0.59
						l-0.14-0.07l-0.12,0.11c-1.11,0.46-2.22,0.94-3.33,1.4c0.01-0.62,0.02-1.2,0.35-1.81c1.61-3.01,1.36-3.49-1.88-3.36
						c-2.49,0.11-4.87,0.95-7.3,1.43c-7.41,1.47-14.8,2.92-22.4,2.9c-1.9,0-4.41-0.85-4.21,2.63c0.01,0.18-0.34,0.38-0.53,0.57
						c-1.62,2.04-3.74,3.48-5.89,4.92c-1.65,1.11-3.45-0.37-5.21,0.55c-2.11,1.12-3.04-0.74-3.97-2.19
						c-0.54-0.86-0.92-0.5-1.67-0.14c-2.9,1.39-5.71,3.43-9.14,2.77c-2.12-0.41-4.18-0.56-6.31-0.37c-1.81,0.17-3.14-0.57-3.75-2.39
						c-0.52-1.56-1.55-1.99-3.14-1.56c-1.56,0.42-3.18,0.7-4.78,0.94c-2.6,0.38-5.26,1.5-7.65-0.75c-0.29-0.27-1.05-0.12-1.58-0.06
						c-2.02,0.22-3.31-0.7-3.91-2.57c-0.57-1.77-1.62-2.36-3.46-1.92c-3.3,0.77-6.44-0.06-9.53-1.23c-1.2-0.45-1.59-1.46-1.94-2.45
						c-0.51-1.42-1.39-1.82-2.88-1.76c-3.78,0.15-5.43-0.86-6.5-4.25c-0.47-1.49-1.32-1.54-2.41-1.42
						c-2.67,0.29-4.24-1.04-4.64-3.47c-0.63-3.93-3.42-5.65-6.59-7.14c-1.16-0.54-1.78-0.28-2.35,0.86
						c-0.66,1.35-5.28,3.6-6.59,3.39c-1.25-0.2-0.97-1.37-1.33-2.11c-0.38-0.79,0.21-2.35-1.28-2.19c-1.35,0.14-3,0.34-3.34,2.19
						c-0.45,2.47-1.72,4.24-4.17,5.04c-0.08,0.03-0.14,0.12-0.21,0.16c-2.3,1.32-7.85-0.87-8.61-3.38c-0.05-0.18-0.1-0.35-0.15-0.53
						c-0.3-0.26-0.6-0.53-0.91-0.8c-0.13-0.5-0.11-1.25-0.43-1.46c-2.13-1.39-3.49,2.88-5.8,0.86c-0.11,0.41-0.21,0.83-0.32,1.24
						c-2.7-0.3-1.97-2.73-2.65-4.28c0.66-1.33-0.19-1.69-1.17-1.47C49.07,205.52,47.81,205.5,47.36,206.77z M48.43,116.03
						c-0.01,0.74,0.37,1.09,1.1,1.08c0.42,1.58,1.15,2.84,3.39,3.18c-0.98-1.66-1.79-2.83-3.39-3.17
						C49.51,116.41,49.18,116.02,48.43,116.03c-0.06-0.65-0.19-1.28-0.94-1.46c-0.32-0.08-0.52,0.15-0.46,0.46
						C47.18,115.8,47.78,115.96,48.43,116.03z M81.04,148.81c2.42-1,1.68-2.77,1.09-4.49c-1.44-2.31-1.89-5.54-5.8-6.2
						c2.78,2.88,2.78,2.88,1.45,4.34c-0.56-0.2-2.7,1.34-1.25-1.14c0.4-0.68-0.24-1.35-0.66-1.57c-1.21-0.65-1.88-1.86-2.96-2.61
						c-0.4-1.06-1.31-1.66-2.15-2.31c-0.71-0.55-1.47-2.02-2.3-1.08c-0.58,0.67-1.52,2-0.74,3.32c0.27,0.47,1.04,1.07-0.26,1.22
						c-0.16-0.2-0.31-0.4-0.47-0.6c0.04-1.06-0.75-2.02-0.23-3.17c0.28-0.61-0.1-1.26-0.78-1.53c-0.22-0.09-0.58-0.07-0.77,0.06
						c-0.61,0.45-0.54,1.13-0.28,1.72c0.48,1.11,0.35,2.6,1.89,3.06c0.03,0.16,0.06,0.33,0.08,0.49c0.59,3.17,3.46,4.69,5.08,7.1
						c1.99,2.96,4.84,3.53,7.97,3.76c0.19-0.01,0.38-0.02,0.58-0.03C80.7,149.06,80.87,148.93,81.04,148.81z M128.88,153.5
						c1.33,1.94,3.51,2.13,5.52,2.62c0.65,0.16,1.24-0.34,1.45-0.99c0.3-0.94-0.46-0.92-1.07-1.11c-0.75-0.23-1.64-0.44-2.16-0.97
						c-1.54-1.54-2.68-1.16-3.74,0.46c0.24-3.38-3.07-3.35-4.77-4.82c-1.35-1.17-2.49,0-4.35,1.38c2.87,0.43,4.67,1.55,6.42,2.68
						C127.09,153.36,127.92,153.46,128.88,153.5z M202.42,195.77c0.37-0.22,1.01-0.39,1.24-0.8c0.73-1.24,1.84-1.22,3.04-1.28
						c1.25-0.06,2.49-0.35,3.72-0.54c0.63-0.1,1.15-0.47,0.6-1.04c-0.81-0.84-2.26-1.94-3-1.35c-2.01,1.64-4.66,1.6-6.69,2.99
						c-0.43,0.29-0.77,0.56-0.57,1.03C201.01,195.44,201.64,195.66,202.42,195.77z M117.68,198.06c2.15,0.54,2.06-1.38,2.33-2.63
						c0.28-1.36-1-1.65-1.93-1.62c-1.39,0.05-2.7,0.5-2.77,2.3C115.23,197.66,116.13,198.15,117.68,198.06z M179.39,228.6
						c-0.67-0.05-1.76,0.05-1.84,1.08c-0.08,1.06,1.05,1.02,1.83,0.99c1.04-0.04,1.89,0.43,2.78,0.82c0.74,0.32,1.22-0.04,1.46-0.7
						c0.21-0.59-0.09-1.09-0.65-1.27C181.87,229.18,180.75,228.94,179.39,228.6z M55.19,121.95c1.98,1.3,3.8,3.23,7.07,2.31
						C59.84,122.89,57.33,122.96,55.19,121.95z M78.11,124.29c1.42,0.07,2.84,0.67,4.26-0.2C80.95,123.61,79.53,123.39,78.11,124.29
						z M86.8,161.56c0.88,1,1.72,2.02,3.71,2.11C89.4,162.05,88.17,161.65,86.8,161.56z M72.55,131.7
						c-0.92-1.46-2.23-2.27-4.52-1.86C69.83,130.57,71.19,131.14,72.55,131.7z M65.49,124.13c-0.01,0.46,0.33,0.56,0.67,0.57
						c0.24,0.01,0.65,0,0.71-0.13c0.21-0.44-0.27-0.48-0.51-0.62C66.04,123.77,65.71,123.76,65.49,124.13z M47.16,205.28
						c-0.06-0.15-0.09-0.39-0.19-0.44c-0.11-0.05-0.3,0.1-0.45,0.15c0.06,0.15,0.08,0.39,0.19,0.44
						C46.8,205.5,46.99,205.34,47.16,205.28z M53.9,120.56c-0.14,0.08-0.35,0.13-0.38,0.24c-0.03,0.12,0.06,0.37,0.16,0.41
						c0.26,0.12,0.49-0.01,0.49-0.31C54.18,120.79,54,120.68,53.9,120.56z M64.06,124.28c-0.09-0.14-0.15-0.35-0.27-0.39
						c-0.12-0.04-0.39,0.05-0.43,0.15c-0.12,0.28,0.04,0.5,0.34,0.51C63.8,124.56,63.92,124.38,64.06,124.28z"/>
					<path class="st2" d="M243.5,213.82c-0.64-0.56-1.26-1.34-0.78-2.1c2.37-3.73-1.13-6.85-1.11-10.39
						c0.01-1.67-2.26-1.15-3.64-0.71c-0.9,0.28-1.97,1.24-2.44-0.29c-0.4-1.33,0.68-1.73,1.79-1.69c1.67,0.06,2.01-1.4,2.68-2.37
						c1.71-2.49,1.73-3.69,0.23-6.6c-0.35-0.67-0.48-1.32-0.53-2.05c-0.15-2.69-1.16-3.44-3.18-1.85c-1.59,1.25-3.27,1.03-4.88,1.35
						c-1.5,0.3-3.06,0.17-4.3,1.3c-0.37,0.34-0.86,0.39-1.25,0.11c-1.66-1.18-3.28-1.98-4.95,0c-0.09,0.11-0.64,0.05-0.68-0.05
						c-0.11-0.3-0.2-0.7-0.09-0.99c0.37-0.9,1.44-1.11,1.97-1.77c0.56-0.7,2.73-0.7,1.58-2.09c-0.91-1.09-2.32-2.76-4.26-1.03
						c-1.18,1.05-2.08,2.49-3.97,2.63c-0.83,0.06-1.06,0.88-0.47,1.67c0.94,1.27,0.8,2.32-0.65,3.13c-0.85,0.47-1.86,1.61-2.59,0.72
						c-0.73-0.91-2.45-2.06-0.62-3.8c-2.89,0.87-5.69,1-8.03,3.01c-1.39,1.19-3.56,1.54-5.45,2.03c-2.09,0.54-4.05,1.41-6.05,2.12
						c-2.03,0.72-4.17,1.53-6.4,1.82c-1.87,0.24-3.72,0.51-4.46,2.78c-0.53,1.63-2.47,1.1-3.61,1.86c-0.06,0.04-0.51-0.27-0.52-0.43
						c-0.01-0.33,0.08-0.71,0.27-0.99c0.41-0.58,1.15-0.43,1.73-0.62c1-0.32,1.35-1.21,1.51-2.08c0.2-1.1-0.78-0.98-1.43-1.17
						c-0.96-0.28-1.24-1.02-1.08-1.91c0.16-0.87,0.77-1.89-0.58-2.2c-1.04-0.24-2.16,0.28-2.5,1.22c-0.79,2.22-1.94,2.32-3.67,1.09
						c-0.3-0.21-1.04-0.26-1.25-0.05c-1.93,1.91-4.2,0.89-6.38,0.88c-2.73-0.01-5.28,1.3-8.12,0.91c-2.12-0.29-4.31-0.03-6.45,0.64
						c-3.07,0.96-4.89-1.56-7.04-3.03c-2.14-1.47-4.09-3.3-6.35-4.55c-2.46-1.36-3.2,1.32-4.24,2.6c-0.95,1.18-0.5,3.09-3.32,2.74
						c-1.52-0.18-2.84-0.04-4.45-0.81c-3.19-1.52-6.1-4.04-10.11-3.47c-2.87,0.4-4.2-2.1-5.91-3.76c-0.44-0.43-0.77-1.39-1.17-1.4
						c-3.24-0.12-5.58-2.45-7.48-4.25c-2.91-2.75-7.92-3.58-8.58-8.57c-0.18-1.35-1.58-1.35-2.35-2.05
						c-1.35-1.24-2.67-2.37-1.62-4.47c0.11-0.21-0.23-0.65-0.36-1l0,0c1.02-0.06,2.09-0.08,2.82,0.67c0.89,0.93,1.74,1.07,2.9,0.6
						c1.08-0.43,2.02-0.03,3.03,0.57c11.86,7.03,24.49,12.03,38.11,14.37c4.86,0.84,9.74,1.51,14.63,2.23
						c0.87,0.13,1.86-0.15,2.2,1.08c0.05,0.17,0.56,0.39,0.61,0.34c2.16-2.17,4.84-0.21,7.16-0.91c0.74-0.22,2.34-0.08,1.18-1.79
						c-0.47-0.69,0.46-0.49,0.78-0.61c0.75-0.29,1.55,0.18,1.36,0.78c-0.74,2.32,0.39,2.12,1.96,1.74c0.83-0.2,1.2,0.66,1.9,1.22
						c0.29-1.86,0.49-3.24,3.2-2.89c3,0.39,6.15-0.33,9.23-0.61c0.61-0.06,1.47-0.27,1.48-0.93c0.01-0.83-0.72-1.42-1.52-1.65
						c-3.72-1.11-5.92-4.34-8.95-6.4c-0.67-0.46-0.24-1.1-0.18-1.71c0.27-2.58,1.45-4.79,2.65-7.01c0.48-0.89,1.12-0.21,1.66-0.13
						c2.69,0.43,4.57,2.33,6.7,3.75c0.02,0.39,0.04,0.78,0.06,1.17c-1.18,0.76-2.37,1.52-2.31,3.18c-0.45,2.28,0.66,3.74,2.73,3.54
						c0.8-0.08,1.59-0.27,2.39-0.29c3.45-0.07,5.14-1.4,6.27-4.99c0.14-0.16,0.28-0.33,0.42-0.49c1.12,0.03,1.36,0.74,1.3,1.68
						c-0.04,0.08-0.08,0.16-0.12,0.24c0.04-0.07,0.09-0.15,0.13-0.22c0.97,0.4,1.94,0.81,2.91,1.21c0.61,0.26,1.03,0.37,1.48-0.43
						c1.15-2.04,3.12-3,5.33-3.52c0.01,0.27,0,0.54,0.05,0.82c0.14,0.74-0.4,1.92,0.56,2.12c1.13,0.23,0.89-1.04,1.18-1.73
						c0.66-1.6,2.7-2.99,4.58-3.21c-2.46,2.69-3.14,4.74-2.15,6.45c2.44-6.5,1.96-5.9,10.94-5.65c-0.31,0.73-0.61,1.43-0.93,2.15
						c-1.03-1.1-1.07-1.15-1.26-1c-0.42,0.33-0.87,0.7-0.77,1.33c0.08,0.53,0.22,1.05,0.34,1.57c-0.34-0.02-0.67-0.05-1.02-0.07
						c-0.96-0.45-0.82-2.43-2.08-2.04c-1.68,0.5-1.66,2.58-3.25,4.18c1.29-0.2,2.08-1.37,2.54-0.08c-0.32,0.38-0.65,0.75-0.98,1.14
						c-0.74,0.52-0.72,1.12-0.13,1.72c0.15,0.15,0.52,0.28,0.67,0.2c0.79-0.42,0.36-1.22,0.5-1.85c0.94-0.57,1.56-1.59,2.7-1.87
						c0,0.36,0.03,0.72-0.02,1.08c-0.51,3.95,1.26,5.28,5.01,3.73c0.8-0.33,1.67-0.47,2.38-0.18c3.5,1.45,6.13-0.72,8.95-2.05
						c0.93-0.43,1.57-1.58,2.84-0.85c1.55,0.9,0.59,2.04,0.03,3.14c1.55,0.02,2.04-1.17,2.96-1.67c0.6-0.33,1.15-1.12,1.87-0.4
						c1.11,1.09,1.75-0.05,2.57-0.42c1.1,0.52,1.69,1.52,2.3,2.51c-0.11,0.76,0.16,1.23,0.98,1.29c0.91,0.83,1.34,1.93,1.63,3.05
						c2.72,10.33,4.37,20.73,1.72,31.35C244.02,212.87,243.72,213.34,243.5,213.82z M204.39,174.15c-2.73-2.75-2.72,2.16-4.72,1.57
						c0.82,0.86,1.54,1.66,2.67,0.66C204.03,176.57,204.63,175.74,204.39,174.15z M162.65,185.88c1.54,1.73,1.58,1.73,3.39,0.05
						C164.94,186.51,163.86,185.64,162.65,185.88z M159.42,186.26c-0.07,0.56,0.23,0.83,0.73,0.9c0.35,0.05,0.84,0.07,0.88-0.32
						c0.06-0.55-0.21-1.07-0.87-1.14C159.79,185.66,159.49,185.84,159.42,186.26z"/>
					<path class="st2" d="M76.17,152.92c1.84,1.4,3.65,2.83,5.54,4.17c1.44,1.03,3.19,1.67,4.21,3.6
						c-3.83,0.92-7.18,0.45-10.19-1.91c0.14-0.38,0.16-0.59,0.27-0.69c0.57-0.5,1.7,0.51,2.02-0.71c0.06-0.23,0.01-0.48,0.02-0.72
						c-0.94,0.34-1.84-0.83-2.82-0.05c-0.48,0.38-1.1,0.61-1.54,1.04c-0.49,0.47-0.7,1.32-1.69,0.81c-1.27-0.65,0.64-1.36-0.24-2.15
						c-1.74,1.47-3.32,0.82-5.12-0.33c-1.61-1.03-3.61-1.33-5.4-0.12c-2.68,1.8-5.64,1.7-8.62,1.31c-0.77-0.1-1.54-0.39-1.75,0.56
						c-0.2,0.91,0.69,1.4,1.33,1.41c3.13,0.06,2.9,2.14,2.8,4.28c-0.11,2.26-0.17,4.52,1.94,6.14c0.41,0.32,0.86,1.03,0.48,1.7
						c-0.15,0.26-0.55,0.55-0.83,0.53c-0.82-0.06-1.23-0.69-1.5-1.39c-1.27-3.19-1.85-3.51-5.06-2.65c-3.81,1.02-5.65,3.2-5.89,7.14
						c-0.06,0.92-0.12,1.79-0.6,2.6c-3.29-0.19-4.55-3.18-6.71-4.91c-0.16-0.25-0.31-0.51-0.47-0.76c0.21-0.82-0.03-1.33-0.92-1.43
						c-0.18-0.36-0.35-0.72-0.53-1.09c0.92-1.17,0.55-2.28,0.03-3.5c-0.73-1.73-1.53-4.15-1.22-5.36c0.84-3.19,0.57-6.54,1.88-9.69
						c1.05-2.51,2.46-5.17,1.48-8.17c-0.19-0.58-0.03-1.33,0.56-1.71c3.83-2.47,1.88-6.25,1.77-9.33c-0.11-3.01-1.26-6.04-1.36-9.15
						c1.25-1.94,0.6-4.25,1.21-6.31c0.33-0.14,0.46-0.32,0.09-0.57c0-1.97,0.03-3.95,0.46-5.89c1.69-1.47,2.15-3.7,3.45-5.47
						c2.3-3.1,1.98-6.51,0.24-9.84c0.46-1.98-1.49-3.37-1.29-5.28c0.85-0.32,1.16-1.46,2.17-1.46c0.43,0,1.09,0.09,1.25,0.37
						c0.38,0.64-0.58,0.38-0.68,0.74c-0.12,0.42-0.38,0.96-0.23,1.27c1.13,2.28,1.13,4.99,2.67,7.11c-0.34,0.06-0.74,0.04-0.82,0.5
						c-0.01,0.09,0.21,0.31,0.3,0.3c0.46-0.07,0.45-0.46,0.5-0.82c0.35-0.01,0.71-0.02,1.07-0.02c-2.48,2.54-2.47,6.27-4.39,9.06
						c-0.91,1.32,0.31,2.42,0.79,2.8c1.34,1.1,0.81,2.41,1.47,3.89c-1.66-0.67-1.8-2.11-2.84-2.68c-1.31-0.78-1.57-0.05-1.53,1.09
						c0.06,1.55-0.14,3.02-0.7,4.5c-1.53,3.96-2.26,8.01-0.95,12.2c0.13,0.42,0.09,0.93,0.64,1.07c0.56,0.14,0.71-0.28,1.01-0.64
						c2.06-2.63,4.05-2.67,6.09-0.17c0.31,0.37,0.7,0.73,1.13,0.57c0.67-0.25,0.52-1,0.25-1.37c-1-1.35-1.93-2.96-3.67-3.31
						c-0.87-0.17-1.35-0.62-1-1.07c1.79-2.2,0.15-4.25-0.08-6.35c2.07,1.58,2.64,4.11,3.73,6.26c3.07,6.05,7.97,10.6,12.41,15.51
						c1.67,1.84,3.22,3.77,5.92,4.8c1.93,0.73,3.06,3.56,4.55,5.46c0.11,1.14,0.95,1.45,1.88,1.64l0.14,0.02
						c0.23,0.17,0.46,0.35,0.69,0.52l0.02,0.01c0.25,0.56,0.73,0.59,1.25,0.52c0.31,0.14,0.61,0.27,0.93,0.41
						C76.17,152.14,76.17,152.53,76.17,152.92z M64.22,146.44c-0.15-0.44,0.32-1.2-0.53-1.25c-0.4-0.03-1,0.19-0.87,0.76
						c0.16,0.7,0.86,0.45,1.35,0.52c-0.48,1.62,1.6,1.95,1.65,3.3c0.07,2.98,0.89,3.92,3.3,3.71c1.36,1.1,2.69,1.08,4.01-0.1
						c-0.24-0.72-1.29-0.17-1.63-1.34c-0.37-1.3-1.59-2.37-3.55-2.64C66.78,149.25,66.41,146.38,64.22,146.44z M49.25,130.01
						c1.6,0.22,0.98,3.15,3.55,2.71C51.42,131.7,51.45,129.64,49.25,130.01z M54.69,134.64c-0.68-0.79-1.34-0.82-2.3-0.4
						C53.2,135.16,53.84,135.32,54.69,134.64z"/>
					<path class="st3" d="M36.79,172.56c2.16,1.73,3.42,4.72,6.71,4.91c0.92,0.53,1.83,1.06,2.75,1.59c0.05,0.7,0.39,1.08,1.14,1
						c0.52,0.03,1.06,0.06,1.58,0.09c0.09,1.1,0.87,1.08,1.67,1.02c0.52,0.03,1.05,0.05,1.57,0.08c0.83,1.57,2.45,1.62,3.88,2.04
						c4.74,0.7,8.99,2.84,13.4,4.53c2,0.77,3.94,1.76,6.08,2.14c0.09,0.68,0.44,1.05,1.16,0.99c0.52,0.03,1.05,0.05,1.58,0.08
						c0.06,0.68,0.41,1.06,1.12,1.06c0.17,0.02,0.34,0.03,0.51,0.03c0.61,1.92,2.06,2.32,3.85,2.13c0.17,0.02,0.34,0.03,0.51,0.04
						c0.08,1.09,0.87,1.09,1.66,1.05c0.17,0.01,0.34,0.03,0.51,0.04c0.09,1.09,0.87,1.09,1.66,1.05c0.17,0.02,0.34,0.03,0.5,0.05
						c0.13,1.37,1.03,1.68,2.2,1.59c0.36,0.62,1,0.55,1.58,0.6c0.39,1.43,1.74,1.23,2.75,1.6l0,0c0.15,0.31,0.21,0.83,0.45,0.93
						c4.35,1.82,7.28,6.1,12.08,7.04c2.44,0.48,3.97,2.48,6.07,3.29c4.95,1.91,9.74,4.32,15.05,5.26c4.38,0.79,8.64,2.24,13.13,2.44
						c0.53,0.01,1.08,0.01,1.61,0.02c0.89,0.87,1.79,0.81,2.72,0.07c0.89,0.01,1.78,0.02,2.67,0.03c0.46,1.37,1.27,1.26,2.22,0.51
						c8.69,0.61,17.31,2.09,26.07,1.63c0.89-0.05,2.12-0.53,2.63,0.71c0.4,1.02-0.22,1.81-0.81,2.69c-2.14,3.21-5.37,3.88-8.86,4.06
						c0.99-1.79-0.45-1.47-1.35-1.5c-2.89-0.07-5.94,0.49-8.64-0.26c-3.86-1.09-7.77-1.29-11.66-1.7
						c-6.18-0.66-12.34-1.55-18.32-3.09c-9.04-2.33-17.73-5.74-25.97-10.2c-1.19-0.64-2.57-0.89-3.83,0.06
						c-3.01-1.73-6.13-3.28-9-5.22c-6.23-4.23-12.86-6.28-20.39-4.6c-0.43,0.09-0.9,0.01-1.35,0.01c-0.3-1.16-1.1-1.86-2.16-2.24
						c-5.37-1.92-10.87-3.43-16.13-5.71c-1.23-0.53-2.25-0.85-2.78-2.1c0.54-0.18,1.05-0.1,1.57,0.11c0.94,0.37,2.13,1.41,2.8-0.02
						c0.56-1.22-0.98-1.66-1.62-2.45c-1.15-1.4-3.48-2.6-1.01-4.81c0.37-0.33,0.18-0.87-0.23-1.16c-1.08-0.76-1.88-1.75-3.16-2.4
						c-3.74-1.88-8.16-2.73-10.83-6.43C36.35,174.32,36.57,173.45,36.79,172.56z"/>
					<path class="st4" d="M144.84,105.03c0.18,0.01,0.28,0.1,0.3,0.27c0.32,1.47,0.62,2.94,1.34,4.31c0.62,1.2,1,2.59,2.83,2.14
						l0.13,0.08l-0.05,0.15c0.03,0.4,0.06,0.82,0.09,1.22c-0.09,0.21-0.19,0.41-0.28,0.62c-1.72-0.35-2.92,0.67-4.15,1.59
						c-1.08,0.82-2.11,1.61-3.54,1.84c-8.69,1.38-17.29,3.14-25.69,5.85c0,0-0.15-0.2-0.14-0.19c2.9-1.4,1.35-3.4,0.7-5.28
						c-0.23-1.3-0.11-2.78-1.7-3.4c1.27-1.21,2.93-1.7,4.45-2.43c4.72-2.25,9.47-4.46,14.21-6.67c1.71-0.15,2.24-2.48,4.16-2.26
						c0.41,0.05,0.84,0.09,1.25,0.14C140.84,103.51,142.51,105.25,144.84,105.03z"/>
					<path class="st4" d="M53.91,55.8c0.87-0.95,1.87-1.67,3.13-2c0.12,0.94,0.44,1.57,1.58,1.13c2.79-1.11,5.74-1.02,8.6-0.69
						c1.63,0.18,3.97,0.11,4.4,2.39c0.35,1.88,1.73,2.87,2.99,3.53c1.28,0.67,2.61,2.24,4.23,1.52c2-0.91,2.13,0.13,2.19,1.58
						c-7.7,1.27-14.67,4.55-21.56,7.98c-0.52,0.26-0.88,0.89-1.31,1.34c-0.64,0.4-1.33,0.61-2.09,0.54
						c-1.59-0.72-2.05-2.75-3.8-3.28c-0.17-1.26-1.18-1.49-2.14-1.58c-1.04-0.1-2.07-0.16-2.13-1.46c-0.05-1.14-0.53-2.4,1.17-3.12
						c1.1-0.47,1.6-1.73,0.92-3.06c0-0.37,0-0.74,0-1.12c0.53-0.35,1.08-0.7,1.61-1.07C53.17,58.21,55.15,58.39,53.91,55.8z"/>
					<path class="st2" d="M81.01,63.24c-0.06-1.44-0.19-2.49-2.19-1.58c-1.61,0.73-2.95-0.85-4.23-1.52
						c-1.26-0.66-2.64-1.65-2.99-3.53c-0.43-2.27-2.77-2.2-4.4-2.39c-2.86-0.32-5.81-0.4-8.6,0.69c-1.13,0.44-1.46-0.18-1.58-1.13
						c1.38-1.37,3.14-1.68,4.96-1.66c9.04,0.11,18.16-1.22,27.08,1.42c1.12,0.33,2.12-0.12,2.84-1.1c0.08-0.04,0.22-0.08,0.22-0.11
						c0-0.14-0.05-0.28-0.09-0.42c0.21-0.59,0.42-1.19,0.64-1.78c0.62,0.06,1.25,0.12,1.87,0.18c0.08,0.11,0.11,0.23,0.1,0.37
						c0.18,0.22,0.35,0.44,0.53,0.67l0.03-0.05c-0.13,1.22-0.82,2.19-1.55,3.08c-1.57,1.89-0.49,3.69,0.91,4.39
						c2.9,1.45,2.33,2.09-0.15,3.01c-0.2,0.07-0.22,0.63-0.33,0.97C89.72,62.43,85.37,62.72,81.01,63.24z"/>
					<path class="st2" d="M184.29,232.26c0.18-0.19,0.54-0.39,0.53-0.57c-0.2-3.47,2.31-2.63,4.21-2.63
						c7.6,0.01,14.99-1.43,22.4-2.9c2.43-0.48,4.82-1.32,7.3-1.43c3.25-0.14,3.5,0.35,1.88,3.36c-0.33,0.61-0.34,1.19-0.35,1.81
						c-3.42,1.4-7.06,2.09-10.57,3.17c-2.01,0.62-3.43,0.36-4.26-1.69c-0.07-0.49,1.55-0.89,0.1-1.47c-1.5-0.61-2.11,0.04-2.14,1.51
						c0.07,0.15,0.04,0.27-0.11,0.35c-1.51,0.37-2.5,1.23-2.62,2.87c-3.8,1.09-7.77,1.19-11.65,1.83c-1.41,0.23-2.12-0.44-2.78-1.57
						C185.69,233.95,185.78,232.5,184.29,232.26z"/>
					<path class="st3" d="M237.52,174.18c-0.82,0.37-1.46,1.51-2.57,0.42c-0.72-0.71-1.27,0.07-1.87,0.4
						c-0.92,0.5-1.41,1.69-2.96,1.67c0.55-1.1,1.52-2.24-0.03-3.14c-1.27-0.73-1.91,0.41-2.84,0.85c-2.82,1.33-5.45,3.5-8.95,2.05
						c-0.7-0.29-1.58-0.15-2.38,0.18c-3.75,1.55-5.54,0.21-5.01-3.73c0.05-0.35,0.02-0.72,0.02-1.08c0.32-0.46,1.09-0.57,1.06-1.32
						c-0.11-0.52-0.26-1.05-0.34-1.57c-0.09-0.62,0.34-1,0.77-1.33c0.19-0.15,0.23-0.1,1.26,1c0.31-0.71,0.61-1.42,0.93-2.15
						c-8.98-0.25-8.5-0.86-10.94,5.65c-0.99-1.72-0.3-3.76,2.15-6.45c-1.88,0.23-3.91,1.61-4.58,3.21
						c-0.29,0.68-0.05,1.96-1.18,1.73c-0.97-0.2-0.42-1.38-0.56-2.12c-0.05-0.26-0.03-0.54-0.05-0.82
						c2.73-3.28,6.43-3.87,10.39-3.77c1.65,0.11,3.36,2.27,4.95-0.12c0.98,0.68,2.16,0.31,3.2,0.67c-0.96,1.09-2.57,1.9-1.63,3.8
						c-0.04,0.06-0.08,0.11-0.11,0.17c0.03-0.06,0.07-0.12,0.1-0.18c1.39-0.32,2.98-0.17,3.83-1.7c1.1,0.36,2.18,0.72,3.28,1.08
						c0.07,0.41,0.23,0.52,0.51,0.13c0.83,0.15,1.56,0.47,2.18,1.04c1.69,1.76,3.89,2.84,5.85,4.22c0.41,0.29,1.24,0.23,1.72-0.34
						c0.91,0.16,1.89-0.35,2.73,0.33c0.03,0.17,0.13,0.24,0.3,0.2C237.24,173.32,237.47,173.69,237.52,174.18z"/>
					<path class="st5" d="M36.14,175.21c2.67,3.7,7.09,4.55,10.83,6.43c1.28,0.64,2.08,1.63,3.16,2.4c0.41,0.29,0.6,0.83,0.23,1.16
						c-2.48,2.21-0.13,3.41,1.01,4.81c0.63,0.79,2.18,1.22,1.62,2.45c-0.66,1.43-1.85,0.39-2.8,0.02c-0.52-0.21-1.04-0.29-1.57-0.11
						c-1.34,0.29-2.54-0.03-3.83-0.51c-2.88-1.08-5.73-2.31-8.81-2.78c-0.26-0.73-0.78-1.17-1.55-1.3
						C35.04,183.58,35.18,179.33,36.14,175.21z"/>
					<path class="st2" d="M107.26,39.23c2.43-0.07,4.27,1.54,6.44,2.21c-0.13,0.96,0.6,1.35,1.15,1.95
						c2.67,2.96,2.74,4.87,0.37,8.09c-0.32,0.44-0.32,0.8-0.09,1.2c1.18,2.01,0.51,4.21,0.68,6.32c-1.18,0.66-2.47,0.96-3.8,1.04
						c-0.71-1.64-2.39-1.68-3.75-2.12c-1.15-0.37-2.26-0.62-2.83-1.83c-1.07-2.27-2.13-4.55-3.2-6.82
						c3.87-1.16,7.91-1.22,11.92-1.71c-2.59-6.24-6.12-7.9-10.31-4.97c-0.45-0.55-1.13-0.37-1.71-0.48
						c0.07-1.11,0.14-2.21,0.21-3.31c0.31-0.08,0.62-0.15,0.94-0.23C104.16,41.42,105.88,39.3,107.26,39.23z M106.27,52.72
						c2.49,1.28,4.84,0.45,7.83,0C111.08,52.72,108.68,52.72,106.27,52.72z"/>
					<path class="st6" d="M115.83,123.11c8.38-2.71,16.99-4.47,25.69-5.85c1.43-0.23,2.47-1.03,3.54-1.84
						c1.23-0.93,2.43-1.95,4.15-1.59c0,0.35,0.14,0.79-0.01,1.04c-2.1,3.39,0.42,3.7,2.74,4.16c-0.25,0.57-0.5,1.14-0.75,1.71
						c-3.1,0.07-6.17-1.28-9.29-0.16c-2.06-0.74-0.82,1.55-1.71,1.87c-1.75,0.4-3.34,1.16-4.77,2.23c-1.03,0.18-1.95,0.56-2.73,1.28
						c-1.5-0.41-2.07,1.33-3.35,1.44c-0.42-2.88,1.97-3.64,3.7-5.08c-2.67-0.09-5.12,0.8-7.56,1.56c-2.87,0.91-5.8,1.18-8.76,1.33
						c-0.66,0.03-1.58,0.25-1.86-0.62C114.61,123.84,115.71,123.75,115.83,123.11z"/>
					<path class="st6" d="M138.24,69.64c0.11,2.41-2.07,3.85-2.54,6c-1.99,0.87-4.71,2.47-4.67,3.87c0.05,1.82,3.21,1.38,4.98,2.05
						c0.41,0.15,0.87,0.17,1.31,0.25c1.05,2.16,3.98,2.63,4.65,5.12c-0.14,0.47-0.42,0.81-0.93,0.93c-1.02-0.95-2.02-1.9-3.47-2.11
						c-0.81-0.95-1.93-1.17-3.06-1.37c-0.54-0.9-1.23-1.46-2.36-1.06c-1.43-0.55-2.87-1.05-4.43-0.93c-0.47-0.64-1.03-0.53-1.62-0.2
						c-2.33-0.28-4.61-1.09-7-0.54c-0.57-0.24-1.14-0.24-1.71,0c-3.75-0.54-7.54-0.11-11.3-0.35c-1.09-0.39-2.16-0.79-3.25-1.18
						c-0.18-0.19-0.37-0.38-0.55-0.57c0.05-0.14,0.06-0.28,0.03-0.42c2.19-1.07,4.58-1.12,6.95-1.3c4.1,0.68,8.26,0.32,12.35,0.79
						c4.38,0.5,7.45-0.8,9.55-4.76l-0.01-0.08c1,0.09,1.36-0.88,2.06-1.26c1.61-0.18,1.36-1.89,2.2-2.7
						C136.37,69.75,137.31,69.7,138.24,69.64z"/>
					<path class="st4" d="M127.72,82.39c1.57-0.13,3.01,0.37,4.43,0.93c0.52,0.93,1.35,1.19,2.36,1.06c1.14,0.2,2.26,0.42,3.06,1.37
						c0.13,1.92,1.64,2.2,3.06,2.61c0.16,0.8,0.34,1.58,0.49,2.39c0.31,1.61,1.71,4.08,2.78,4.85c-0.01,0.18-0.09,0.32-0.24,0.42
						c-1.95-0.17-3.68-0.3-5.06,1.78c-1.18,1.78-3.2,2.51-5.41,1.37c-0.02-0.19-0.03-0.37-0.05-0.56c-1.08-2.87-2.14-5.74-3.22-8.62
						c-0.58-2.74-1.01-5.63-4.86-5.45c0.72-0.31,1.07-0.91,1.18-1.65C126.79,82.86,127.38,82.98,127.72,82.39z"/>
					<path class="st3" d="M38.02,122.34c0.1,3.12,1.25,6.14,1.36,9.15c0.11,3.08,2.05,6.86-1.77,9.33
						c-0.59,0.38-0.75,1.13-0.56,1.71c0.98,3-0.44,5.68-1.48,8.17c-1.31,3.14-1.05,6.49-1.88,9.69c-0.32,1.21,0.48,3.63,1.22,5.36
						c0.51,1.23,0.89,2.35-0.03,3.5c-3.18-5.81-3.26-12.14-2.38-18.36c1.11-7.81,2.84-15.53,4.44-23.27
						C37.29,125.88,36.22,123.8,38.02,122.34z"/>
					<path class="st2" d="M123.05,48.03c2.28-0.04,3.92,1.27,5.42,2.73c2.13,2.09,2.86,5.01,4.26,7.54
						c-2.01,0.05-3.56,1.45-5.45,1.84c-0.06-0.5,0.1-1.29-0.46-1.38c-0.74-0.13-0.63,0.64-0.65,1.14c-0.02,0.43,0.03,0.88,0.05,1.32
						l0.03,0.02c-2.74,0.39-3.93-0.91-3.95-3.55c0-0.51-0.36-1.05-0.32-1.55c0.12-1.21-0.14-2.45-1.4-2.42
						c-1.7,0.05-0.63,1.69-0.98,2.56c-0.36-0.02-0.72-0.04-1.08-0.05c-1.51-3.19-0.85-5.95,1.63-8.35c0.75-0.18,1.5-0.23,2.24,0.05
						C122.62,47.96,122.83,47.99,123.05,48.03z M122.79,51.86c0.46-0.11,1.32-0.92,1.21-1.24c-0.24-0.68-1.02-1.3-1.87-1.3
						c-0.92,0-0.83,0.78-0.83,1.4C121.29,51.51,121.68,51.89,122.79,51.86z"/>
					<path class="st6" d="M163.77,132.28c0.49-0.02,0.84,0.22,1.11,0.61c-0.24,0.66-0.47,1.33-0.71,2
						c-0.17,0.07-0.34,0.14-0.51,0.22c-2.6-0.04-4.98-1.45-7.62-1.19c-0.64,0.06-1.72-0.4-1.8,0.55c-0.18,2.06-2.05,3.08-2.65,4.84
						c-1.01,0.31-1.93,1.03-3.08,0.51c-0.06-2.52,2.05-4,3.23-6.22c-1.04,0-1.74-0.01-2.45,0c-4.04,0.09-8.07,0.46-12.11-0.07
						c-1.17-0.15-1.92-0.38-1.73-1.73c0.53,0.02,0.84-0.27,1.02-0.73c0.42-0.08,0.86-0.16,1.28-0.23c0.25,0,0.49,0,0.74,0
						c0.81,0.08,1.61,0.16,2.41,0.24c3.74-0.01,7.48-0.02,11.22-0.04c0.87-0.01,1.62-0.22,1.62-1.32c0.75-1.67,1.52-3.33,2.27-5
						c1.68-0.31,2.09,0.92,2.09,2.07c0,0.94-0.54,1.88-0.92,2.79c-0.35,0.86-0.58,1.51,0.73,1.7
						C159.87,131.53,161.82,131.93,163.77,132.28z"/>
					<path class="st2" d="M50.03,60.6c0.68,1.32,0.18,2.59-0.92,3.06c-1.7,0.73-1.22,1.98-1.17,3.12c0.06,1.3,1.11,1.36,2.13,1.46
						c0.98,0.09,1.97,0.32,2.14,1.58c-0.02,0.72-0.34,1.13-1.12,1.06c-0.3-1.53-1.15-1.1-1.88-0.44c-1.6,1.4-2.97,3.04-4.71,4.31
						c-0.45,0.33-1.88,1.44,0,2.13c0.08,0.52,0.16,1.05,0.23,1.57c-0.28,2.59-0.95,5.02-2.76,7.02c-0.7,0.78,0.03,1.25,0.45,1.76
						c-1.48,1.07-1.56-0.31-1.96-1.13c0.01-0.52,0.03-1.04,0.04-1.56c1.29-2.62,1.95-5.3,0.86-8.18c-0.01-0.9-0.01-1.8-0.02-2.7
						c0.02-0.36,0.04-0.71,0.06-1.08c0.97-0.31,1.24-0.84,0.48-1.66c0.01-0.36,0.02-0.72,0.04-1.09c0.91-1.45,1.81-2.9,2.72-4.35
						c1.22-1.74,3.62-2.49,4.01-4.98C48.78,59.89,49.57,60.47,50.03,60.6z"/>
					<path class="st6" d="M133.2,99.15c2.2,1.14,4.22,0.41,5.41-1.37c1.38-2.08,3.12-1.94,5.06-1.78c-0.23,0.56-0.31,1.3-0.71,1.67
						c-1.98,1.81-2.43,3.46,0.22,5.02c-1.39,1.32-3.02-0.98-4.42,0.29c-0.41-0.05-0.84-0.09-1.25-0.14c-3.5-1.38-7.05-1-10.61-0.23
						c-2.82-0.5-5.6,0.6-8.41,0.17c-0.32-0.77-0.8-0.98-1.48-0.39c-0.38-0.06-0.75-0.13-1.14-0.19c-0.49-1.19,0.21-1.93,0.98-2.66
						c1.47,0.02,2.94,0.03,4.41,0.05C125.27,99.97,129.21,99.03,133.2,99.15z"/>
					<path class="st6" d="M183.91,160.02c0.39-0.89,0.8-1.78,1.36-3.05c-3.15,0.19-6.11,0.36-9.07,0.53c-1.39,0.08-2.71,0-3.56-1.33
						c1.11-0.84,2.34-1.18,3.72-1.16c1.59,0.01,3.18-0.17,4.67-0.86c2.41-0.14,5.31,0.53,5.36-3.36l0.06-0.03
						c2.04-0.17,2.31,2.14,3.8,2.73c2.45,2.24,5.41,1.23,8.19,1.27c0.16,0.12,0.33,0.24,0.49,0.37c0.16,0.65,0.32,1.31,0.48,1.97
						c-0.99,0.45-1.92,0.68-3.08,0.42c-1.72-0.39-3.54-0.34-5.28-0.67c-2.71-0.5-3.78,0.58-3.52,3.23
						c-0.16,0.19-0.32,0.37-0.48,0.56C186.03,160.32,184.59,162.05,183.91,160.02z"/>
					<path class="st2" d="M39.78,193.2c-0.02,0.09-0.04,0.17-0.05,0.26c-0.14,1.23-2.53-0.04-2.02,1.72
						c0.38,1.36,1.99,0.24,2.92,1.21c-1.55,1.42-2.22,2.79,0.6,3.6c0.86,0.25,1.44,1.21,1.5,2.09c0.09,1.31-1.17,0.63-1.76,0.98
						c-0.78,0.45-1.45,1.02-1.73,1.92c-1.16-0.13-2.23-0.87-2.4-1.79c-0.29-1.64-1.63-1.34-2.53-1.86c0.06-0.92-0.1-1.73-1.03-2.17
						c-0.02-0.18-0.04-0.36-0.06-0.54c0.69-0.52,0.7-1.06,0.04-1.62c0.02-0.91-0.1-1.84,0.36-2.69c0.68-0.28,0.84-0.64,0.16-1.12
						c0.05-0.36,0.09-0.71,0.14-1.08c0.75-0.11,0.94-0.63,0.94-1.29c-0.01-0.74,0.12-1.39,1.09-1.36
						C37.09,190.84,38.12,192.35,39.78,193.2z"/>
					<path class="st2" d="M226.14,227.86c-0.03-0.17-0.05-0.36-0.11-0.52c-0.37-1-2.18-1.41-1.29-2.88c0.8-1.3,2.22-1.18,3.56-1.44
						c5.29-1.03,10.22-2.87,13.61-7.38c0.47-0.63,0.94-0.71,1.57-0.71c1.31,3.97,0.96,4.83-2.64,6.56c-0.23-0.46-0.54-1.05-1.08-0.9
						c-0.9,0.27-0.45,1.11-0.49,1.73c-1.36,0.48-2.33,1.75-3.84,1.93c-1.94-0.68-5.98,0.67-7.66,2.58
						c-0.02,0.16-0.03,0.33-0.03,0.49l-0.09,0.03c-0.14-0.04-0.24,0-0.32,0.12C226.93,227.61,226.53,227.73,226.14,227.86z"/>
					<path class="st5" d="M41.38,73.67c0.01,0.9,0.01,1.8,0.02,2.7c-0.35,0.17-0.71,0.33-1.07,0.5c-0.22,0.03-1.12,1.18-1.29,1.54
						c-2.09,4.43-1.61,8.72,0.59,13.3c1-1.25,0.59-2.36,0.72-3.36c0.6,0.21,1.21,0.42,1.81,0.63c-0.2,1.91,1.75,3.31,1.29,5.28
						c-1.21-0.18-1.48,0.64-1.8,1.55c-0.36,0.99-0.38,2.17-1.42,2.84c-0.63-1.76-1.43-3.49-1.03-5.47c0.09-0.45-0.15-0.79-0.47-1.17
						c-2.89-3.43-3.73-7.23-1.96-11.48c0.2-0.47,0.26-1.04,0.25-1.56c-0.05-2.23,0.69-3.84,3.11-4.33
						C40.6,74.56,40.96,74,41.38,73.67z"/>
					<path class="st6" d="M127.28,60.15c1.89-0.4,3.44-1.79,5.45-1.84c1.1,1.1,3.09,0.97,3.72,2.71c-0.3,0.52-0.87,0.54-1.36,0.68
						c-2.58-0.21-4.59,0.83-6.21,2.76c-0.13,0.16-0.26,0.32-0.39,0.48l-0.17,0.17c-0.11,0.11-0.21,0.22-0.32,0.33
						c-0.41,0.44-0.77,0.92-0.8,1.56c-1.19,0.47-0.81,2.21-2.16,2.66c-1.77-2.02-1.13-4.1-0.17-6.16c0.37-0.8,1.34-1.25,1.38-2.26
						l-0.03-0.02C126.57,60.86,126.92,60.51,127.28,60.15z"/>
					<path class="st3" d="M40.24,98.65c1.04-0.66,1.06-1.84,1.42-2.84c0.33-0.91,0.59-1.73,1.8-1.55c1.74,3.33,2.05,6.74-0.24,9.84
						c-1.3,1.75-1.75,4-3.45,5.47c-0.7-2.52-0.57-5.05-0.18-7.59c0.57-0.26,0.92-0.58,0.27-1.13
						C39.99,100.12,40.12,99.38,40.24,98.65z"/>
					<path class="st5" d="M181.57,144.9c3.23,1.73,6.27,3.86,9.91,4.71c0.16,0.04,0.23,0.46,0.35,0.7c-1,1.17-1.62,0.03-2.47-0.28
						c-1.02-0.38-2.55-1.78-2.91,0.74l-0.06,0.03c-2.81,1.43-4.77-0.5-6.93-1.72l0.02-0.13c0.21-0.66,0.41-1.34,0.62-2
						c0.09-0.34,0.19-0.69,0.28-1.04C181.12,145.95,181.51,145.62,181.57,144.9z"/>
					<path class="st5" d="M143.91,95.58c-1.07-0.79-2.47-3.25-2.78-4.85c-0.15-0.8-0.33-1.59-0.49-2.39
						c0.14-0.16,0.27-0.33,0.41-0.49c0.5-0.11,0.79-0.44,0.93-0.93c0.85,0.94,2.46-1.08,3.1,0.88c0.7,2.13,1.39,4.23,0.95,6.52
						C145.78,95.57,144.69,95.3,143.91,95.58z"/>
					<path class="st4" d="M120.15,47.87c-2.48,2.41-3.14,5.17-1.63,8.35c-0.58,1.24-1.07,2.58-2.71,2.78
						c-0.18-2.11,0.48-4.32-0.68-6.32c-0.23-0.4-0.24-0.75,0.09-1.2c2.37-3.22,2.3-5.13-0.37-8.09c-0.54-0.6-1.28-1-1.15-1.95
						c2.95,0.37,3.92,2.68,4.86,5c-0.12,0.48-0.11,0.92,0.43,1.15C119.38,47.69,119.77,47.78,120.15,47.87z"/>
					<path class="st3" d="M50.03,60.6c-0.46-0.14-1.26-0.7-1.35-0.09c-0.38,2.5-2.79,3.24-4.01,4.98c-1.56-0.06-1.69,1.96-3.1,2.12
						c-0.14-5.27,1.47-7.66,6.24-9.23c0.88,0.09,1.55,0.59,2.22,1.1C50.03,59.85,50.03,60.22,50.03,60.6z"/>
					<path class="st5" d="M135.08,61.7c0.5-0.14,1.06-0.16,1.36-0.68c1.06,0.32,2.42,0.13,2.84,1.59c-0.17,0.19-0.33,0.37-0.5,0.56
						c0.09,0.07,0.18,0.15,0.27,0.22c0.1-0.24,0.19-0.47,0.29-0.71c1.02,1.65,1.12,3.53,1.34,5.38c0.21,1.83-0.62,2.02-2.02,1.18
						c-0.44-1.75-1.87-0.56-2.77-0.93C135.16,66.16,135.56,63.88,135.08,61.7z M137.33,62.73c0.15-0.07,0.31-0.14,0.46-0.22
						c-0.15-0.09-0.29-0.23-0.44-0.24c-0.15,0-0.31,0.13-0.47,0.21C137.03,62.57,137.18,62.65,137.33,62.73z"/>
					<path class="st3" d="M181.57,144.9c-0.04,0.73-0.44,1.06-1.16,1.02c-3.37-0.94-5.49-3.87-8.49-5.4
						c-0.92-0.82-0.96-2.33-2.24-2.85c0.16-0.49,0.32-0.99,0.47-1.47c1.02-0.02,1.79,0.33,2.13,1.36c0.18,0.08,0.36,0.15,0.54,0.23
						C175.74,140.18,178.36,142.88,181.57,144.9z"/>
					<path class="st5" d="M102.35,38.78c-0.07,1.11-0.14,2.21-0.21,3.31c-2.62,0.65-2.51,3.04-3.15,4.95
						c-0.88-0.43-1.64-0.16-2.45,0.33c0.97,0.52,1.61,1.18,1.32,2.34c-1.48-0.47-1.61,1.28-2.62,1.58l-0.03,0.05
						c-0.18-0.22-0.35-0.44-0.53-0.67c0.01-0.13-0.03-0.26-0.1-0.37c1.62-1.4,0.96-3.75,2.33-5.39c0.79-0.94,2.18-2.02,1.51-3.71
						C99.74,40.43,100.37,38.53,102.35,38.78z"/>
					<path class="st4" d="M137.34,81.81c-0.43-0.08-0.9-0.09-1.31-0.25c-1.77-0.66-4.93-0.23-4.98-2.05
						c-0.04-1.41,2.67-3.01,4.67-3.87c0.42,1.26,0.86,2.52,1.28,3.77v-0.05C137.1,80.16,137.21,80.99,137.34,81.81z"/>
					<path class="st2" d="M163.77,132.28c-1.95-0.34-3.89-0.74-5.85-1.02c-1.32-0.18-1.09-0.84-0.73-1.7
						c0.37-0.92,0.92-1.86,0.92-2.79c0-1.16-0.41-2.38-2.09-2.07h0.01c0.03-0.14,0.05-0.29,0.07-0.43c0.29-0.38,0.58-0.75,0.87-1.14
						c0.34-0.07,0.69-0.14,1.04-0.2c1.74,0.97,1.31,3.07,1.4,4.28c0.17,2.49,1.94,2.89,3.28,3.99
						C163.06,131.51,163.4,131.91,163.77,132.28z"/>
					<path class="st5" d="M170.16,136.19c-0.16,0.49-0.32,0.99-0.48,1.47c-0.39,0.35-0.78,0.7-1.17,1.07c-0.47,0-0.94,0-1.41,0
						c-0.31-0.87-0.77-1.55-1.82-1.5c-0.17-0.19-0.35-0.38-0.52-0.57c0.06-0.68,0.64-1.54-0.59-1.77c0.24-0.66,0.47-1.33,0.71-2
						C167.29,132.93,168.29,135.27,170.16,136.19z"/>
					<path class="st5" d="M156.95,123.13c-0.29,0.38-0.58,0.75-0.87,1.14c-0.2,0.08-0.41,0.16-0.61,0.24
						c-0.86-0.12-1.66-0.32-1.94-1.31l0.04-0.23l-0.06,0.23c-1.73,0.08-1.48-1.7-2.33-2.47c0.25-0.57,0.5-1.14,0.75-1.71
						c1.71,0.05,3.54-0.18,3.68,2.42c0.05,0.9,1.59,0.2,1.84,1.2c-0.31,0.08-0.61,0.16-0.93,0.25
						C156.67,122.96,156.81,123.05,156.95,123.13z"/>
					<path class="st5" d="M199.43,157.12c-0.16-0.65-0.32-1.31-0.48-1.96c2.46-0.01,4.11,2.24,6.53,2.33
						c0.33,0.92-0.33,1.41-0.87,1.95c-0.29,0.53-0.78,0.67-1.34,0.62C201.69,159.47,199.88,159.19,199.43,157.12z"/>
					<path class="st3" d="M98.41,41.21c0.67,1.69-0.72,2.78-1.51,3.71c-1.37,1.63-0.7,3.98-2.33,5.39
						c-0.62-0.06-1.25-0.12-1.87-0.18C94.05,46.81,95.21,43.35,98.41,41.21z"/>
					<path class="st3" d="M198.46,154.78c-2.79-0.04-5.75,0.98-8.19-1.27c0.64,0,1.04-0.27,1.06-0.96c0.2-0.03,0.39-0.06,0.59-0.1
						c1.54,1.07,1.57-0.06,1.64-1.13C195.18,152.48,196.83,153.64,198.46,154.78z"/>
					<path class="st2" d="M193.55,151.33c-0.07,1.07-0.1,2.19-1.64,1.13c-0.04-0.54-0.16-1.06-0.87-0.93
						c-0.19,0.04-0.34,0.33-0.5,0.51c0.26,0.17,0.52,0.34,0.78,0.51c-0.02,0.68-0.42,0.96-1.06,0.96c-1.5-0.58-1.76-2.91-3.8-2.73
						c0.36-2.53,1.89-1.13,2.91-0.74c0.85,0.32,1.48,1.46,2.47,0.28C192.41,150.66,192.98,150.99,193.55,151.33z"/>
					<path class="st2" d="M53.86,211.02c0.11-0.41,0.21-0.83,0.32-1.24c2.3,2.02,3.65-2.24,5.8-0.86c0.32,0.21,0.29,0.96,0.43,1.46
						c-0.42,0.31-0.83,0.66-1.27,0.93c-1.11,0.65-2.2,2.11-3.3-0.13C55.48,210.47,54.53,211.09,53.86,211.02z"/>
					<path class="st2" d="M214.79,163.72c-1.59,2.4-3.3,0.23-4.95,0.12c-0.19-0.66-0.39-1.32-0.58-1.98
						c0.1-0.14,0.17-0.29,0.21-0.46C211.48,161.63,213.15,162.64,214.79,163.72z"/>
					<path class="st5" d="M216.37,168.19c-0.95-1.9,0.66-2.72,1.63-3.8c1.03,0.39,1.82,1.01,2.18,2.08
						c-0.85,1.54-2.44,1.39-3.83,1.7L216.37,168.19z"/>
					<path class="st3" d="M149.31,111.75c-1.82,0.43-2.2-0.96-2.83-2.14c-0.71-1.37-1.03-2.83-1.34-4.31
						c0.59-0.01,1.28-0.22,1.49,0.64C147.18,108.04,148.43,109.81,149.31,111.75z"/>
					<path class="st3" d="M204.62,159.43c0.53-0.54,1.19-1.03,0.86-1.95c2.6,0.02,3.62,1.64,4,3.92c-0.04,0.16-0.12,0.32-0.21,0.45
						c-0.71-0.09-1.42-0.18-2.13-0.26C207.53,159.43,206.24,159.24,204.62,159.43z"/>
					<path class="st5" d="M233.74,172.61c-0.48,0.57-1.31,0.63-1.72,0.34c-1.96-1.39-4.16-2.47-5.85-4.22
						C228.94,169.53,231.37,171.01,233.74,172.61z"/>
					<path class="st4" d="M227.78,226.83c1.68-1.9,5.72-3.26,7.66-2.58c-1.76,0.72-3.53,1.45-5.29,2.17
						c-0.53-0.15-0.97-0.04-1.27,0.45l0,0C228.5,226.87,228.14,226.86,227.78,226.83z"/>
					<path class="st6" d="M138.75,102.98c1.39-1.27,3.03,1.03,4.42-0.29c0.42,0.88,1.61,1.2,1.67,2.34
						C142.51,105.25,140.84,103.51,138.75,102.98z"/>
					<path class="st5" d="M50.03,59.48c-0.67-0.49-1.35-1.01-2.22-1.1c1.09-1.65,3.08-0.71,4.45-1.55c-0.2,0.52-0.41,1.06-0.61,1.58
						C51.11,58.77,50.58,59.13,50.03,59.48z"/>
					<path class="st5" d="M41.58,67.62c1.41-0.16,1.54-2.18,3.1-2.12c-0.91,1.45-1.81,2.9-2.72,4.35
						C41.36,69.18,41.35,68.42,41.58,67.62z"/>
					<path class="st3" d="M35.94,189.46c-0.97-0.03-1.09,0.61-1.09,1.36c0.01,0.65-0.17,1.19-0.94,1.29
						c-0.17-1.49,0.26-2.91,0.52-4.35c0.78,0.12,1.29,0.56,1.55,1.29C36.03,189.2,36.01,189.33,35.94,189.46z"/>
					<path class="st5" d="M107.26,39.23c-1.38,0.07-3.1,2.18-3.98-0.67C104.67,38.39,105.96,38.86,107.26,39.23z"/>
					<path class="st2" d="M51.64,58.41c0.2-0.52,0.41-1.06,0.61-1.58c0.44-0.5,0.87-1.06,1.64-1.04
						C55.15,58.39,53.17,58.21,51.64,58.41z"/>
					<path class="st4" d="M200.65,234.64c0.12-1.64,1.11-2.5,2.62-2.87C203.59,233.81,202.6,234.67,200.65,234.64z"/>
					<path class="st3" d="M135.89,68.31c0.91,0.36,2.33-0.83,2.77,0.93c-0.14,0.14-0.28,0.27-0.42,0.41
						c-0.94,0.05-1.87,0.11-2.81,0.17C135.58,69.3,135.74,68.8,135.89,68.31z"/>
					<path class="st2" d="M47.36,206.77c0.45-1.28,1.71-1.27,2.69-1.5c0.98-0.23,1.83,0.14,1.17,1.47
						C49.91,205.17,48.64,207.08,47.36,206.77z"/>
					<path class="st4" d="M203.38,231.4c0.04-1.47,0.64-2.12,2.14-1.51c1.45,0.59-0.17,0.98-0.1,1.47
						C204.75,231.38,204.06,231.39,203.38,231.4z"/>
					<path class="st4" d="M239.27,222.33c0.03-0.62-0.41-1.47,0.49-1.73c0.53-0.16,0.85,0.43,1.08,0.9
						C240.46,222.04,239.94,222.32,239.27,222.33z"/>
					<path class="st5" d="M41.92,70.93c0.75,0.82,0.48,1.34-0.48,1.66C41.17,71.91,41.41,71.38,41.92,70.93z"/>
					<path class="st3" d="M33.27,199.15c0.93,0.44,1.09,1.26,1.03,2.17C33.35,200.9,33.15,200.1,33.27,199.15z"/>
					<path class="st3" d="M33.26,197c0.66,0.55,0.64,1.1-0.04,1.62C32.81,198.07,32.93,197.53,33.26,197z"/>
					<path class="st5" d="M39.87,100.84c0.64,0.55,0.3,0.87-0.27,1.13C39.34,101.51,39.48,101.15,39.87,100.84z"/>
					<path class="st3" d="M35.39,170.37c0.9,0.1,1.14,0.61,0.92,1.43C35.8,171.45,35.41,171.03,35.39,170.37z"/>
					<path class="st3" d="M33.79,193.18c0.68,0.47,0.52,0.84-0.16,1.12C33.68,193.93,33.74,193.56,33.79,193.18z"/>
					<path class="st3" d="M240.8,177.97c-0.82-0.06-1.09-0.52-0.98-1.29C240.4,176.92,240.71,177.36,240.8,177.97z"/>
					<path class="st3" d="M149.49,113.19c-0.03-0.4-0.06-0.82-0.09-1.22C149.97,112.35,149.89,112.76,149.49,113.19z"/>
					<path class="st3" d="M156.95,123.13c-0.14-0.08-0.28-0.17-0.42-0.25c0.31-0.08,0.61-0.16,0.93-0.25
						c0.18,0.1,0.35,0.2,0.53,0.29C157.64,122.99,157.3,123.07,156.95,123.13z"/>
					<path class="st3" d="M119,47.59c-0.54-0.23-0.55-0.66-0.43-1.15C118.7,46.83,118.85,47.21,119,47.59z"/>
					<path class="st3" d="M227.78,226.83c0.36,0.01,0.73,0.03,1.1,0.04c-0.23,0.51-0.68,0.47-1.14,0.45
						C227.75,227.17,227.76,227.01,227.78,226.83z"/>
					<path class="st3" d="M228.87,226.89c0.3-0.49,0.73-0.6,1.27-0.45C229.82,226.89,229.35,226.89,228.87,226.89z"/>
					<path class="st5" d="M172.84,137.79c-0.18-0.08-0.36-0.15-0.54-0.23C172.64,137.27,172.74,137.52,172.84,137.79z"/>
					<path class="st5" d="M39.31,115.46c0.37,0.25,0.24,0.43-0.09,0.57C39.25,115.84,39.28,115.65,39.31,115.46z"/>
					<path class="st2" d="M61.31,211.18c0.05,0.18,0.1,0.35,0.15,0.53c-0.09-0.11-0.19-0.22-0.25-0.34
						C61.19,211.33,61.27,211.24,61.31,211.18z"/>
					<path class="st6" d="M136.98,79.35v0.05c0.06,0,0.12,0,0.18,0C137.1,79.39,137.04,79.37,136.98,79.35z"/>
					<path class="st5" d="M223.97,167.7c-0.28,0.38-0.43,0.28-0.51-0.13C223.63,167.61,223.8,167.65,223.97,167.7z"/>
					<path class="st3" d="M92.05,51.92c0.03,0.14,0.08,0.28,0.09,0.42c0,0.04-0.14,0.08-0.22,0.11
						C91.97,52.27,92.01,52.1,92.05,51.92z"/>
					<path class="st3" d="M227.34,227.49c0.07-0.12,0.18-0.16,0.32-0.12l-0.12,0.18L227.34,227.49z"/>
					<polygon class="st3" points="223.59,228.5 223.71,228.39 223.86,228.46 223.73,228.61 					"/>
					<path class="st3" d="M123.05,48.03c-0.22-0.03-0.43-0.07-0.65-0.1C122.62,47.96,122.83,47.99,123.05,48.03z"/>
					<path class="st5" d="M236.76,173.14c-0.17,0.04-0.27-0.03-0.3-0.2l0.22-0.01L236.76,173.14z"/>
					<path class="st2" d="M56.04,73.11c0.77,0.06,1.46-0.14,2.09-0.54c1.25-0.01,2.52-0.11,3.68,0.91c0.35-1.16-0.08-2.48,1.23-2.98
						c3.68-1.4,7.42-2.7,11.02-4.28c1.8-0.79,1.87,1.38,3.03,1.35c1.77-0.05-0.05-2.37,1.94-2.84c4.15-0.99,8.32-0.86,12.49-1.05
						c3.69-0.17,6.98,1.29,10.17,2.96c0,0.23,0.01,0.46,0.01,0.69c-0.2,0.13-0.4,0.26-0.6,0.39c-2.15,0.21-3.86,3.31-3.14,6.01
						c0.44,1.68,1.02,3.36,2.2,4.72c-1.51,0.2-3.02,0.39-4.53,0.59c1.01-1.03,1.32-2.25,1.04-3.65c-0.21-1.48,1.09-3.77-0.83-4.26
						c-1.89-0.47-4.13-2.43-6.2-0.13c-2.96,1.36-4.04,3.45-3.01,6.22c0.81,2.18,2.74,3.21,4.73,4.11c0.1,0.93,0.6,0.92,1.33,0.64
						c1.35-0.51,2.77-0.63,4.22-0.77c3.3-0.31,6.07,1.3,9.05,2.15c1.08,0.31,2.66-1.33,3.22,0.69c0.35,1.28,0.86,2.58,0.65,3.97
						c-0.18,1.24-0.34,2.48-0.5,3.71c-0.04,0.67-0.08,1.35-0.12,2.02c-0.78,0.07-1.42,0.37-1.44,1.23
						c-0.02,1.09,0.88,0.86,1.54,0.94c0.16,0.54,0.31,1.09,0.47,1.63c-0.97-0.5-1.81-0.72-1.37,0.87c0.2,0.73,0.21,1.18-0.63,1.32
						c-0.29-0.94-0.73-1.79-0.75-2.85c-0.06-3.25-1-4.09-4.29-4.3c-2.78-0.18-4.4,1.49-5.46,3.64c-1.08,2.18-0.4,4.16,1.48,5.77
						c2.46,2.11,4.69,1.83,8.69-1.25c2.74,2.41,3.23,4.16,1.32,6.93c-1.16,1.67-1.69,3.87-4.13,4.73c-1.1,0.39-1.73,2.27-2.43,3.55
						c-0.52,0.96-1.2,1.54-2.23,1.77c-2.63,0.57-5.24,1.18-7.67,2.39c-0.57,0.28-1.29,0.41-1.74-0.18
						c-0.42-0.55-0.38-1.31,0.14-1.73c2.02-1.61,1.29-4.73,3.49-6.23c0.22-0.15,0.25-0.59-0.06-0.65c-1.7-0.32-1.73-0.88-0.3-1.71
						c-1.65-1.56-0.28-3.55-0.77-5.36c-1.4-5.25-1.51-10.86-4.52-15.66c-3.2-5.1-8.7-7.29-14.63-6.03
						c-4.16,0.89-7.85,2.99-11.92,4.08c-0.14-0.5-0.29-1.77-0.63-1.22c-0.87,1.42-2.81,1.4-3.55,3.03c0.61-0.07,1.05-0.12,1.48-0.17
						c-0.42,1.68-1.99,1.7-3.21,2.22l-0.04-0.04c-0.07-0.44-0.12-0.92-0.68-0.99c-0.73-0.09-0.88,0.43-0.95,1l0.01-0.01
						c-3.3,0.26-1.9-2.23-2.15-3.72c-0.1-0.58-0.12-1.35,0.68-1.57c0.69-0.19,1.43-0.32,1.91,0.48c1.16,1.93,2.12,0.73,3.18-0.16
						c1.96-1.66,0.68-4.36,2.05-6.25c0.35-0.49-0.74-0.9-1.08-0.6c-1.88,1.69-4.64,0.44-6.51,2.05c-0.88,0.74-1.89,0.1-2.15-0.47
						c-0.59-1.3,0.73-1.01,1.39-1.26c1.28-0.48,3.29-0.67,1.07-2.6c0.79-0.11,1.48,0.15,2.13,0.54c0.2,0.37,0.38,0.38,0.56-0.01
						c0.04-0.08,0.08-0.16,0.12-0.24c-0.04,0.07-0.09,0.15-0.13,0.22c-0.17,0-0.34-0.01-0.51-0.01
						C54.05,75.26,56.88,74.7,56.04,73.11z"/>
					<path class="st2" d="M159.32,164.54c-0.01,0.13-0.02,0.26-0.02,0.39v0.01c-1.33,0.12-2.45-0.32-3.53-1.07
						c-6-4.14-12.09-8.15-18.03-12.37c-2.59-1.83-5.87-1.96-8.39-3.92c-3.28-2.54-7.56-3.12-11.05-5.33
						c-1.15-0.73-1.53-1.31-1.01-2.83c-1.24,2.2-2.91,1.8-4.21,1.01c-1.74-1.07-3.56-1.04-5.38-0.99c-2.72,0.08-4.86-1.87-7.57-1.85
						c-0.8,0.01-1.24-1.1-0.44-1.89c1.61-1.61,3.06-3.48,5.51-3.92c1.6-0.28,2.47-2.04,4.27-1.97c0.69,0.02,1.41-0.41,1.89,0.44
						c0.32,0.58-0.04,2.03,0.69,1.75c1.49-0.57,3.11-0.19,4.46-0.87c0.61-0.31,1.19-0.51,1.75-0.39c1.92,0.38,3.76,1.12,5.19-1.21
						c0.47-0.76,0.95-0.41,1.08,2.12c-0.52,1.64-2.07,2.39-3.12,3.56c-1.66,1.87-1.59,3.46,0.3,5.04c2.92,2.44,6.59,1.24,9-2.96
						c0.3-0.03,0.59-0.05,0.9-0.08c1.1,0.59,2.02-1.75,2.76-0.48c0.78,1.33,1.54,1.33,2.72,1.12c0.46-0.08,0.97,0.23,0.93,0.75
						c-0.12,1.58,1.01,2.05,1.95,2.99c0.84,0.83,2.72,1.01,2.53,2.79c0.02,0.97-0.77,1.37-1.33,1.93c-2.07,2.05-1.9,3.28,0.69,4.96
						c1.34,1.36,3.06,2.39,4.76,1.38c1.66-0.99,3.31-1.61,5.16-1.87c1.84-0.33,1.84,1.63,2.77,2.42c1.33,1.12,3.15,1.26,4.25,2.61
						c0.08,1.05,1.01,2.12-0.14,3.12c-2.07,0.7-1.84,1.91-0.71,3.3C158.07,163.18,158.24,164.13,159.32,164.54z"/>
					<path class="st6" d="M100.43,212.23c1.26-0.94,2.64-0.7,3.83-0.06c8.24,4.47,16.93,7.88,25.97,10.2
						c5.98,1.54,12.14,2.43,18.32,3.09c3.89,0.41,7.79,0.61,11.66,1.7c2.69,0.75,5.74,0.19,8.64,0.26c0.91,0.02,2.35-0.3,1.35,1.5
						c-3.28-0.21-6.39,1.1-9.66,1.02c-14.5-0.32-28.58-2.74-42.21-7.89C111.84,219.6,105.95,216.3,100.43,212.23z"/>
					<path class="st3" d="M52.8,76.39c2.22,1.92,0.21,2.12-1.07,2.6c-0.66,0.25-1.99-0.04-1.39,1.26c0.26,0.57,1.28,1.23,2.15,0.47
						c1.88-1.61,4.64-0.37,6.51-2.05c0.33-0.29,1.43,0.11,1.08,0.6c-1.38,1.89-0.1,4.59-2.05,6.25c-1.06,0.9-2.02,2.08-3.18,0.16
						c-0.48-0.81-1.22-0.67-1.91-0.48c-0.81,0.22-0.78,0.99-0.68,1.57c0.25,1.49-1.15,4,2.15,3.72c0.03,1.26-1.83,1.36-1.65,2.71
						c-1.36,1.37-3.19,2.19-4.36,3.78c-0.35,0.01-0.71,0.01-1.07,0.02l0.01,0.01c-1.54-2.12-1.54-4.82-2.67-7.11
						c-0.15-0.31,0.11-0.86,0.23-1.27c0.11-0.36,1.08-0.1,0.68-0.74c-0.16-0.28-0.82-0.37-1.25-0.37c-1.02,0-1.34,1.14-2.17,1.46
						c-0.6-0.21-1.21-0.42-1.81-0.63c-0.63-0.28-0.6-0.89-0.69-1.43c0.27-0.27,0.55-0.53,0.83-0.81c0.4,0.82,0.48,2.19,1.96,1.13
						c1.2-0.49,1.59-1.6,2.1-2.66c1.8-3.65,4.57-6.37,8.15-8.27L52.8,76.39z"/>
					<path class="st5" d="M116.4,117.62c0.63,1.88,2.18,3.88-0.7,5.28c-2.36,1.1-4.73,2.01-7.41,1.32c1.15-1.99,0.61-3.64-1.03-5.06
						c-0.15-0.23-0.31-0.48-0.57-0.12c-0.02,0.02,0.23,0.23,0.35,0.35c0.36,1.57,0.72,3.13,1.09,4.7c-1.13,0.88-2.21,1.84-3.76,2.13
						c1.05,0,2.09,0,3.37,0c-2.33,1.88-3.95,1.9-6.11,0.14c-1.87-1.52-2.6-3.47-1.69-5.78c0.84-2.14,3.67-3.92,5.61-3.38
						c1.01,0.27,1.69,0.45,2.24-0.55c2.15,1.01,4.26,2.15,6.77,1.13C115.08,117.56,115.77,117.67,116.4,117.62z M105.2,118.24
						c-0.16,0.11-0.27,0.19-0.37,0.27c0.15,0.06,0.3,0.16,0.45,0.16s0.3-0.1,0.44-0.16C105.54,118.43,105.36,118.33,105.2,118.24z"
						/>
					<path class="st6" d="M35.94,189.46c0.07-0.13,0.09-0.26,0.05-0.4c3.08,0.47,5.93,1.7,8.81,2.78c1.29,0.48,2.49,0.81,3.83,0.51
						c0.51,1.26,1.55,1.58,2.78,2.11c5.25,2.27,10.76,3.79,16.13,5.71c1.07,0.38,1.86,1.09,2.16,2.24c-1.37,0.75-2.8,0.54-4.21,0.18
						c-5.77-1.48-11.38-3.38-16.93-5.58c-2.98-1.18-6.01-2.18-8.79-3.83C38.12,192.35,37.09,190.84,35.94,189.46z"/>
					<path class="st2" d="M67.46,138.31c1.3-0.14,0.53-0.74,0.26-1.22c-0.78-1.33,0.16-2.65,0.74-3.32c0.83-0.96,1.58,0.52,2.3,1.08
						c0.85,0.64,1.75,1.24,2.15,2.31c-1.02-0.49-1.91-0.27-2.74,0.45c-0.06-0.32-0.13-0.65-0.19-0.98
						c-0.59,0.17-0.23,0.68-0.37,1.02c0.17,0.29,0.3,0.62,0.52,0.88c0.89,1.04,1.58-0.95,2.32-0.23c1.3,1.25-1.46,0.76-0.85,1.79
						c0.09,0.15,0.2,0.3,0.33,0.42c2.44,2.22,4.87,4.45,7.67,7.01c-0.55-2.01,1.52-4.4-1.82-5.03c1.33-1.46,1.33-1.46-1.45-4.34
						c3.91,0.66,4.36,3.9,5.8,6.2c-0.84,1.37-0.36,3.51-2.44,4.16c0.09,0.24,0.18,0.49,0.27,0.73c-3.14-0.23-5.99-0.81-7.97-3.76
						c-1.62-2.41-4.49-3.94-5.08-7.11C67.09,138.34,67.27,138.32,67.46,138.31z"/>
					<path class="st2" d="M141.94,219.19c-4.49-0.19-8.75-1.65-13.13-2.44c-5.29-0.95-10.1-3.35-15.05-5.26
						c-2.1-0.82-3.62-2.81-6.07-3.29c-4.8-0.95-7.74-5.21-12.08-7.04c-0.24-0.1-0.3-0.6-0.45-0.93c3.21,0.45,5.67,2.59,8.47,3.92
						c8.73,4.14,17.29,8.67,26.54,11.59c3.39,1.07,6.94,1.66,10.42,2.41C141.28,218.3,141.83,218.42,141.94,219.19z"/>
					<path class="st3" d="M44.64,116.56c0.23,2.1,1.87,4.16,0.08,6.35c-0.35,0.43,0.12,0.9,1,1.07c1.74,0.35,2.68,1.96,3.67,3.31
						c0.27,0.36,0.42,1.12-0.25,1.37c-0.42,0.16-0.82-0.2-1.13-0.57c-2.04-2.5-4.03-2.45-6.09,0.17c-0.29,0.36-0.44,0.8-1.01,0.64
						c-0.55-0.14-0.51-0.65-0.64-1.07c-1.32-4.2-0.58-8.24,0.95-12.2c0.57-1.48,0.78-2.95,0.7-4.5c-0.05-1.13,0.21-1.85,1.53-1.09
						C43.66,112.26,43.16,114.59,44.64,116.56z"/>
					<path class="st5" d="M107.44,100.77c-4,3.07-6.22,3.35-8.69,1.25c-1.88-1.61-2.56-3.58-1.48-5.77
						c1.07-2.15,2.68-3.83,5.46-3.64c3.29,0.21,4.23,1.06,4.29,4.3c0.02,1.05,0.46,1.91,0.75,2.85
						C107.67,100.08,107.56,100.43,107.44,100.77z M103.71,96.39c2.61,1.31,0.48,3.17,0.32,5.18c2.25-1.45,3.05-3.1,2.2-5.2
						c-0.81-2-2.47-2.82-4.61-2.26c-0.26,0.07-1.59-0.29-0.81,0.91c-0.09,0.5-0.97,0.56-0.71,1.33
						C101.3,96.13,102.51,95.98,103.71,96.39z M103.16,101.61c-0.88-0.35-1.48-0.48-2.1,0.03
						C101.68,102.02,102.26,101.98,103.16,101.61z"/>
					<path class="st6" d="M133.36,105.12c-4.74,2.22-9.48,4.43-14.21,6.67c-1.52,0.72-3.19,1.22-4.45,2.43
						c-1.6,0.57-3.23,0.99-4.94,0.57c2.04-3.52,5.65-4.88,9.09-6.3c3.52-1.45,6.89-3.35,10.7-4.05c0.75-0.22,1.52-0.41,2.26-0.66
						C133.12,103.33,133.38,104.04,133.36,105.12z"/>
					<path class="st5" d="M130.71,137.3c-2.42,4.19-6.08,5.4-9,2.96c-1.89-1.58-1.96-3.17-0.3-5.04c1.05-1.18,2.61-1.92,3.12-3.56
						c0.71,0.27,1.4,0.26,2.05-0.17C128.66,132.92,131.36,133.93,130.71,137.3z M127.78,138.86c-1.63,0.21-3.19,1.16-4.94,0.24
						c1.79,1.37,3.47,1.56,4.93-0.26c0.04-0.06,0.07-0.13,0.11-0.19C127.85,138.72,127.82,138.79,127.78,138.86z"/>
					<path class="st3" d="M181.04,154.17c-1.48,0.68-3.07,0.87-4.67,0.85c-1.4-0.01-2.63,0.32-3.72,1.16
						c-0.28,0.01-0.55,0.03-0.84,0.05c-0.1-0.79,0.82-1.45,0.19-2.5c-1.05,0.95-2.72,0.24-3.68,1.68c-0.3,0.45-1.29-0.14-1.07-0.58
						c0.94-1.9-0.73-1.37-1.61-1.71c1.34-0.4,1.98-1.78,3.38-1.79c1.04,0.36,3.02,1.12,2.93,0c-0.22-2.83,1.76-1.63,2.43-1.44
						c1.94,0.55,3.93,1.13,5.68,2.3C180.83,152.72,181.11,153.3,181.04,154.17z"/>
					<path class="st3" d="M187.06,160.66c0.16-0.19,0.32-0.37,0.48-0.56c0.41,1.47,1.03,0.76,1.68,0.18
						c2.43-2.18,7.29-1.41,9.25,1.47v-0.06c-0.54,0-1,0.14-1.13,0.75c-1.97,1.61-4.42,2.15-6.73,3c1.15-2.62-1.07-0.74-1.56-1.17
						c-0.15-0.38-0.3-0.76-0.45-1.15c-0.04-0.33-0.09-0.73-0.48-0.69c-0.22,0.02-0.39,0.4-0.59,0.62c-0.18,0.08-0.35,0.16-0.53,0.24
						c-1.1,0.37-1.8,1.04-1.74,2.3c-0.61-1.46-1.83-1.25-3.03-1.12c-0.03-0.39-0.06-0.78-0.09-1.17c0.5,0,1.01,0,1.5-0.01
						C185.22,162.99,186.23,161.94,187.06,160.66z"/>
					<path class="st5" d="M169,151.33c-1.4,0.01-2.03,1.39-3.38,1.79c0.89,0.33,2.55-0.19,1.61,1.71c-0.22,0.44,0.77,1.04,1.07,0.58
						c0.98-1.44,2.65-0.73,3.68-1.68c0.63,1.06-0.28,1.71-0.19,2.5c-1.09,1.27-2.17,2.55-3.26,3.81c-1.09-0.72-2.16-1.44-3.25-2.16
						l-0.04-0.03c-0.54-0.86-1.42-1.24-2.3-1.61c0.54-1.91,1.37-3.69,2.6-5.26c0.95-0.09,1.9-0.18,2.85-0.27
						C168.6,150.91,168.8,151.12,169,151.33z"/>
					<path class="st5" d="M109.79,97.56c-0.16-0.54-0.31-1.09-0.47-1.63c-0.03-0.72-0.06-1.44-0.09-2.16
						c0.04-0.67,0.08-1.35,0.12-2.02c0.34-0.03,0.68-0.05,1.03-0.08c0.3,3.37,2.73,1.33,4.22,1.65c0.57,1.77,1.15,3.54,1.72,5.31
						c-0.77,0.83-2.14,0.77-2.71,1.87C110.93,101.33,110.49,99.27,109.79,97.56z"/>
					<path class="st3" d="M188,169.17c-1.13,3.59-2.82,4.92-6.27,4.99c-0.8,0.02-1.59,0.21-2.39,0.29
						c-2.06,0.19-3.17-1.26-2.73-3.54c1,1.01,2.45,1.01,3.61,1.65c1.69,0.92,2.81-0.39,3.56-1.52c1.04-1.56-0.65-1.89-1.55-2.5
						c-1.01-0.67-2.09-1.08-3.33-0.81c-0.02-0.39-0.04-0.78-0.06-1.17c1.14,0.17,2.15-0.31,3.22-0.56
						C183.1,168.83,185.6,168.9,188,169.17z"/>
					<path class="st3" d="M130.71,137.3c0.64-3.37-2.05-4.38-4.13-5.83c0.67-1.52,0.87-3.36,2.74-4.09
						c1.28-0.11,1.85-1.85,3.35-1.44c-0.51,1.94,2.38,1.91,2.13,3.7c-0.95-0.01-1.89-0.03-2.84-0.04c-1.39-1.01-2.01,0.39-2.09,1.07
						c-0.17,1.35,0.95,1.71,2.15,1.62c0.07,1.64,1.02,0.91,1.78,0.65c0.47,2.04-2.35,2.4-2.21,4.26
						C131.31,137.24,131.01,137.27,130.71,137.3z"/>
					<path class="st2" d="M70.18,137.59c0.82-0.71,1.72-0.95,2.74-0.45c1.09,0.75,1.76,1.95,2.96,2.61
						c0.41,0.23,1.06,0.89,0.66,1.57c-1.45,2.48,0.68,0.93,1.25,1.14c3.34,0.63,1.27,3.02,1.82,5.03c-2.8-2.56-5.24-4.77-7.67-7.01
						c-0.13-0.12-0.24-0.27-0.33-0.42c-0.61-1.04,2.14-0.54,0.85-1.79c-0.73-0.71-1.43,1.27-2.32,0.23
						c-0.22-0.25-0.35-0.58-0.52-0.88C69.79,137.61,69.98,137.6,70.18,137.59z"/>
					<path class="st3" d="M165.29,157.88c1.09,0.72,2.16,1.44,3.25,2.16c-0.68,0.8,1.65,2.2-0.54,2.69
						c-0.08-0.04-0.17-0.07-0.25-0.11c0.07,0.04,0.15,0.09,0.22,0.13c-0.03,0.16-0.04,0.32-0.04,0.48c-1.15-0.09-2.17,0.34-3.19,0.8
						l0.01-0.16c-2.27-0.55-4.55-1.11-6.82-1.65c-1.12-1.4-1.36-2.61,0.72-3.3c0.64,2.83,1.65,3.62,4.55,3.17
						C165.69,161.69,165.28,159.62,165.29,157.88z"/>
					<path class="st2" d="M183.65,163.31c-0.5,0-1.01,0-1.5,0.01c-1.32-0.76-2.57-1.63-4.19-0.52c-1.57,1.07-1.28-0.97-1.97-1.42
						c-0.72-0.47-0.25-1.49,0.52-1.65c1.84-0.37,3.65-0.94,5.59-0.78c1.48,0.12,0.8,1.69,1.64,2.18
						C183.71,161.85,183.68,162.58,183.65,163.31z"/>
					<path class="st5" d="M188,169.17c-2.4-0.27-4.9-0.34-5.93-3.18c0.05-0.5,0.1-1.01,0.16-1.51c1.2-0.13,2.43-0.33,3.03,1.12
						c0.65,0.67,1.3,1.64,1.98,0.02c0.8-0.19,1.48-0.53,1.81-1.34c0.49,0.42,2.71-1.45,1.56,1.16c-0.07,0.08-0.11,0.19-0.1,0.32
						c-0.7,0.98-1.4,1.94-2.1,2.92C188.28,168.85,188.14,169.01,188,169.17z"/>
					<path class="st3" d="M109.74,114.8c1.72,0.41,3.34,0,4.94-0.57c1.59,0.61,1.47,2.09,1.7,3.4c-0.62,0.04-1.31-0.06-1.86,0.16
						c-2.52,1.03-4.63-0.12-6.77-1.13C107.54,115.08,108.73,115.03,109.74,114.8z"/>
					<path class="st2" d="M202.42,195.77c-0.79-0.11-1.4-0.33-1.66-0.97c-0.19-0.47,0.15-0.73,0.57-1.03
						c2.04-1.4,4.68-1.35,6.69-2.99c0.73-0.59,2.19,0.51,3,1.35c0.54,0.55,0.03,0.94-0.6,1.04c-1.24,0.19-2.48,0.47-3.72,0.54
						c-1.21,0.06-2.32,0.04-3.04,1.28C203.42,195.38,202.78,195.55,202.42,195.77z"/>
					<path class="st5" d="M128.88,153.5c-0.96-0.04-1.79-0.14-2.72-0.73c-1.75-1.13-3.55-2.24-6.42-2.68c1.86-1.38,3-2.55,4.35-1.38
						c1.7,1.47,5.01,1.44,4.77,4.82L128.88,153.5z"/>
					<path class="st6" d="M133.36,105.12c0.03-1.08-0.23-1.79-1.55-1.33c-0.74,0.26-1.51,0.44-2.26,0.66
						c-0.22-0.85,0.97-0.68,1.01-1.36c-1.19-0.5-2.52,0.28-3.64-0.47c3.55-0.78,7.11-1.15,10.61,0.23
						C135.6,102.64,135.07,104.97,133.36,105.12z"/>
					<path class="st2" d="M117.68,198.06c-1.54,0.09-2.44-0.39-2.38-1.95c0.07-1.79,1.37-2.24,2.77-2.3
						c0.95-0.03,2.21,0.26,1.93,1.62C119.74,196.68,119.83,198.6,117.68,198.06z"/>
					<path class="st5" d="M128.85,153.55c1.07-1.62,2.21-2,3.74-0.46c0.52,0.52,1.41,0.73,2.16,0.97c0.6,0.19,1.38,0.17,1.07,1.11
						c-0.2,0.63-0.79,1.15-1.45,0.99c-2-0.49-4.19-0.67-5.52-2.62C128.88,153.5,128.85,153.55,128.85,153.55z"/>
					<path class="st2" d="M179.39,228.6c1.36,0.34,2.48,0.58,3.57,0.92c0.56,0.17,0.88,0.67,0.65,1.27
						c-0.24,0.65-0.71,1.03-1.46,0.7c-0.9-0.39-1.74-0.87-2.78-0.82c-0.78,0.03-1.91,0.07-1.83-0.99
						C177.63,228.65,178.72,228.55,179.39,228.6z"/>
					<path class="st5" d="M157.93,162.22c2.27,0.55,4.55,1.11,6.82,1.65c-1.74,0.78-3.61,0.49-5.43,0.66
						C158.24,164.13,158.07,163.18,157.93,162.22z"/>
					<path class="st3" d="M55.19,121.95c2.14,1.01,4.65,0.94,7.07,2.31C58.99,125.19,57.17,123.25,55.19,121.95z"/>
					<path class="st2" d="M161.5,166.52c1.92,0.56,3.71,1.35,5.7,2.95c-3.34,0.88-4.39-1.32-5.77-2.88L161.5,166.52z"/>
					<path class="st3" d="M66.81,137.85c-1.53-0.46-1.4-1.96-1.88-3.06c-0.26-0.58-0.33-1.26,0.28-1.72
						c0.18-0.13,0.54-0.15,0.77-0.06c0.67,0.27,1.05,0.92,0.78,1.53c-0.52,1.15,0.27,2.11,0.23,3.17
						C66.99,137.7,66.81,137.85,66.81,137.85z"/>
					<path class="st3" d="M113.6,100.5c0.57-1.11,1.94-1.05,2.72-1.87c0.42,0.17,0.57,0.49,0.54,0.93
						c-0.75,0.72-1.47,1.47-0.98,2.66C114.57,102.38,113.76,101.87,113.6,100.5z"/>
					<path class="st5" d="M79.95,149.21c-0.09-0.24-0.18-0.49-0.27-0.73c2.07-0.64,1.6-2.79,2.44-4.16
						c0.59,1.73,1.33,3.49-1.09,4.49c-0.16,0.12-0.33,0.24-0.5,0.37C80.34,149.19,80.15,149.2,79.95,149.21z"/>
					<path class="st6" d="M183.65,163.31c0.03-0.72,0.06-1.45,0.09-2.17c0.06-0.37,0.12-0.74,0.18-1.12
						c0.67,2.04,2.11,0.31,3.14,0.65C186.23,161.94,185.22,162.99,183.65,163.31z"/>
					<path class="st3" d="M59.3,88.32c-0.43,0.05-0.86,0.1-1.48,0.17c0.73-1.63,2.69-1.61,3.55-3.03c0.33-0.55,0.49,0.71,0.63,1.22
						C61.11,87.22,60.2,87.76,59.3,88.32z"/>
					<path class="st2" d="M164.74,164.03c1.02-0.45,2.04-0.88,3.19-0.8c0.21,1.04-0.19,1.77-1.2,1.99
						C165.78,165.43,165.03,165.05,164.74,164.03z"/>
					<path class="st3" d="M49.52,117.12c1.6,0.34,2.43,1.51,3.4,3.17C50.68,119.96,49.95,118.7,49.52,117.12L49.52,117.12z"/>
					<path class="st2" d="M83.77,194.25c-1.78,0.19-3.23-0.21-3.85-2.13C81.33,192.61,83.15,192.35,83.77,194.25z"/>
					<path class="st2" d="M78.11,124.29c1.42-0.91,2.84-0.69,4.26-0.2C80.95,124.97,79.53,124.37,78.11,124.29z"/>
					<path class="st2" d="M86.8,161.56c1.38,0.09,2.6,0.49,3.71,2.11C88.53,163.59,87.68,162.56,86.8,161.56z"/>
					<path class="st5" d="M72.55,131.7c-1.36-0.56-2.72-1.12-4.52-1.86C70.32,129.43,71.64,130.23,72.55,131.7z"/>
					<path class="st2" d="M52.77,93.2c-0.18-1.35,1.68-1.45,1.65-2.71l-0.01,0.01c0.54,0,1.1,0,1.64,0l0.04,0.04
						C55.42,91.97,54.42,92.99,52.77,93.2z"/>
					<path class="st2" d="M56.08,183.3c-1.43-0.42-3.05-0.47-3.88-2.04C53.62,181.72,55.37,181.54,56.08,183.3z"/>
					<path class="st2" d="M146.26,219.29c-0.93,0.73-1.83,0.81-2.72-0.07C144.47,218.49,145.38,218.44,146.26,219.29z"/>
					<path class="st2" d="M90.83,198.06c-1.18,0.08-2.07-0.22-2.2-1.59C89.64,196.62,90.63,196.79,90.83,198.06z"/>
					<path class="st2" d="M95.17,200.25c-1.01-0.37-2.36-0.17-2.75-1.6C93.47,198.96,94.83,198.72,95.17,200.25z"/>
					<path class="st2" d="M151.16,219.83c-0.96,0.74-1.76,0.86-2.22-0.51C149.71,219.32,150.56,219,151.16,219.83z"/>
					<path class="st3" d="M48.43,116.03c-0.65-0.08-1.26-0.24-1.41-1c-0.06-0.31,0.14-0.54,0.46-0.46
						C48.24,114.76,48.37,115.39,48.43,116.03C48.44,116.03,48.43,116.03,48.43,116.03z"/>
					<path class="st6" d="M117.02,102.4c0.68-0.57,1.16-0.36,1.48,0.39C117.93,102.95,117.37,103.06,117.02,102.4z"/>
					<path class="st2" d="M85.95,195.34c-0.8,0.04-1.58,0.04-1.66-1.05C85.08,194.25,85.87,194.24,85.95,195.34z"/>
					<path class="st2" d="M50.64,181.18c-0.81,0.06-1.57,0.07-1.67-1.02C49.75,180.13,50.53,180.1,50.64,181.18z"/>
					<path class="st2" d="M88.12,196.42c-0.8,0.04-1.57,0.04-1.66-1.05C87.25,195.35,88.03,195.32,88.12,196.42z"/>
					<path class="st3" d="M65.49,124.13c0.23-0.37,0.56-0.36,0.88-0.18c0.24,0.14,0.72,0.18,0.51,0.62
						c-0.06,0.13-0.47,0.15-0.71,0.13C65.81,124.7,65.48,124.6,65.49,124.13z"/>
					<path class="st2" d="M85.93,163.84c-0.51-0.07-1.09-0.07-1.23-0.72c-0.02-0.07,0.2-0.27,0.32-0.28
						C85.74,162.79,85.88,163.28,85.93,163.84C85.94,163.84,85.93,163.84,85.93,163.84z"/>
					<path class="st3" d="M73.15,150.23c-0.94-0.19-1.77-0.5-1.88-1.64C71.97,149.05,72.87,149.27,73.15,150.23z"/>
					<path class="st2" d="M79.42,192.09c-0.7,0-1.06-0.36-1.12-1.06C79.02,191.01,79.39,191.37,79.42,192.09z"/>
					<path class="st2" d="M160.9,166.06c-0.53-0.37-1.07-0.74-1.6-1.12v-0.01c0.8-0.02,1.58-0.02,1.66,1.06
						C160.96,165.99,160.9,166.06,160.9,166.06z"/>
					<path class="st2" d="M76.72,190.96c-0.71,0.06-1.08-0.31-1.16-0.99C76.28,189.91,76.65,190.26,76.72,190.96z"/>
					<path class="st3" d="M49.53,117.12c-0.72,0.01-1.11-0.33-1.1-1.08l0.01-0.01C49.18,116.02,49.51,116.41,49.53,117.12
						C49.52,117.12,49.53,117.12,49.53,117.12z"/>
					<path class="st2" d="M47.16,205.28c-0.15,0.06-0.35,0.2-0.45,0.15c-0.11-0.05-0.13-0.29-0.19-0.44
						c0.15-0.06,0.35-0.2,0.45-0.15C47.06,204.89,47.09,205.13,47.16,205.28z"/>
					<path class="st3" d="M76.17,152.92c0-0.39,0.01-0.8,0.01-1.19c0.39,0.32,0.79,0.65,1.17,0.99
						C76.95,152.79,76.56,152.86,76.17,152.92z"/>
					<path class="st3" d="M53.9,120.56c0.1,0.12,0.28,0.23,0.27,0.34c0,0.3-0.23,0.43-0.49,0.31c-0.1-0.05-0.19-0.29-0.16-0.41
						C53.55,120.7,53.77,120.64,53.9,120.56z"/>
					<path class="st3" d="M64.06,124.28c-0.13,0.1-0.25,0.27-0.36,0.26c-0.3-0.01-0.46-0.22-0.34-0.51c0.04-0.1,0.31-0.19,0.43-0.15
						C63.89,123.93,63.96,124.14,64.06,124.28z"/>
					<path class="st2" d="M47.39,180.07c-0.74,0.08-1.09-0.29-1.14-1C46.92,179.06,47.32,179.38,47.39,180.07z"/>
					<path class="st3" d="M75.25,151.32c-0.52,0.07-1,0.04-1.25-0.52C74.51,150.73,74.94,150.89,75.25,151.32z"/>
					<path class="st3" d="M73.98,150.79c-0.23-0.17-0.46-0.35-0.69-0.52C73.51,150.43,73.75,150.61,73.98,150.79z"/>
					<path class="st2" d="M80.53,149.18c0.17-0.12,0.33-0.24,0.5-0.37C80.87,148.93,80.7,149.06,80.53,149.18z"/>
					<path class="st3" d="M67.46,138.31c-0.19,0.01-0.37,0.02-0.56,0.04c-0.02-0.16-0.04-0.33-0.08-0.49l0.16-0.14
						C67.15,137.9,67.3,138.1,67.46,138.31z"/>
					<path class="st2" d="M161.43,166.59c-0.18-0.18-0.35-0.36-0.53-0.53l0.06-0.06c0.18,0.18,0.36,0.36,0.53,0.53
						C161.5,166.52,161.43,166.59,161.43,166.59z"/>
					<path class="st4" d="M188.42,168.68c0.7-0.98,1.4-1.94,2.09-2.91c0.28,2.41,1.67,2.94,4.36,1.72c3.29-1.48,6.49-3.16,9.95-4.27
						c0.91-0.29,1.95-0.5,2.3-1.63c0.71,0.09,1.42,0.17,2.13,0.26c0.19,0.66,0.39,1.32,0.58,1.98c-3.96-0.1-7.66,0.49-10.39,3.77
						c-2.2,0.52-4.19,1.48-5.33,3.52c-0.45,0.81-0.87,0.69-1.48,0.43c-0.97-0.4-1.93-0.81-2.91-1.21l-0.01-0.01
						C189.78,169.42,189.54,168.7,188.42,168.68z"/>
					<path class="st5" d="M178.92,167.72c1.24-0.27,2.33,0.13,3.33,0.81c0.9,0.6,2.59,0.94,1.55,2.5c-0.75,1.14-1.87,2.44-3.56,1.52
						c-1.18-0.63-2.63-0.64-3.61-1.65C176.55,169.24,177.75,168.48,178.92,167.72z"/>
					<path class="st3" d="M208.17,172.46c-0.45-1.29-1.24-0.13-2.54,0.08c1.59-1.6,1.57-3.67,3.25-4.18
						c1.27-0.38,1.13,1.59,2.08,2.04C210.04,171.09,209.11,171.77,208.17,172.46z"/>
					<path class="st5" d="M202.34,176.38c-1.13,1-1.85,0.19-2.67-0.66c2,0.6,1.99-4.32,4.72-1.57
						C203.58,174.77,201.98,174.68,202.34,176.38z"/>
					<path class="st5" d="M208.17,172.46c0.94-0.68,1.86-1.37,2.8-2.05c0.34,0.02,0.67,0.04,1.02,0.07
						c0.03,0.74-0.73,0.86-1.06,1.32c-1.14,0.28-1.76,1.3-2.7,1.87c-0.35-0.02-0.69-0.05-1.05-0.07
						C207.52,173.21,207.85,172.84,208.17,172.46z"/>
					<path class="st3" d="M162.65,185.88c1.22-0.25,2.3,0.62,3.39,0.05C164.22,187.62,164.19,187.62,162.65,185.88z"/>
					<path class="st3" d="M202.34,176.38c-0.35-1.7,1.24-1.61,2.05-2.23C204.63,175.74,204.03,176.57,202.34,176.38z"/>
					<path class="st3" d="M207.19,173.6c0.35,0.02,0.69,0.05,1.05,0.07c-0.15,0.62,0.28,1.43-0.5,1.85
						c-0.15,0.08-0.52-0.05-0.67-0.2C206.47,174.71,206.45,174.12,207.19,173.6z"/>
					<path class="st3" d="M159.42,186.27c0.07-0.42,0.37-0.6,0.75-0.56c0.65,0.08,0.93,0.59,0.87,1.14
						c-0.04,0.38-0.52,0.37-0.88,0.32C159.65,187.08,159.35,186.82,159.42,186.27z"/>
					<path class="st4" d="M189.74,170.37c-0.04,0.07-0.09,0.15-0.13,0.22c0.04-0.08,0.08-0.16,0.12-0.24
						C189.73,170.36,189.74,170.37,189.74,170.37z"/>
					<path class="st3" d="M65.83,149.78c-0.05-1.35-2.14-1.68-1.65-3.3l0.04-0.04c2.19-0.06,2.57,2.81,3.73,2.97
						c1.96,0.27,3.18,1.35,3.55,2.64c0.34,1.18,1.38,0.62,1.63,1.34c-1.32,1.18-2.65,1.2-4.01,0.1
						C68.08,152.21,67.28,150.71,65.83,149.78z"/>
					<path class="st4" d="M65.83,149.78c1.44,0.93,2.25,2.43,3.3,3.71C66.72,153.69,65.9,152.76,65.83,149.78z"/>
					<path class="st3" d="M49.25,130.01c2.2-0.38,2.17,1.69,3.55,2.71C50.24,133.16,50.86,130.24,49.25,130.01z"/>
					<path class="st3" d="M54.69,134.64c-0.86,0.67-1.49,0.52-2.3-0.4C53.36,133.83,54.01,133.86,54.69,134.64z"/>
					<path class="st3" d="M64.18,146.48c-0.49-0.07-1.19,0.18-1.35-0.52c-0.13-0.57,0.46-0.8,0.87-0.76
						c0.85,0.06,0.38,0.82,0.53,1.25C64.22,146.44,64.18,146.48,64.18,146.48z"/>
					<path class="st3" d="M47.35,97c-0.05,0.34-0.04,0.74-0.5,0.82c-0.09,0.01-0.31-0.21-0.3-0.3C46.61,97.06,47.01,97.08,47.35,97
						C47.36,97.01,47.35,97,47.35,97z"/>
					<path class="st3" d="M101.72,66.64c-3.19-1.67-6.46-3.13-10.17-2.96c-4.17,0.19-8.34,0.06-12.49,1.05
						c-1.99,0.47-0.17,2.79-1.94,2.84c-1.16,0.03-1.24-2.13-3.03-1.35c-3.6,1.58-7.34,2.88-11.02,4.28
						c-1.32,0.5-0.89,1.81-1.23,2.98c-1.17-1.02-2.44-0.93-3.68-0.91c0.43-0.45,0.78-1.08,1.31-1.34c6.9-3.43,13.86-6.71,21.56-7.98
						c4.35-0.53,8.72-0.82,13.1-0.49C96.95,63.45,100.47,62.82,101.72,66.64z"/>
					<path class="st3" d="M54.95,76.93c-0.65-0.39-1.35-0.65-2.13-0.54c0,0-0.09-0.09-0.08-0.09c0.19-1.4,1.41-1.81,2.42-2.44
						c-0.39-0.85-0.97-1.29-1.85-1.28c-1.06,0.04-2.03-0.1-2.67-1.1c0.17-0.2,0.33-0.4,0.5-0.61c0.78,0.07,1.1-0.33,1.12-1.06
						c1.75,0.53,2.21,2.57,3.8,3.28c0.84,1.6-1.99,2.16-1.07,3.78C54.98,76.89,54.95,76.93,54.95,76.93z"/>
					<path class="st4" d="M101.72,66.64c-1.25-3.81-4.77-3.19-7.61-3.89c0.11-0.33,0.13-0.9,0.33-0.97
						c2.48-0.92,3.05-1.56,0.15-3.01c-1.4-0.69-2.48-2.5-0.91-4.39c0.73-0.89,1.41-1.86,1.55-3.08c1.01-0.31,1.15-2.05,2.62-1.58
						c0.19,0.39,0.44,0.75,0.55,1.17c0.2,0.7-0.34,1.89,0.84,1.97c1.12,0.07,1.73-0.84,1.87-1.94c0.07-0.53,0.03-1.09,0.04-1.63
						c0.36,0,0.71-0.01,1.08-0.01c1.07,2.27,2.13,4.55,3.2,6.82c0.56,1.21,1.68,1.47,2.83,1.83c1.37,0.44,3.04,0.47,3.75,2.12
						c-2.22-0.43-4.35,0.31-6.51,0.56c-0.46,0.14-1.36,0.32-0.57,0.88c0.74,0.52,1.03,1.07,1.27,1.85c1.23,4,4.87,5.94,7.51,8.75
						c-0.19,0.14-0.37,0.29-0.56,0.43c-0.21,0.01-0.43,0.02-0.64,0.03c-0.86-0.19-1.72-0.38-2.58-0.58
						c-2.04-4.25-3.9-5.29-8.19-4.63C101.72,67.1,101.72,66.87,101.72,66.64z"/>
					<path class="st4" d="M94.68,50.68c0.18,0.22,0.35,0.44,0.53,0.67C95.03,51.12,94.85,50.9,94.68,50.68z"/>
					<path class="st5" d="M216.35,168.18c-0.03,0.06-0.07,0.12-0.1,0.18c0.04-0.06,0.08-0.11,0.11-0.17
						C216.37,168.19,216.35,168.18,216.35,168.18z"/>
					<path class="st3" d="M105.5,60.61c2.16-0.24,4.29-1,6.51-0.56c1.34-0.08,2.63-0.37,3.8-1.04c1.64-0.2,2.12-1.54,2.71-2.78
						c0.36,0.02,0.72,0.04,1.08,0.05c-0.25,2.52,0.44,4.8,1.62,7c0.63,1.19,1.34,2.38,1.1,3.81c-0.67-0.82-1.52-1.07-2.6-1.1
						c-2.77-0.07-5.44,0.28-8.09,1.44c-0.19-2,0.14-4.06-0.66-5.44c-1-1.71-3.39-0.43-5.07-1.04
						C105.75,60.91,105.63,60.73,105.5,60.61z"/>
					<path class="st3" d="M102.24,49.27c-0.36,0-0.71,0.01-1.08,0.01c-0.86-0.33-0.43-1.13-0.61-1.7c1.1-1.66,2.19-3.33,3.3-4.99
						c4.19-2.93,7.73-1.27,10.31,4.97C110.14,48.06,106.1,48.11,102.24,49.27z"/>
					<path class="st3" d="M103.85,42.59c-1.1,1.66-2.19,3.33-3.3,4.99c-0.57-0.02-1.19,0.07-1.56-0.52c0.64-1.9,0.53-4.3,3.15-4.95
						C102.72,42.22,103.38,42.02,103.85,42.59z"/>
					<path class="st3" d="M106.27,52.72c2.41,0,4.81,0,7.83,0C111.12,53.18,108.76,54,106.27,52.72z"/>
					<path class="st4" d="M151.19,120.73c0.84,0.77,0.59,2.55,2.33,2.47l0.03,0.01c0.27,0.99,1.08,1.19,1.93,1.31
						c0.18,0.06,0.36,0.13,0.54,0.19h-0.01c-0.75,1.67-1.52,3.33-2.27,5c-0.31-0.02-0.63-0.05-0.95-0.07
						c-0.15-0.18-0.3-0.36-0.46-0.55c-0.1-0.99-0.74-1.68-1.49-2.14c-2.88-1.82-4.97-5.14-9.01-4.82c0.02-0.51,0.04-1.04,0.07-1.55
						C145.01,119.44,148.09,120.8,151.19,120.73z"/>
					<path class="st2" d="M135.4,124.68c1.43-1.08,3.02-1.83,4.77-2.23l0.14,0.15c-0.01,0.18-0.01,0.37-0.02,0.55
						c-0.71,0.85-2,1.09-2.59,2.35c0.69,0.21,1.52,0.22,1.78,0.6c0.89,1.28,1.5,2.8,3.52,2.05c0.22,1.04,1.67,1.14,1.71,2.26
						c0,0.07-0.79,0.16-1.21,0.24c-0.18-0.29-0.35-0.26-0.52,0.01c-0.36,0-0.71,0.01-1.08,0.01c-0.21-1.35-1.29-0.96-2.12-1.08
						c-3.32-0.49-3.59-0.91-3.23-4.3C136.66,124.38,135.81,124.88,135.4,124.68z"/>
					<path class="st4" d="M135.4,124.68c0.4,0.2,1.26-0.28,1.17,0.63c-0.36,3.4-0.09,3.81,3.23,4.3c0.84,0.12,1.92-0.27,2.12,1.08
						c-0.34,0.13-0.69,0.25-1.04,0.38c-0.81-0.08-1.61-0.16-2.41-0.24c-0.25,0-0.5,0-0.74,0c-0.42,0.08-0.86,0.16-1.28,0.23
						c0.07-0.83,0.01-1.54-1.12-1.39c-0.17-0.01-0.34-0.02-0.51-0.02c0.24-1.78-2.65-1.76-2.13-3.7
						C133.45,125.24,134.38,124.86,135.4,124.68z"/>
					<path class="st2" d="M141.9,120.57c-0.02,0.51-0.04,1.04-0.06,1.55c-0.3,0.16-0.61,0.31-0.92,0.47c-0.19,0-0.39,0-0.58,0
						l-0.14-0.15C141.07,122.11,139.82,119.82,141.9,120.57z"/>
					<path class="st4" d="M122.32,67.1c0.24-1.45-0.46-2.63-1.1-3.81c-1.17-2.19-1.86-4.48-1.62-7c0.34-0.88-0.71-2.52,0.98-2.56
						c1.26-0.03,1.52,1.21,1.4,2.42c-0.05,0.5,0.31,1.03,0.32,1.55c0.02,2.65,1.21,3.95,3.95,3.55c-0.04,1.01-1.01,1.46-1.38,2.26
						c-0.97,2.06-1.6,4.14,0.17,6.16c1.36-0.44,0.98-2.18,2.16-2.66c1.44,1.91,2.44,4.02,3.07,6.32c0.06,0.23,0.59,0.34,0.9,0.51
						c-2.11,3.97-5.17,5.26-9.55,4.76c-4.09-0.47-8.25-0.1-12.35-0.79c0.01-0.29,0.03-0.59,0.04-0.89c0.35-0.04,0.7-0.07,1.07-0.11
						c4.25,1.73,8.64,0.46,12.95,0.6c0.75,0.02,1.17-0.41,1.11-1.19c-0.07-0.85-0.72-0.95-1.38-0.94c-2.34,0.02-4.61,0.38-6.82,1.12
						c-1.11,0.36-2.36,1.3-3.13-0.51c1.69,0.38,3.07-0.48,4.5-1.13c1.34,0.86,1.51,0.06,1.46-1.04c0.73,0.55,1.64,0.54,2.45,0.51
						c1-0.04,2.31,0.64,2.94-0.42c0.68-1.16-0.31-2.13-1-3.04C123.36,69.46,122.83,68.29,122.32,67.1z"/>
					<path class="st4" d="M110.37,91.66c-0.34,0.03-0.68,0.05-1.03,0.08c0.17-1.24,0.33-2.48,0.5-3.71c0.2-1.39-0.3-2.69-0.65-3.97
						c-0.55-2.01-2.13-0.38-3.22-0.69c-2.97-0.86-5.75-2.47-9.05-2.15c-1.45,0.14-2.86,0.25-4.22,0.77
						c-0.72,0.28-1.23,0.28-1.33-0.64c1.62-0.38,2.91-1.42,4.28-2.28c1.51-0.2,3.02-0.39,4.53-0.59c0.49,0.02,1,0.04,1.49,0.06
						c0.21,0.2,0.42,0.39,0.63,0.59c0.03,0.14,0.02,0.28-0.03,0.42c0.18,0.19,0.37,0.38,0.55,0.57c1.09,0.39,2.16,0.79,3.25,1.18
						c3.01,0.73,6.06,1.16,9.17,1.01c0.74-0.04,1.67,0.35,2.14-0.65c0.57-0.23,1.14-0.24,1.71,0c0.3,1.12,2.04,0.17,2.17,1.52
						c-2.01,0.9-4.24,1.5-5.99,2.76c-1.7,1.23-4.12,2.24-3.88,5.08C110.97,91.06,110.55,91.17,110.37,91.66z"/>
					<path class="st2" d="M131.17,73.84c-0.31-0.17-0.84-0.28-0.9-0.51c-0.62-2.31-1.63-4.42-3.07-6.32
						c0.03-0.64,0.38-1.11,0.8-1.56c0.13-0.09,0.23-0.2,0.32-0.33l0.17-0.17c0.13-0.16,0.26-0.32,0.39-0.48
						c1.62-1.93,3.63-2.98,6.21-2.76c0.47,2.17,0.07,4.46,0.81,6.59c-0.15,0.5-0.3,1.01-0.45,1.5c-0.85,0.81-0.59,2.52-2.2,2.7
						c-0.18-0.81,0.51-2.14-0.6-2.33c-1.24-0.19-0.93,1.25-1.17,2.03c-0.16,0.5-0.2,1.04-0.29,1.56L131.17,73.84z"/>
					<path class="st2" d="M102.33,79.12c-0.21-0.2-0.42-0.39-0.63-0.59c0.09-0.42,0.12-1.02,0.7-0.93c3.28,0.52,2.91-1.35,2.28-3.42
						c-0.15-0.5-0.24-1.02-0.36-1.53c0.08-0.88,0.16-1.74,0.25-2.62c1.65,0.22,2.33,1.6,3.22,2.72c0.07,1.55,1,2.79,1.53,4.18
						c-0.01,0.3-0.03,0.59-0.04,0.89C106.91,78,104.52,78.05,102.33,79.12z"/>
					<path class="st6" d="M121.29,83.16c-0.14-1.35-1.88-0.4-2.17-1.52c2.39-0.54,4.67,0.27,7,0.54c0.05,0.23,0.09,0.46,0.14,0.69
						c-0.11,0.74-0.45,1.34-1.18,1.65c-0.15-0.03-0.31-0.05-0.46-0.06C124.21,82.23,122.36,83.68,121.29,83.16z"/>
					<path class="st6" d="M117.4,81.64c-0.47,1.01-1.4,0.61-2.14,0.65c-3.1,0.15-6.16-0.27-9.17-1.01
						C109.86,81.52,113.64,81.09,117.4,81.64z"/>
					<path class="st4" d="M131.16,73.76c0.09-0.52,0.13-1.06,0.29-1.56c0.25-0.78-0.07-2.22,1.17-2.03c1.11,0.17,0.42,1.52,0.6,2.33
						C132.51,72.89,132.16,73.85,131.16,73.76z"/>
					<path class="st6" d="M141.05,87.85c-0.14,0.16-0.27,0.33-0.41,0.49c-1.42-0.4-2.94-0.69-3.06-2.61
						C139.04,85.95,140.03,86.91,141.05,87.85z"/>
					<path class="st6" d="M134.51,84.36c-1.01,0.14-1.83-0.13-2.36-1.06C133.28,82.9,133.97,83.47,134.51,84.36z"/>
					<path class="st6" d="M126.25,82.88c-0.05-0.23-0.09-0.46-0.14-0.69c0.58-0.33,1.15-0.44,1.62,0.2
						C127.38,82.98,126.79,82.86,126.25,82.88z"/>
					<path class="st2" d="M102.84,80.1c-0.18-0.19-0.37-0.38-0.55-0.57C102.48,79.72,102.66,79.91,102.84,80.1z"/>
					<path class="st2" d="M124.6,84.47c0.15,0.01,0.31,0.03,0.46,0.06c3.86-0.18,4.28,2.71,4.86,5.45c-0.91-0.03-1.47-1.32-2.79-0.2
						c-1.52,1.29-2.97,2.3-2.34,4.51c0.66,2.31,1.06,4.93,4.58,4.38c1.23-0.19,2.51-0.05,3.76-0.06c0.02,0.19,0.04,0.37,0.05,0.56
						c-3.99-0.12-7.94,0.82-11.94,0.45c-0.18-1.08-1.58-1.5-1.46-2.76c0.28-3.11,0.99-6.08,2.41-8.91c0.6-1.2,2.43-1.46,2.21-3.14
						C124.43,84.66,124.49,84.55,124.6,84.47z M123.71,98.68c-0.14,0.08-0.27,0.17-0.4,0.25c0.14,0.07,0.27,0.2,0.41,0.2
						c0.13,0,0.27-0.14,0.4-0.22C123.98,98.84,123.85,98.76,123.71,98.68z"/>
					<path class="st3" d="M133.15,98.59c-1.26,0.01-2.54-0.13-3.76,0.06c-3.51,0.55-3.92-2.06-4.58-4.38
						c-0.63-2.2,0.82-3.22,2.34-4.51c1.32-1.12,1.88,0.17,2.79,0.2C131,92.85,132.07,95.72,133.15,98.59z"/>
					<path class="st3" d="M122.79,51.86c-1.11,0.04-1.5-0.35-1.5-1.13c0-0.62-0.09-1.41,0.83-1.4c0.87,0,1.63,0.6,1.87,1.3
						C124.11,50.94,123.24,51.75,122.79,51.86z"/>
					<path class="st4" d="M127.28,60.15c-0.35,0.35-0.7,0.71-1.06,1.07c-0.02-0.43-0.07-0.88-0.05-1.32
						c0.02-0.49-0.09-1.27,0.65-1.14C127.37,58.87,127.21,59.64,127.28,60.15z"/>
					<path class="st4" d="M131.61,137.22c-0.13-1.87,2.68-2.21,2.2-4.27c0.5-0.41,1.01-0.83,1.5-1.24l0.1,0.08
						c-0.19,1.35,0.55,1.58,1.73,1.73c4.05,0.53,8.07,0.16,12.11,0.07c0.7-0.02,1.41,0,2.45,0c-1.18,2.22-3.29,3.7-3.23,6.22
						c-0.22,1.01-1.68,1.04-1.71,2.19v0.09c-0.12,0.2-0.24,0.41-0.37,0.61c-0.25,0.51-0.5,1.04-0.75,1.55
						c-0.43,0-0.82,0.11-1.03,0.54c-0.69-0.27-1.36-0.64-2.14-0.44c0.2-1.78-1.69-1.96-2.53-2.79c-0.95-0.94-2.06-1.41-1.95-2.99
						c0.04-0.52-0.46-0.84-0.93-0.75c-1.18,0.21-1.94,0.22-2.72-1.12C133.63,135.47,132.71,137.81,131.61,137.22z"/>
					<path class="st2" d="M146.77,142.02c0.03-1.15,1.49-1.19,1.71-2.19c1.14,0.51,2.07-0.21,3.08-0.51
						c1.03,0.25,1.52-0.69,2.3-1.01c2.91,1.85,6.23,0.25,9.25,1.09c2.05,0.82,3.65,2.02,3.83,4.45c0.03,0.17-0.02,0.31-0.14,0.43
						c-1.06,0.2-2.26-0.42-3.17,0.58c-2.89,0.55-5.77-1.34-8.65-0.01c0,0-0.13-0.12-0.12-0.12c0.26-1.93-2.24-1.83-2.28-1.8
						C150.27,144.72,148.6,142.86,146.77,142.02z"/>
					<path class="st3" d="M140.91,122.59c0.31-0.16,0.61-0.32,0.92-0.47c4.03-0.32,6.12,2.99,9.01,4.82
						c0.74,0.47,1.39,1.16,1.49,2.14c-1.29,0.24-2.58,0.47-3.87,0.71c1.48,0.11,2.99,0.94,4.33-0.16c0.31,0.02,0.63,0.05,0.95,0.07
						c0,1.1-0.77,1.32-1.62,1.32c-3.74,0.03-7.48,0.03-11.22,0.04c0.34-0.13,0.69-0.25,1.04-0.38c0.36,0,0.71-0.01,1.08-0.01
						l0.26,0.01l0.26-0.03c0.42-0.08,1.22-0.17,1.21-0.24c-0.04-1.13-1.49-1.23-1.71-2.26c-2.02,0.74-2.65-0.77-3.52-2.05
						c-0.26-0.38-1.09-0.38-1.78-0.6c0.58-1.27,1.87-1.5,2.59-2.36C140.5,122.96,140.7,122.77,140.91,122.59z"/>
					<path class="st4" d="M166.94,143.84c-0.17-2.43-1.77-3.63-3.83-4.45c-2.59-3.84-7.33-4.39-9.25-1.09
						c-0.78,0.31-1.27,1.26-2.3,1.01c0.59-1.76,2.47-2.79,2.65-4.84c0.08-0.96,1.16-0.48,1.8-0.55c2.64-0.26,5.02,1.15,7.62,1.19
						c-0.02,0.8,0.04,1.54,1.12,1.56c0.17,0.19,0.35,0.38,0.52,0.57c0.1,1.12,0.67,1.66,1.82,1.5c0.47,0,0.94,0,1.41,0
						C168.63,140.63,168.38,142.42,166.94,143.84z"/>
					<path class="st3" d="M135.33,129.67c1.13-0.14,1.19,0.56,1.12,1.39c-0.18,0.46-0.49,0.75-1.03,0.73l-0.1-0.08
						C135.32,131.04,135.32,130.35,135.33,129.67z"/>
					<path class="st2" d="M164.76,136.65c-1.08-0.02-1.14-0.75-1.12-1.56c0.17-0.07,0.34-0.14,0.51-0.22
						C165.4,135.12,164.82,135.98,164.76,136.65z"/>
					<path class="st3" d="M137.73,130.83c0.25,0,0.5,0,0.74,0C138.22,130.83,137.98,130.83,137.73,130.83z"/>
					<path class="st4" d="M53.29,72.58c0.89-0.01,1.46,0.43,1.85,1.28c-1,0.62-2.22,1.04-2.42,2.44c-3.58,1.91-6.36,4.62-8.16,8.27
						c-0.51,1.05-0.91,2.16-2.1,2.66c-0.41-0.52-1.15-1-0.45-1.76c1.81-1.99,2.48-4.43,2.76-7.02c2.07,0.42,3.74-0.06,4.75-2.07
						l0.07-0.06C51.29,75.54,52.42,74.2,53.29,72.58z"/>
					<path class="st5" d="M53.29,72.58c-0.86,1.61-1.99,2.96-3.7,3.73c-0.06-0.22-0.11-0.44-0.17-0.66c-0.1,0.06-0.2,0.12-0.29,0.18
						c0.13,0.18,0.26,0.35,0.4,0.53c-1.01,2.01-2.68,2.5-4.75,2.07c-0.08-0.52-0.15-1.05-0.23-1.57c2.03-1.8,4.06-3.59,6.09-5.4
						C51.25,72.47,52.23,72.63,53.29,72.58z"/>
					<path class="st4" d="M50.62,71.49c-2.03,1.8-4.06,3.59-6.09,5.4c-1.88-0.69-0.45-1.8,0-2.13c1.74-1.27,3.11-2.91,4.71-4.31
						c0.74-0.65,1.59-1.09,1.88,0.44C50.96,71.09,50.79,71.29,50.62,71.49z"/>
					<path class="st3" d="M40.32,76.87c0.35-0.17,0.71-0.33,1.07-0.5c1.1,2.87,0.43,5.56-0.86,8.18c-0.08-1.14-0.16-2.28-0.25-3.42
						C40.3,79.71,40.31,78.29,40.32,76.87z"/>
					<path class="st5" d="M40.29,81.13c0.08,1.14,0.16,2.28,0.25,3.42c-0.01,0.52-0.03,1.04-0.04,1.56
						c-0.27,0.27-0.55,0.54-0.83,0.81C38.67,84.86,38.81,82.92,40.29,81.13z"/>
					<path class="st4" d="M124.43,84.79c0.2,1.68-1.62,1.94-2.21,3.14c-1.42,2.84-2.12,5.8-2.41,8.91
						c-0.11,1.26,1.28,1.67,1.46,2.76c-1.47-0.02-2.94-0.03-4.41-0.05c0.02-0.43-0.13-0.75-0.54-0.93
						c-0.57-1.77-1.15-3.54-1.72-5.31c0.98-0.95,0.82-1.7-0.39-2.27C117.04,88.04,120.85,86.61,124.43,84.79z"/>
					<path class="st4" d="M169,151.33c-0.2-0.21-0.39-0.42-0.59-0.63c0.12-0.81,0.28-1.58,1.04-2.07c0.9-0.07,1.79-0.14,2.7-0.21
						c1.92,0.21,3.94-0.09,5.72,0.95c0.66,0.64,1.1-0.1,1.62-0.28c2.14,1.22,4.12,3.14,6.93,1.72c-0.04,3.91-2.96,3.22-5.36,3.36
						c0.07-0.88-0.21-1.46-1.01-1.99c-1.75-1.17-3.73-1.73-5.68-2.3c-0.65-0.19-2.64-1.39-2.43,1.44
						C172.02,152.45,170.04,151.69,169,151.33z"/>
					<path class="st4" d="M198.47,161.75c-1.96-2.88-6.82-3.66-9.25-1.47c-0.64,0.58-1.27,1.3-1.68-0.18
						c-0.26-2.64,0.83-3.73,3.52-3.23c1.74,0.32,3.56,0.28,5.28,0.67c1.16,0.26,2.09,0.04,3.08-0.42c0.44,2.07,2.26,2.35,3.85,2.94
						C202.03,161.64,200.02,161.02,198.47,161.75z"/>
					<path class="st2" d="M40.29,81.13c-1.48,1.79-1.62,3.72-0.62,5.79c0.09,0.54,0.05,1.15,0.69,1.43
						c-0.13,1.01,0.27,2.11-0.72,3.36c-2.21-4.58-2.69-8.87-0.59-13.3c0.17-0.36,1.07-1.51,1.29-1.54
						C40.31,78.29,40.3,79.71,40.29,81.13z"/>
					<path class="st4" d="M128.32,65.12c-0.09,0.13-0.19,0.24-0.32,0.33C128.11,65.34,128.22,65.23,128.32,65.12z"/>
					<path class="st4" d="M128.87,64.46c-0.13,0.16-0.26,0.32-0.39,0.48C128.62,64.78,128.75,64.62,128.87,64.46z"/>
					<path class="st6" d="M169.45,148.63c-0.75,0.48-0.92,1.27-1.04,2.07c-0.95,0.09-1.9,0.18-2.85,0.27
						c0.64-2.74-0.38-3.73-3.18-3.42c-2.14,0.24-4.27-0.32-6.38-0.82c-1.28-0.3-1.15-1.02-1.02-1.89c2.89-1.33,5.77,0.56,8.65,0.01
						c1.15,0.3,2.41,1.22,3.17-0.58c0.12-0.12,0.16-0.26,0.14-0.43c1.44-1.42,1.69-3.21,1.58-5.11c0.39-0.35,0.78-0.7,1.17-1.07
						c1.29,0.52,1.33,2.03,2.24,2.85c-0.26,0.95-0.43,1.93-0.81,2.84c-0.8,1.92-0.14,2.49,1.84,2.6c2.4,0.13,4.78,0.64,7.17,1
						c-0.21,0.66-0.41,1.34-0.62,2c-0.59-0.07-1.21-0.18-1.64,0.41c-1.79-1.04-3.79-0.73-5.72-0.95
						C171.21,148.11,170.21,146.87,169.45,148.63z"/>
					<path class="st4" d="M180.12,146.95c-2.39-0.35-4.76-0.87-7.17-1c-1.98-0.1-2.64-0.67-1.84-2.6c0.37-0.91,0.54-1.89,0.81-2.84
						c3,1.53,5.1,4.46,8.49,5.4C180.31,146.26,180.22,146.61,180.12,146.95z"/>
					<path class="st6" d="M177.85,149.37c0.43-0.59,1.04-0.48,1.64-0.41l-0.02,0.14C178.95,149.27,178.53,150,177.85,149.37z"/>
					<path class="st5" d="M137.33,62.73c-0.15-0.08-0.29-0.16-0.44-0.24c0.16-0.08,0.31-0.21,0.47-0.21c0.15,0,0.29,0.15,0.44,0.24
						C137.64,62.59,137.49,62.66,137.33,62.73z"/>
					<path class="st5" d="M139.35,62.67c-0.1,0.24-0.19,0.47-0.29,0.71c-0.09-0.07-0.18-0.15-0.27-0.22
						c0.17-0.19,0.33-0.37,0.5-0.56C139.29,62.61,139.35,62.67,139.35,62.67z"/>
					<path class="st2" d="M98.98,47.05c0.37,0.6,0.99,0.5,1.56,0.52c0.18,0.57-0.25,1.37,0.61,1.7c-0.01,0.54,0.03,1.09-0.04,1.63
						c-0.14,1.1-0.74,2-1.87,1.94c-1.18-0.07-0.63-1.26-0.84-1.97c-0.12-0.41-0.37-0.79-0.55-1.17c0.29-1.16-0.35-1.81-1.32-2.34
						C97.34,46.89,98.11,46.61,98.98,47.05z"/>
					<path class="st3" d="M156.01,124.71c-0.18-0.07-0.36-0.13-0.54-0.19c0.2-0.08,0.41-0.16,0.61-0.24
						C156.07,124.41,156.04,124.56,156.01,124.71z"/>
					<path class="st2" d="M167.1,138.74c-1.15,0.15-1.72-0.38-1.82-1.5C166.34,137.19,166.79,137.87,167.1,138.74z"/>
					<polygon class="st3" points="153.53,123.2 153.5,123.19 153.57,122.96 					"/>
					<path class="st6" d="M198.47,161.75c1.54-0.72,3.56-0.11,4.8-1.69c0.56,0.04,1.05-0.09,1.34-0.62
						c1.63-0.19,2.92,0.01,2.52,2.16c-0.35,1.13-1.4,1.34-2.3,1.63c-3.45,1.11-6.66,2.79-9.95,4.27c-2.69,1.21-4.08,0.68-4.36-1.72
						c-0.01-0.14,0.03-0.25,0.1-0.33c2.31-0.85,4.75-1.39,6.72-3c0.43-0.16,0.95-0.21,1.13-0.75L198.47,161.75z"/>
					<path class="st5" d="M191.32,152.56c-0.26-0.17-0.52-0.34-0.78-0.51c0.17-0.18,0.31-0.47,0.5-0.51
						c0.7-0.13,0.83,0.38,0.87,0.93C191.72,152.49,191.52,152.52,191.32,152.56z"/>
					<path class="st5" d="M95.66,79.05c-1.37,0.87-2.65,1.89-4.28,2.28c-1.98-0.9-3.93-1.92-4.73-4.11
						c-1.02-2.77,0.06-4.86,3.01-6.22c0.04,0.52,0.07,1.05,0.11,1.57c-0.29,0.42-0.58,0.85-1.35,1.97c2.24-0.99,3.9-1,5.53-0.42
						c1.42,1.25-0.36,2.57,0.08,3.84c-1.19,0.57-2.5,0.64-4.41,0.75c2.16,1.05,3.57,1.37,4.53-0.63c1.93,0.14,0.87-2.57,2.54-2.67
						C96.98,76.79,96.67,78.02,95.66,79.05z"/>
					<path class="st5" d="M104.31,72.66c0.12,0.51,0.21,1.03,0.36,1.53c0.62,2.07,1,3.94-2.28,3.42c-0.58-0.09-0.61,0.5-0.7,0.93
						c-0.5-0.02-1-0.04-1.49-0.06c-1.18-1.37-1.75-3.05-2.2-4.72c-0.71-2.7,0.99-5.8,3.14-6.01c0.13,1.37,1.16,1.53,2.21,1.65
						c-0.83,0.78-1.88,0.26-2.8,0.47c-0.43,0.1-1.21-0.25-1.11,0.65c0.07,0.61,0.49,0.67,1.12,0.75
						C101.87,71.43,103.62,70.69,104.31,72.66z"/>
					<path class="st6" d="M103.34,69.37c-1.06-0.12-2.08-0.28-2.21-1.65c0.2-0.13,0.4-0.26,0.6-0.39c4.3-0.66,6.15,0.38,8.19,4.63
						c0.21,0.73,0.42,1.46,0.63,2.19c-0.1,0.09-0.15,0.19-0.14,0.32c-1.7,0.67-1.07-2.17-2.62-1.73c-0.9-1.12-1.57-2.5-3.22-2.72
						C104.4,69.37,103.91,69.3,103.34,69.37z"/>
					<path class="st3" d="M89.78,72.57c-0.04-0.52-0.07-1.05-0.11-1.57c2.07-2.3,4.31-0.34,6.2,0.13c1.91,0.47,0.61,2.78,0.83,4.26
						c-1.67,0.11-0.59,2.82-2.54,2.67l-0.12-0.12c-0.44-1.27,1.34-2.59-0.08-3.84C93.02,72.39,91.67,71.77,89.78,72.57z"/>
					<path class="st4" d="M109.21,93.77c0.03,0.72,0.06,1.44,0.09,2.16c-0.65-0.08-1.56,0.15-1.54-0.94
						C107.79,94.15,108.44,93.84,109.21,93.77z"/>
					<path class="st3" d="M56.05,90.49c-0.54,0-1.1,0-1.64,0c0.08-0.56,0.21-1.09,0.95-1C55.93,89.58,55.98,90.06,56.05,90.49z"/>
					<path class="st3" d="M55.51,76.91c-0.18,0.4-0.37,0.38-0.56,0.01c0,0,0.03-0.04,0.04-0.04c0.17,0,0.34,0.01,0.51,0.01
						L55.51,76.91z"/>
					<path class="st3" d="M55.5,76.9c0.04-0.07,0.09-0.15,0.13-0.22c-0.04,0.08-0.08,0.16-0.12,0.24
						C55.51,76.91,55.5,76.9,55.5,76.9z"/>
					<path class="st4" d="M154.97,144.84c-0.13,0.88-0.26,1.59,1.02,1.89c2.11,0.49,4.24,1.06,6.38,0.82
						c2.8-0.31,3.84,0.68,3.18,3.42c-1.23,1.58-2.05,3.35-2.6,5.27c-0.13,0.13-0.26,0.26-0.39,0.39c-1.46,0.61-2.56-0.38-3.77-0.85
						c-1.1-1.35-2.92-1.49-4.25-2.61c-0.93-0.78-0.93-2.75-2.77-2.42c-0.31-0.7-1.22-1.08-1.12-2.01c1.4-1.35,2.8-2.69,4.2-4.04
						L154.97,144.84z"/>
					<path class="st5" d="M142.48,144.37c0.79-0.2,1.46,0.18,2.14,0.44c0.43,0.95,1.25,1.14,2.18,1.1l-0.02-0.02
						c0.18,0.18,0.37,0.37,0.55,0.55l-0.01-0.01c0.74,3.39-0.68,4.78-4.1,3.74c-1.33-0.4-1.31,0.23-1.41,1.08
						c-2.59-1.68-2.77-2.92-0.69-4.96C141.71,145.74,142.5,145.33,142.48,144.37z"/>
					<path class="st5" d="M158.79,155.79c1.22,0.46,2.33,1.45,3.77,0.85c0.62,1.02,1.59,1.28,2.7,1.22c0,0,0.03,0.03,0.04,0.03
						c-0.02,1.74,0.4,3.8-2.09,4.2c-2.9,0.45-3.91-0.33-4.55-3.17C159.78,157.92,158.87,156.84,158.79,155.79z"/>
					<path class="st3" d="M141.85,151.27c0.09-0.85,0.08-1.48,1.41-1.08c3.4,1.05,4.84-0.34,4.1-3.74c1.56,0.12,1.95,1.9,3.31,2.31
						c-0.11,0.94,0.8,1.31,1.12,2.01c-1.85,0.26-3.5,0.89-5.16,1.87C144.9,153.65,143.18,152.63,141.85,151.27z"/>
					<path class="st4" d="M108.1,124.09c-0.36-1.57-0.72-3.13-1.09-4.7c0.08-0.07,0.15-0.15,0.23-0.23
						c1.65,1.43,2.17,3.08,1.03,5.06C108.29,124.23,108.1,124.09,108.1,124.09z"/>
					<path class="st5" d="M105.2,118.24c0.16,0.09,0.34,0.18,0.52,0.28c-0.15,0.06-0.3,0.16-0.44,0.16c-0.15,0-0.3-0.1-0.45-0.16
						C104.92,118.44,105.03,118.35,105.2,118.24z"/>
					<path class="st4" d="M107.03,119.39c-0.12-0.12-0.36-0.33-0.35-0.35c0.26-0.36,0.42-0.11,0.57,0.12
						C107.18,119.24,107.1,119.31,107.03,119.39z"/>
					<path class="st4" d="M70.18,137.59c-0.19,0.01-0.37,0.02-0.56,0.03c0.14-0.33-0.22-0.85,0.37-1.02
						C70.05,136.94,70.11,137.26,70.18,137.59z"/>
					<path class="st3" d="M100.82,95.01c-0.79-1.19,0.54-0.84,0.81-0.91c2.14-0.55,3.8,0.26,4.61,2.26c0.85,2.1,0.05,3.75-2.2,5.2
						c0.15-2.01,2.27-3.88-0.32-5.18C103.02,95.34,102.12,94.77,100.82,95.01z"/>
					<path class="st7" d="M100.82,95.01c1.3-0.24,2.2,0.33,2.88,1.39c-1.19-0.41-2.4-0.27-3.59-0.06
						C99.85,95.58,100.73,95.52,100.82,95.01z"/>
					<path class="st3" d="M103.16,101.61c-0.9,0.35-1.47,0.39-2.1,0.03C101.68,101.13,102.29,101.27,103.16,101.61z"/>
					<path class="st3" d="M127.77,138.84c-1.46,1.82-3.13,1.63-4.93,0.26c1.75,0.92,3.31-0.04,4.94-0.24L127.77,138.84z"/>
					<path class="st3" d="M127.78,138.86c0.03-0.07,0.06-0.14,0.1-0.21c-0.04,0.06-0.07,0.13-0.11,0.19L127.78,138.86z"/>
					<path class="st6" d="M189.06,164.28c-0.33,0.82-1.03,1.15-1.82,1.34c-1.21-0.65-0.24-1.54-0.24-2.32
						c0.18-0.08,0.35-0.16,0.53-0.23c0.36,0.02,0.71,0.04,1.08,0.07C188.76,163.52,188.91,163.89,189.06,164.28z"/>
					<path class="st2" d="M187,163.31c0,0.78-0.98,1.66,0.24,2.32c-0.67,1.61-1.33,0.65-1.98-0.02
						C185.2,164.35,185.91,163.68,187,163.31z"/>
					<path class="st2" d="M188.61,163.14c-0.36-0.02-0.71-0.04-1.08-0.07c0.19-0.22,0.37-0.6,0.59-0.62
						C188.52,162.39,188.57,162.81,188.61,163.14z"/>
					<path class="st4" d="M198.48,161.69c-0.18,0.54-0.68,0.59-1.13,0.75C197.48,161.83,197.93,161.69,198.48,161.69z"/>
					<path class="st3" d="M165.26,157.85c-1.11,0.06-2.07-0.2-2.7-1.22c0.13-0.13,0.26-0.26,0.39-0.39
						C163.84,156.62,164.71,157,165.26,157.85z"/>
					<path class="st3" d="M114.2,91.04c1.21,0.57,1.37,1.33,0.39,2.27c-1.5-0.32-3.92,1.72-4.22-1.65c0.18-0.49,0.6-0.6,1.06-0.65
						C112.34,91.7,113.27,91.75,114.2,91.04z"/>
					<path class="st5" d="M135.33,129.67c0,0.68-0.01,1.36-0.01,2.04c-0.5,0.41-1.01,0.83-1.51,1.24c-0.77,0.25-1.71,0.99-1.78-0.65
						c-0.02-0.9-0.04-1.79-0.06-2.69c0.95,0.01,1.89,0.03,2.84,0.04C134.99,129.66,135.16,129.66,135.33,129.67z"/>
					<path class="st2" d="M131.98,129.61c0.02,0.9,0.04,1.79,0.06,2.69c-1.21,0.08-2.33-0.27-2.15-1.62
						C129.97,129.99,130.59,128.59,131.98,129.61z"/>
					<path class="st2" d="M167.97,162.76c-0.07-0.04-0.15-0.09-0.22-0.13c0.08,0.04,0.17,0.07,0.25,0.11
						C168,162.74,167.97,162.76,167.97,162.76z"/>
					<path class="st2" d="M119.07,73.73c0.05,1.1-0.12,1.89-1.46,1.04c0.01-2.03-0.69-3.28-3.02-2.78
						c-0.29,0.03-0.58,0.05-0.88,0.08c-2.64-2.8-6.29-4.75-7.51-8.75c-0.24-0.79-0.52-1.33-1.27-1.85c-0.79-0.55,0.1-0.73,0.57-0.88
						c0.13,0.12,0.24,0.29,0.4,0.35c1.68,0.6,4.08-0.67,5.07,1.04c0.81,1.39,0.46,3.43,0.66,5.44c2.66-1.16,5.33-1.51,8.09-1.44
						c1.09,0.03,1.92,0.27,2.6,1.1c0.51,1.19,1.04,2.37,1.15,3.68c-0.74-0.08-0.62,2.02-1.24,0.92c-0.88-1.6-1.75-1.19-2.8-0.74
						C117.88,71.63,119.27,72.81,119.07,73.73z"/>
					<path class="st6" d="M114.59,71.99c2.33-0.5,3.03,0.74,3.02,2.78c-1.43,0.64-2.81,1.52-4.5,1.13l-0.1-0.05
						c-0.37-0.55-0.73-1.11-1.11-1.65c-0.59-0.84-0.02-1.25,0.59-1.66c0.21-0.01,0.43-0.02,0.64-0.03c0.05,0.35,0.05,0.71,0.16,1.05
						c0.29,0.86,0.7,1.88,1.81,1.31c1.21-0.63,0.38-1.47-0.12-2.19C114.85,72.45,114.73,72.22,114.59,71.99z"/>
					<path class="st3" d="M114.59,71.99c0.13,0.22,0.26,0.46,0.41,0.67c0.5,0.71,1.33,1.56,0.12,2.19
						c-1.11,0.58-1.52-0.45-1.81-1.31c-0.11-0.33-0.11-0.69-0.16-1.05c0.19-0.14,0.37-0.29,0.56-0.43
						C114,72.05,114.29,72.02,114.59,71.99z"/>
					<path class="st3" d="M112.49,72.53c-0.61,0.4-1.19,0.83-0.59,1.66c-0.32,0.02-0.64,0.03-0.97,0.05
						c-0.13-0.03-0.25-0.06-0.38-0.09c-0.21-0.73-0.42-1.46-0.63-2.19C110.78,72.15,111.64,72.34,112.49,72.53z"/>
					<path class="st2" d="M152.78,129.63c-1.34,1.1-2.85,0.27-4.33,0.16c1.29-0.24,2.58-0.47,3.87-0.71
						C152.47,129.27,152.63,129.45,152.78,129.63z"/>
					<path class="st4" d="M140.91,122.59c-0.2,0.18-0.4,0.37-0.6,0.55c0.01-0.18,0.01-0.37,0.02-0.55
						C140.52,122.59,140.71,122.59,140.91,122.59z"/>
					<path class="st4" d="M143.52,130.67l-0.26,0.03l-0.26-0.01C143.16,130.4,143.33,130.37,143.52,130.67z"/>
					<path class="st2" d="M110.55,74.16c0.13,0.04,0.25,0.07,0.38,0.09c0.08,1.32,0.97,1.61,2.07,1.6l0.1,0.05
						c0.78,1.8,2.01,0.88,3.13,0.51c2.22-0.72,4.5-1.1,6.82-1.12c0.65-0.01,1.3,0.09,1.38,0.94c0.07,0.78-0.35,1.21-1.11,1.19
						c-4.32-0.13-8.71,1.13-12.95-0.6c0.01-0.78,0.02-1.56,0.03-2.34C110.4,74.35,110.45,74.25,110.55,74.16z"/>
					<path class="st6" d="M119.07,73.73c0.2-0.93-1.19-2.1,0.36-2.78c1.04-0.45,1.91-0.87,2.8,0.74c0.6,1.11,0.49-1,1.24-0.92
						c0.68,0.92,1.68,1.88,1,3.04c-0.63,1.07-1.95,0.38-2.94,0.42C120.71,74.28,119.8,74.29,119.07,73.73z"/>
					<path class="st3" d="M110.41,74.49c-0.01,0.78-0.02,1.56-0.03,2.34c-0.35,0.04-0.71,0.07-1.07,0.11
						c-0.52-1.39-1.46-2.63-1.53-4.18C109.33,72.3,108.71,75.15,110.41,74.49z"/>
					<path class="st6" d="M114.2,91.04c-0.94,0.71-1.85,0.66-2.77-0.03c-0.24-2.84,2.17-3.86,3.88-5.08
						c1.75-1.26,3.97-1.87,5.99-2.76c1.08,0.51,2.92-0.93,3.31,1.31c-0.11,0.08-0.17,0.19-0.17,0.32
						C120.85,86.61,117.04,88.04,114.2,91.04z"/>
					<path class="st3" d="M103.34,69.37c0.56-0.07,1.06-0.01,1.22,0.66c-0.08,0.87-0.16,1.74-0.25,2.61
						c-0.68-1.95-2.44-1.22-3.76-1.38c-0.63-0.08-1.05-0.14-1.12-0.75c-0.1-0.91,0.68-0.56,1.11-0.65
						C101.46,69.65,102.52,70.16,103.34,69.37z"/>
					<path class="st2" d="M123.71,98.68c0.14,0.08,0.27,0.15,0.41,0.23c-0.13,0.08-0.26,0.21-0.4,0.22c-0.13,0-0.27-0.13-0.41-0.2
						C123.43,98.85,123.57,98.76,123.71,98.68z"/>
					<path class="st5" d="M150.65,148.76c-1.36-0.4-1.75-2.18-3.31-2.31l0.01,0.01c-0.18-0.18-0.37-0.37-0.55-0.55l0.02,0.02
						c-0.08-0.77-0.46-1.31-1.16-1.64c0.25-0.51,0.5-1.04,0.75-1.55c0.12-0.2,0.24-0.41,0.37-0.61v-0.09
						c1.82,0.85,3.49,2.7,5.79,0.91c0.04-0.03,2.55-0.13,2.28,1.8C153.45,146.07,152.05,147.41,150.65,148.76z"/>
					<path class="st3" d="M145.65,144.27c0.68,0.33,1.08,0.88,1.16,1.64c-0.94,0.04-1.74-0.15-2.18-1.1
						C144.83,144.39,145.22,144.28,145.65,144.27z"/>
					<path class="st3" d="M146.78,142.11c-0.12,0.2-0.25,0.41-0.37,0.61C146.53,142.52,146.66,142.32,146.78,142.11z"/>
					<path class="st3" d="M153.86,138.31c1.92-3.3,6.66-2.75,9.25,1.09C160.08,138.55,156.77,140.16,153.86,138.31z"/>
					<path class="st6" d="M166.8,144.27c-0.77,1.79-2.02,0.89-3.17,0.58C164.53,143.85,165.74,144.47,166.8,144.27z"/>
					<path class="st4" d="M49.51,76.37c-0.13-0.18-0.26-0.35-0.4-0.53c0.1-0.06,0.2-0.12,0.29-0.18c0.06,0.22,0.11,0.44,0.17,0.66
						C49.58,76.32,49.51,76.37,49.51,76.37z"/>
					<path class="st6" d="M169.45,148.63c0.77-1.75,1.77-0.51,2.7-0.21C171.24,148.49,170.34,148.56,169.45,148.63z"/>
					<path class="st7" d="M89.78,72.57c1.88-0.81,3.23-0.18,4.18,1.54c-1.63-0.57-3.28-0.56-5.53,0.42
						C89.2,73.42,89.49,73,89.78,72.57z"/>
					<path class="st3" d="M94.16,78.07c-0.96,1.99-2.37,1.68-4.53,0.63c1.91-0.1,3.21-0.18,4.41-0.75L94.16,78.07z"/>
					<path class="st3" d="M146.79,145.9c0.18,0.18,0.37,0.37,0.55,0.55C147.16,146.28,146.98,146.09,146.79,145.9z"/>
					<path class="st4" d="M113.01,75.86c-1.11,0-1.99-0.28-2.07-1.6c0.32-0.02,0.64-0.03,0.97-0.05
						C112.27,74.75,112.64,75.3,113.01,75.86z"/>
					<path class="st6" d="M115.26,82.29c0,0,3.92-0.4,4.89,0l0.07-2.39h-4.51L115.26,82.29z"/>
					<path class="st6" d="M127.2,82.81c0,0,3.08,0.16,5.95,1.42c2.87,1.26,3.86,1.89,4.95,2.93l0.96-2.05l-5.93-3.18l-6.41-1.81
						L127.2,82.81z"/>
					<polygon class="st6" points="122.14,85.91 125.52,84.26 123.71,82.37 					"/>
					<path class="st6" d="M130.27,103.53c0,0-4.27,1.85-5.83,2.52c-1.56,0.67,0.25,1.25,0.25,1.25l6.92-2.84L130.27,103.53z"/>
				</g>
			</g>
			<path class="st6" d="M81.7,157.1c0,0,8.62-15.48,18-21.41c0,0,21.15,6.35,33.18,13.77c12.03,7.42,47.84,30.7,47.84,30.7
				s-7.48,4.01-33.29,2.13C121.62,180.42,94.23,168.05,81.7,157.1z"/>
			<path class="st6" d="M44.02,106.04c0,0,3.14,16.55,18.23,18.21c15.09,1.67,28.3-4.29,28.3-4.29s4.67-5.08,2.51-15.68
				c-2.15-10.6-2.53-13.31-4.52-15.66c-1.99-2.36-6.34-8.75-19.39-4.4C56.11,88.57,42.95,99.47,44.02,106.04z"/>
		</g>
		<g>
			<text transform="matrix(1 0 0 1 197.1498 79.6477)" class="st8 st9 st10 st11">E</text>
		</g>
	</g>
</g>
</svg>
